<?xml version="1.0" encoding="utf-8" standalone="no"?>
<!DOCTYPE svg PUBLIC "-//W3C//DTD SVG 1.1//EN"
  "http://www.w3.org/Graphics/SVG/1.1/DTD/svg11.dtd">
<svg xmlns:xlink="http://www.w3.org/1999/xlink" width="513.270097pt" height="234.111254pt" viewBox="0 0 513.270097 234.111254" xmlns="http://www.w3.org/2000/svg" version="1.1">
 <metadata>
  <rdf:RDF xmlns:dc="http://purl.org/dc/elements/1.1/" xmlns:cc="http://creativecommons.org/ns#" xmlns:rdf="http://www.w3.org/1999/02/22-rdf-syntax-ns#">
   <cc:Work>
    <dc:type rdf:resource="http://purl.org/dc/dcmitype/StillImage"/>
    <dc:date>2026-01-09T12:21:11.377979</dc:date>
    <dc:format>image/svg+xml</dc:format>
    <dc:creator>
     <cc:Agent>
      <dc:title>Matplotlib v3.10.6, https://matplotlib.org/</dc:title>
     </cc:Agent>
    </dc:creator>
   </cc:Work>
  </rdf:RDF>
 </metadata>
 <defs>
  <style type="text/css">*{stroke-linejoin: round; stroke-linecap: butt}</style>
 </defs>
 <g id="figure_1">
  <g id="patch_1">
   <path d="M -0 234.111254 
L 513.270097 234.111254 
L 513.270097 0 
L -0 0 
L -0 234.111254 
z
" style="fill: none"/>
  </g>
  <g id="axes_1">
   <g id="patch_2">
    <path d="M 37.478107 202.940472 
L 254.716986 202.940472 
L 254.716986 27.371339 
L 37.478107 27.371339 
L 37.478107 202.940472 
z
" style="fill: none"/>
   </g>
   <g id="matplotlib.axis_1">
    <g id="xtick_1">
     <g id="line2d_1">
      <path d="M 47.352601 202.940472 
L 47.352601 27.371339 
" clip-path="url(#paaaece5b11)" style="fill: none; stroke: #cccccc; stroke-width: 0.8; stroke-linecap: round"/>
     </g>
     <g id="text_1">
      <!-- 0.5 -->
      <g style="fill: #262626" transform="translate(42.487601 214.950941) scale(0.07 -0.07)">
       <defs>
        <path id="ArialMT-30" d="M 266 2259 
Q 266 3072 433 3567 
Q 600 4063 929 4331 
Q 1259 4600 1759 4600 
Q 2128 4600 2406 4451 
Q 2684 4303 2865 4023 
Q 3047 3744 3150 3342 
Q 3253 2941 3253 2259 
Q 3253 1453 3087 958 
Q 2922 463 2592 192 
Q 2263 -78 1759 -78 
Q 1097 -78 719 397 
Q 266 969 266 2259 
z
M 844 2259 
Q 844 1131 1108 757 
Q 1372 384 1759 384 
Q 2147 384 2411 759 
Q 2675 1134 2675 2259 
Q 2675 3391 2411 3762 
Q 2147 4134 1753 4134 
Q 1366 4134 1134 3806 
Q 844 3388 844 2259 
z
" transform="scale(0.015625)"/>
        <path id="ArialMT-2e" d="M 581 0 
L 581 641 
L 1222 641 
L 1222 0 
L 581 0 
z
" transform="scale(0.015625)"/>
        <path id="ArialMT-35" d="M 266 1200 
L 856 1250 
Q 922 819 1161 601 
Q 1400 384 1738 384 
Q 2144 384 2425 690 
Q 2706 997 2706 1503 
Q 2706 1984 2436 2262 
Q 2166 2541 1728 2541 
Q 1456 2541 1237 2417 
Q 1019 2294 894 2097 
L 366 2166 
L 809 4519 
L 3088 4519 
L 3088 3981 
L 1259 3981 
L 1013 2750 
Q 1425 3038 1878 3038 
Q 2478 3038 2890 2622 
Q 3303 2206 3303 1553 
Q 3303 931 2941 478 
Q 2500 -78 1738 -78 
Q 1113 -78 717 272 
Q 322 622 266 1200 
z
" transform="scale(0.015625)"/>
       </defs>
       <use xlink:href="#ArialMT-30"/>
       <use xlink:href="#ArialMT-2e" transform="translate(55.615234 0)"/>
       <use xlink:href="#ArialMT-35" transform="translate(83.398438 0)"/>
      </g>
     </g>
    </g>
    <g id="xtick_2">
     <g id="line2d_2">
      <path d="M 86.850579 202.940472 
L 86.850579 27.371339 
" clip-path="url(#paaaece5b11)" style="fill: none; stroke: #cccccc; stroke-width: 0.8; stroke-linecap: round"/>
     </g>
     <g id="text_2">
      <!-- 1.0 -->
      <g style="fill: #262626" transform="translate(81.985579 214.950941) scale(0.07 -0.07)">
       <defs>
        <path id="ArialMT-31" d="M 2384 0 
L 1822 0 
L 1822 3584 
Q 1619 3391 1289 3197 
Q 959 3003 697 2906 
L 697 3450 
Q 1169 3672 1522 3987 
Q 1875 4303 2022 4600 
L 2384 4600 
L 2384 0 
z
" transform="scale(0.015625)"/>
       </defs>
       <use xlink:href="#ArialMT-31"/>
       <use xlink:href="#ArialMT-2e" transform="translate(55.615234 0)"/>
       <use xlink:href="#ArialMT-30" transform="translate(83.398438 0)"/>
      </g>
     </g>
    </g>
    <g id="xtick_3">
     <g id="line2d_3">
      <path d="M 126.348558 202.940472 
L 126.348558 27.371339 
" clip-path="url(#paaaece5b11)" style="fill: none; stroke: #cccccc; stroke-width: 0.8; stroke-linecap: round"/>
     </g>
     <g id="text_3">
      <!-- 1.5 -->
      <g style="fill: #262626" transform="translate(121.483558 214.950941) scale(0.07 -0.07)">
       <use xlink:href="#ArialMT-31"/>
       <use xlink:href="#ArialMT-2e" transform="translate(55.615234 0)"/>
       <use xlink:href="#ArialMT-35" transform="translate(83.398438 0)"/>
      </g>
     </g>
    </g>
    <g id="xtick_4">
     <g id="line2d_4">
      <path d="M 165.846536 202.940472 
L 165.846536 27.371339 
" clip-path="url(#paaaece5b11)" style="fill: none; stroke: #cccccc; stroke-width: 0.8; stroke-linecap: round"/>
     </g>
     <g id="text_4">
      <!-- 2.0 -->
      <g style="fill: #262626" transform="translate(160.981536 214.950941) scale(0.07 -0.07)">
       <defs>
        <path id="ArialMT-32" d="M 3222 541 
L 3222 0 
L 194 0 
Q 188 203 259 391 
Q 375 700 629 1000 
Q 884 1300 1366 1694 
Q 2113 2306 2375 2664 
Q 2638 3022 2638 3341 
Q 2638 3675 2398 3904 
Q 2159 4134 1775 4134 
Q 1369 4134 1125 3890 
Q 881 3647 878 3216 
L 300 3275 
Q 359 3922 746 4261 
Q 1134 4600 1788 4600 
Q 2447 4600 2831 4234 
Q 3216 3869 3216 3328 
Q 3216 3053 3103 2787 
Q 2991 2522 2730 2228 
Q 2469 1934 1863 1422 
Q 1356 997 1212 845 
Q 1069 694 975 541 
L 3222 541 
z
" transform="scale(0.015625)"/>
       </defs>
       <use xlink:href="#ArialMT-32"/>
       <use xlink:href="#ArialMT-2e" transform="translate(55.615234 0)"/>
       <use xlink:href="#ArialMT-30" transform="translate(83.398438 0)"/>
      </g>
     </g>
    </g>
    <g id="xtick_5">
     <g id="line2d_5">
      <path d="M 205.344514 202.940472 
L 205.344514 27.371339 
" clip-path="url(#paaaece5b11)" style="fill: none; stroke: #cccccc; stroke-width: 0.8; stroke-linecap: round"/>
     </g>
     <g id="text_5">
      <!-- 2.5 -->
      <g style="fill: #262626" transform="translate(200.479514 214.950941) scale(0.07 -0.07)">
       <use xlink:href="#ArialMT-32"/>
       <use xlink:href="#ArialMT-2e" transform="translate(55.615234 0)"/>
       <use xlink:href="#ArialMT-35" transform="translate(83.398438 0)"/>
      </g>
     </g>
    </g>
    <g id="xtick_6">
     <g id="line2d_6">
      <path d="M 244.842492 202.940472 
L 244.842492 27.371339 
" clip-path="url(#paaaece5b11)" style="fill: none; stroke: #cccccc; stroke-width: 0.8; stroke-linecap: round"/>
     </g>
     <g id="text_6">
      <!-- 3.0 -->
      <g style="fill: #262626" transform="translate(239.977492 214.950941) scale(0.07 -0.07)">
       <defs>
        <path id="ArialMT-33" d="M 269 1209 
L 831 1284 
Q 928 806 1161 595 
Q 1394 384 1728 384 
Q 2125 384 2398 659 
Q 2672 934 2672 1341 
Q 2672 1728 2419 1979 
Q 2166 2231 1775 2231 
Q 1616 2231 1378 2169 
L 1441 2663 
Q 1497 2656 1531 2656 
Q 1891 2656 2178 2843 
Q 2466 3031 2466 3422 
Q 2466 3731 2256 3934 
Q 2047 4138 1716 4138 
Q 1388 4138 1169 3931 
Q 950 3725 888 3313 
L 325 3413 
Q 428 3978 793 4289 
Q 1159 4600 1703 4600 
Q 2078 4600 2393 4439 
Q 2709 4278 2876 4000 
Q 3044 3722 3044 3409 
Q 3044 3113 2884 2869 
Q 2725 2625 2413 2481 
Q 2819 2388 3044 2092 
Q 3269 1797 3269 1353 
Q 3269 753 2831 336 
Q 2394 -81 1725 -81 
Q 1122 -81 723 278 
Q 325 638 269 1209 
z
" transform="scale(0.015625)"/>
       </defs>
       <use xlink:href="#ArialMT-33"/>
       <use xlink:href="#ArialMT-2e" transform="translate(55.615234 0)"/>
       <use xlink:href="#ArialMT-30" transform="translate(83.398438 0)"/>
      </g>
     </g>
    </g>
    <g id="text_7">
     <!-- Normalized Input Power Level (Mean Squared Amplitude) -->
     <g style="fill: #262626" transform="translate(56.806531 225.437972) scale(0.07 -0.07)">
      <defs>
       <path id="ArialMT-4e" d="M 488 0 
L 488 4581 
L 1109 4581 
L 3516 984 
L 3516 4581 
L 4097 4581 
L 4097 0 
L 3475 0 
L 1069 3600 
L 1069 0 
L 488 0 
z
" transform="scale(0.015625)"/>
       <path id="ArialMT-6f" d="M 213 1659 
Q 213 2581 725 3025 
Q 1153 3394 1769 3394 
Q 2453 3394 2887 2945 
Q 3322 2497 3322 1706 
Q 3322 1066 3130 698 
Q 2938 331 2570 128 
Q 2203 -75 1769 -75 
Q 1072 -75 642 372 
Q 213 819 213 1659 
z
M 791 1659 
Q 791 1022 1069 705 
Q 1347 388 1769 388 
Q 2188 388 2466 706 
Q 2744 1025 2744 1678 
Q 2744 2294 2464 2611 
Q 2184 2928 1769 2928 
Q 1347 2928 1069 2612 
Q 791 2297 791 1659 
z
" transform="scale(0.015625)"/>
       <path id="ArialMT-72" d="M 416 0 
L 416 3319 
L 922 3319 
L 922 2816 
Q 1116 3169 1280 3281 
Q 1444 3394 1641 3394 
Q 1925 3394 2219 3213 
L 2025 2691 
Q 1819 2813 1613 2813 
Q 1428 2813 1281 2702 
Q 1134 2591 1072 2394 
Q 978 2094 978 1738 
L 978 0 
L 416 0 
z
" transform="scale(0.015625)"/>
       <path id="ArialMT-6d" d="M 422 0 
L 422 3319 
L 925 3319 
L 925 2853 
Q 1081 3097 1340 3245 
Q 1600 3394 1931 3394 
Q 2300 3394 2536 3241 
Q 2772 3088 2869 2813 
Q 3263 3394 3894 3394 
Q 4388 3394 4653 3120 
Q 4919 2847 4919 2278 
L 4919 0 
L 4359 0 
L 4359 2091 
Q 4359 2428 4304 2576 
Q 4250 2725 4106 2815 
Q 3963 2906 3769 2906 
Q 3419 2906 3187 2673 
Q 2956 2441 2956 1928 
L 2956 0 
L 2394 0 
L 2394 2156 
Q 2394 2531 2256 2718 
Q 2119 2906 1806 2906 
Q 1569 2906 1367 2781 
Q 1166 2656 1075 2415 
Q 984 2175 984 1722 
L 984 0 
L 422 0 
z
" transform="scale(0.015625)"/>
       <path id="ArialMT-61" d="M 2588 409 
Q 2275 144 1986 34 
Q 1697 -75 1366 -75 
Q 819 -75 525 192 
Q 231 459 231 875 
Q 231 1119 342 1320 
Q 453 1522 633 1644 
Q 813 1766 1038 1828 
Q 1203 1872 1538 1913 
Q 2219 1994 2541 2106 
Q 2544 2222 2544 2253 
Q 2544 2597 2384 2738 
Q 2169 2928 1744 2928 
Q 1347 2928 1158 2789 
Q 969 2650 878 2297 
L 328 2372 
Q 403 2725 575 2942 
Q 747 3159 1072 3276 
Q 1397 3394 1825 3394 
Q 2250 3394 2515 3294 
Q 2781 3194 2906 3042 
Q 3031 2891 3081 2659 
Q 3109 2516 3109 2141 
L 3109 1391 
Q 3109 606 3145 398 
Q 3181 191 3288 0 
L 2700 0 
Q 2613 175 2588 409 
z
M 2541 1666 
Q 2234 1541 1622 1453 
Q 1275 1403 1131 1340 
Q 988 1278 909 1158 
Q 831 1038 831 891 
Q 831 666 1001 516 
Q 1172 366 1500 366 
Q 1825 366 2078 508 
Q 2331 650 2450 897 
Q 2541 1088 2541 1459 
L 2541 1666 
z
" transform="scale(0.015625)"/>
       <path id="ArialMT-6c" d="M 409 0 
L 409 4581 
L 972 4581 
L 972 0 
L 409 0 
z
" transform="scale(0.015625)"/>
       <path id="ArialMT-69" d="M 425 3934 
L 425 4581 
L 988 4581 
L 988 3934 
L 425 3934 
z
M 425 0 
L 425 3319 
L 988 3319 
L 988 0 
L 425 0 
z
" transform="scale(0.015625)"/>
       <path id="ArialMT-7a" d="M 125 0 
L 125 456 
L 2238 2881 
Q 1878 2863 1603 2863 
L 250 2863 
L 250 3319 
L 2963 3319 
L 2963 2947 
L 1166 841 
L 819 456 
Q 1197 484 1528 484 
L 3063 484 
L 3063 0 
L 125 0 
z
" transform="scale(0.015625)"/>
       <path id="ArialMT-65" d="M 2694 1069 
L 3275 997 
Q 3138 488 2766 206 
Q 2394 -75 1816 -75 
Q 1088 -75 661 373 
Q 234 822 234 1631 
Q 234 2469 665 2931 
Q 1097 3394 1784 3394 
Q 2450 3394 2872 2941 
Q 3294 2488 3294 1666 
Q 3294 1616 3291 1516 
L 816 1516 
Q 847 969 1125 678 
Q 1403 388 1819 388 
Q 2128 388 2347 550 
Q 2566 713 2694 1069 
z
M 847 1978 
L 2700 1978 
Q 2663 2397 2488 2606 
Q 2219 2931 1791 2931 
Q 1403 2931 1139 2672 
Q 875 2413 847 1978 
z
" transform="scale(0.015625)"/>
       <path id="ArialMT-64" d="M 2575 0 
L 2575 419 
Q 2259 -75 1647 -75 
Q 1250 -75 917 144 
Q 584 363 401 755 
Q 219 1147 219 1656 
Q 219 2153 384 2558 
Q 550 2963 881 3178 
Q 1213 3394 1622 3394 
Q 1922 3394 2156 3267 
Q 2391 3141 2538 2938 
L 2538 4581 
L 3097 4581 
L 3097 0 
L 2575 0 
z
M 797 1656 
Q 797 1019 1065 703 
Q 1334 388 1700 388 
Q 2069 388 2326 689 
Q 2584 991 2584 1609 
Q 2584 2291 2321 2609 
Q 2059 2928 1675 2928 
Q 1300 2928 1048 2622 
Q 797 2316 797 1656 
z
" transform="scale(0.015625)"/>
       <path id="ArialMT-20" transform="scale(0.015625)"/>
       <path id="ArialMT-49" d="M 597 0 
L 597 4581 
L 1203 4581 
L 1203 0 
L 597 0 
z
" transform="scale(0.015625)"/>
       <path id="ArialMT-6e" d="M 422 0 
L 422 3319 
L 928 3319 
L 928 2847 
Q 1294 3394 1984 3394 
Q 2284 3394 2536 3286 
Q 2788 3178 2913 3003 
Q 3038 2828 3088 2588 
Q 3119 2431 3119 2041 
L 3119 0 
L 2556 0 
L 2556 2019 
Q 2556 2363 2490 2533 
Q 2425 2703 2258 2804 
Q 2091 2906 1866 2906 
Q 1506 2906 1245 2678 
Q 984 2450 984 1813 
L 984 0 
L 422 0 
z
" transform="scale(0.015625)"/>
       <path id="ArialMT-70" d="M 422 -1272 
L 422 3319 
L 934 3319 
L 934 2888 
Q 1116 3141 1344 3267 
Q 1572 3394 1897 3394 
Q 2322 3394 2647 3175 
Q 2972 2956 3137 2557 
Q 3303 2159 3303 1684 
Q 3303 1175 3120 767 
Q 2938 359 2589 142 
Q 2241 -75 1856 -75 
Q 1575 -75 1351 44 
Q 1128 163 984 344 
L 984 -1272 
L 422 -1272 
z
M 931 1641 
Q 931 1000 1190 694 
Q 1450 388 1819 388 
Q 2194 388 2461 705 
Q 2728 1022 2728 1688 
Q 2728 2322 2467 2637 
Q 2206 2953 1844 2953 
Q 1484 2953 1207 2617 
Q 931 2281 931 1641 
z
" transform="scale(0.015625)"/>
       <path id="ArialMT-75" d="M 2597 0 
L 2597 488 
Q 2209 -75 1544 -75 
Q 1250 -75 995 37 
Q 741 150 617 320 
Q 494 491 444 738 
Q 409 903 409 1263 
L 409 3319 
L 972 3319 
L 972 1478 
Q 972 1038 1006 884 
Q 1059 663 1231 536 
Q 1403 409 1656 409 
Q 1909 409 2131 539 
Q 2353 669 2445 892 
Q 2538 1116 2538 1541 
L 2538 3319 
L 3100 3319 
L 3100 0 
L 2597 0 
z
" transform="scale(0.015625)"/>
       <path id="ArialMT-74" d="M 1650 503 
L 1731 6 
Q 1494 -44 1306 -44 
Q 1000 -44 831 53 
Q 663 150 594 308 
Q 525 466 525 972 
L 525 2881 
L 113 2881 
L 113 3319 
L 525 3319 
L 525 4141 
L 1084 4478 
L 1084 3319 
L 1650 3319 
L 1650 2881 
L 1084 2881 
L 1084 941 
Q 1084 700 1114 631 
Q 1144 563 1211 522 
Q 1278 481 1403 481 
Q 1497 481 1650 503 
z
" transform="scale(0.015625)"/>
       <path id="ArialMT-50" d="M 494 0 
L 494 4581 
L 2222 4581 
Q 2678 4581 2919 4538 
Q 3256 4481 3484 4323 
Q 3713 4166 3852 3881 
Q 3991 3597 3991 3256 
Q 3991 2672 3619 2267 
Q 3247 1863 2275 1863 
L 1100 1863 
L 1100 0 
L 494 0 
z
M 1100 2403 
L 2284 2403 
Q 2872 2403 3119 2622 
Q 3366 2841 3366 3238 
Q 3366 3525 3220 3729 
Q 3075 3934 2838 4000 
Q 2684 4041 2272 4041 
L 1100 4041 
L 1100 2403 
z
" transform="scale(0.015625)"/>
       <path id="ArialMT-77" d="M 1034 0 
L 19 3319 
L 600 3319 
L 1128 1403 
L 1325 691 
Q 1338 744 1497 1375 
L 2025 3319 
L 2603 3319 
L 3100 1394 
L 3266 759 
L 3456 1400 
L 4025 3319 
L 4572 3319 
L 3534 0 
L 2950 0 
L 2422 1988 
L 2294 2553 
L 1622 0 
L 1034 0 
z
" transform="scale(0.015625)"/>
       <path id="ArialMT-4c" d="M 469 0 
L 469 4581 
L 1075 4581 
L 1075 541 
L 3331 541 
L 3331 0 
L 469 0 
z
" transform="scale(0.015625)"/>
       <path id="ArialMT-76" d="M 1344 0 
L 81 3319 
L 675 3319 
L 1388 1331 
Q 1503 1009 1600 663 
Q 1675 925 1809 1294 
L 2547 3319 
L 3125 3319 
L 1869 0 
L 1344 0 
z
" transform="scale(0.015625)"/>
       <path id="ArialMT-28" d="M 1497 -1347 
Q 1031 -759 709 28 
Q 388 816 388 1659 
Q 388 2403 628 3084 
Q 909 3875 1497 4659 
L 1900 4659 
Q 1522 4009 1400 3731 
Q 1209 3300 1100 2831 
Q 966 2247 966 1656 
Q 966 153 1900 -1347 
L 1497 -1347 
z
" transform="scale(0.015625)"/>
       <path id="ArialMT-4d" d="M 475 0 
L 475 4581 
L 1388 4581 
L 2472 1338 
Q 2622 884 2691 659 
Q 2769 909 2934 1394 
L 4031 4581 
L 4847 4581 
L 4847 0 
L 4263 0 
L 4263 3834 
L 2931 0 
L 2384 0 
L 1059 3900 
L 1059 0 
L 475 0 
z
" transform="scale(0.015625)"/>
       <path id="ArialMT-53" d="M 288 1472 
L 859 1522 
Q 900 1178 1048 958 
Q 1197 738 1509 602 
Q 1822 466 2213 466 
Q 2559 466 2825 569 
Q 3091 672 3220 851 
Q 3350 1031 3350 1244 
Q 3350 1459 3225 1620 
Q 3100 1781 2813 1891 
Q 2628 1963 1997 2114 
Q 1366 2266 1113 2400 
Q 784 2572 623 2826 
Q 463 3081 463 3397 
Q 463 3744 659 4045 
Q 856 4347 1234 4503 
Q 1613 4659 2075 4659 
Q 2584 4659 2973 4495 
Q 3363 4331 3572 4012 
Q 3781 3694 3797 3291 
L 3216 3247 
Q 3169 3681 2898 3903 
Q 2628 4125 2100 4125 
Q 1550 4125 1298 3923 
Q 1047 3722 1047 3438 
Q 1047 3191 1225 3031 
Q 1400 2872 2139 2705 
Q 2878 2538 3153 2413 
Q 3553 2228 3743 1945 
Q 3934 1663 3934 1294 
Q 3934 928 3725 604 
Q 3516 281 3123 101 
Q 2731 -78 2241 -78 
Q 1619 -78 1198 103 
Q 778 284 539 648 
Q 300 1013 288 1472 
z
" transform="scale(0.015625)"/>
       <path id="ArialMT-71" d="M 2538 -1272 
L 2538 353 
Q 2406 169 2170 47 
Q 1934 -75 1669 -75 
Q 1078 -75 651 397 
Q 225 869 225 1691 
Q 225 2191 398 2587 
Q 572 2984 901 3189 
Q 1231 3394 1625 3394 
Q 2241 3394 2594 2875 
L 2594 3319 
L 3100 3319 
L 3100 -1272 
L 2538 -1272 
z
M 803 1669 
Q 803 1028 1072 708 
Q 1341 388 1716 388 
Q 2075 388 2334 692 
Q 2594 997 2594 1619 
Q 2594 2281 2320 2615 
Q 2047 2950 1678 2950 
Q 1313 2950 1058 2639 
Q 803 2328 803 1669 
z
" transform="scale(0.015625)"/>
       <path id="ArialMT-41" d="M -9 0 
L 1750 4581 
L 2403 4581 
L 4278 0 
L 3588 0 
L 3053 1388 
L 1138 1388 
L 634 0 
L -9 0 
z
M 1313 1881 
L 2866 1881 
L 2388 3150 
Q 2169 3728 2063 4100 
Q 1975 3659 1816 3225 
L 1313 1881 
z
" transform="scale(0.015625)"/>
       <path id="ArialMT-29" d="M 791 -1347 
L 388 -1347 
Q 1322 153 1322 1656 
Q 1322 2244 1188 2822 
Q 1081 3291 891 3722 
Q 769 4003 388 4659 
L 791 4659 
Q 1378 3875 1659 3084 
Q 1900 2403 1900 1659 
Q 1900 816 1576 28 
Q 1253 -759 791 -1347 
z
" transform="scale(0.015625)"/>
      </defs>
      <use xlink:href="#ArialMT-4e"/>
      <use xlink:href="#ArialMT-6f" transform="translate(72.216797 0)"/>
      <use xlink:href="#ArialMT-72" transform="translate(127.832031 0)"/>
      <use xlink:href="#ArialMT-6d" transform="translate(161.132812 0)"/>
      <use xlink:href="#ArialMT-61" transform="translate(244.433594 0)"/>
      <use xlink:href="#ArialMT-6c" transform="translate(300.048828 0)"/>
      <use xlink:href="#ArialMT-69" transform="translate(322.265625 0)"/>
      <use xlink:href="#ArialMT-7a" transform="translate(344.482422 0)"/>
      <use xlink:href="#ArialMT-65" transform="translate(394.482422 0)"/>
      <use xlink:href="#ArialMT-64" transform="translate(450.097656 0)"/>
      <use xlink:href="#ArialMT-20" transform="translate(505.712891 0)"/>
      <use xlink:href="#ArialMT-49" transform="translate(533.496094 0)"/>
      <use xlink:href="#ArialMT-6e" transform="translate(561.279297 0)"/>
      <use xlink:href="#ArialMT-70" transform="translate(616.894531 0)"/>
      <use xlink:href="#ArialMT-75" transform="translate(672.509766 0)"/>
      <use xlink:href="#ArialMT-74" transform="translate(728.125 0)"/>
      <use xlink:href="#ArialMT-20" transform="translate(755.908203 0)"/>
      <use xlink:href="#ArialMT-50" transform="translate(783.691406 0)"/>
      <use xlink:href="#ArialMT-6f" transform="translate(850.390625 0)"/>
      <use xlink:href="#ArialMT-77" transform="translate(906.005859 0)"/>
      <use xlink:href="#ArialMT-65" transform="translate(978.222656 0)"/>
      <use xlink:href="#ArialMT-72" transform="translate(1033.837891 0)"/>
      <use xlink:href="#ArialMT-20" transform="translate(1067.138672 0)"/>
      <use xlink:href="#ArialMT-4c" transform="translate(1094.921875 0)"/>
      <use xlink:href="#ArialMT-65" transform="translate(1150.537109 0)"/>
      <use xlink:href="#ArialMT-76" transform="translate(1206.152344 0)"/>
      <use xlink:href="#ArialMT-65" transform="translate(1256.152344 0)"/>
      <use xlink:href="#ArialMT-6c" transform="translate(1311.767578 0)"/>
      <use xlink:href="#ArialMT-20" transform="translate(1333.984375 0)"/>
      <use xlink:href="#ArialMT-28" transform="translate(1361.767578 0)"/>
      <use xlink:href="#ArialMT-4d" transform="translate(1395.068359 0)"/>
      <use xlink:href="#ArialMT-65" transform="translate(1478.369141 0)"/>
      <use xlink:href="#ArialMT-61" transform="translate(1533.984375 0)"/>
      <use xlink:href="#ArialMT-6e" transform="translate(1589.599609 0)"/>
      <use xlink:href="#ArialMT-20" transform="translate(1645.214844 0)"/>
      <use xlink:href="#ArialMT-53" transform="translate(1672.998047 0)"/>
      <use xlink:href="#ArialMT-71" transform="translate(1739.697266 0)"/>
      <use xlink:href="#ArialMT-75" transform="translate(1795.3125 0)"/>
      <use xlink:href="#ArialMT-61" transform="translate(1850.927734 0)"/>
      <use xlink:href="#ArialMT-72" transform="translate(1906.542969 0)"/>
      <use xlink:href="#ArialMT-65" transform="translate(1939.84375 0)"/>
      <use xlink:href="#ArialMT-64" transform="translate(1995.458984 0)"/>
      <use xlink:href="#ArialMT-20" transform="translate(2051.074219 0)"/>
      <use xlink:href="#ArialMT-41" transform="translate(2073.357422 0)"/>
      <use xlink:href="#ArialMT-6d" transform="translate(2140.056641 0)"/>
      <use xlink:href="#ArialMT-70" transform="translate(2223.357422 0)"/>
      <use xlink:href="#ArialMT-6c" transform="translate(2278.972656 0)"/>
      <use xlink:href="#ArialMT-69" transform="translate(2301.189453 0)"/>
      <use xlink:href="#ArialMT-74" transform="translate(2323.40625 0)"/>
      <use xlink:href="#ArialMT-75" transform="translate(2351.189453 0)"/>
      <use xlink:href="#ArialMT-64" transform="translate(2406.804688 0)"/>
      <use xlink:href="#ArialMT-65" transform="translate(2462.419922 0)"/>
      <use xlink:href="#ArialMT-29" transform="translate(2518.035156 0)"/>
     </g>
    </g>
   </g>
   <g id="matplotlib.axis_2">
    <g id="ytick_1">
     <g id="line2d_7">
      <path d="M 37.478107 186.253408 
L 254.716986 186.253408 
" clip-path="url(#paaaece5b11)" style="fill: none; stroke: #cccccc; stroke-width: 0.8; stroke-linecap: round"/>
     </g>
     <g id="text_8">
      <!-- 1 -->
      <g style="fill: #262626" transform="translate(26.58545 188.758642) scale(0.07 -0.07)">
       <use xlink:href="#ArialMT-31"/>
      </g>
     </g>
    </g>
    <g id="ytick_2">
     <g id="line2d_8">
      <path d="M 37.478107 165.747513 
L 254.716986 165.747513 
" clip-path="url(#paaaece5b11)" style="fill: none; stroke: #cccccc; stroke-width: 0.8; stroke-linecap: round"/>
     </g>
     <g id="text_9">
      <!-- 2 -->
      <g style="fill: #262626" transform="translate(26.58545 168.252747) scale(0.07 -0.07)">
       <use xlink:href="#ArialMT-32"/>
      </g>
     </g>
    </g>
    <g id="ytick_3">
     <g id="line2d_9">
      <path d="M 37.478107 145.241618 
L 254.716986 145.241618 
" clip-path="url(#paaaece5b11)" style="fill: none; stroke: #cccccc; stroke-width: 0.8; stroke-linecap: round"/>
     </g>
     <g id="text_10">
      <!-- 3 -->
      <g style="fill: #262626" transform="translate(26.58545 147.746852) scale(0.07 -0.07)">
       <use xlink:href="#ArialMT-33"/>
      </g>
     </g>
    </g>
    <g id="ytick_4">
     <g id="line2d_10">
      <path d="M 37.478107 124.735723 
L 254.716986 124.735723 
" clip-path="url(#paaaece5b11)" style="fill: none; stroke: #cccccc; stroke-width: 0.8; stroke-linecap: round"/>
     </g>
     <g id="text_11">
      <!-- 4 -->
      <g style="fill: #262626" transform="translate(26.58545 127.240957) scale(0.07 -0.07)">
       <defs>
        <path id="ArialMT-34" d="M 2069 0 
L 2069 1097 
L 81 1097 
L 81 1613 
L 2172 4581 
L 2631 4581 
L 2631 1613 
L 3250 1613 
L 3250 1097 
L 2631 1097 
L 2631 0 
L 2069 0 
z
M 2069 1613 
L 2069 3678 
L 634 1613 
L 2069 1613 
z
" transform="scale(0.015625)"/>
       </defs>
       <use xlink:href="#ArialMT-34"/>
      </g>
     </g>
    </g>
    <g id="ytick_5">
     <g id="line2d_11">
      <path d="M 37.478107 104.229828 
L 254.716986 104.229828 
" clip-path="url(#paaaece5b11)" style="fill: none; stroke: #cccccc; stroke-width: 0.8; stroke-linecap: round"/>
     </g>
     <g id="text_12">
      <!-- 5 -->
      <g style="fill: #262626" transform="translate(26.58545 106.735062) scale(0.07 -0.07)">
       <use xlink:href="#ArialMT-35"/>
      </g>
     </g>
    </g>
    <g id="ytick_6">
     <g id="line2d_12">
      <path d="M 37.478107 83.723933 
L 254.716986 83.723933 
" clip-path="url(#paaaece5b11)" style="fill: none; stroke: #cccccc; stroke-width: 0.8; stroke-linecap: round"/>
     </g>
     <g id="text_13">
      <!-- 6 -->
      <g style="fill: #262626" transform="translate(26.58545 86.229167) scale(0.07 -0.07)">
       <defs>
        <path id="ArialMT-36" d="M 3184 3459 
L 2625 3416 
Q 2550 3747 2413 3897 
Q 2184 4138 1850 4138 
Q 1581 4138 1378 3988 
Q 1113 3794 959 3422 
Q 806 3050 800 2363 
Q 1003 2672 1297 2822 
Q 1591 2972 1913 2972 
Q 2475 2972 2870 2558 
Q 3266 2144 3266 1488 
Q 3266 1056 3080 686 
Q 2894 316 2569 119 
Q 2244 -78 1831 -78 
Q 1128 -78 684 439 
Q 241 956 241 2144 
Q 241 3472 731 4075 
Q 1159 4600 1884 4600 
Q 2425 4600 2770 4297 
Q 3116 3994 3184 3459 
z
M 888 1484 
Q 888 1194 1011 928 
Q 1134 663 1356 523 
Q 1578 384 1822 384 
Q 2178 384 2434 671 
Q 2691 959 2691 1453 
Q 2691 1928 2437 2201 
Q 2184 2475 1800 2475 
Q 1419 2475 1153 2201 
Q 888 1928 888 1484 
z
" transform="scale(0.015625)"/>
       </defs>
       <use xlink:href="#ArialMT-36"/>
      </g>
     </g>
    </g>
    <g id="ytick_7">
     <g id="line2d_13">
      <path d="M 37.478107 63.218037 
L 254.716986 63.218037 
" clip-path="url(#paaaece5b11)" style="fill: none; stroke: #cccccc; stroke-width: 0.8; stroke-linecap: round"/>
     </g>
     <g id="text_14">
      <!-- 7 -->
      <g style="fill: #262626" transform="translate(26.58545 65.723272) scale(0.07 -0.07)">
       <defs>
        <path id="ArialMT-37" d="M 303 3981 
L 303 4522 
L 3269 4522 
L 3269 4084 
Q 2831 3619 2401 2847 
Q 1972 2075 1738 1259 
Q 1569 684 1522 0 
L 944 0 
Q 953 541 1156 1306 
Q 1359 2072 1739 2783 
Q 2119 3494 2547 3981 
L 303 3981 
z
" transform="scale(0.015625)"/>
       </defs>
       <use xlink:href="#ArialMT-37"/>
      </g>
     </g>
    </g>
    <g id="ytick_8">
     <g id="line2d_14">
      <path d="M 37.478107 42.712142 
L 254.716986 42.712142 
" clip-path="url(#paaaece5b11)" style="fill: none; stroke: #cccccc; stroke-width: 0.8; stroke-linecap: round"/>
     </g>
     <g id="text_15">
      <!-- 8 -->
      <g style="fill: #262626" transform="translate(26.58545 45.217377) scale(0.07 -0.07)">
       <defs>
        <path id="ArialMT-38" d="M 1131 2484 
Q 781 2613 612 2850 
Q 444 3088 444 3419 
Q 444 3919 803 4259 
Q 1163 4600 1759 4600 
Q 2359 4600 2725 4251 
Q 3091 3903 3091 3403 
Q 3091 3084 2923 2848 
Q 2756 2613 2416 2484 
Q 2838 2347 3058 2040 
Q 3278 1734 3278 1309 
Q 3278 722 2862 322 
Q 2447 -78 1769 -78 
Q 1091 -78 675 323 
Q 259 725 259 1325 
Q 259 1772 486 2073 
Q 713 2375 1131 2484 
z
M 1019 3438 
Q 1019 3113 1228 2906 
Q 1438 2700 1772 2700 
Q 2097 2700 2305 2904 
Q 2513 3109 2513 3406 
Q 2513 3716 2298 3927 
Q 2084 4138 1766 4138 
Q 1444 4138 1231 3931 
Q 1019 3725 1019 3438 
z
M 838 1322 
Q 838 1081 952 856 
Q 1066 631 1291 507 
Q 1516 384 1775 384 
Q 2178 384 2440 643 
Q 2703 903 2703 1303 
Q 2703 1709 2433 1975 
Q 2163 2241 1756 2241 
Q 1359 2241 1098 1978 
Q 838 1716 838 1322 
z
" transform="scale(0.015625)"/>
       </defs>
       <use xlink:href="#ArialMT-38"/>
      </g>
     </g>
    </g>
    <g id="text_16">
     <!-- Var of Nu -->
     <g style="fill: #262626" transform="translate(21.1942 129.681452) rotate(-90) scale(0.07 -0.07)">
      <defs>
       <path id="ArialMT-56" d="M 1803 0 
L 28 4581 
L 684 4581 
L 1875 1253 
Q 2019 853 2116 503 
Q 2222 878 2363 1253 
L 3600 4581 
L 4219 4581 
L 2425 0 
L 1803 0 
z
" transform="scale(0.015625)"/>
       <path id="ArialMT-66" d="M 556 0 
L 556 2881 
L 59 2881 
L 59 3319 
L 556 3319 
L 556 3672 
Q 556 4006 616 4169 
Q 697 4388 901 4523 
Q 1106 4659 1475 4659 
Q 1713 4659 2000 4603 
L 1916 4113 
Q 1741 4144 1584 4144 
Q 1328 4144 1222 4034 
Q 1116 3925 1116 3625 
L 1116 3319 
L 1763 3319 
L 1763 2881 
L 1116 2881 
L 1116 0 
L 556 0 
z
" transform="scale(0.015625)"/>
      </defs>
      <use xlink:href="#ArialMT-56"/>
      <use xlink:href="#ArialMT-61" transform="translate(59.324219 0)"/>
      <use xlink:href="#ArialMT-72" transform="translate(114.939453 0)"/>
      <use xlink:href="#ArialMT-20" transform="translate(148.240234 0)"/>
      <use xlink:href="#ArialMT-6f" transform="translate(176.023438 0)"/>
      <use xlink:href="#ArialMT-66" transform="translate(231.638672 0)"/>
      <use xlink:href="#ArialMT-20" transform="translate(259.421875 0)"/>
      <use xlink:href="#ArialMT-4e" transform="translate(287.205078 0)"/>
      <use xlink:href="#ArialMT-75" transform="translate(359.421875 0)"/>
     </g>
    </g>
   </g>
   <g id="line2d_15">
    <path d="M 47.352601 120.523186 
L 69.295923 92.693619 
L 91.239246 70.8504 
L 113.182568 57.92876 
L 135.12589 49.722479 
L 157.069203 40.536739 
L 179.012516 37.286463 
L 200.955847 35.495686 
L 222.899179 36.306064 
L 244.842492 35.351754 
" clip-path="url(#paaaece5b11)" style="fill: none; stroke: #414487; stroke-linecap: round"/>
    <defs>
     <path id="m1e9e931025" d="M 0 1.5 
C 0.397805 1.5 0.77937 1.341951 1.06066 1.06066 
C 1.341951 0.77937 1.5 0.397805 1.5 0 
C 1.5 -0.397805 1.341951 -0.77937 1.06066 -1.06066 
C 0.77937 -1.341951 0.397805 -1.5 0 -1.5 
C -0.397805 -1.5 -0.77937 -1.341951 -1.06066 -1.06066 
C -1.341951 -0.77937 -1.5 -0.397805 -1.5 0 
C -1.5 0.397805 -1.341951 0.77937 -1.06066 1.06066 
C -0.77937 1.341951 -0.397805 1.5 0 1.5 
z
" style="stroke: #414487"/>
    </defs>
    <g clip-path="url(#paaaece5b11)">
     <use xlink:href="#m1e9e931025" x="47.352601" y="120.523186" style="fill: #414487; stroke: #414487"/>
     <use xlink:href="#m1e9e931025" x="69.295923" y="92.693619" style="fill: #414487; stroke: #414487"/>
     <use xlink:href="#m1e9e931025" x="91.239246" y="70.8504" style="fill: #414487; stroke: #414487"/>
     <use xlink:href="#m1e9e931025" x="113.182568" y="57.92876" style="fill: #414487; stroke: #414487"/>
     <use xlink:href="#m1e9e931025" x="135.12589" y="49.722479" style="fill: #414487; stroke: #414487"/>
     <use xlink:href="#m1e9e931025" x="157.069203" y="40.536739" style="fill: #414487; stroke: #414487"/>
     <use xlink:href="#m1e9e931025" x="179.012516" y="37.286463" style="fill: #414487; stroke: #414487"/>
     <use xlink:href="#m1e9e931025" x="200.955847" y="35.495686" style="fill: #414487; stroke: #414487"/>
     <use xlink:href="#m1e9e931025" x="222.899179" y="36.306064" style="fill: #414487; stroke: #414487"/>
     <use xlink:href="#m1e9e931025" x="244.842492" y="35.351754" style="fill: #414487; stroke: #414487"/>
    </g>
   </g>
   <g id="line2d_16">
    <path d="M 47.352601 173.708912 
L 69.295923 157.541804 
L 91.239246 141.884018 
L 113.182568 126.239614 
L 135.12589 111.282953 
L 157.069203 96.335435 
L 179.012516 80.455313 
L 200.955847 65.167814 
L 222.899179 50.268638 
L 244.842492 35.662596 
" clip-path="url(#paaaece5b11)" style="fill: none; stroke: #2a788e; stroke-linecap: round"/>
    <defs>
     <path id="md24c4f6699" d="M 0 -1.5 
L -1.5 1.5 
L 1.5 1.5 
z
" style="stroke: #2a788e; stroke-linejoin: miter"/>
    </defs>
    <g clip-path="url(#paaaece5b11)">
     <use xlink:href="#md24c4f6699" x="47.352601" y="173.708912" style="fill: #2a788e; stroke: #2a788e; stroke-linejoin: miter"/>
     <use xlink:href="#md24c4f6699" x="69.295923" y="157.541804" style="fill: #2a788e; stroke: #2a788e; stroke-linejoin: miter"/>
     <use xlink:href="#md24c4f6699" x="91.239246" y="141.884018" style="fill: #2a788e; stroke: #2a788e; stroke-linejoin: miter"/>
     <use xlink:href="#md24c4f6699" x="113.182568" y="126.239614" style="fill: #2a788e; stroke: #2a788e; stroke-linejoin: miter"/>
     <use xlink:href="#md24c4f6699" x="135.12589" y="111.282953" style="fill: #2a788e; stroke: #2a788e; stroke-linejoin: miter"/>
     <use xlink:href="#md24c4f6699" x="157.069203" y="96.335435" style="fill: #2a788e; stroke: #2a788e; stroke-linejoin: miter"/>
     <use xlink:href="#md24c4f6699" x="179.012516" y="80.455313" style="fill: #2a788e; stroke: #2a788e; stroke-linejoin: miter"/>
     <use xlink:href="#md24c4f6699" x="200.955847" y="65.167814" style="fill: #2a788e; stroke: #2a788e; stroke-linejoin: miter"/>
     <use xlink:href="#md24c4f6699" x="222.899179" y="50.268638" style="fill: #2a788e; stroke: #2a788e; stroke-linejoin: miter"/>
     <use xlink:href="#md24c4f6699" x="244.842492" y="35.662596" style="fill: #2a788e; stroke: #2a788e; stroke-linejoin: miter"/>
    </g>
   </g>
   <g id="line2d_17">
    <path d="M 47.352601 194.960057 
L 69.295923 188.867346 
L 91.239246 182.894836 
L 113.182568 177.18095 
L 135.12589 171.427838 
L 157.069203 165.920114 
L 179.012516 160.325969 
L 200.955847 155.023345 
L 222.899179 149.580095 
L 244.842492 144.139386 
" clip-path="url(#paaaece5b11)" style="fill: none; stroke: #22a884; stroke-linecap: round"/>
    <defs>
     <path id="me4e6e36f78" d="M -1.5 1.5 
L 1.5 1.5 
L 1.5 -1.5 
L -1.5 -1.5 
z
" style="stroke: #22a884; stroke-linejoin: miter"/>
    </defs>
    <g clip-path="url(#paaaece5b11)">
     <use xlink:href="#me4e6e36f78" x="47.352601" y="194.960057" style="fill: #22a884; stroke: #22a884; stroke-linejoin: miter"/>
     <use xlink:href="#me4e6e36f78" x="69.295923" y="188.867346" style="fill: #22a884; stroke: #22a884; stroke-linejoin: miter"/>
     <use xlink:href="#me4e6e36f78" x="91.239246" y="182.894836" style="fill: #22a884; stroke: #22a884; stroke-linejoin: miter"/>
     <use xlink:href="#me4e6e36f78" x="113.182568" y="177.18095" style="fill: #22a884; stroke: #22a884; stroke-linejoin: miter"/>
     <use xlink:href="#me4e6e36f78" x="135.12589" y="171.427838" style="fill: #22a884; stroke: #22a884; stroke-linejoin: miter"/>
     <use xlink:href="#me4e6e36f78" x="157.069203" y="165.920114" style="fill: #22a884; stroke: #22a884; stroke-linejoin: miter"/>
     <use xlink:href="#me4e6e36f78" x="179.012516" y="160.325969" style="fill: #22a884; stroke: #22a884; stroke-linejoin: miter"/>
     <use xlink:href="#me4e6e36f78" x="200.955847" y="155.023345" style="fill: #22a884; stroke: #22a884; stroke-linejoin: miter"/>
     <use xlink:href="#me4e6e36f78" x="222.899179" y="149.580095" style="fill: #22a884; stroke: #22a884; stroke-linejoin: miter"/>
     <use xlink:href="#me4e6e36f78" x="244.842492" y="144.139386" style="fill: #22a884; stroke: #22a884; stroke-linejoin: miter"/>
    </g>
   </g>
   <g id="patch_3">
    <path d="M 37.478107 202.940472 
L 37.478107 27.371339 
" style="fill: none; stroke: #000000; stroke-width: 0.8; stroke-linejoin: miter; stroke-linecap: square"/>
   </g>
   <g id="patch_4">
    <path d="M 254.716986 202.940472 
L 254.716986 27.371339 
" style="fill: none; stroke: #000000; stroke-width: 0.8; stroke-linejoin: miter; stroke-linecap: square"/>
   </g>
   <g id="patch_5">
    <path d="M 37.478107 202.940472 
L 254.716986 202.940472 
" style="fill: none; stroke: #000000; stroke-width: 0.8; stroke-linejoin: miter; stroke-linecap: square"/>
   </g>
   <g id="patch_6">
    <path d="M 37.478107 27.371339 
L 254.716986 27.371339 
" style="fill: none; stroke: #000000; stroke-width: 0.8; stroke-linejoin: miter; stroke-linecap: square"/>
   </g>
   <g id="text_17">
    <!-- (a) -->
    <g style="fill: #262626" transform="translate(7.2 23.688663) scale(0.07 -0.07)">
     <use xlink:href="#ArialMT-28"/>
     <use xlink:href="#ArialMT-61" transform="translate(33.300781 0)"/>
     <use xlink:href="#ArialMT-29" transform="translate(88.916016 0)"/>
    </g>
   </g>
   <g id="legend_1">
    <g id="patch_7">
     <path d="M 42.378107 62.676495 
L 121.841232 62.676495 
Q 123.241232 62.676495 123.241232 61.276495 
L 123.241232 32.271339 
Q 123.241232 30.871339 121.841232 30.871339 
L 42.378107 30.871339 
Q 40.978107 30.871339 40.978107 32.271339 
L 40.978107 61.276495 
Q 40.978107 62.676495 42.378107 62.676495 
z
" style="fill: #ffffff; opacity: 0.8; stroke: #cccccc; stroke-linejoin: miter"/>
    </g>
    <g id="line2d_18">
     <path d="M 43.778107 36.231807 
L 50.778107 36.231807 
L 57.778107 36.231807 
" style="fill: none; stroke: #414487; stroke-linecap: round"/>
     <g>
      <use xlink:href="#m1e9e931025" x="50.778107" y="36.231807" style="fill: #414487; stroke: #414487"/>
     </g>
    </g>
    <g id="text_18">
     <!-- Var of Nu at 48mA -->
     <g style="fill: #262626" transform="translate(63.378107 38.681807) scale(0.07 -0.07)">
      <use xlink:href="#ArialMT-56"/>
      <use xlink:href="#ArialMT-61" transform="translate(59.324219 0)"/>
      <use xlink:href="#ArialMT-72" transform="translate(114.939453 0)"/>
      <use xlink:href="#ArialMT-20" transform="translate(148.240234 0)"/>
      <use xlink:href="#ArialMT-6f" transform="translate(176.023438 0)"/>
      <use xlink:href="#ArialMT-66" transform="translate(231.638672 0)"/>
      <use xlink:href="#ArialMT-20" transform="translate(259.421875 0)"/>
      <use xlink:href="#ArialMT-4e" transform="translate(287.205078 0)"/>
      <use xlink:href="#ArialMT-75" transform="translate(359.421875 0)"/>
      <use xlink:href="#ArialMT-20" transform="translate(415.037109 0)"/>
      <use xlink:href="#ArialMT-61" transform="translate(442.820312 0)"/>
      <use xlink:href="#ArialMT-74" transform="translate(498.435547 0)"/>
      <use xlink:href="#ArialMT-20" transform="translate(526.21875 0)"/>
      <use xlink:href="#ArialMT-34" transform="translate(554.001953 0)"/>
      <use xlink:href="#ArialMT-38" transform="translate(609.617188 0)"/>
      <use xlink:href="#ArialMT-6d" transform="translate(665.232422 0)"/>
      <use xlink:href="#ArialMT-41" transform="translate(748.533203 0)"/>
     </g>
    </g>
    <g id="line2d_19">
     <path d="M 43.778107 46.133526 
L 50.778107 46.133526 
L 57.778107 46.133526 
" style="fill: none; stroke: #2a788e; stroke-linecap: round"/>
     <g>
      <use xlink:href="#md24c4f6699" x="50.778107" y="46.133526" style="fill: #2a788e; stroke: #2a788e; stroke-linejoin: miter"/>
     </g>
    </g>
    <g id="text_19">
     <!-- Var of Nu at 60mA -->
     <g style="fill: #262626" transform="translate(63.378107 48.583526) scale(0.07 -0.07)">
      <use xlink:href="#ArialMT-56"/>
      <use xlink:href="#ArialMT-61" transform="translate(59.324219 0)"/>
      <use xlink:href="#ArialMT-72" transform="translate(114.939453 0)"/>
      <use xlink:href="#ArialMT-20" transform="translate(148.240234 0)"/>
      <use xlink:href="#ArialMT-6f" transform="translate(176.023438 0)"/>
      <use xlink:href="#ArialMT-66" transform="translate(231.638672 0)"/>
      <use xlink:href="#ArialMT-20" transform="translate(259.421875 0)"/>
      <use xlink:href="#ArialMT-4e" transform="translate(287.205078 0)"/>
      <use xlink:href="#ArialMT-75" transform="translate(359.421875 0)"/>
      <use xlink:href="#ArialMT-20" transform="translate(415.037109 0)"/>
      <use xlink:href="#ArialMT-61" transform="translate(442.820312 0)"/>
      <use xlink:href="#ArialMT-74" transform="translate(498.435547 0)"/>
      <use xlink:href="#ArialMT-20" transform="translate(526.21875 0)"/>
      <use xlink:href="#ArialMT-36" transform="translate(554.001953 0)"/>
      <use xlink:href="#ArialMT-30" transform="translate(609.617188 0)"/>
      <use xlink:href="#ArialMT-6d" transform="translate(665.232422 0)"/>
      <use xlink:href="#ArialMT-41" transform="translate(748.533203 0)"/>
     </g>
    </g>
    <g id="line2d_20">
     <path d="M 43.778107 56.035245 
L 50.778107 56.035245 
L 57.778107 56.035245 
" style="fill: none; stroke: #22a884; stroke-linecap: round"/>
     <g>
      <use xlink:href="#me4e6e36f78" x="50.778107" y="56.035245" style="fill: #22a884; stroke: #22a884; stroke-linejoin: miter"/>
     </g>
    </g>
    <g id="text_20">
     <!-- Var of Nu at 80mA -->
     <g style="fill: #262626" transform="translate(63.378107 58.485245) scale(0.07 -0.07)">
      <use xlink:href="#ArialMT-56"/>
      <use xlink:href="#ArialMT-61" transform="translate(59.324219 0)"/>
      <use xlink:href="#ArialMT-72" transform="translate(114.939453 0)"/>
      <use xlink:href="#ArialMT-20" transform="translate(148.240234 0)"/>
      <use xlink:href="#ArialMT-6f" transform="translate(176.023438 0)"/>
      <use xlink:href="#ArialMT-66" transform="translate(231.638672 0)"/>
      <use xlink:href="#ArialMT-20" transform="translate(259.421875 0)"/>
      <use xlink:href="#ArialMT-4e" transform="translate(287.205078 0)"/>
      <use xlink:href="#ArialMT-75" transform="translate(359.421875 0)"/>
      <use xlink:href="#ArialMT-20" transform="translate(415.037109 0)"/>
      <use xlink:href="#ArialMT-61" transform="translate(442.820312 0)"/>
      <use xlink:href="#ArialMT-74" transform="translate(498.435547 0)"/>
      <use xlink:href="#ArialMT-20" transform="translate(526.21875 0)"/>
      <use xlink:href="#ArialMT-38" transform="translate(554.001953 0)"/>
      <use xlink:href="#ArialMT-30" transform="translate(609.617188 0)"/>
      <use xlink:href="#ArialMT-6d" transform="translate(665.232422 0)"/>
      <use xlink:href="#ArialMT-41" transform="translate(748.533203 0)"/>
     </g>
    </g>
   </g>
  </g>
  <g id="axes_2">
   <g id="patch_8">
    <path d="M 288.831217 202.940472 
L 506.070097 202.940472 
L 506.070097 27.371339 
L 288.831217 27.371339 
L 288.831217 202.940472 
z
" style="fill: none"/>
   </g>
   <g id="matplotlib.axis_3">
    <g id="xtick_7">
     <g id="line2d_21">
      <path d="M 298.705711 202.940472 
L 298.705711 27.371339 
" clip-path="url(#p9ad8107d0a)" style="fill: none; stroke: #cccccc; stroke-width: 0.8; stroke-linecap: round"/>
     </g>
     <g id="text_21">
      <!-- 0.5 -->
      <g style="fill: #262626" transform="translate(293.840711 214.950941) scale(0.07 -0.07)">
       <use xlink:href="#ArialMT-30"/>
       <use xlink:href="#ArialMT-2e" transform="translate(55.615234 0)"/>
       <use xlink:href="#ArialMT-35" transform="translate(83.398438 0)"/>
      </g>
     </g>
    </g>
    <g id="xtick_8">
     <g id="line2d_22">
      <path d="M 338.20369 202.940472 
L 338.20369 27.371339 
" clip-path="url(#p9ad8107d0a)" style="fill: none; stroke: #cccccc; stroke-width: 0.8; stroke-linecap: round"/>
     </g>
     <g id="text_22">
      <!-- 1.0 -->
      <g style="fill: #262626" transform="translate(333.33869 214.950941) scale(0.07 -0.07)">
       <use xlink:href="#ArialMT-31"/>
       <use xlink:href="#ArialMT-2e" transform="translate(55.615234 0)"/>
       <use xlink:href="#ArialMT-30" transform="translate(83.398438 0)"/>
      </g>
     </g>
    </g>
    <g id="xtick_9">
     <g id="line2d_23">
      <path d="M 377.701668 202.940472 
L 377.701668 27.371339 
" clip-path="url(#p9ad8107d0a)" style="fill: none; stroke: #cccccc; stroke-width: 0.8; stroke-linecap: round"/>
     </g>
     <g id="text_23">
      <!-- 1.5 -->
      <g style="fill: #262626" transform="translate(372.836668 214.950941) scale(0.07 -0.07)">
       <use xlink:href="#ArialMT-31"/>
       <use xlink:href="#ArialMT-2e" transform="translate(55.615234 0)"/>
       <use xlink:href="#ArialMT-35" transform="translate(83.398438 0)"/>
      </g>
     </g>
    </g>
    <g id="xtick_10">
     <g id="line2d_24">
      <path d="M 417.199646 202.940472 
L 417.199646 27.371339 
" clip-path="url(#p9ad8107d0a)" style="fill: none; stroke: #cccccc; stroke-width: 0.8; stroke-linecap: round"/>
     </g>
     <g id="text_24">
      <!-- 2.0 -->
      <g style="fill: #262626" transform="translate(412.334646 214.950941) scale(0.07 -0.07)">
       <use xlink:href="#ArialMT-32"/>
       <use xlink:href="#ArialMT-2e" transform="translate(55.615234 0)"/>
       <use xlink:href="#ArialMT-30" transform="translate(83.398438 0)"/>
      </g>
     </g>
    </g>
    <g id="xtick_11">
     <g id="line2d_25">
      <path d="M 456.697624 202.940472 
L 456.697624 27.371339 
" clip-path="url(#p9ad8107d0a)" style="fill: none; stroke: #cccccc; stroke-width: 0.8; stroke-linecap: round"/>
     </g>
     <g id="text_25">
      <!-- 2.5 -->
      <g style="fill: #262626" transform="translate(451.832624 214.950941) scale(0.07 -0.07)">
       <use xlink:href="#ArialMT-32"/>
       <use xlink:href="#ArialMT-2e" transform="translate(55.615234 0)"/>
       <use xlink:href="#ArialMT-35" transform="translate(83.398438 0)"/>
      </g>
     </g>
    </g>
    <g id="xtick_12">
     <g id="line2d_26">
      <path d="M 496.195602 202.940472 
L 496.195602 27.371339 
" clip-path="url(#p9ad8107d0a)" style="fill: none; stroke: #cccccc; stroke-width: 0.8; stroke-linecap: round"/>
     </g>
     <g id="text_26">
      <!-- 3.0 -->
      <g style="fill: #262626" transform="translate(491.330602 214.950941) scale(0.07 -0.07)">
       <use xlink:href="#ArialMT-33"/>
       <use xlink:href="#ArialMT-2e" transform="translate(55.615234 0)"/>
       <use xlink:href="#ArialMT-30" transform="translate(83.398438 0)"/>
      </g>
     </g>
    </g>
    <g id="text_27">
     <!-- Normalized Input Power Level (Mean Squared Amplitude) -->
     <g style="fill: #262626" transform="translate(308.159641 225.437972) scale(0.07 -0.07)">
      <use xlink:href="#ArialMT-4e"/>
      <use xlink:href="#ArialMT-6f" transform="translate(72.216797 0)"/>
      <use xlink:href="#ArialMT-72" transform="translate(127.832031 0)"/>
      <use xlink:href="#ArialMT-6d" transform="translate(161.132812 0)"/>
      <use xlink:href="#ArialMT-61" transform="translate(244.433594 0)"/>
      <use xlink:href="#ArialMT-6c" transform="translate(300.048828 0)"/>
      <use xlink:href="#ArialMT-69" transform="translate(322.265625 0)"/>
      <use xlink:href="#ArialMT-7a" transform="translate(344.482422 0)"/>
      <use xlink:href="#ArialMT-65" transform="translate(394.482422 0)"/>
      <use xlink:href="#ArialMT-64" transform="translate(450.097656 0)"/>
      <use xlink:href="#ArialMT-20" transform="translate(505.712891 0)"/>
      <use xlink:href="#ArialMT-49" transform="translate(533.496094 0)"/>
      <use xlink:href="#ArialMT-6e" transform="translate(561.279297 0)"/>
      <use xlink:href="#ArialMT-70" transform="translate(616.894531 0)"/>
      <use xlink:href="#ArialMT-75" transform="translate(672.509766 0)"/>
      <use xlink:href="#ArialMT-74" transform="translate(728.125 0)"/>
      <use xlink:href="#ArialMT-20" transform="translate(755.908203 0)"/>
      <use xlink:href="#ArialMT-50" transform="translate(783.691406 0)"/>
      <use xlink:href="#ArialMT-6f" transform="translate(850.390625 0)"/>
      <use xlink:href="#ArialMT-77" transform="translate(906.005859 0)"/>
      <use xlink:href="#ArialMT-65" transform="translate(978.222656 0)"/>
      <use xlink:href="#ArialMT-72" transform="translate(1033.837891 0)"/>
      <use xlink:href="#ArialMT-20" transform="translate(1067.138672 0)"/>
      <use xlink:href="#ArialMT-4c" transform="translate(1094.921875 0)"/>
      <use xlink:href="#ArialMT-65" transform="translate(1150.537109 0)"/>
      <use xlink:href="#ArialMT-76" transform="translate(1206.152344 0)"/>
      <use xlink:href="#ArialMT-65" transform="translate(1256.152344 0)"/>
      <use xlink:href="#ArialMT-6c" transform="translate(1311.767578 0)"/>
      <use xlink:href="#ArialMT-20" transform="translate(1333.984375 0)"/>
      <use xlink:href="#ArialMT-28" transform="translate(1361.767578 0)"/>
      <use xlink:href="#ArialMT-4d" transform="translate(1395.068359 0)"/>
      <use xlink:href="#ArialMT-65" transform="translate(1478.369141 0)"/>
      <use xlink:href="#ArialMT-61" transform="translate(1533.984375 0)"/>
      <use xlink:href="#ArialMT-6e" transform="translate(1589.599609 0)"/>
      <use xlink:href="#ArialMT-20" transform="translate(1645.214844 0)"/>
      <use xlink:href="#ArialMT-53" transform="translate(1672.998047 0)"/>
      <use xlink:href="#ArialMT-71" transform="translate(1739.697266 0)"/>
      <use xlink:href="#ArialMT-75" transform="translate(1795.3125 0)"/>
      <use xlink:href="#ArialMT-61" transform="translate(1850.927734 0)"/>
      <use xlink:href="#ArialMT-72" transform="translate(1906.542969 0)"/>
      <use xlink:href="#ArialMT-65" transform="translate(1939.84375 0)"/>
      <use xlink:href="#ArialMT-64" transform="translate(1995.458984 0)"/>
      <use xlink:href="#ArialMT-20" transform="translate(2051.074219 0)"/>
      <use xlink:href="#ArialMT-41" transform="translate(2073.357422 0)"/>
      <use xlink:href="#ArialMT-6d" transform="translate(2140.056641 0)"/>
      <use xlink:href="#ArialMT-70" transform="translate(2223.357422 0)"/>
      <use xlink:href="#ArialMT-6c" transform="translate(2278.972656 0)"/>
      <use xlink:href="#ArialMT-69" transform="translate(2301.189453 0)"/>
      <use xlink:href="#ArialMT-74" transform="translate(2323.40625 0)"/>
      <use xlink:href="#ArialMT-75" transform="translate(2351.189453 0)"/>
      <use xlink:href="#ArialMT-64" transform="translate(2406.804688 0)"/>
      <use xlink:href="#ArialMT-65" transform="translate(2462.419922 0)"/>
      <use xlink:href="#ArialMT-29" transform="translate(2518.035156 0)"/>
     </g>
    </g>
   </g>
   <g id="matplotlib.axis_4">
    <g id="ytick_9">
     <g id="line2d_27">
      <path d="M 288.831217 198.015212 
L 506.070097 198.015212 
" clip-path="url(#p9ad8107d0a)" style="fill: none; stroke: #cccccc; stroke-width: 0.8; stroke-linecap: round"/>
     </g>
     <g id="text_28">
      <!-- 0 -->
      <g style="fill: #262626" transform="translate(277.938561 200.520447) scale(0.07 -0.07)">
       <use xlink:href="#ArialMT-30"/>
      </g>
     </g>
    </g>
    <g id="ytick_10">
     <g id="line2d_28">
      <path d="M 288.831217 161.723609 
L 506.070097 161.723609 
" clip-path="url(#p9ad8107d0a)" style="fill: none; stroke: #cccccc; stroke-width: 0.8; stroke-linecap: round"/>
     </g>
     <g id="text_29">
      <!-- 2 -->
      <g style="fill: #262626" transform="translate(277.938561 164.228843) scale(0.07 -0.07)">
       <use xlink:href="#ArialMT-32"/>
      </g>
     </g>
    </g>
    <g id="ytick_11">
     <g id="line2d_29">
      <path d="M 288.831217 125.432005 
L 506.070097 125.432005 
" clip-path="url(#p9ad8107d0a)" style="fill: none; stroke: #cccccc; stroke-width: 0.8; stroke-linecap: round"/>
     </g>
     <g id="text_30">
      <!-- 4 -->
      <g style="fill: #262626" transform="translate(277.938561 127.93724) scale(0.07 -0.07)">
       <use xlink:href="#ArialMT-34"/>
      </g>
     </g>
    </g>
    <g id="ytick_12">
     <g id="line2d_30">
      <path d="M 288.831217 89.140402 
L 506.070097 89.140402 
" clip-path="url(#p9ad8107d0a)" style="fill: none; stroke: #cccccc; stroke-width: 0.8; stroke-linecap: round"/>
     </g>
     <g id="text_31">
      <!-- 6 -->
      <g style="fill: #262626" transform="translate(277.938561 91.645636) scale(0.07 -0.07)">
       <use xlink:href="#ArialMT-36"/>
      </g>
     </g>
    </g>
    <g id="ytick_13">
     <g id="line2d_31">
      <path d="M 288.831217 52.848798 
L 506.070097 52.848798 
" clip-path="url(#p9ad8107d0a)" style="fill: none; stroke: #cccccc; stroke-width: 0.8; stroke-linecap: round"/>
     </g>
     <g id="text_32">
      <!-- 8 -->
      <g style="fill: #262626" transform="translate(277.938561 55.354033) scale(0.07 -0.07)">
       <use xlink:href="#ArialMT-38"/>
      </g>
     </g>
    </g>
    <g id="text_33">
     <!-- Var of Std -->
     <g style="fill: #262626" transform="translate(272.547311 130.460749) rotate(-90) scale(0.07 -0.07)">
      <use xlink:href="#ArialMT-56"/>
      <use xlink:href="#ArialMT-61" transform="translate(59.324219 0)"/>
      <use xlink:href="#ArialMT-72" transform="translate(114.939453 0)"/>
      <use xlink:href="#ArialMT-20" transform="translate(148.240234 0)"/>
      <use xlink:href="#ArialMT-6f" transform="translate(176.023438 0)"/>
      <use xlink:href="#ArialMT-66" transform="translate(231.638672 0)"/>
      <use xlink:href="#ArialMT-20" transform="translate(259.421875 0)"/>
      <use xlink:href="#ArialMT-53" transform="translate(287.205078 0)"/>
      <use xlink:href="#ArialMT-74" transform="translate(353.904297 0)"/>
      <use xlink:href="#ArialMT-64" transform="translate(381.6875 0)"/>
     </g>
    </g>
    <g id="text_34">
     <!-- 1e5 -->
     <g style="fill: #262626" transform="translate(288.831217 24.371339) scale(0.07 -0.07)">
      <defs>
       <path id="ArialMT-2212" d="M 3381 1997 
L 356 1997 
L 356 2522 
L 3381 2522 
L 3381 1997 
z
" transform="scale(0.015625)"/>
      </defs>
      <use xlink:href="#ArialMT-31"/>
      <use xlink:href="#ArialMT-65" transform="translate(55.615234 0)"/>
      <use xlink:href="#ArialMT-2212" transform="translate(111.230469 0)"/>
      <use xlink:href="#ArialMT-35" transform="translate(169.628906 0)"/>
     </g>
    </g>
   </g>
   <g id="line2d_32">
    <path d="M 298.705711 191.168957 
L 320.649034 188.145938 
L 342.592356 184.987596 
L 364.535678 182.127728 
L 386.479 179.48821 
L 408.422313 175.961314 
L 430.365626 172.890572 
L 452.308958 169.744435 
L 474.252289 166.867454 
L 496.195602 163.292305 
" clip-path="url(#p9ad8107d0a)" style="fill: none; stroke-dasharray: 1,1.65; stroke-dashoffset: 0; stroke: #414487"/>
    <g clip-path="url(#p9ad8107d0a)">
     <use xlink:href="#m1e9e931025" x="298.705711" y="191.168957" style="fill: #414487; stroke: #414487"/>
     <use xlink:href="#m1e9e931025" x="320.649034" y="188.145938" style="fill: #414487; stroke: #414487"/>
     <use xlink:href="#m1e9e931025" x="342.592356" y="184.987596" style="fill: #414487; stroke: #414487"/>
     <use xlink:href="#m1e9e931025" x="364.535678" y="182.127728" style="fill: #414487; stroke: #414487"/>
     <use xlink:href="#m1e9e931025" x="386.479" y="179.48821" style="fill: #414487; stroke: #414487"/>
     <use xlink:href="#m1e9e931025" x="408.422313" y="175.961314" style="fill: #414487; stroke: #414487"/>
     <use xlink:href="#m1e9e931025" x="430.365626" y="172.890572" style="fill: #414487; stroke: #414487"/>
     <use xlink:href="#m1e9e931025" x="452.308958" y="169.744435" style="fill: #414487; stroke: #414487"/>
     <use xlink:href="#m1e9e931025" x="474.252289" y="166.867454" style="fill: #414487; stroke: #414487"/>
     <use xlink:href="#m1e9e931025" x="496.195602" y="163.292305" style="fill: #414487; stroke: #414487"/>
    </g>
   </g>
   <g id="line2d_33">
    <path d="M 298.705711 193.664896 
L 320.649034 190.77004 
L 342.592356 187.391028 
L 364.535678 183.290107 
L 386.479 178.628733 
L 408.422313 173.376168 
L 430.365626 166.725035 
L 452.308958 159.329148 
L 474.252289 151.454366 
L 496.195602 142.219702 
" clip-path="url(#p9ad8107d0a)" style="fill: none; stroke-dasharray: 1,1.65; stroke-dashoffset: 0; stroke: #2a788e"/>
    <g clip-path="url(#p9ad8107d0a)">
     <use xlink:href="#md24c4f6699" x="298.705711" y="193.664896" style="fill: #2a788e; stroke: #2a788e; stroke-linejoin: miter"/>
     <use xlink:href="#md24c4f6699" x="320.649034" y="190.77004" style="fill: #2a788e; stroke: #2a788e; stroke-linejoin: miter"/>
     <use xlink:href="#md24c4f6699" x="342.592356" y="187.391028" style="fill: #2a788e; stroke: #2a788e; stroke-linejoin: miter"/>
     <use xlink:href="#md24c4f6699" x="364.535678" y="183.290107" style="fill: #2a788e; stroke: #2a788e; stroke-linejoin: miter"/>
     <use xlink:href="#md24c4f6699" x="386.479" y="178.628733" style="fill: #2a788e; stroke: #2a788e; stroke-linejoin: miter"/>
     <use xlink:href="#md24c4f6699" x="408.422313" y="173.376168" style="fill: #2a788e; stroke: #2a788e; stroke-linejoin: miter"/>
     <use xlink:href="#md24c4f6699" x="430.365626" y="166.725035" style="fill: #2a788e; stroke: #2a788e; stroke-linejoin: miter"/>
     <use xlink:href="#md24c4f6699" x="452.308958" y="159.329148" style="fill: #2a788e; stroke: #2a788e; stroke-linejoin: miter"/>
     <use xlink:href="#md24c4f6699" x="474.252289" y="151.454366" style="fill: #2a788e; stroke: #2a788e; stroke-linejoin: miter"/>
     <use xlink:href="#md24c4f6699" x="496.195602" y="142.219702" style="fill: #2a788e; stroke: #2a788e; stroke-linejoin: miter"/>
    </g>
   </g>
   <g id="line2d_34">
    <path d="M 298.705711 194.297287 
L 320.649034 190.310213 
L 342.592356 184.292938 
L 364.535678 176.379371 
L 386.479 165.465629 
L 408.422313 150.999738 
L 430.365626 131.001995 
L 452.308958 108.059857 
L 474.252289 76.104915 
L 496.195602 36.891109 
" clip-path="url(#p9ad8107d0a)" style="fill: none; stroke-dasharray: 1,1.65; stroke-dashoffset: 0; stroke: #22a884"/>
    <g clip-path="url(#p9ad8107d0a)">
     <use xlink:href="#me4e6e36f78" x="298.705711" y="194.297287" style="fill: #22a884; stroke: #22a884; stroke-linejoin: miter"/>
     <use xlink:href="#me4e6e36f78" x="320.649034" y="190.310213" style="fill: #22a884; stroke: #22a884; stroke-linejoin: miter"/>
     <use xlink:href="#me4e6e36f78" x="342.592356" y="184.292938" style="fill: #22a884; stroke: #22a884; stroke-linejoin: miter"/>
     <use xlink:href="#me4e6e36f78" x="364.535678" y="176.379371" style="fill: #22a884; stroke: #22a884; stroke-linejoin: miter"/>
     <use xlink:href="#me4e6e36f78" x="386.479" y="165.465629" style="fill: #22a884; stroke: #22a884; stroke-linejoin: miter"/>
     <use xlink:href="#me4e6e36f78" x="408.422313" y="150.999738" style="fill: #22a884; stroke: #22a884; stroke-linejoin: miter"/>
     <use xlink:href="#me4e6e36f78" x="430.365626" y="131.001995" style="fill: #22a884; stroke: #22a884; stroke-linejoin: miter"/>
     <use xlink:href="#me4e6e36f78" x="452.308958" y="108.059857" style="fill: #22a884; stroke: #22a884; stroke-linejoin: miter"/>
     <use xlink:href="#me4e6e36f78" x="474.252289" y="76.104915" style="fill: #22a884; stroke: #22a884; stroke-linejoin: miter"/>
     <use xlink:href="#me4e6e36f78" x="496.195602" y="36.891109" style="fill: #22a884; stroke: #22a884; stroke-linejoin: miter"/>
    </g>
   </g>
   <g id="line2d_35">
    <path d="M 298.705711 194.960057 
L 320.649034 191.627564 
L 342.592356 186.245597 
L 364.535678 178.580239 
L 386.479 168.058644 
L 408.422313 153.969353 
L 430.365626 133.833931 
L 452.308958 110.275724 
L 474.252289 78.755815 
L 496.195602 35.351754 
" clip-path="url(#p9ad8107d0a)" style="fill: none; stroke-dasharray: 1,1.65; stroke-dashoffset: 0; stroke: #7ad151"/>
    <defs>
     <path id="mee80920d72" d="M 0 2.12132 
L 2.12132 0 
L 0 -2.12132 
L -2.12132 0 
z
" style="stroke: #7ad151; stroke-linejoin: miter"/>
    </defs>
    <g clip-path="url(#p9ad8107d0a)">
     <use xlink:href="#mee80920d72" x="298.705711" y="194.960057" style="fill: #7ad151; stroke: #7ad151; stroke-linejoin: miter"/>
     <use xlink:href="#mee80920d72" x="320.649034" y="191.627564" style="fill: #7ad151; stroke: #7ad151; stroke-linejoin: miter"/>
     <use xlink:href="#mee80920d72" x="342.592356" y="186.245597" style="fill: #7ad151; stroke: #7ad151; stroke-linejoin: miter"/>
     <use xlink:href="#mee80920d72" x="364.535678" y="178.580239" style="fill: #7ad151; stroke: #7ad151; stroke-linejoin: miter"/>
     <use xlink:href="#mee80920d72" x="386.479" y="168.058644" style="fill: #7ad151; stroke: #7ad151; stroke-linejoin: miter"/>
     <use xlink:href="#mee80920d72" x="408.422313" y="153.969353" style="fill: #7ad151; stroke: #7ad151; stroke-linejoin: miter"/>
     <use xlink:href="#mee80920d72" x="430.365626" y="133.833931" style="fill: #7ad151; stroke: #7ad151; stroke-linejoin: miter"/>
     <use xlink:href="#mee80920d72" x="452.308958" y="110.275724" style="fill: #7ad151; stroke: #7ad151; stroke-linejoin: miter"/>
     <use xlink:href="#mee80920d72" x="474.252289" y="78.755815" style="fill: #7ad151; stroke: #7ad151; stroke-linejoin: miter"/>
     <use xlink:href="#mee80920d72" x="496.195602" y="35.351754" style="fill: #7ad151; stroke: #7ad151; stroke-linejoin: miter"/>
    </g>
   </g>
   <g id="patch_9">
    <path d="M 288.831217 202.940472 
L 288.831217 27.371339 
" style="fill: none; stroke: #000000; stroke-width: 0.8; stroke-linejoin: miter; stroke-linecap: square"/>
   </g>
   <g id="patch_10">
    <path d="M 506.070097 202.940472 
L 506.070097 27.371339 
" style="fill: none; stroke: #000000; stroke-width: 0.8; stroke-linejoin: miter; stroke-linecap: square"/>
   </g>
   <g id="patch_11">
    <path d="M 288.831217 202.940472 
L 506.070097 202.940472 
" style="fill: none; stroke: #000000; stroke-width: 0.8; stroke-linejoin: miter; stroke-linecap: square"/>
   </g>
   <g id="patch_12">
    <path d="M 288.831217 27.371339 
L 506.070097 27.371339 
" style="fill: none; stroke: #000000; stroke-width: 0.8; stroke-linejoin: miter; stroke-linecap: square"/>
   </g>
   <g id="text_35">
    <!-- (b) -->
    <g style="fill: #262626" transform="translate(258.55311 23.688663) scale(0.07 -0.07)">
     <defs>
      <path id="ArialMT-62" d="M 941 0 
L 419 0 
L 419 4581 
L 981 4581 
L 981 2947 
Q 1338 3394 1891 3394 
Q 2197 3394 2470 3270 
Q 2744 3147 2920 2923 
Q 3097 2700 3197 2384 
Q 3297 2069 3297 1709 
Q 3297 856 2875 390 
Q 2453 -75 1863 -75 
Q 1275 -75 941 416 
L 941 0 
z
M 934 1684 
Q 934 1088 1097 822 
Q 1363 388 1816 388 
Q 2184 388 2453 708 
Q 2722 1028 2722 1663 
Q 2722 2313 2464 2622 
Q 2206 2931 1841 2931 
Q 1472 2931 1203 2611 
Q 934 2291 934 1684 
z
" transform="scale(0.015625)"/>
     </defs>
     <use xlink:href="#ArialMT-28"/>
     <use xlink:href="#ArialMT-62" transform="translate(33.300781 0)"/>
     <use xlink:href="#ArialMT-29" transform="translate(88.916016 0)"/>
    </g>
   </g>
   <g id="legend_2">
    <g id="patch_13">
     <path d="M 293.731217 72.578214 
L 395.378873 72.578214 
Q 396.778873 72.578214 396.778873 71.178214 
L 396.778873 32.271339 
Q 396.778873 30.871339 395.378873 30.871339 
L 293.731217 30.871339 
Q 292.331217 30.871339 292.331217 32.271339 
L 292.331217 71.178214 
Q 292.331217 72.578214 293.731217 72.578214 
z
" style="fill: #ffffff; opacity: 0.8; stroke: #cccccc; stroke-linejoin: miter"/>
    </g>
    <g id="line2d_36">
     <path d="M 295.131217 36.231807 
L 302.131217 36.231807 
L 309.131217 36.231807 
" style="fill: none; stroke-dasharray: 1,1.65; stroke-dashoffset: 0; stroke: #414487"/>
     <g>
      <use xlink:href="#m1e9e931025" x="302.131217" y="36.231807" style="fill: #414487; stroke: #414487"/>
     </g>
    </g>
    <g id="text_36">
     <!-- Variance of Std at 48mA -->
     <g style="fill: #262626" transform="translate(314.731217 38.681807) scale(0.07 -0.07)">
      <defs>
       <path id="ArialMT-63" d="M 2588 1216 
L 3141 1144 
Q 3050 572 2676 248 
Q 2303 -75 1759 -75 
Q 1078 -75 664 370 
Q 250 816 250 1647 
Q 250 2184 428 2587 
Q 606 2991 970 3192 
Q 1334 3394 1763 3394 
Q 2303 3394 2647 3120 
Q 2991 2847 3088 2344 
L 2541 2259 
Q 2463 2594 2264 2762 
Q 2066 2931 1784 2931 
Q 1359 2931 1093 2626 
Q 828 2322 828 1663 
Q 828 994 1084 691 
Q 1341 388 1753 388 
Q 2084 388 2306 591 
Q 2528 794 2588 1216 
z
" transform="scale(0.015625)"/>
      </defs>
      <use xlink:href="#ArialMT-56"/>
      <use xlink:href="#ArialMT-61" transform="translate(59.324219 0)"/>
      <use xlink:href="#ArialMT-72" transform="translate(114.939453 0)"/>
      <use xlink:href="#ArialMT-69" transform="translate(148.240234 0)"/>
      <use xlink:href="#ArialMT-61" transform="translate(170.457031 0)"/>
      <use xlink:href="#ArialMT-6e" transform="translate(226.072266 0)"/>
      <use xlink:href="#ArialMT-63" transform="translate(281.6875 0)"/>
      <use xlink:href="#ArialMT-65" transform="translate(331.6875 0)"/>
      <use xlink:href="#ArialMT-20" transform="translate(387.302734 0)"/>
      <use xlink:href="#ArialMT-6f" transform="translate(415.085938 0)"/>
      <use xlink:href="#ArialMT-66" transform="translate(470.701172 0)"/>
      <use xlink:href="#ArialMT-20" transform="translate(498.484375 0)"/>
      <use xlink:href="#ArialMT-53" transform="translate(526.267578 0)"/>
      <use xlink:href="#ArialMT-74" transform="translate(592.966797 0)"/>
      <use xlink:href="#ArialMT-64" transform="translate(620.75 0)"/>
      <use xlink:href="#ArialMT-20" transform="translate(676.365234 0)"/>
      <use xlink:href="#ArialMT-61" transform="translate(704.148438 0)"/>
      <use xlink:href="#ArialMT-74" transform="translate(759.763672 0)"/>
      <use xlink:href="#ArialMT-20" transform="translate(787.546875 0)"/>
      <use xlink:href="#ArialMT-34" transform="translate(815.330078 0)"/>
      <use xlink:href="#ArialMT-38" transform="translate(870.945312 0)"/>
      <use xlink:href="#ArialMT-6d" transform="translate(926.560547 0)"/>
      <use xlink:href="#ArialMT-41" transform="translate(1009.861328 0)"/>
     </g>
    </g>
    <g id="line2d_37">
     <path d="M 295.131217 46.133526 
L 302.131217 46.133526 
L 309.131217 46.133526 
" style="fill: none; stroke-dasharray: 1,1.65; stroke-dashoffset: 0; stroke: #2a788e"/>
     <g>
      <use xlink:href="#md24c4f6699" x="302.131217" y="46.133526" style="fill: #2a788e; stroke: #2a788e; stroke-linejoin: miter"/>
     </g>
    </g>
    <g id="text_37">
     <!-- Variance of Std at 60mA -->
     <g style="fill: #262626" transform="translate(314.731217 48.583526) scale(0.07 -0.07)">
      <use xlink:href="#ArialMT-56"/>
      <use xlink:href="#ArialMT-61" transform="translate(59.324219 0)"/>
      <use xlink:href="#ArialMT-72" transform="translate(114.939453 0)"/>
      <use xlink:href="#ArialMT-69" transform="translate(148.240234 0)"/>
      <use xlink:href="#ArialMT-61" transform="translate(170.457031 0)"/>
      <use xlink:href="#ArialMT-6e" transform="translate(226.072266 0)"/>
      <use xlink:href="#ArialMT-63" transform="translate(281.6875 0)"/>
      <use xlink:href="#ArialMT-65" transform="translate(331.6875 0)"/>
      <use xlink:href="#ArialMT-20" transform="translate(387.302734 0)"/>
      <use xlink:href="#ArialMT-6f" transform="translate(415.085938 0)"/>
      <use xlink:href="#ArialMT-66" transform="translate(470.701172 0)"/>
      <use xlink:href="#ArialMT-20" transform="translate(498.484375 0)"/>
      <use xlink:href="#ArialMT-53" transform="translate(526.267578 0)"/>
      <use xlink:href="#ArialMT-74" transform="translate(592.966797 0)"/>
      <use xlink:href="#ArialMT-64" transform="translate(620.75 0)"/>
      <use xlink:href="#ArialMT-20" transform="translate(676.365234 0)"/>
      <use xlink:href="#ArialMT-61" transform="translate(704.148438 0)"/>
      <use xlink:href="#ArialMT-74" transform="translate(759.763672 0)"/>
      <use xlink:href="#ArialMT-20" transform="translate(787.546875 0)"/>
      <use xlink:href="#ArialMT-36" transform="translate(815.330078 0)"/>
      <use xlink:href="#ArialMT-30" transform="translate(870.945312 0)"/>
      <use xlink:href="#ArialMT-6d" transform="translate(926.560547 0)"/>
      <use xlink:href="#ArialMT-41" transform="translate(1009.861328 0)"/>
     </g>
    </g>
    <g id="line2d_38">
     <path d="M 295.131217 56.035245 
L 302.131217 56.035245 
L 309.131217 56.035245 
" style="fill: none; stroke-dasharray: 1,1.65; stroke-dashoffset: 0; stroke: #22a884"/>
     <g>
      <use xlink:href="#me4e6e36f78" x="302.131217" y="56.035245" style="fill: #22a884; stroke: #22a884; stroke-linejoin: miter"/>
     </g>
    </g>
    <g id="text_38">
     <!-- Variance of Std at 80mA -->
     <g style="fill: #262626" transform="translate(314.731217 58.485245) scale(0.07 -0.07)">
      <use xlink:href="#ArialMT-56"/>
      <use xlink:href="#ArialMT-61" transform="translate(59.324219 0)"/>
      <use xlink:href="#ArialMT-72" transform="translate(114.939453 0)"/>
      <use xlink:href="#ArialMT-69" transform="translate(148.240234 0)"/>
      <use xlink:href="#ArialMT-61" transform="translate(170.457031 0)"/>
      <use xlink:href="#ArialMT-6e" transform="translate(226.072266 0)"/>
      <use xlink:href="#ArialMT-63" transform="translate(281.6875 0)"/>
      <use xlink:href="#ArialMT-65" transform="translate(331.6875 0)"/>
      <use xlink:href="#ArialMT-20" transform="translate(387.302734 0)"/>
      <use xlink:href="#ArialMT-6f" transform="translate(415.085938 0)"/>
      <use xlink:href="#ArialMT-66" transform="translate(470.701172 0)"/>
      <use xlink:href="#ArialMT-20" transform="translate(498.484375 0)"/>
      <use xlink:href="#ArialMT-53" transform="translate(526.267578 0)"/>
      <use xlink:href="#ArialMT-74" transform="translate(592.966797 0)"/>
      <use xlink:href="#ArialMT-64" transform="translate(620.75 0)"/>
      <use xlink:href="#ArialMT-20" transform="translate(676.365234 0)"/>
      <use xlink:href="#ArialMT-61" transform="translate(704.148438 0)"/>
      <use xlink:href="#ArialMT-74" transform="translate(759.763672 0)"/>
      <use xlink:href="#ArialMT-20" transform="translate(787.546875 0)"/>
      <use xlink:href="#ArialMT-38" transform="translate(815.330078 0)"/>
      <use xlink:href="#ArialMT-30" transform="translate(870.945312 0)"/>
      <use xlink:href="#ArialMT-6d" transform="translate(926.560547 0)"/>
      <use xlink:href="#ArialMT-41" transform="translate(1009.861328 0)"/>
     </g>
    </g>
    <g id="line2d_39">
     <path d="M 295.131217 65.936964 
L 302.131217 65.936964 
L 309.131217 65.936964 
" style="fill: none; stroke-dasharray: 1,1.65; stroke-dashoffset: 0; stroke: #7ad151"/>
     <g>
      <use xlink:href="#mee80920d72" x="302.131217" y="65.936964" style="fill: #7ad151; stroke: #7ad151; stroke-linejoin: miter"/>
     </g>
    </g>
    <g id="text_39">
     <!-- Variance of Std at 121mA -->
     <g style="fill: #262626" transform="translate(314.731217 68.386964) scale(0.07 -0.07)">
      <use xlink:href="#ArialMT-56"/>
      <use xlink:href="#ArialMT-61" transform="translate(59.324219 0)"/>
      <use xlink:href="#ArialMT-72" transform="translate(114.939453 0)"/>
      <use xlink:href="#ArialMT-69" transform="translate(148.240234 0)"/>
      <use xlink:href="#ArialMT-61" transform="translate(170.457031 0)"/>
      <use xlink:href="#ArialMT-6e" transform="translate(226.072266 0)"/>
      <use xlink:href="#ArialMT-63" transform="translate(281.6875 0)"/>
      <use xlink:href="#ArialMT-65" transform="translate(331.6875 0)"/>
      <use xlink:href="#ArialMT-20" transform="translate(387.302734 0)"/>
      <use xlink:href="#ArialMT-6f" transform="translate(415.085938 0)"/>
      <use xlink:href="#ArialMT-66" transform="translate(470.701172 0)"/>
      <use xlink:href="#ArialMT-20" transform="translate(498.484375 0)"/>
      <use xlink:href="#ArialMT-53" transform="translate(526.267578 0)"/>
      <use xlink:href="#ArialMT-74" transform="translate(592.966797 0)"/>
      <use xlink:href="#ArialMT-64" transform="translate(620.75 0)"/>
      <use xlink:href="#ArialMT-20" transform="translate(676.365234 0)"/>
      <use xlink:href="#ArialMT-61" transform="translate(704.148438 0)"/>
      <use xlink:href="#ArialMT-74" transform="translate(759.763672 0)"/>
      <use xlink:href="#ArialMT-20" transform="translate(787.546875 0)"/>
      <use xlink:href="#ArialMT-31" transform="translate(815.330078 0)"/>
      <use xlink:href="#ArialMT-32" transform="translate(870.945312 0)"/>
      <use xlink:href="#ArialMT-31" transform="translate(926.560547 0)"/>
      <use xlink:href="#ArialMT-6d" transform="translate(982.175781 0)"/>
      <use xlink:href="#ArialMT-41" transform="translate(1065.476562 0)"/>
     </g>
    </g>
   </g>
  </g>
  <g id="text_40">
   <!-- Learned Uncertainty Variances vs Normalized Input Power -->
   <g style="fill: #262626" transform="translate(149.808768 13.212562) scale(0.084 -0.084)">
    <defs>
     <path id="ArialMT-55" d="M 3500 4581 
L 4106 4581 
L 4106 1934 
Q 4106 1244 3950 837 
Q 3794 431 3386 176 
Q 2978 -78 2316 -78 
Q 1672 -78 1262 144 
Q 853 366 678 786 
Q 503 1206 503 1934 
L 503 4581 
L 1109 4581 
L 1109 1938 
Q 1109 1341 1220 1058 
Q 1331 775 1601 622 
Q 1872 469 2263 469 
Q 2931 469 3215 772 
Q 3500 1075 3500 1938 
L 3500 4581 
z
" transform="scale(0.015625)"/>
     <path id="ArialMT-79" d="M 397 -1278 
L 334 -750 
Q 519 -800 656 -800 
Q 844 -800 956 -737 
Q 1069 -675 1141 -563 
Q 1194 -478 1313 -144 
Q 1328 -97 1363 -6 
L 103 3319 
L 709 3319 
L 1400 1397 
Q 1534 1031 1641 628 
Q 1738 1016 1872 1384 
L 2581 3319 
L 3144 3319 
L 1881 -56 
Q 1678 -603 1566 -809 
Q 1416 -1088 1222 -1217 
Q 1028 -1347 759 -1347 
Q 597 -1347 397 -1278 
z
" transform="scale(0.015625)"/>
     <path id="ArialMT-73" d="M 197 991 
L 753 1078 
Q 800 744 1014 566 
Q 1228 388 1613 388 
Q 2000 388 2187 545 
Q 2375 703 2375 916 
Q 2375 1106 2209 1216 
Q 2094 1291 1634 1406 
Q 1016 1563 777 1677 
Q 538 1791 414 1992 
Q 291 2194 291 2438 
Q 291 2659 392 2848 
Q 494 3038 669 3163 
Q 800 3259 1026 3326 
Q 1253 3394 1513 3394 
Q 1903 3394 2198 3281 
Q 2494 3169 2634 2976 
Q 2775 2784 2828 2463 
L 2278 2388 
Q 2241 2644 2061 2787 
Q 1881 2931 1553 2931 
Q 1166 2931 1000 2803 
Q 834 2675 834 2503 
Q 834 2394 903 2306 
Q 972 2216 1119 2156 
Q 1203 2125 1616 2013 
Q 2213 1853 2448 1751 
Q 2684 1650 2818 1456 
Q 2953 1263 2953 975 
Q 2953 694 2789 445 
Q 2625 197 2315 61 
Q 2006 -75 1616 -75 
Q 969 -75 630 194 
Q 291 463 197 991 
z
" transform="scale(0.015625)"/>
    </defs>
    <use xlink:href="#ArialMT-4c"/>
    <use xlink:href="#ArialMT-65" transform="translate(55.615234 0)"/>
    <use xlink:href="#ArialMT-61" transform="translate(111.230469 0)"/>
    <use xlink:href="#ArialMT-72" transform="translate(166.845703 0)"/>
    <use xlink:href="#ArialMT-6e" transform="translate(200.146484 0)"/>
    <use xlink:href="#ArialMT-65" transform="translate(255.761719 0)"/>
    <use xlink:href="#ArialMT-64" transform="translate(311.376953 0)"/>
    <use xlink:href="#ArialMT-20" transform="translate(366.992188 0)"/>
    <use xlink:href="#ArialMT-55" transform="translate(394.775391 0)"/>
    <use xlink:href="#ArialMT-6e" transform="translate(466.992188 0)"/>
    <use xlink:href="#ArialMT-63" transform="translate(522.607422 0)"/>
    <use xlink:href="#ArialMT-65" transform="translate(572.607422 0)"/>
    <use xlink:href="#ArialMT-72" transform="translate(628.222656 0)"/>
    <use xlink:href="#ArialMT-74" transform="translate(661.523438 0)"/>
    <use xlink:href="#ArialMT-61" transform="translate(689.306641 0)"/>
    <use xlink:href="#ArialMT-69" transform="translate(744.921875 0)"/>
    <use xlink:href="#ArialMT-6e" transform="translate(767.138672 0)"/>
    <use xlink:href="#ArialMT-74" transform="translate(822.753906 0)"/>
    <use xlink:href="#ArialMT-79" transform="translate(850.537109 0)"/>
    <use xlink:href="#ArialMT-20" transform="translate(900.537109 0)"/>
    <use xlink:href="#ArialMT-56" transform="translate(928.320312 0)"/>
    <use xlink:href="#ArialMT-61" transform="translate(987.644531 0)"/>
    <use xlink:href="#ArialMT-72" transform="translate(1043.259766 0)"/>
    <use xlink:href="#ArialMT-69" transform="translate(1076.560547 0)"/>
    <use xlink:href="#ArialMT-61" transform="translate(1098.777344 0)"/>
    <use xlink:href="#ArialMT-6e" transform="translate(1154.392578 0)"/>
    <use xlink:href="#ArialMT-63" transform="translate(1210.007812 0)"/>
    <use xlink:href="#ArialMT-65" transform="translate(1260.007812 0)"/>
    <use xlink:href="#ArialMT-73" transform="translate(1315.623047 0)"/>
    <use xlink:href="#ArialMT-20" transform="translate(1365.623047 0)"/>
    <use xlink:href="#ArialMT-76" transform="translate(1393.40625 0)"/>
    <use xlink:href="#ArialMT-73" transform="translate(1443.40625 0)"/>
    <use xlink:href="#ArialMT-20" transform="translate(1493.40625 0)"/>
    <use xlink:href="#ArialMT-4e" transform="translate(1521.189453 0)"/>
    <use xlink:href="#ArialMT-6f" transform="translate(1593.40625 0)"/>
    <use xlink:href="#ArialMT-72" transform="translate(1649.021484 0)"/>
    <use xlink:href="#ArialMT-6d" transform="translate(1682.322266 0)"/>
    <use xlink:href="#ArialMT-61" transform="translate(1765.623047 0)"/>
    <use xlink:href="#ArialMT-6c" transform="translate(1821.238281 0)"/>
    <use xlink:href="#ArialMT-69" transform="translate(1843.455078 0)"/>
    <use xlink:href="#ArialMT-7a" transform="translate(1865.671875 0)"/>
    <use xlink:href="#ArialMT-65" transform="translate(1915.671875 0)"/>
    <use xlink:href="#ArialMT-64" transform="translate(1971.287109 0)"/>
    <use xlink:href="#ArialMT-20" transform="translate(2026.902344 0)"/>
    <use xlink:href="#ArialMT-49" transform="translate(2054.685547 0)"/>
    <use xlink:href="#ArialMT-6e" transform="translate(2082.46875 0)"/>
    <use xlink:href="#ArialMT-70" transform="translate(2138.083984 0)"/>
    <use xlink:href="#ArialMT-75" transform="translate(2193.699219 0)"/>
    <use xlink:href="#ArialMT-74" transform="translate(2249.314453 0)"/>
    <use xlink:href="#ArialMT-20" transform="translate(2277.097656 0)"/>
    <use xlink:href="#ArialMT-50" transform="translate(2304.880859 0)"/>
    <use xlink:href="#ArialMT-6f" transform="translate(2371.580078 0)"/>
    <use xlink:href="#ArialMT-77" transform="translate(2427.195312 0)"/>
    <use xlink:href="#ArialMT-65" transform="translate(2499.412109 0)"/>
    <use xlink:href="#ArialMT-72" transform="translate(2555.027344 0)"/>
   </g>
  </g>
 </g>
 <defs>
  <clipPath id="paaaece5b11">
   <rect x="37.478107" y="27.371339" width="217.23888" height="175.569134"/>
  </clipPath>
  <clipPath id="p9ad8107d0a">
   <rect x="288.831217" y="27.371339" width="217.23888" height="175.569134"/>
  </clipPath>
 </defs>
</svg>
