<?xml version="1.0" encoding="utf-8" standalone="no"?>
<!DOCTYPE svg PUBLIC "-//W3C//DTD SVG 1.1//EN"
  "http://www.w3.org/Graphics/SVG/1.1/DTD/svg11.dtd">
<svg xmlns:xlink="http://www.w3.org/1999/xlink" width="430.966665pt" height="251.685316pt" viewBox="0 0 430.966665 251.685316" xmlns="http://www.w3.org/2000/svg" version="1.1">
 <metadata>
  <rdf:RDF xmlns:dc="http://purl.org/dc/elements/1.1/" xmlns:cc="http://creativecommons.org/ns#" xmlns:rdf="http://www.w3.org/1999/02/22-rdf-syntax-ns#">
   <cc:Work>
    <dc:type rdf:resource="http://purl.org/dc/dcmitype/StillImage"/>
    <dc:date>2025-12-19T16:55:27.323810</dc:date>
    <dc:format>image/svg+xml</dc:format>
    <dc:creator>
     <cc:Agent>
      <dc:title>Matplotlib v3.10.6, https://matplotlib.org/</dc:title>
     </cc:Agent>
    </dc:creator>
   </cc:Work>
  </rdf:RDF>
 </metadata>
 <defs>
  <style type="text/css">*{stroke-linejoin: round; stroke-linecap: butt}</style>
 </defs>
 <g id="figure_1">
  <g id="patch_1">
   <path d="M 0 251.685316 
L 430.966665 251.685316 
L 430.966665 0 
L 0 0 
L 0 251.685316 
z
" style="fill: none"/>
  </g>
  <g id="axes_1">
   <g id="patch_2">
    <path d="M 28.333594 224.220472 
L 208.075899 224.220472 
L 208.075899 32.144882 
L 28.333594 32.144882 
L 28.333594 224.220472 
z
" style="fill: none"/>
   </g>
   <g id="matplotlib.axis_1">
    <g id="xtick_1">
     <g id="line2d_1">
      <path d="M 36.503699 224.220472 
L 36.503699 32.144882 
" clip-path="url(#p7f27b3495e)" style="fill: none; stroke: #cccccc; stroke-width: 0.8; stroke-linecap: round"/>
     </g>
     <g id="text_1">
      <!-- 0.5 -->
      <g style="fill: #262626" transform="translate(33.028699 234.799379) scale(0.05 -0.05)">
       <defs>
        <path id="ArialMT-30" d="M 266 2259 
Q 266 3072 433 3567 
Q 600 4063 929 4331 
Q 1259 4600 1759 4600 
Q 2128 4600 2406 4451 
Q 2684 4303 2865 4023 
Q 3047 3744 3150 3342 
Q 3253 2941 3253 2259 
Q 3253 1453 3087 958 
Q 2922 463 2592 192 
Q 2263 -78 1759 -78 
Q 1097 -78 719 397 
Q 266 969 266 2259 
z
M 844 2259 
Q 844 1131 1108 757 
Q 1372 384 1759 384 
Q 2147 384 2411 759 
Q 2675 1134 2675 2259 
Q 2675 3391 2411 3762 
Q 2147 4134 1753 4134 
Q 1366 4134 1134 3806 
Q 844 3388 844 2259 
z
" transform="scale(0.015625)"/>
        <path id="ArialMT-2e" d="M 581 0 
L 581 641 
L 1222 641 
L 1222 0 
L 581 0 
z
" transform="scale(0.015625)"/>
        <path id="ArialMT-35" d="M 266 1200 
L 856 1250 
Q 922 819 1161 601 
Q 1400 384 1738 384 
Q 2144 384 2425 690 
Q 2706 997 2706 1503 
Q 2706 1984 2436 2262 
Q 2166 2541 1728 2541 
Q 1456 2541 1237 2417 
Q 1019 2294 894 2097 
L 366 2166 
L 809 4519 
L 3088 4519 
L 3088 3981 
L 1259 3981 
L 1013 2750 
Q 1425 3038 1878 3038 
Q 2478 3038 2890 2622 
Q 3303 2206 3303 1553 
Q 3303 931 2941 478 
Q 2500 -78 1738 -78 
Q 1113 -78 717 272 
Q 322 622 266 1200 
z
" transform="scale(0.015625)"/>
       </defs>
       <use xlink:href="#ArialMT-30"/>
       <use xlink:href="#ArialMT-2e" transform="translate(55.615234 0)"/>
       <use xlink:href="#ArialMT-35" transform="translate(83.398438 0)"/>
      </g>
     </g>
    </g>
    <g id="xtick_2">
     <g id="line2d_2">
      <path d="M 69.184118 224.220472 
L 69.184118 32.144882 
" clip-path="url(#p7f27b3495e)" style="fill: none; stroke: #cccccc; stroke-width: 0.8; stroke-linecap: round"/>
     </g>
     <g id="text_2">
      <!-- 1.0 -->
      <g style="fill: #262626" transform="translate(65.709118 234.799379) scale(0.05 -0.05)">
       <defs>
        <path id="ArialMT-31" d="M 2384 0 
L 1822 0 
L 1822 3584 
Q 1619 3391 1289 3197 
Q 959 3003 697 2906 
L 697 3450 
Q 1169 3672 1522 3987 
Q 1875 4303 2022 4600 
L 2384 4600 
L 2384 0 
z
" transform="scale(0.015625)"/>
       </defs>
       <use xlink:href="#ArialMT-31"/>
       <use xlink:href="#ArialMT-2e" transform="translate(55.615234 0)"/>
       <use xlink:href="#ArialMT-30" transform="translate(83.398438 0)"/>
      </g>
     </g>
    </g>
    <g id="xtick_3">
     <g id="line2d_3">
      <path d="M 101.864537 224.220472 
L 101.864537 32.144882 
" clip-path="url(#p7f27b3495e)" style="fill: none; stroke: #cccccc; stroke-width: 0.8; stroke-linecap: round"/>
     </g>
     <g id="text_3">
      <!-- 1.5 -->
      <g style="fill: #262626" transform="translate(98.389537 234.799379) scale(0.05 -0.05)">
       <use xlink:href="#ArialMT-31"/>
       <use xlink:href="#ArialMT-2e" transform="translate(55.615234 0)"/>
       <use xlink:href="#ArialMT-35" transform="translate(83.398438 0)"/>
      </g>
     </g>
    </g>
    <g id="xtick_4">
     <g id="line2d_4">
      <path d="M 134.544956 224.220472 
L 134.544956 32.144882 
" clip-path="url(#p7f27b3495e)" style="fill: none; stroke: #cccccc; stroke-width: 0.8; stroke-linecap: round"/>
     </g>
     <g id="text_4">
      <!-- 2.0 -->
      <g style="fill: #262626" transform="translate(131.069956 234.799379) scale(0.05 -0.05)">
       <defs>
        <path id="ArialMT-32" d="M 3222 541 
L 3222 0 
L 194 0 
Q 188 203 259 391 
Q 375 700 629 1000 
Q 884 1300 1366 1694 
Q 2113 2306 2375 2664 
Q 2638 3022 2638 3341 
Q 2638 3675 2398 3904 
Q 2159 4134 1775 4134 
Q 1369 4134 1125 3890 
Q 881 3647 878 3216 
L 300 3275 
Q 359 3922 746 4261 
Q 1134 4600 1788 4600 
Q 2447 4600 2831 4234 
Q 3216 3869 3216 3328 
Q 3216 3053 3103 2787 
Q 2991 2522 2730 2228 
Q 2469 1934 1863 1422 
Q 1356 997 1212 845 
Q 1069 694 975 541 
L 3222 541 
z
" transform="scale(0.015625)"/>
       </defs>
       <use xlink:href="#ArialMT-32"/>
       <use xlink:href="#ArialMT-2e" transform="translate(55.615234 0)"/>
       <use xlink:href="#ArialMT-30" transform="translate(83.398438 0)"/>
      </g>
     </g>
    </g>
    <g id="xtick_5">
     <g id="line2d_5">
      <path d="M 167.225375 224.220472 
L 167.225375 32.144882 
" clip-path="url(#p7f27b3495e)" style="fill: none; stroke: #cccccc; stroke-width: 0.8; stroke-linecap: round"/>
     </g>
     <g id="text_5">
      <!-- 2.5 -->
      <g style="fill: #262626" transform="translate(163.750375 234.799379) scale(0.05 -0.05)">
       <use xlink:href="#ArialMT-32"/>
       <use xlink:href="#ArialMT-2e" transform="translate(55.615234 0)"/>
       <use xlink:href="#ArialMT-35" transform="translate(83.398438 0)"/>
      </g>
     </g>
    </g>
    <g id="xtick_6">
     <g id="line2d_6">
      <path d="M 199.905794 224.220472 
L 199.905794 32.144882 
" clip-path="url(#p7f27b3495e)" style="fill: none; stroke: #cccccc; stroke-width: 0.8; stroke-linecap: round"/>
     </g>
     <g id="text_6">
      <!-- 3.0 -->
      <g style="fill: #262626" transform="translate(196.430794 234.799379) scale(0.05 -0.05)">
       <defs>
        <path id="ArialMT-33" d="M 269 1209 
L 831 1284 
Q 928 806 1161 595 
Q 1394 384 1728 384 
Q 2125 384 2398 659 
Q 2672 934 2672 1341 
Q 2672 1728 2419 1979 
Q 2166 2231 1775 2231 
Q 1616 2231 1378 2169 
L 1441 2663 
Q 1497 2656 1531 2656 
Q 1891 2656 2178 2843 
Q 2466 3031 2466 3422 
Q 2466 3731 2256 3934 
Q 2047 4138 1716 4138 
Q 1388 4138 1169 3931 
Q 950 3725 888 3313 
L 325 3413 
Q 428 3978 793 4289 
Q 1159 4600 1703 4600 
Q 2078 4600 2393 4439 
Q 2709 4278 2876 4000 
Q 3044 3722 3044 3409 
Q 3044 3113 2884 2869 
Q 2725 2625 2413 2481 
Q 2819 2388 3044 2092 
Q 3269 1797 3269 1353 
Q 3269 753 2831 336 
Q 2394 -81 1725 -81 
Q 1122 -81 723 278 
Q 325 638 269 1209 
z
" transform="scale(0.015625)"/>
       </defs>
       <use xlink:href="#ArialMT-33"/>
       <use xlink:href="#ArialMT-2e" transform="translate(55.615234 0)"/>
       <use xlink:href="#ArialMT-30" transform="translate(83.398438 0)"/>
      </g>
     </g>
    </g>
    <g id="text_7">
     <!-- Input Power Level (Mean Squared Amplitude) -->
     <g style="fill: #262626" transform="translate(67.762168 243.432972) scale(0.05 -0.05)">
      <defs>
       <path id="ArialMT-49" d="M 597 0 
L 597 4581 
L 1203 4581 
L 1203 0 
L 597 0 
z
" transform="scale(0.015625)"/>
       <path id="ArialMT-6e" d="M 422 0 
L 422 3319 
L 928 3319 
L 928 2847 
Q 1294 3394 1984 3394 
Q 2284 3394 2536 3286 
Q 2788 3178 2913 3003 
Q 3038 2828 3088 2588 
Q 3119 2431 3119 2041 
L 3119 0 
L 2556 0 
L 2556 2019 
Q 2556 2363 2490 2533 
Q 2425 2703 2258 2804 
Q 2091 2906 1866 2906 
Q 1506 2906 1245 2678 
Q 984 2450 984 1813 
L 984 0 
L 422 0 
z
" transform="scale(0.015625)"/>
       <path id="ArialMT-70" d="M 422 -1272 
L 422 3319 
L 934 3319 
L 934 2888 
Q 1116 3141 1344 3267 
Q 1572 3394 1897 3394 
Q 2322 3394 2647 3175 
Q 2972 2956 3137 2557 
Q 3303 2159 3303 1684 
Q 3303 1175 3120 767 
Q 2938 359 2589 142 
Q 2241 -75 1856 -75 
Q 1575 -75 1351 44 
Q 1128 163 984 344 
L 984 -1272 
L 422 -1272 
z
M 931 1641 
Q 931 1000 1190 694 
Q 1450 388 1819 388 
Q 2194 388 2461 705 
Q 2728 1022 2728 1688 
Q 2728 2322 2467 2637 
Q 2206 2953 1844 2953 
Q 1484 2953 1207 2617 
Q 931 2281 931 1641 
z
" transform="scale(0.015625)"/>
       <path id="ArialMT-75" d="M 2597 0 
L 2597 488 
Q 2209 -75 1544 -75 
Q 1250 -75 995 37 
Q 741 150 617 320 
Q 494 491 444 738 
Q 409 903 409 1263 
L 409 3319 
L 972 3319 
L 972 1478 
Q 972 1038 1006 884 
Q 1059 663 1231 536 
Q 1403 409 1656 409 
Q 1909 409 2131 539 
Q 2353 669 2445 892 
Q 2538 1116 2538 1541 
L 2538 3319 
L 3100 3319 
L 3100 0 
L 2597 0 
z
" transform="scale(0.015625)"/>
       <path id="ArialMT-74" d="M 1650 503 
L 1731 6 
Q 1494 -44 1306 -44 
Q 1000 -44 831 53 
Q 663 150 594 308 
Q 525 466 525 972 
L 525 2881 
L 113 2881 
L 113 3319 
L 525 3319 
L 525 4141 
L 1084 4478 
L 1084 3319 
L 1650 3319 
L 1650 2881 
L 1084 2881 
L 1084 941 
Q 1084 700 1114 631 
Q 1144 563 1211 522 
Q 1278 481 1403 481 
Q 1497 481 1650 503 
z
" transform="scale(0.015625)"/>
       <path id="ArialMT-20" transform="scale(0.015625)"/>
       <path id="ArialMT-50" d="M 494 0 
L 494 4581 
L 2222 4581 
Q 2678 4581 2919 4538 
Q 3256 4481 3484 4323 
Q 3713 4166 3852 3881 
Q 3991 3597 3991 3256 
Q 3991 2672 3619 2267 
Q 3247 1863 2275 1863 
L 1100 1863 
L 1100 0 
L 494 0 
z
M 1100 2403 
L 2284 2403 
Q 2872 2403 3119 2622 
Q 3366 2841 3366 3238 
Q 3366 3525 3220 3729 
Q 3075 3934 2838 4000 
Q 2684 4041 2272 4041 
L 1100 4041 
L 1100 2403 
z
" transform="scale(0.015625)"/>
       <path id="ArialMT-6f" d="M 213 1659 
Q 213 2581 725 3025 
Q 1153 3394 1769 3394 
Q 2453 3394 2887 2945 
Q 3322 2497 3322 1706 
Q 3322 1066 3130 698 
Q 2938 331 2570 128 
Q 2203 -75 1769 -75 
Q 1072 -75 642 372 
Q 213 819 213 1659 
z
M 791 1659 
Q 791 1022 1069 705 
Q 1347 388 1769 388 
Q 2188 388 2466 706 
Q 2744 1025 2744 1678 
Q 2744 2294 2464 2611 
Q 2184 2928 1769 2928 
Q 1347 2928 1069 2612 
Q 791 2297 791 1659 
z
" transform="scale(0.015625)"/>
       <path id="ArialMT-77" d="M 1034 0 
L 19 3319 
L 600 3319 
L 1128 1403 
L 1325 691 
Q 1338 744 1497 1375 
L 2025 3319 
L 2603 3319 
L 3100 1394 
L 3266 759 
L 3456 1400 
L 4025 3319 
L 4572 3319 
L 3534 0 
L 2950 0 
L 2422 1988 
L 2294 2553 
L 1622 0 
L 1034 0 
z
" transform="scale(0.015625)"/>
       <path id="ArialMT-65" d="M 2694 1069 
L 3275 997 
Q 3138 488 2766 206 
Q 2394 -75 1816 -75 
Q 1088 -75 661 373 
Q 234 822 234 1631 
Q 234 2469 665 2931 
Q 1097 3394 1784 3394 
Q 2450 3394 2872 2941 
Q 3294 2488 3294 1666 
Q 3294 1616 3291 1516 
L 816 1516 
Q 847 969 1125 678 
Q 1403 388 1819 388 
Q 2128 388 2347 550 
Q 2566 713 2694 1069 
z
M 847 1978 
L 2700 1978 
Q 2663 2397 2488 2606 
Q 2219 2931 1791 2931 
Q 1403 2931 1139 2672 
Q 875 2413 847 1978 
z
" transform="scale(0.015625)"/>
       <path id="ArialMT-72" d="M 416 0 
L 416 3319 
L 922 3319 
L 922 2816 
Q 1116 3169 1280 3281 
Q 1444 3394 1641 3394 
Q 1925 3394 2219 3213 
L 2025 2691 
Q 1819 2813 1613 2813 
Q 1428 2813 1281 2702 
Q 1134 2591 1072 2394 
Q 978 2094 978 1738 
L 978 0 
L 416 0 
z
" transform="scale(0.015625)"/>
       <path id="ArialMT-4c" d="M 469 0 
L 469 4581 
L 1075 4581 
L 1075 541 
L 3331 541 
L 3331 0 
L 469 0 
z
" transform="scale(0.015625)"/>
       <path id="ArialMT-76" d="M 1344 0 
L 81 3319 
L 675 3319 
L 1388 1331 
Q 1503 1009 1600 663 
Q 1675 925 1809 1294 
L 2547 3319 
L 3125 3319 
L 1869 0 
L 1344 0 
z
" transform="scale(0.015625)"/>
       <path id="ArialMT-6c" d="M 409 0 
L 409 4581 
L 972 4581 
L 972 0 
L 409 0 
z
" transform="scale(0.015625)"/>
       <path id="ArialMT-28" d="M 1497 -1347 
Q 1031 -759 709 28 
Q 388 816 388 1659 
Q 388 2403 628 3084 
Q 909 3875 1497 4659 
L 1900 4659 
Q 1522 4009 1400 3731 
Q 1209 3300 1100 2831 
Q 966 2247 966 1656 
Q 966 153 1900 -1347 
L 1497 -1347 
z
" transform="scale(0.015625)"/>
       <path id="ArialMT-4d" d="M 475 0 
L 475 4581 
L 1388 4581 
L 2472 1338 
Q 2622 884 2691 659 
Q 2769 909 2934 1394 
L 4031 4581 
L 4847 4581 
L 4847 0 
L 4263 0 
L 4263 3834 
L 2931 0 
L 2384 0 
L 1059 3900 
L 1059 0 
L 475 0 
z
" transform="scale(0.015625)"/>
       <path id="ArialMT-61" d="M 2588 409 
Q 2275 144 1986 34 
Q 1697 -75 1366 -75 
Q 819 -75 525 192 
Q 231 459 231 875 
Q 231 1119 342 1320 
Q 453 1522 633 1644 
Q 813 1766 1038 1828 
Q 1203 1872 1538 1913 
Q 2219 1994 2541 2106 
Q 2544 2222 2544 2253 
Q 2544 2597 2384 2738 
Q 2169 2928 1744 2928 
Q 1347 2928 1158 2789 
Q 969 2650 878 2297 
L 328 2372 
Q 403 2725 575 2942 
Q 747 3159 1072 3276 
Q 1397 3394 1825 3394 
Q 2250 3394 2515 3294 
Q 2781 3194 2906 3042 
Q 3031 2891 3081 2659 
Q 3109 2516 3109 2141 
L 3109 1391 
Q 3109 606 3145 398 
Q 3181 191 3288 0 
L 2700 0 
Q 2613 175 2588 409 
z
M 2541 1666 
Q 2234 1541 1622 1453 
Q 1275 1403 1131 1340 
Q 988 1278 909 1158 
Q 831 1038 831 891 
Q 831 666 1001 516 
Q 1172 366 1500 366 
Q 1825 366 2078 508 
Q 2331 650 2450 897 
Q 2541 1088 2541 1459 
L 2541 1666 
z
" transform="scale(0.015625)"/>
       <path id="ArialMT-53" d="M 288 1472 
L 859 1522 
Q 900 1178 1048 958 
Q 1197 738 1509 602 
Q 1822 466 2213 466 
Q 2559 466 2825 569 
Q 3091 672 3220 851 
Q 3350 1031 3350 1244 
Q 3350 1459 3225 1620 
Q 3100 1781 2813 1891 
Q 2628 1963 1997 2114 
Q 1366 2266 1113 2400 
Q 784 2572 623 2826 
Q 463 3081 463 3397 
Q 463 3744 659 4045 
Q 856 4347 1234 4503 
Q 1613 4659 2075 4659 
Q 2584 4659 2973 4495 
Q 3363 4331 3572 4012 
Q 3781 3694 3797 3291 
L 3216 3247 
Q 3169 3681 2898 3903 
Q 2628 4125 2100 4125 
Q 1550 4125 1298 3923 
Q 1047 3722 1047 3438 
Q 1047 3191 1225 3031 
Q 1400 2872 2139 2705 
Q 2878 2538 3153 2413 
Q 3553 2228 3743 1945 
Q 3934 1663 3934 1294 
Q 3934 928 3725 604 
Q 3516 281 3123 101 
Q 2731 -78 2241 -78 
Q 1619 -78 1198 103 
Q 778 284 539 648 
Q 300 1013 288 1472 
z
" transform="scale(0.015625)"/>
       <path id="ArialMT-71" d="M 2538 -1272 
L 2538 353 
Q 2406 169 2170 47 
Q 1934 -75 1669 -75 
Q 1078 -75 651 397 
Q 225 869 225 1691 
Q 225 2191 398 2587 
Q 572 2984 901 3189 
Q 1231 3394 1625 3394 
Q 2241 3394 2594 2875 
L 2594 3319 
L 3100 3319 
L 3100 -1272 
L 2538 -1272 
z
M 803 1669 
Q 803 1028 1072 708 
Q 1341 388 1716 388 
Q 2075 388 2334 692 
Q 2594 997 2594 1619 
Q 2594 2281 2320 2615 
Q 2047 2950 1678 2950 
Q 1313 2950 1058 2639 
Q 803 2328 803 1669 
z
" transform="scale(0.015625)"/>
       <path id="ArialMT-64" d="M 2575 0 
L 2575 419 
Q 2259 -75 1647 -75 
Q 1250 -75 917 144 
Q 584 363 401 755 
Q 219 1147 219 1656 
Q 219 2153 384 2558 
Q 550 2963 881 3178 
Q 1213 3394 1622 3394 
Q 1922 3394 2156 3267 
Q 2391 3141 2538 2938 
L 2538 4581 
L 3097 4581 
L 3097 0 
L 2575 0 
z
M 797 1656 
Q 797 1019 1065 703 
Q 1334 388 1700 388 
Q 2069 388 2326 689 
Q 2584 991 2584 1609 
Q 2584 2291 2321 2609 
Q 2059 2928 1675 2928 
Q 1300 2928 1048 2622 
Q 797 2316 797 1656 
z
" transform="scale(0.015625)"/>
       <path id="ArialMT-41" d="M -9 0 
L 1750 4581 
L 2403 4581 
L 4278 0 
L 3588 0 
L 3053 1388 
L 1138 1388 
L 634 0 
L -9 0 
z
M 1313 1881 
L 2866 1881 
L 2388 3150 
Q 2169 3728 2063 4100 
Q 1975 3659 1816 3225 
L 1313 1881 
z
" transform="scale(0.015625)"/>
       <path id="ArialMT-6d" d="M 422 0 
L 422 3319 
L 925 3319 
L 925 2853 
Q 1081 3097 1340 3245 
Q 1600 3394 1931 3394 
Q 2300 3394 2536 3241 
Q 2772 3088 2869 2813 
Q 3263 3394 3894 3394 
Q 4388 3394 4653 3120 
Q 4919 2847 4919 2278 
L 4919 0 
L 4359 0 
L 4359 2091 
Q 4359 2428 4304 2576 
Q 4250 2725 4106 2815 
Q 3963 2906 3769 2906 
Q 3419 2906 3187 2673 
Q 2956 2441 2956 1928 
L 2956 0 
L 2394 0 
L 2394 2156 
Q 2394 2531 2256 2718 
Q 2119 2906 1806 2906 
Q 1569 2906 1367 2781 
Q 1166 2656 1075 2415 
Q 984 2175 984 1722 
L 984 0 
L 422 0 
z
" transform="scale(0.015625)"/>
       <path id="ArialMT-69" d="M 425 3934 
L 425 4581 
L 988 4581 
L 988 3934 
L 425 3934 
z
M 425 0 
L 425 3319 
L 988 3319 
L 988 0 
L 425 0 
z
" transform="scale(0.015625)"/>
       <path id="ArialMT-29" d="M 791 -1347 
L 388 -1347 
Q 1322 153 1322 1656 
Q 1322 2244 1188 2822 
Q 1081 3291 891 3722 
Q 769 4003 388 4659 
L 791 4659 
Q 1378 3875 1659 3084 
Q 1900 2403 1900 1659 
Q 1900 816 1576 28 
Q 1253 -759 791 -1347 
z
" transform="scale(0.015625)"/>
      </defs>
      <use xlink:href="#ArialMT-49"/>
      <use xlink:href="#ArialMT-6e" transform="translate(27.783203 0)"/>
      <use xlink:href="#ArialMT-70" transform="translate(83.398438 0)"/>
      <use xlink:href="#ArialMT-75" transform="translate(139.013672 0)"/>
      <use xlink:href="#ArialMT-74" transform="translate(194.628906 0)"/>
      <use xlink:href="#ArialMT-20" transform="translate(222.412109 0)"/>
      <use xlink:href="#ArialMT-50" transform="translate(250.195312 0)"/>
      <use xlink:href="#ArialMT-6f" transform="translate(316.894531 0)"/>
      <use xlink:href="#ArialMT-77" transform="translate(372.509766 0)"/>
      <use xlink:href="#ArialMT-65" transform="translate(444.726562 0)"/>
      <use xlink:href="#ArialMT-72" transform="translate(500.341797 0)"/>
      <use xlink:href="#ArialMT-20" transform="translate(533.642578 0)"/>
      <use xlink:href="#ArialMT-4c" transform="translate(561.425781 0)"/>
      <use xlink:href="#ArialMT-65" transform="translate(617.041016 0)"/>
      <use xlink:href="#ArialMT-76" transform="translate(672.65625 0)"/>
      <use xlink:href="#ArialMT-65" transform="translate(722.65625 0)"/>
      <use xlink:href="#ArialMT-6c" transform="translate(778.271484 0)"/>
      <use xlink:href="#ArialMT-20" transform="translate(800.488281 0)"/>
      <use xlink:href="#ArialMT-28" transform="translate(828.271484 0)"/>
      <use xlink:href="#ArialMT-4d" transform="translate(861.572266 0)"/>
      <use xlink:href="#ArialMT-65" transform="translate(944.873047 0)"/>
      <use xlink:href="#ArialMT-61" transform="translate(1000.488281 0)"/>
      <use xlink:href="#ArialMT-6e" transform="translate(1056.103516 0)"/>
      <use xlink:href="#ArialMT-20" transform="translate(1111.71875 0)"/>
      <use xlink:href="#ArialMT-53" transform="translate(1139.501953 0)"/>
      <use xlink:href="#ArialMT-71" transform="translate(1206.201172 0)"/>
      <use xlink:href="#ArialMT-75" transform="translate(1261.816406 0)"/>
      <use xlink:href="#ArialMT-61" transform="translate(1317.431641 0)"/>
      <use xlink:href="#ArialMT-72" transform="translate(1373.046875 0)"/>
      <use xlink:href="#ArialMT-65" transform="translate(1406.347656 0)"/>
      <use xlink:href="#ArialMT-64" transform="translate(1461.962891 0)"/>
      <use xlink:href="#ArialMT-20" transform="translate(1517.578125 0)"/>
      <use xlink:href="#ArialMT-41" transform="translate(1539.861328 0)"/>
      <use xlink:href="#ArialMT-6d" transform="translate(1606.560547 0)"/>
      <use xlink:href="#ArialMT-70" transform="translate(1689.861328 0)"/>
      <use xlink:href="#ArialMT-6c" transform="translate(1745.476562 0)"/>
      <use xlink:href="#ArialMT-69" transform="translate(1767.693359 0)"/>
      <use xlink:href="#ArialMT-74" transform="translate(1789.910156 0)"/>
      <use xlink:href="#ArialMT-75" transform="translate(1817.693359 0)"/>
      <use xlink:href="#ArialMT-64" transform="translate(1873.308594 0)"/>
      <use xlink:href="#ArialMT-65" transform="translate(1928.923828 0)"/>
      <use xlink:href="#ArialMT-29" transform="translate(1984.539062 0)"/>
     </g>
    </g>
   </g>
   <g id="matplotlib.axis_2">
    <g id="ytick_1">
     <g id="line2d_7">
      <path d="M 28.333594 213.037822 
L 208.075899 213.037822 
" clip-path="url(#p7f27b3495e)" style="fill: none; stroke: #cccccc; stroke-width: 0.8; stroke-linecap: round"/>
     </g>
     <g id="text_8">
      <!-- 5 -->
      <g style="fill: #262626" transform="translate(18.553125 214.827275) scale(0.05 -0.05)">
       <use xlink:href="#ArialMT-35"/>
      </g>
     </g>
    </g>
    <g id="ytick_2">
     <g id="line2d_8">
      <path d="M 28.333594 184.906295 
L 208.075899 184.906295 
" clip-path="url(#p7f27b3495e)" style="fill: none; stroke: #cccccc; stroke-width: 0.8; stroke-linecap: round"/>
     </g>
     <g id="text_9">
      <!-- 10 -->
      <g style="fill: #262626" transform="translate(15.772656 186.695748) scale(0.05 -0.05)">
       <use xlink:href="#ArialMT-31"/>
       <use xlink:href="#ArialMT-30" transform="translate(55.615234 0)"/>
      </g>
     </g>
    </g>
    <g id="ytick_3">
     <g id="line2d_9">
      <path d="M 28.333594 156.774768 
L 208.075899 156.774768 
" clip-path="url(#p7f27b3495e)" style="fill: none; stroke: #cccccc; stroke-width: 0.8; stroke-linecap: round"/>
     </g>
     <g id="text_10">
      <!-- 15 -->
      <g style="fill: #262626" transform="translate(15.772656 158.564222) scale(0.05 -0.05)">
       <use xlink:href="#ArialMT-31"/>
       <use xlink:href="#ArialMT-35" transform="translate(55.615234 0)"/>
      </g>
     </g>
    </g>
    <g id="ytick_4">
     <g id="line2d_10">
      <path d="M 28.333594 128.643242 
L 208.075899 128.643242 
" clip-path="url(#p7f27b3495e)" style="fill: none; stroke: #cccccc; stroke-width: 0.8; stroke-linecap: round"/>
     </g>
     <g id="text_11">
      <!-- 20 -->
      <g style="fill: #262626" transform="translate(15.772656 130.432695) scale(0.05 -0.05)">
       <use xlink:href="#ArialMT-32"/>
       <use xlink:href="#ArialMT-30" transform="translate(55.615234 0)"/>
      </g>
     </g>
    </g>
    <g id="ytick_5">
     <g id="line2d_11">
      <path d="M 28.333594 100.511715 
L 208.075899 100.511715 
" clip-path="url(#p7f27b3495e)" style="fill: none; stroke: #cccccc; stroke-width: 0.8; stroke-linecap: round"/>
     </g>
     <g id="text_12">
      <!-- 25 -->
      <g style="fill: #262626" transform="translate(15.772656 102.301168) scale(0.05 -0.05)">
       <use xlink:href="#ArialMT-32"/>
       <use xlink:href="#ArialMT-35" transform="translate(55.615234 0)"/>
      </g>
     </g>
    </g>
    <g id="ytick_6">
     <g id="line2d_12">
      <path d="M 28.333594 72.380188 
L 208.075899 72.380188 
" clip-path="url(#p7f27b3495e)" style="fill: none; stroke: #cccccc; stroke-width: 0.8; stroke-linecap: round"/>
     </g>
     <g id="text_13">
      <!-- 30 -->
      <g style="fill: #262626" transform="translate(15.772656 74.169641) scale(0.05 -0.05)">
       <use xlink:href="#ArialMT-33"/>
       <use xlink:href="#ArialMT-30" transform="translate(55.615234 0)"/>
      </g>
     </g>
    </g>
    <g id="ytick_7">
     <g id="line2d_13">
      <path d="M 28.333594 44.248661 
L 208.075899 44.248661 
" clip-path="url(#p7f27b3495e)" style="fill: none; stroke: #cccccc; stroke-width: 0.8; stroke-linecap: round"/>
     </g>
     <g id="text_14">
      <!-- 35 -->
      <g style="fill: #262626" transform="translate(15.772656 46.038114) scale(0.05 -0.05)">
       <use xlink:href="#ArialMT-33"/>
       <use xlink:href="#ArialMT-35" transform="translate(55.615234 0)"/>
      </g>
     </g>
    </g>
    <g id="text_15">
     <!-- Mean of Nu -->
     <g style="fill: #262626" transform="translate(10.778906 141.105333) rotate(-90) scale(0.05 -0.05)">
      <defs>
       <path id="ArialMT-66" d="M 556 0 
L 556 2881 
L 59 2881 
L 59 3319 
L 556 3319 
L 556 3672 
Q 556 4006 616 4169 
Q 697 4388 901 4523 
Q 1106 4659 1475 4659 
Q 1713 4659 2000 4603 
L 1916 4113 
Q 1741 4144 1584 4144 
Q 1328 4144 1222 4034 
Q 1116 3925 1116 3625 
L 1116 3319 
L 1763 3319 
L 1763 2881 
L 1116 2881 
L 1116 0 
L 556 0 
z
" transform="scale(0.015625)"/>
       <path id="ArialMT-4e" d="M 488 0 
L 488 4581 
L 1109 4581 
L 3516 984 
L 3516 4581 
L 4097 4581 
L 4097 0 
L 3475 0 
L 1069 3600 
L 1069 0 
L 488 0 
z
" transform="scale(0.015625)"/>
      </defs>
      <use xlink:href="#ArialMT-4d"/>
      <use xlink:href="#ArialMT-65" transform="translate(83.300781 0)"/>
      <use xlink:href="#ArialMT-61" transform="translate(138.916016 0)"/>
      <use xlink:href="#ArialMT-6e" transform="translate(194.53125 0)"/>
      <use xlink:href="#ArialMT-20" transform="translate(250.146484 0)"/>
      <use xlink:href="#ArialMT-6f" transform="translate(277.929688 0)"/>
      <use xlink:href="#ArialMT-66" transform="translate(333.544922 0)"/>
      <use xlink:href="#ArialMT-20" transform="translate(361.328125 0)"/>
      <use xlink:href="#ArialMT-4e" transform="translate(389.111328 0)"/>
      <use xlink:href="#ArialMT-75" transform="translate(461.328125 0)"/>
     </g>
    </g>
   </g>
   <g id="line2d_14">
    <path d="M 36.503699 201.621078 
L 54.659488 204.12764 
L 72.815277 206.289629 
L 90.971066 208.260421 
L 109.126855 209.989881 
L 127.282637 211.355604 
L 145.438418 212.634402 
L 163.594215 213.725164 
L 181.750012 214.68471 
L 199.905794 215.489764 
" clip-path="url(#p7f27b3495e)" style="fill: none; stroke: #414487; stroke-linecap: round"/>
    <defs>
     <path id="m8b9b1cf3bf" d="M 0 1.5 
C 0.397805 1.5 0.77937 1.341951 1.06066 1.06066 
C 1.341951 0.77937 1.5 0.397805 1.5 0 
C 1.5 -0.397805 1.341951 -0.77937 1.06066 -1.06066 
C 0.77937 -1.341951 0.397805 -1.5 0 -1.5 
C -0.397805 -1.5 -0.77937 -1.341951 -1.06066 -1.06066 
C -1.341951 -0.77937 -1.5 -0.397805 -1.5 0 
C -1.5 0.397805 -1.341951 0.77937 -1.06066 1.06066 
C -0.77937 1.341951 -0.397805 1.5 0 1.5 
z
" style="stroke: #414487"/>
    </defs>
    <g clip-path="url(#p7f27b3495e)">
     <use xlink:href="#m8b9b1cf3bf" x="36.503699" y="201.621078" style="fill: #414487; stroke: #414487"/>
     <use xlink:href="#m8b9b1cf3bf" x="54.659488" y="204.12764" style="fill: #414487; stroke: #414487"/>
     <use xlink:href="#m8b9b1cf3bf" x="72.815277" y="206.289629" style="fill: #414487; stroke: #414487"/>
     <use xlink:href="#m8b9b1cf3bf" x="90.971066" y="208.260421" style="fill: #414487; stroke: #414487"/>
     <use xlink:href="#m8b9b1cf3bf" x="109.126855" y="209.989881" style="fill: #414487; stroke: #414487"/>
     <use xlink:href="#m8b9b1cf3bf" x="127.282637" y="211.355604" style="fill: #414487; stroke: #414487"/>
     <use xlink:href="#m8b9b1cf3bf" x="145.438418" y="212.634402" style="fill: #414487; stroke: #414487"/>
     <use xlink:href="#m8b9b1cf3bf" x="163.594215" y="213.725164" style="fill: #414487; stroke: #414487"/>
     <use xlink:href="#m8b9b1cf3bf" x="181.750012" y="214.68471" style="fill: #414487; stroke: #414487"/>
     <use xlink:href="#m8b9b1cf3bf" x="199.905794" y="215.489764" style="fill: #414487; stroke: #414487"/>
    </g>
   </g>
   <g id="line2d_15">
    <path d="M 36.503699 87.069967 
L 54.659488 86.951611 
L 72.815277 86.956022 
L 90.971066 87.041572 
L 109.126855 87.142607 
L 127.282637 87.272145 
L 145.438418 87.431978 
L 163.594215 87.53796 
L 181.750012 87.735567 
L 199.905794 87.865663 
" clip-path="url(#p7f27b3495e)" style="fill: none; stroke: #2a788e; stroke-linecap: round"/>
    <defs>
     <path id="m69dffc88c4" d="M 0 -1.5 
L -1.5 1.5 
L 1.5 1.5 
z
" style="stroke: #2a788e; stroke-linejoin: miter"/>
    </defs>
    <g clip-path="url(#p7f27b3495e)">
     <use xlink:href="#m69dffc88c4" x="36.503699" y="87.069967" style="fill: #2a788e; stroke: #2a788e; stroke-linejoin: miter"/>
     <use xlink:href="#m69dffc88c4" x="54.659488" y="86.951611" style="fill: #2a788e; stroke: #2a788e; stroke-linejoin: miter"/>
     <use xlink:href="#m69dffc88c4" x="72.815277" y="86.956022" style="fill: #2a788e; stroke: #2a788e; stroke-linejoin: miter"/>
     <use xlink:href="#m69dffc88c4" x="90.971066" y="87.041572" style="fill: #2a788e; stroke: #2a788e; stroke-linejoin: miter"/>
     <use xlink:href="#m69dffc88c4" x="109.126855" y="87.142607" style="fill: #2a788e; stroke: #2a788e; stroke-linejoin: miter"/>
     <use xlink:href="#m69dffc88c4" x="127.282637" y="87.272145" style="fill: #2a788e; stroke: #2a788e; stroke-linejoin: miter"/>
     <use xlink:href="#m69dffc88c4" x="145.438418" y="87.431978" style="fill: #2a788e; stroke: #2a788e; stroke-linejoin: miter"/>
     <use xlink:href="#m69dffc88c4" x="163.594215" y="87.53796" style="fill: #2a788e; stroke: #2a788e; stroke-linejoin: miter"/>
     <use xlink:href="#m69dffc88c4" x="181.750012" y="87.735567" style="fill: #2a788e; stroke: #2a788e; stroke-linejoin: miter"/>
     <use xlink:href="#m69dffc88c4" x="199.905794" y="87.865663" style="fill: #2a788e; stroke: #2a788e; stroke-linejoin: miter"/>
    </g>
   </g>
   <g id="line2d_16">
    <path d="M 36.503699 43.27666 
L 54.659488 42.675942 
L 72.815277 42.228317 
L 90.971066 41.900411 
L 109.126855 41.643975 
L 127.282637 41.412865 
L 145.438418 41.252217 
L 163.594215 41.109791 
L 181.750012 40.982668 
L 199.905794 40.875591 
" clip-path="url(#p7f27b3495e)" style="fill: none; stroke: #22a884; stroke-linecap: round"/>
    <defs>
     <path id="m2c08d9e509" d="M -1.5 1.5 
L 1.5 1.5 
L 1.5 -1.5 
L -1.5 -1.5 
z
" style="stroke: #22a884; stroke-linejoin: miter"/>
    </defs>
    <g clip-path="url(#p7f27b3495e)">
     <use xlink:href="#m2c08d9e509" x="36.503699" y="43.27666" style="fill: #22a884; stroke: #22a884; stroke-linejoin: miter"/>
     <use xlink:href="#m2c08d9e509" x="54.659488" y="42.675942" style="fill: #22a884; stroke: #22a884; stroke-linejoin: miter"/>
     <use xlink:href="#m2c08d9e509" x="72.815277" y="42.228317" style="fill: #22a884; stroke: #22a884; stroke-linejoin: miter"/>
     <use xlink:href="#m2c08d9e509" x="90.971066" y="41.900411" style="fill: #22a884; stroke: #22a884; stroke-linejoin: miter"/>
     <use xlink:href="#m2c08d9e509" x="109.126855" y="41.643975" style="fill: #22a884; stroke: #22a884; stroke-linejoin: miter"/>
     <use xlink:href="#m2c08d9e509" x="127.282637" y="41.412865" style="fill: #22a884; stroke: #22a884; stroke-linejoin: miter"/>
     <use xlink:href="#m2c08d9e509" x="145.438418" y="41.252217" style="fill: #22a884; stroke: #22a884; stroke-linejoin: miter"/>
     <use xlink:href="#m2c08d9e509" x="163.594215" y="41.109791" style="fill: #22a884; stroke: #22a884; stroke-linejoin: miter"/>
     <use xlink:href="#m2c08d9e509" x="181.750012" y="40.982668" style="fill: #22a884; stroke: #22a884; stroke-linejoin: miter"/>
     <use xlink:href="#m2c08d9e509" x="199.905794" y="40.875591" style="fill: #22a884; stroke: #22a884; stroke-linejoin: miter"/>
    </g>
   </g>
   <g id="patch_3">
    <path d="M 28.333594 224.220472 
L 28.333594 32.144882 
" style="fill: none; stroke: #000000; stroke-width: 0.8; stroke-linejoin: miter; stroke-linecap: square"/>
   </g>
   <g id="patch_4">
    <path d="M 208.075899 224.220472 
L 208.075899 32.144882 
" style="fill: none; stroke: #000000; stroke-width: 0.8; stroke-linejoin: miter; stroke-linecap: square"/>
   </g>
   <g id="patch_5">
    <path d="M 28.333594 224.220472 
L 208.075899 224.220472 
" style="fill: none; stroke: #000000; stroke-width: 0.8; stroke-linejoin: miter; stroke-linecap: square"/>
   </g>
   <g id="patch_6">
    <path d="M 28.333594 32.144882 
L 208.075899 32.144882 
" style="fill: none; stroke: #000000; stroke-width: 0.8; stroke-linejoin: miter; stroke-linecap: square"/>
   </g>
   <g id="legend_1">
    <g id="patch_7">
     <path d="M 31.833594 57.362851 
L 93.6875 57.362851 
Q 94.6875 57.362851 94.6875 56.362851 
L 94.6875 35.644882 
Q 94.6875 34.644882 93.6875 34.644882 
L 31.833594 34.644882 
Q 30.833594 34.644882 30.833594 35.644882 
L 30.833594 56.362851 
Q 30.833594 57.362851 31.833594 57.362851 
z
" style="fill: #ffffff; opacity: 0.8; stroke: #cccccc; stroke-linejoin: miter"/>
    </g>
    <g id="line2d_17">
     <path d="M 32.833594 38.473788 
L 37.833594 38.473788 
L 42.833594 38.473788 
" style="fill: none; stroke: #414487; stroke-linecap: round"/>
     <g>
      <use xlink:href="#m8b9b1cf3bf" x="37.833594" y="38.473788" style="fill: #414487; stroke: #414487"/>
     </g>
    </g>
    <g id="text_16">
     <!-- Mean of Nu at 48mA -->
     <g style="fill: #262626" transform="translate(46.833594 40.223788) scale(0.05 -0.05)">
      <defs>
       <path id="ArialMT-34" d="M 2069 0 
L 2069 1097 
L 81 1097 
L 81 1613 
L 2172 4581 
L 2631 4581 
L 2631 1613 
L 3250 1613 
L 3250 1097 
L 2631 1097 
L 2631 0 
L 2069 0 
z
M 2069 1613 
L 2069 3678 
L 634 1613 
L 2069 1613 
z
" transform="scale(0.015625)"/>
       <path id="ArialMT-38" d="M 1131 2484 
Q 781 2613 612 2850 
Q 444 3088 444 3419 
Q 444 3919 803 4259 
Q 1163 4600 1759 4600 
Q 2359 4600 2725 4251 
Q 3091 3903 3091 3403 
Q 3091 3084 2923 2848 
Q 2756 2613 2416 2484 
Q 2838 2347 3058 2040 
Q 3278 1734 3278 1309 
Q 3278 722 2862 322 
Q 2447 -78 1769 -78 
Q 1091 -78 675 323 
Q 259 725 259 1325 
Q 259 1772 486 2073 
Q 713 2375 1131 2484 
z
M 1019 3438 
Q 1019 3113 1228 2906 
Q 1438 2700 1772 2700 
Q 2097 2700 2305 2904 
Q 2513 3109 2513 3406 
Q 2513 3716 2298 3927 
Q 2084 4138 1766 4138 
Q 1444 4138 1231 3931 
Q 1019 3725 1019 3438 
z
M 838 1322 
Q 838 1081 952 856 
Q 1066 631 1291 507 
Q 1516 384 1775 384 
Q 2178 384 2440 643 
Q 2703 903 2703 1303 
Q 2703 1709 2433 1975 
Q 2163 2241 1756 2241 
Q 1359 2241 1098 1978 
Q 838 1716 838 1322 
z
" transform="scale(0.015625)"/>
      </defs>
      <use xlink:href="#ArialMT-4d"/>
      <use xlink:href="#ArialMT-65" transform="translate(83.300781 0)"/>
      <use xlink:href="#ArialMT-61" transform="translate(138.916016 0)"/>
      <use xlink:href="#ArialMT-6e" transform="translate(194.53125 0)"/>
      <use xlink:href="#ArialMT-20" transform="translate(250.146484 0)"/>
      <use xlink:href="#ArialMT-6f" transform="translate(277.929688 0)"/>
      <use xlink:href="#ArialMT-66" transform="translate(333.544922 0)"/>
      <use xlink:href="#ArialMT-20" transform="translate(361.328125 0)"/>
      <use xlink:href="#ArialMT-4e" transform="translate(389.111328 0)"/>
      <use xlink:href="#ArialMT-75" transform="translate(461.328125 0)"/>
      <use xlink:href="#ArialMT-20" transform="translate(516.943359 0)"/>
      <use xlink:href="#ArialMT-61" transform="translate(544.726562 0)"/>
      <use xlink:href="#ArialMT-74" transform="translate(600.341797 0)"/>
      <use xlink:href="#ArialMT-20" transform="translate(628.125 0)"/>
      <use xlink:href="#ArialMT-34" transform="translate(655.908203 0)"/>
      <use xlink:href="#ArialMT-38" transform="translate(711.523438 0)"/>
      <use xlink:href="#ArialMT-6d" transform="translate(767.138672 0)"/>
      <use xlink:href="#ArialMT-41" transform="translate(850.439453 0)"/>
     </g>
    </g>
    <g id="line2d_18">
     <path d="M 32.833594 45.546444 
L 37.833594 45.546444 
L 42.833594 45.546444 
" style="fill: none; stroke: #2a788e; stroke-linecap: round"/>
     <g>
      <use xlink:href="#m69dffc88c4" x="37.833594" y="45.546444" style="fill: #2a788e; stroke: #2a788e; stroke-linejoin: miter"/>
     </g>
    </g>
    <g id="text_17">
     <!-- Mean of Nu at 60mA -->
     <g style="fill: #262626" transform="translate(46.833594 47.296444) scale(0.05 -0.05)">
      <defs>
       <path id="ArialMT-36" d="M 3184 3459 
L 2625 3416 
Q 2550 3747 2413 3897 
Q 2184 4138 1850 4138 
Q 1581 4138 1378 3988 
Q 1113 3794 959 3422 
Q 806 3050 800 2363 
Q 1003 2672 1297 2822 
Q 1591 2972 1913 2972 
Q 2475 2972 2870 2558 
Q 3266 2144 3266 1488 
Q 3266 1056 3080 686 
Q 2894 316 2569 119 
Q 2244 -78 1831 -78 
Q 1128 -78 684 439 
Q 241 956 241 2144 
Q 241 3472 731 4075 
Q 1159 4600 1884 4600 
Q 2425 4600 2770 4297 
Q 3116 3994 3184 3459 
z
M 888 1484 
Q 888 1194 1011 928 
Q 1134 663 1356 523 
Q 1578 384 1822 384 
Q 2178 384 2434 671 
Q 2691 959 2691 1453 
Q 2691 1928 2437 2201 
Q 2184 2475 1800 2475 
Q 1419 2475 1153 2201 
Q 888 1928 888 1484 
z
" transform="scale(0.015625)"/>
      </defs>
      <use xlink:href="#ArialMT-4d"/>
      <use xlink:href="#ArialMT-65" transform="translate(83.300781 0)"/>
      <use xlink:href="#ArialMT-61" transform="translate(138.916016 0)"/>
      <use xlink:href="#ArialMT-6e" transform="translate(194.53125 0)"/>
      <use xlink:href="#ArialMT-20" transform="translate(250.146484 0)"/>
      <use xlink:href="#ArialMT-6f" transform="translate(277.929688 0)"/>
      <use xlink:href="#ArialMT-66" transform="translate(333.544922 0)"/>
      <use xlink:href="#ArialMT-20" transform="translate(361.328125 0)"/>
      <use xlink:href="#ArialMT-4e" transform="translate(389.111328 0)"/>
      <use xlink:href="#ArialMT-75" transform="translate(461.328125 0)"/>
      <use xlink:href="#ArialMT-20" transform="translate(516.943359 0)"/>
      <use xlink:href="#ArialMT-61" transform="translate(544.726562 0)"/>
      <use xlink:href="#ArialMT-74" transform="translate(600.341797 0)"/>
      <use xlink:href="#ArialMT-20" transform="translate(628.125 0)"/>
      <use xlink:href="#ArialMT-36" transform="translate(655.908203 0)"/>
      <use xlink:href="#ArialMT-30" transform="translate(711.523438 0)"/>
      <use xlink:href="#ArialMT-6d" transform="translate(767.138672 0)"/>
      <use xlink:href="#ArialMT-41" transform="translate(850.439453 0)"/>
     </g>
    </g>
    <g id="line2d_19">
     <path d="M 32.833594 52.619101 
L 37.833594 52.619101 
L 42.833594 52.619101 
" style="fill: none; stroke: #22a884; stroke-linecap: round"/>
     <g>
      <use xlink:href="#m2c08d9e509" x="37.833594" y="52.619101" style="fill: #22a884; stroke: #22a884; stroke-linejoin: miter"/>
     </g>
    </g>
    <g id="text_18">
     <!-- Mean of Nu at 80mA -->
     <g style="fill: #262626" transform="translate(46.833594 54.369101) scale(0.05 -0.05)">
      <use xlink:href="#ArialMT-4d"/>
      <use xlink:href="#ArialMT-65" transform="translate(83.300781 0)"/>
      <use xlink:href="#ArialMT-61" transform="translate(138.916016 0)"/>
      <use xlink:href="#ArialMT-6e" transform="translate(194.53125 0)"/>
      <use xlink:href="#ArialMT-20" transform="translate(250.146484 0)"/>
      <use xlink:href="#ArialMT-6f" transform="translate(277.929688 0)"/>
      <use xlink:href="#ArialMT-66" transform="translate(333.544922 0)"/>
      <use xlink:href="#ArialMT-20" transform="translate(361.328125 0)"/>
      <use xlink:href="#ArialMT-4e" transform="translate(389.111328 0)"/>
      <use xlink:href="#ArialMT-75" transform="translate(461.328125 0)"/>
      <use xlink:href="#ArialMT-20" transform="translate(516.943359 0)"/>
      <use xlink:href="#ArialMT-61" transform="translate(544.726562 0)"/>
      <use xlink:href="#ArialMT-74" transform="translate(600.341797 0)"/>
      <use xlink:href="#ArialMT-20" transform="translate(628.125 0)"/>
      <use xlink:href="#ArialMT-38" transform="translate(655.908203 0)"/>
      <use xlink:href="#ArialMT-30" transform="translate(711.523438 0)"/>
      <use xlink:href="#ArialMT-6d" transform="translate(767.138672 0)"/>
      <use xlink:href="#ArialMT-41" transform="translate(850.439453 0)"/>
     </g>
    </g>
   </g>
  </g>
  <g id="axes_2">
   <g id="patch_8">
    <path d="M 244.02436 224.220472 
L 423.766665 224.220472 
L 423.766665 32.144882 
L 244.02436 32.144882 
L 244.02436 224.220472 
z
" style="fill: none"/>
   </g>
   <g id="matplotlib.axis_3">
    <g id="xtick_7">
     <g id="line2d_20">
      <path d="M 252.194464 224.220472 
L 252.194464 32.144882 
" clip-path="url(#pedf8c1a148)" style="fill: none; stroke: #cccccc; stroke-width: 0.8; stroke-linecap: round"/>
     </g>
     <g id="text_19">
      <!-- 0.5 -->
      <g style="fill: #262626" transform="translate(248.719464 234.799379) scale(0.05 -0.05)">
       <use xlink:href="#ArialMT-30"/>
       <use xlink:href="#ArialMT-2e" transform="translate(55.615234 0)"/>
       <use xlink:href="#ArialMT-35" transform="translate(83.398438 0)"/>
      </g>
     </g>
    </g>
    <g id="xtick_8">
     <g id="line2d_21">
      <path d="M 284.874884 224.220472 
L 284.874884 32.144882 
" clip-path="url(#pedf8c1a148)" style="fill: none; stroke: #cccccc; stroke-width: 0.8; stroke-linecap: round"/>
     </g>
     <g id="text_20">
      <!-- 1.0 -->
      <g style="fill: #262626" transform="translate(281.399884 234.799379) scale(0.05 -0.05)">
       <use xlink:href="#ArialMT-31"/>
       <use xlink:href="#ArialMT-2e" transform="translate(55.615234 0)"/>
       <use xlink:href="#ArialMT-30" transform="translate(83.398438 0)"/>
      </g>
     </g>
    </g>
    <g id="xtick_9">
     <g id="line2d_22">
      <path d="M 317.555303 224.220472 
L 317.555303 32.144882 
" clip-path="url(#pedf8c1a148)" style="fill: none; stroke: #cccccc; stroke-width: 0.8; stroke-linecap: round"/>
     </g>
     <g id="text_21">
      <!-- 1.5 -->
      <g style="fill: #262626" transform="translate(314.080303 234.799379) scale(0.05 -0.05)">
       <use xlink:href="#ArialMT-31"/>
       <use xlink:href="#ArialMT-2e" transform="translate(55.615234 0)"/>
       <use xlink:href="#ArialMT-35" transform="translate(83.398438 0)"/>
      </g>
     </g>
    </g>
    <g id="xtick_10">
     <g id="line2d_23">
      <path d="M 350.235722 224.220472 
L 350.235722 32.144882 
" clip-path="url(#pedf8c1a148)" style="fill: none; stroke: #cccccc; stroke-width: 0.8; stroke-linecap: round"/>
     </g>
     <g id="text_22">
      <!-- 2.0 -->
      <g style="fill: #262626" transform="translate(346.760722 234.799379) scale(0.05 -0.05)">
       <use xlink:href="#ArialMT-32"/>
       <use xlink:href="#ArialMT-2e" transform="translate(55.615234 0)"/>
       <use xlink:href="#ArialMT-30" transform="translate(83.398438 0)"/>
      </g>
     </g>
    </g>
    <g id="xtick_11">
     <g id="line2d_24">
      <path d="M 382.916141 224.220472 
L 382.916141 32.144882 
" clip-path="url(#pedf8c1a148)" style="fill: none; stroke: #cccccc; stroke-width: 0.8; stroke-linecap: round"/>
     </g>
     <g id="text_23">
      <!-- 2.5 -->
      <g style="fill: #262626" transform="translate(379.441141 234.799379) scale(0.05 -0.05)">
       <use xlink:href="#ArialMT-32"/>
       <use xlink:href="#ArialMT-2e" transform="translate(55.615234 0)"/>
       <use xlink:href="#ArialMT-35" transform="translate(83.398438 0)"/>
      </g>
     </g>
    </g>
    <g id="xtick_12">
     <g id="line2d_25">
      <path d="M 415.59656 224.220472 
L 415.59656 32.144882 
" clip-path="url(#pedf8c1a148)" style="fill: none; stroke: #cccccc; stroke-width: 0.8; stroke-linecap: round"/>
     </g>
     <g id="text_24">
      <!-- 3.0 -->
      <g style="fill: #262626" transform="translate(412.12156 234.799379) scale(0.05 -0.05)">
       <use xlink:href="#ArialMT-33"/>
       <use xlink:href="#ArialMT-2e" transform="translate(55.615234 0)"/>
       <use xlink:href="#ArialMT-30" transform="translate(83.398438 0)"/>
      </g>
     </g>
    </g>
    <g id="text_25">
     <!-- Input Power Level (Mean Squared Amplitude) -->
     <g style="fill: #262626" transform="translate(283.452934 243.432972) scale(0.05 -0.05)">
      <use xlink:href="#ArialMT-49"/>
      <use xlink:href="#ArialMT-6e" transform="translate(27.783203 0)"/>
      <use xlink:href="#ArialMT-70" transform="translate(83.398438 0)"/>
      <use xlink:href="#ArialMT-75" transform="translate(139.013672 0)"/>
      <use xlink:href="#ArialMT-74" transform="translate(194.628906 0)"/>
      <use xlink:href="#ArialMT-20" transform="translate(222.412109 0)"/>
      <use xlink:href="#ArialMT-50" transform="translate(250.195312 0)"/>
      <use xlink:href="#ArialMT-6f" transform="translate(316.894531 0)"/>
      <use xlink:href="#ArialMT-77" transform="translate(372.509766 0)"/>
      <use xlink:href="#ArialMT-65" transform="translate(444.726562 0)"/>
      <use xlink:href="#ArialMT-72" transform="translate(500.341797 0)"/>
      <use xlink:href="#ArialMT-20" transform="translate(533.642578 0)"/>
      <use xlink:href="#ArialMT-4c" transform="translate(561.425781 0)"/>
      <use xlink:href="#ArialMT-65" transform="translate(617.041016 0)"/>
      <use xlink:href="#ArialMT-76" transform="translate(672.65625 0)"/>
      <use xlink:href="#ArialMT-65" transform="translate(722.65625 0)"/>
      <use xlink:href="#ArialMT-6c" transform="translate(778.271484 0)"/>
      <use xlink:href="#ArialMT-20" transform="translate(800.488281 0)"/>
      <use xlink:href="#ArialMT-28" transform="translate(828.271484 0)"/>
      <use xlink:href="#ArialMT-4d" transform="translate(861.572266 0)"/>
      <use xlink:href="#ArialMT-65" transform="translate(944.873047 0)"/>
      <use xlink:href="#ArialMT-61" transform="translate(1000.488281 0)"/>
      <use xlink:href="#ArialMT-6e" transform="translate(1056.103516 0)"/>
      <use xlink:href="#ArialMT-20" transform="translate(1111.71875 0)"/>
      <use xlink:href="#ArialMT-53" transform="translate(1139.501953 0)"/>
      <use xlink:href="#ArialMT-71" transform="translate(1206.201172 0)"/>
      <use xlink:href="#ArialMT-75" transform="translate(1261.816406 0)"/>
      <use xlink:href="#ArialMT-61" transform="translate(1317.431641 0)"/>
      <use xlink:href="#ArialMT-72" transform="translate(1373.046875 0)"/>
      <use xlink:href="#ArialMT-65" transform="translate(1406.347656 0)"/>
      <use xlink:href="#ArialMT-64" transform="translate(1461.962891 0)"/>
      <use xlink:href="#ArialMT-20" transform="translate(1517.578125 0)"/>
      <use xlink:href="#ArialMT-41" transform="translate(1539.861328 0)"/>
      <use xlink:href="#ArialMT-6d" transform="translate(1606.560547 0)"/>
      <use xlink:href="#ArialMT-70" transform="translate(1689.861328 0)"/>
      <use xlink:href="#ArialMT-6c" transform="translate(1745.476562 0)"/>
      <use xlink:href="#ArialMT-69" transform="translate(1767.693359 0)"/>
      <use xlink:href="#ArialMT-74" transform="translate(1789.910156 0)"/>
      <use xlink:href="#ArialMT-75" transform="translate(1817.693359 0)"/>
      <use xlink:href="#ArialMT-64" transform="translate(1873.308594 0)"/>
      <use xlink:href="#ArialMT-65" transform="translate(1928.923828 0)"/>
      <use xlink:href="#ArialMT-29" transform="translate(1984.539062 0)"/>
     </g>
    </g>
   </g>
   <g id="matplotlib.axis_4">
    <g id="ytick_8">
     <g id="line2d_26">
      <path d="M 244.02436 217.887384 
L 423.766665 217.887384 
" clip-path="url(#pedf8c1a148)" style="fill: none; stroke: #cccccc; stroke-width: 0.8; stroke-linecap: round"/>
     </g>
     <g id="text_26">
      <!-- 0.006 -->
      <g style="fill: #262626" transform="translate(224.513422 219.676837) scale(0.05 -0.05)">
       <use xlink:href="#ArialMT-30"/>
       <use xlink:href="#ArialMT-2e" transform="translate(55.615234 0)"/>
       <use xlink:href="#ArialMT-30" transform="translate(83.398438 0)"/>
       <use xlink:href="#ArialMT-30" transform="translate(139.013672 0)"/>
       <use xlink:href="#ArialMT-36" transform="translate(194.628906 0)"/>
      </g>
     </g>
    </g>
    <g id="ytick_9">
     <g id="line2d_27">
      <path d="M 244.02436 192.046499 
L 423.766665 192.046499 
" clip-path="url(#pedf8c1a148)" style="fill: none; stroke: #cccccc; stroke-width: 0.8; stroke-linecap: round"/>
     </g>
     <g id="text_27">
      <!-- 0.008 -->
      <g style="fill: #262626" transform="translate(224.513422 193.835952) scale(0.05 -0.05)">
       <use xlink:href="#ArialMT-30"/>
       <use xlink:href="#ArialMT-2e" transform="translate(55.615234 0)"/>
       <use xlink:href="#ArialMT-30" transform="translate(83.398438 0)"/>
       <use xlink:href="#ArialMT-30" transform="translate(139.013672 0)"/>
       <use xlink:href="#ArialMT-38" transform="translate(194.628906 0)"/>
      </g>
     </g>
    </g>
    <g id="ytick_10">
     <g id="line2d_28">
      <path d="M 244.02436 166.205614 
L 423.766665 166.205614 
" clip-path="url(#pedf8c1a148)" style="fill: none; stroke: #cccccc; stroke-width: 0.8; stroke-linecap: round"/>
     </g>
     <g id="text_28">
      <!-- 0.010 -->
      <g style="fill: #262626" transform="translate(224.513422 167.995068) scale(0.05 -0.05)">
       <use xlink:href="#ArialMT-30"/>
       <use xlink:href="#ArialMT-2e" transform="translate(55.615234 0)"/>
       <use xlink:href="#ArialMT-30" transform="translate(83.398438 0)"/>
       <use xlink:href="#ArialMT-31" transform="translate(139.013672 0)"/>
       <use xlink:href="#ArialMT-30" transform="translate(194.628906 0)"/>
      </g>
     </g>
    </g>
    <g id="ytick_11">
     <g id="line2d_29">
      <path d="M 244.02436 140.36473 
L 423.766665 140.36473 
" clip-path="url(#pedf8c1a148)" style="fill: none; stroke: #cccccc; stroke-width: 0.8; stroke-linecap: round"/>
     </g>
     <g id="text_29">
      <!-- 0.012 -->
      <g style="fill: #262626" transform="translate(224.513422 142.154183) scale(0.05 -0.05)">
       <use xlink:href="#ArialMT-30"/>
       <use xlink:href="#ArialMT-2e" transform="translate(55.615234 0)"/>
       <use xlink:href="#ArialMT-30" transform="translate(83.398438 0)"/>
       <use xlink:href="#ArialMT-31" transform="translate(139.013672 0)"/>
       <use xlink:href="#ArialMT-32" transform="translate(194.628906 0)"/>
      </g>
     </g>
    </g>
    <g id="ytick_12">
     <g id="line2d_30">
      <path d="M 244.02436 114.523845 
L 423.766665 114.523845 
" clip-path="url(#pedf8c1a148)" style="fill: none; stroke: #cccccc; stroke-width: 0.8; stroke-linecap: round"/>
     </g>
     <g id="text_30">
      <!-- 0.014 -->
      <g style="fill: #262626" transform="translate(224.513422 116.313298) scale(0.05 -0.05)">
       <use xlink:href="#ArialMT-30"/>
       <use xlink:href="#ArialMT-2e" transform="translate(55.615234 0)"/>
       <use xlink:href="#ArialMT-30" transform="translate(83.398438 0)"/>
       <use xlink:href="#ArialMT-31" transform="translate(139.013672 0)"/>
       <use xlink:href="#ArialMT-34" transform="translate(194.628906 0)"/>
      </g>
     </g>
    </g>
    <g id="ytick_13">
     <g id="line2d_31">
      <path d="M 244.02436 88.682961 
L 423.766665 88.682961 
" clip-path="url(#pedf8c1a148)" style="fill: none; stroke: #cccccc; stroke-width: 0.8; stroke-linecap: round"/>
     </g>
     <g id="text_31">
      <!-- 0.016 -->
      <g style="fill: #262626" transform="translate(224.513422 90.472414) scale(0.05 -0.05)">
       <use xlink:href="#ArialMT-30"/>
       <use xlink:href="#ArialMT-2e" transform="translate(55.615234 0)"/>
       <use xlink:href="#ArialMT-30" transform="translate(83.398438 0)"/>
       <use xlink:href="#ArialMT-31" transform="translate(139.013672 0)"/>
       <use xlink:href="#ArialMT-36" transform="translate(194.628906 0)"/>
      </g>
     </g>
    </g>
    <g id="ytick_14">
     <g id="line2d_32">
      <path d="M 244.02436 62.842076 
L 423.766665 62.842076 
" clip-path="url(#pedf8c1a148)" style="fill: none; stroke: #cccccc; stroke-width: 0.8; stroke-linecap: round"/>
     </g>
     <g id="text_32">
      <!-- 0.018 -->
      <g style="fill: #262626" transform="translate(224.513422 64.631529) scale(0.05 -0.05)">
       <use xlink:href="#ArialMT-30"/>
       <use xlink:href="#ArialMT-2e" transform="translate(55.615234 0)"/>
       <use xlink:href="#ArialMT-30" transform="translate(83.398438 0)"/>
       <use xlink:href="#ArialMT-31" transform="translate(139.013672 0)"/>
       <use xlink:href="#ArialMT-38" transform="translate(194.628906 0)"/>
      </g>
     </g>
    </g>
    <g id="ytick_15">
     <g id="line2d_33">
      <path d="M 244.02436 37.001191 
L 423.766665 37.001191 
" clip-path="url(#pedf8c1a148)" style="fill: none; stroke: #cccccc; stroke-width: 0.8; stroke-linecap: round"/>
     </g>
     <g id="text_33">
      <!-- 0.020 -->
      <g style="fill: #262626" transform="translate(224.513422 38.790645) scale(0.05 -0.05)">
       <use xlink:href="#ArialMT-30"/>
       <use xlink:href="#ArialMT-2e" transform="translate(55.615234 0)"/>
       <use xlink:href="#ArialMT-30" transform="translate(83.398438 0)"/>
       <use xlink:href="#ArialMT-32" transform="translate(139.013672 0)"/>
       <use xlink:href="#ArialMT-30" transform="translate(194.628906 0)"/>
      </g>
     </g>
    </g>
    <g id="text_34">
     <!-- Mean of Std -->
     <g style="fill: #262626" transform="translate(219.519672 141.661974) rotate(-90) scale(0.05 -0.05)">
      <use xlink:href="#ArialMT-4d"/>
      <use xlink:href="#ArialMT-65" transform="translate(83.300781 0)"/>
      <use xlink:href="#ArialMT-61" transform="translate(138.916016 0)"/>
      <use xlink:href="#ArialMT-6e" transform="translate(194.53125 0)"/>
      <use xlink:href="#ArialMT-20" transform="translate(250.146484 0)"/>
      <use xlink:href="#ArialMT-6f" transform="translate(277.929688 0)"/>
      <use xlink:href="#ArialMT-66" transform="translate(333.544922 0)"/>
      <use xlink:href="#ArialMT-20" transform="translate(361.328125 0)"/>
      <use xlink:href="#ArialMT-53" transform="translate(389.111328 0)"/>
      <use xlink:href="#ArialMT-74" transform="translate(455.810547 0)"/>
      <use xlink:href="#ArialMT-64" transform="translate(483.59375 0)"/>
     </g>
    </g>
   </g>
   <g id="line2d_34">
    <path d="M 252.194464 214.065634 
L 270.350254 213.93691 
L 288.506043 213.976156 
L 306.661832 214.246811 
L 324.817621 214.713003 
L 342.973403 214.709538 
L 361.129184 215.037337 
L 379.284981 215.211258 
L 397.440778 215.403902 
L 415.59656 215.489764 
" clip-path="url(#pedf8c1a148)" style="fill: none; stroke-dasharray: 1,1.65; stroke-dashoffset: 0; stroke: #414487"/>
    <g clip-path="url(#pedf8c1a148)">
     <use xlink:href="#m8b9b1cf3bf" x="252.194464" y="214.065634" style="fill: #414487; stroke: #414487"/>
     <use xlink:href="#m8b9b1cf3bf" x="270.350254" y="213.93691" style="fill: #414487; stroke: #414487"/>
     <use xlink:href="#m8b9b1cf3bf" x="288.506043" y="213.976156" style="fill: #414487; stroke: #414487"/>
     <use xlink:href="#m8b9b1cf3bf" x="306.661832" y="214.246811" style="fill: #414487; stroke: #414487"/>
     <use xlink:href="#m8b9b1cf3bf" x="324.817621" y="214.713003" style="fill: #414487; stroke: #414487"/>
     <use xlink:href="#m8b9b1cf3bf" x="342.973403" y="214.709538" style="fill: #414487; stroke: #414487"/>
     <use xlink:href="#m8b9b1cf3bf" x="361.129184" y="215.037337" style="fill: #414487; stroke: #414487"/>
     <use xlink:href="#m8b9b1cf3bf" x="379.284981" y="215.211258" style="fill: #414487; stroke: #414487"/>
     <use xlink:href="#m8b9b1cf3bf" x="397.440778" y="215.403902" style="fill: #414487; stroke: #414487"/>
     <use xlink:href="#m8b9b1cf3bf" x="415.59656" y="215.489764" style="fill: #414487; stroke: #414487"/>
    </g>
   </g>
   <g id="line2d_35">
    <path d="M 252.194464 212.438501 
L 270.350254 206.483181 
L 288.506043 200.829887 
L 306.661832 195.368971 
L 324.817621 190.14879 
L 342.973403 184.836309 
L 361.129184 179.656794 
L 379.284981 174.510634 
L 397.440778 169.319074 
L 415.59656 164.152566 
" clip-path="url(#pedf8c1a148)" style="fill: none; stroke-dasharray: 1,1.65; stroke-dashoffset: 0; stroke: #2a788e"/>
    <g clip-path="url(#pedf8c1a148)">
     <use xlink:href="#m69dffc88c4" x="252.194464" y="212.438501" style="fill: #2a788e; stroke: #2a788e; stroke-linejoin: miter"/>
     <use xlink:href="#m69dffc88c4" x="270.350254" y="206.483181" style="fill: #2a788e; stroke: #2a788e; stroke-linejoin: miter"/>
     <use xlink:href="#m69dffc88c4" x="288.506043" y="200.829887" style="fill: #2a788e; stroke: #2a788e; stroke-linejoin: miter"/>
     <use xlink:href="#m69dffc88c4" x="306.661832" y="195.368971" style="fill: #2a788e; stroke: #2a788e; stroke-linejoin: miter"/>
     <use xlink:href="#m69dffc88c4" x="324.817621" y="190.14879" style="fill: #2a788e; stroke: #2a788e; stroke-linejoin: miter"/>
     <use xlink:href="#m69dffc88c4" x="342.973403" y="184.836309" style="fill: #2a788e; stroke: #2a788e; stroke-linejoin: miter"/>
     <use xlink:href="#m69dffc88c4" x="361.129184" y="179.656794" style="fill: #2a788e; stroke: #2a788e; stroke-linejoin: miter"/>
     <use xlink:href="#m69dffc88c4" x="379.284981" y="174.510634" style="fill: #2a788e; stroke: #2a788e; stroke-linejoin: miter"/>
     <use xlink:href="#m69dffc88c4" x="397.440778" y="169.319074" style="fill: #2a788e; stroke: #2a788e; stroke-linejoin: miter"/>
     <use xlink:href="#m69dffc88c4" x="415.59656" y="164.152566" style="fill: #2a788e; stroke: #2a788e; stroke-linejoin: miter"/>
    </g>
   </g>
   <g id="line2d_36">
    <path d="M 252.194464 193.052209 
L 270.350254 177.405184 
L 288.506043 161.76047 
L 306.661832 146.004775 
L 324.817621 130.193414 
L 342.973403 113.090433 
L 361.129184 96.363474 
L 379.284981 78.2439 
L 397.440778 59.732541 
L 415.59656 40.875591 
" clip-path="url(#pedf8c1a148)" style="fill: none; stroke-dasharray: 1,1.65; stroke-dashoffset: 0; stroke: #22a884"/>
    <g clip-path="url(#pedf8c1a148)">
     <use xlink:href="#m2c08d9e509" x="252.194464" y="193.052209" style="fill: #22a884; stroke: #22a884; stroke-linejoin: miter"/>
     <use xlink:href="#m2c08d9e509" x="270.350254" y="177.405184" style="fill: #22a884; stroke: #22a884; stroke-linejoin: miter"/>
     <use xlink:href="#m2c08d9e509" x="288.506043" y="161.76047" style="fill: #22a884; stroke: #22a884; stroke-linejoin: miter"/>
     <use xlink:href="#m2c08d9e509" x="306.661832" y="146.004775" style="fill: #22a884; stroke: #22a884; stroke-linejoin: miter"/>
     <use xlink:href="#m2c08d9e509" x="324.817621" y="130.193414" style="fill: #22a884; stroke: #22a884; stroke-linejoin: miter"/>
     <use xlink:href="#m2c08d9e509" x="342.973403" y="113.090433" style="fill: #22a884; stroke: #22a884; stroke-linejoin: miter"/>
     <use xlink:href="#m2c08d9e509" x="361.129184" y="96.363474" style="fill: #22a884; stroke: #22a884; stroke-linejoin: miter"/>
     <use xlink:href="#m2c08d9e509" x="379.284981" y="78.2439" style="fill: #22a884; stroke: #22a884; stroke-linejoin: miter"/>
     <use xlink:href="#m2c08d9e509" x="397.440778" y="59.732541" style="fill: #22a884; stroke: #22a884; stroke-linejoin: miter"/>
     <use xlink:href="#m2c08d9e509" x="415.59656" y="40.875591" style="fill: #22a884; stroke: #22a884; stroke-linejoin: miter"/>
    </g>
   </g>
   <g id="line2d_37">
    <path d="M 252.194464 214.12364 
L 270.350254 209.21455 
L 288.506043 202.659658 
L 306.661832 195.308673 
L 324.817621 186.931897 
L 342.973403 178.074898 
L 361.129184 168.971534 
L 379.284981 159.318581 
L 397.440778 149.788896 
L 415.59656 139.958828 
" clip-path="url(#pedf8c1a148)" style="fill: none; stroke-dasharray: 1,1.65; stroke-dashoffset: 0; stroke: #7ad151"/>
    <defs>
     <path id="m0085c31db5" d="M 0 2.12132 
L 2.12132 0 
L 0 -2.12132 
L -2.12132 0 
z
" style="stroke: #7ad151; stroke-linejoin: miter"/>
    </defs>
    <g clip-path="url(#pedf8c1a148)">
     <use xlink:href="#m0085c31db5" x="252.194464" y="214.12364" style="fill: #7ad151; stroke: #7ad151; stroke-linejoin: miter"/>
     <use xlink:href="#m0085c31db5" x="270.350254" y="209.21455" style="fill: #7ad151; stroke: #7ad151; stroke-linejoin: miter"/>
     <use xlink:href="#m0085c31db5" x="288.506043" y="202.659658" style="fill: #7ad151; stroke: #7ad151; stroke-linejoin: miter"/>
     <use xlink:href="#m0085c31db5" x="306.661832" y="195.308673" style="fill: #7ad151; stroke: #7ad151; stroke-linejoin: miter"/>
     <use xlink:href="#m0085c31db5" x="324.817621" y="186.931897" style="fill: #7ad151; stroke: #7ad151; stroke-linejoin: miter"/>
     <use xlink:href="#m0085c31db5" x="342.973403" y="178.074898" style="fill: #7ad151; stroke: #7ad151; stroke-linejoin: miter"/>
     <use xlink:href="#m0085c31db5" x="361.129184" y="168.971534" style="fill: #7ad151; stroke: #7ad151; stroke-linejoin: miter"/>
     <use xlink:href="#m0085c31db5" x="379.284981" y="159.318581" style="fill: #7ad151; stroke: #7ad151; stroke-linejoin: miter"/>
     <use xlink:href="#m0085c31db5" x="397.440778" y="149.788896" style="fill: #7ad151; stroke: #7ad151; stroke-linejoin: miter"/>
     <use xlink:href="#m0085c31db5" x="415.59656" y="139.958828" style="fill: #7ad151; stroke: #7ad151; stroke-linejoin: miter"/>
    </g>
   </g>
   <g id="patch_9">
    <path d="M 244.02436 224.220472 
L 244.02436 32.144882 
" style="fill: none; stroke: #000000; stroke-width: 0.8; stroke-linejoin: miter; stroke-linecap: square"/>
   </g>
   <g id="patch_10">
    <path d="M 423.766665 224.220472 
L 423.766665 32.144882 
" style="fill: none; stroke: #000000; stroke-width: 0.8; stroke-linejoin: miter; stroke-linecap: square"/>
   </g>
   <g id="patch_11">
    <path d="M 244.02436 224.220472 
L 423.766665 224.220472 
" style="fill: none; stroke: #000000; stroke-width: 0.8; stroke-linejoin: miter; stroke-linecap: square"/>
   </g>
   <g id="patch_12">
    <path d="M 244.02436 32.144882 
L 423.766665 32.144882 
" style="fill: none; stroke: #000000; stroke-width: 0.8; stroke-linejoin: miter; stroke-linecap: square"/>
   </g>
   <g id="legend_2">
    <g id="patch_13">
     <path d="M 247.52436 64.435507 
L 313.272016 64.435507 
Q 314.272016 64.435507 314.272016 63.435507 
L 314.272016 35.644882 
Q 314.272016 34.644882 313.272016 34.644882 
L 247.52436 34.644882 
Q 246.52436 34.644882 246.52436 35.644882 
L 246.52436 63.435507 
Q 246.52436 64.435507 247.52436 64.435507 
z
" style="fill: #ffffff; opacity: 0.8; stroke: #cccccc; stroke-linejoin: miter"/>
    </g>
    <g id="line2d_38">
     <path d="M 248.52436 38.473788 
L 253.52436 38.473788 
L 258.52436 38.473788 
" style="fill: none; stroke-dasharray: 1,1.65; stroke-dashoffset: 0; stroke: #414487"/>
     <g>
      <use xlink:href="#m8b9b1cf3bf" x="253.52436" y="38.473788" style="fill: #414487; stroke: #414487"/>
     </g>
    </g>
    <g id="text_35">
     <!-- Mean of Std at 48mA -->
     <g style="fill: #262626" transform="translate(262.52436 40.223788) scale(0.05 -0.05)">
      <use xlink:href="#ArialMT-4d"/>
      <use xlink:href="#ArialMT-65" transform="translate(83.300781 0)"/>
      <use xlink:href="#ArialMT-61" transform="translate(138.916016 0)"/>
      <use xlink:href="#ArialMT-6e" transform="translate(194.53125 0)"/>
      <use xlink:href="#ArialMT-20" transform="translate(250.146484 0)"/>
      <use xlink:href="#ArialMT-6f" transform="translate(277.929688 0)"/>
      <use xlink:href="#ArialMT-66" transform="translate(333.544922 0)"/>
      <use xlink:href="#ArialMT-20" transform="translate(361.328125 0)"/>
      <use xlink:href="#ArialMT-53" transform="translate(389.111328 0)"/>
      <use xlink:href="#ArialMT-74" transform="translate(455.810547 0)"/>
      <use xlink:href="#ArialMT-64" transform="translate(483.59375 0)"/>
      <use xlink:href="#ArialMT-20" transform="translate(539.208984 0)"/>
      <use xlink:href="#ArialMT-61" transform="translate(566.992188 0)"/>
      <use xlink:href="#ArialMT-74" transform="translate(622.607422 0)"/>
      <use xlink:href="#ArialMT-20" transform="translate(650.390625 0)"/>
      <use xlink:href="#ArialMT-34" transform="translate(678.173828 0)"/>
      <use xlink:href="#ArialMT-38" transform="translate(733.789062 0)"/>
      <use xlink:href="#ArialMT-6d" transform="translate(789.404297 0)"/>
      <use xlink:href="#ArialMT-41" transform="translate(872.705078 0)"/>
     </g>
    </g>
    <g id="line2d_39">
     <path d="M 248.52436 45.546444 
L 253.52436 45.546444 
L 258.52436 45.546444 
" style="fill: none; stroke-dasharray: 1,1.65; stroke-dashoffset: 0; stroke: #2a788e"/>
     <g>
      <use xlink:href="#m69dffc88c4" x="253.52436" y="45.546444" style="fill: #2a788e; stroke: #2a788e; stroke-linejoin: miter"/>
     </g>
    </g>
    <g id="text_36">
     <!-- Mean of Std at 60mA -->
     <g style="fill: #262626" transform="translate(262.52436 47.296444) scale(0.05 -0.05)">
      <use xlink:href="#ArialMT-4d"/>
      <use xlink:href="#ArialMT-65" transform="translate(83.300781 0)"/>
      <use xlink:href="#ArialMT-61" transform="translate(138.916016 0)"/>
      <use xlink:href="#ArialMT-6e" transform="translate(194.53125 0)"/>
      <use xlink:href="#ArialMT-20" transform="translate(250.146484 0)"/>
      <use xlink:href="#ArialMT-6f" transform="translate(277.929688 0)"/>
      <use xlink:href="#ArialMT-66" transform="translate(333.544922 0)"/>
      <use xlink:href="#ArialMT-20" transform="translate(361.328125 0)"/>
      <use xlink:href="#ArialMT-53" transform="translate(389.111328 0)"/>
      <use xlink:href="#ArialMT-74" transform="translate(455.810547 0)"/>
      <use xlink:href="#ArialMT-64" transform="translate(483.59375 0)"/>
      <use xlink:href="#ArialMT-20" transform="translate(539.208984 0)"/>
      <use xlink:href="#ArialMT-61" transform="translate(566.992188 0)"/>
      <use xlink:href="#ArialMT-74" transform="translate(622.607422 0)"/>
      <use xlink:href="#ArialMT-20" transform="translate(650.390625 0)"/>
      <use xlink:href="#ArialMT-36" transform="translate(678.173828 0)"/>
      <use xlink:href="#ArialMT-30" transform="translate(733.789062 0)"/>
      <use xlink:href="#ArialMT-6d" transform="translate(789.404297 0)"/>
      <use xlink:href="#ArialMT-41" transform="translate(872.705078 0)"/>
     </g>
    </g>
    <g id="line2d_40">
     <path d="M 248.52436 52.619101 
L 253.52436 52.619101 
L 258.52436 52.619101 
" style="fill: none; stroke-dasharray: 1,1.65; stroke-dashoffset: 0; stroke: #22a884"/>
     <g>
      <use xlink:href="#m2c08d9e509" x="253.52436" y="52.619101" style="fill: #22a884; stroke: #22a884; stroke-linejoin: miter"/>
     </g>
    </g>
    <g id="text_37">
     <!-- Mean of Std at 80mA -->
     <g style="fill: #262626" transform="translate(262.52436 54.369101) scale(0.05 -0.05)">
      <use xlink:href="#ArialMT-4d"/>
      <use xlink:href="#ArialMT-65" transform="translate(83.300781 0)"/>
      <use xlink:href="#ArialMT-61" transform="translate(138.916016 0)"/>
      <use xlink:href="#ArialMT-6e" transform="translate(194.53125 0)"/>
      <use xlink:href="#ArialMT-20" transform="translate(250.146484 0)"/>
      <use xlink:href="#ArialMT-6f" transform="translate(277.929688 0)"/>
      <use xlink:href="#ArialMT-66" transform="translate(333.544922 0)"/>
      <use xlink:href="#ArialMT-20" transform="translate(361.328125 0)"/>
      <use xlink:href="#ArialMT-53" transform="translate(389.111328 0)"/>
      <use xlink:href="#ArialMT-74" transform="translate(455.810547 0)"/>
      <use xlink:href="#ArialMT-64" transform="translate(483.59375 0)"/>
      <use xlink:href="#ArialMT-20" transform="translate(539.208984 0)"/>
      <use xlink:href="#ArialMT-61" transform="translate(566.992188 0)"/>
      <use xlink:href="#ArialMT-74" transform="translate(622.607422 0)"/>
      <use xlink:href="#ArialMT-20" transform="translate(650.390625 0)"/>
      <use xlink:href="#ArialMT-38" transform="translate(678.173828 0)"/>
      <use xlink:href="#ArialMT-30" transform="translate(733.789062 0)"/>
      <use xlink:href="#ArialMT-6d" transform="translate(789.404297 0)"/>
      <use xlink:href="#ArialMT-41" transform="translate(872.705078 0)"/>
     </g>
    </g>
    <g id="line2d_41">
     <path d="M 248.52436 59.691757 
L 253.52436 59.691757 
L 258.52436 59.691757 
" style="fill: none; stroke-dasharray: 1,1.65; stroke-dashoffset: 0; stroke: #7ad151"/>
     <g>
      <use xlink:href="#m0085c31db5" x="253.52436" y="59.691757" style="fill: #7ad151; stroke: #7ad151; stroke-linejoin: miter"/>
     </g>
    </g>
    <g id="text_38">
     <!-- Mean of Std at 121mA -->
     <g style="fill: #262626" transform="translate(262.52436 61.441757) scale(0.05 -0.05)">
      <use xlink:href="#ArialMT-4d"/>
      <use xlink:href="#ArialMT-65" transform="translate(83.300781 0)"/>
      <use xlink:href="#ArialMT-61" transform="translate(138.916016 0)"/>
      <use xlink:href="#ArialMT-6e" transform="translate(194.53125 0)"/>
      <use xlink:href="#ArialMT-20" transform="translate(250.146484 0)"/>
      <use xlink:href="#ArialMT-6f" transform="translate(277.929688 0)"/>
      <use xlink:href="#ArialMT-66" transform="translate(333.544922 0)"/>
      <use xlink:href="#ArialMT-20" transform="translate(361.328125 0)"/>
      <use xlink:href="#ArialMT-53" transform="translate(389.111328 0)"/>
      <use xlink:href="#ArialMT-74" transform="translate(455.810547 0)"/>
      <use xlink:href="#ArialMT-64" transform="translate(483.59375 0)"/>
      <use xlink:href="#ArialMT-20" transform="translate(539.208984 0)"/>
      <use xlink:href="#ArialMT-61" transform="translate(566.992188 0)"/>
      <use xlink:href="#ArialMT-74" transform="translate(622.607422 0)"/>
      <use xlink:href="#ArialMT-20" transform="translate(650.390625 0)"/>
      <use xlink:href="#ArialMT-31" transform="translate(678.173828 0)"/>
      <use xlink:href="#ArialMT-32" transform="translate(733.789062 0)"/>
      <use xlink:href="#ArialMT-31" transform="translate(789.404297 0)"/>
      <use xlink:href="#ArialMT-6d" transform="translate(845.019531 0)"/>
      <use xlink:href="#ArialMT-41" transform="translate(928.320312 0)"/>
     </g>
    </g>
   </g>
  </g>
  <g id="text_39">
   <!-- Learned Mean Uncertainty vs Input Power -->
   <g style="fill: #262626" transform="translate(163.64577 11.494687) scale(0.06 -0.06)">
    <defs>
     <path id="ArialMT-55" d="M 3500 4581 
L 4106 4581 
L 4106 1934 
Q 4106 1244 3950 837 
Q 3794 431 3386 176 
Q 2978 -78 2316 -78 
Q 1672 -78 1262 144 
Q 853 366 678 786 
Q 503 1206 503 1934 
L 503 4581 
L 1109 4581 
L 1109 1938 
Q 1109 1341 1220 1058 
Q 1331 775 1601 622 
Q 1872 469 2263 469 
Q 2931 469 3215 772 
Q 3500 1075 3500 1938 
L 3500 4581 
z
" transform="scale(0.015625)"/>
     <path id="ArialMT-63" d="M 2588 1216 
L 3141 1144 
Q 3050 572 2676 248 
Q 2303 -75 1759 -75 
Q 1078 -75 664 370 
Q 250 816 250 1647 
Q 250 2184 428 2587 
Q 606 2991 970 3192 
Q 1334 3394 1763 3394 
Q 2303 3394 2647 3120 
Q 2991 2847 3088 2344 
L 2541 2259 
Q 2463 2594 2264 2762 
Q 2066 2931 1784 2931 
Q 1359 2931 1093 2626 
Q 828 2322 828 1663 
Q 828 994 1084 691 
Q 1341 388 1753 388 
Q 2084 388 2306 591 
Q 2528 794 2588 1216 
z
" transform="scale(0.015625)"/>
     <path id="ArialMT-79" d="M 397 -1278 
L 334 -750 
Q 519 -800 656 -800 
Q 844 -800 956 -737 
Q 1069 -675 1141 -563 
Q 1194 -478 1313 -144 
Q 1328 -97 1363 -6 
L 103 3319 
L 709 3319 
L 1400 1397 
Q 1534 1031 1641 628 
Q 1738 1016 1872 1384 
L 2581 3319 
L 3144 3319 
L 1881 -56 
Q 1678 -603 1566 -809 
Q 1416 -1088 1222 -1217 
Q 1028 -1347 759 -1347 
Q 597 -1347 397 -1278 
z
" transform="scale(0.015625)"/>
     <path id="ArialMT-73" d="M 197 991 
L 753 1078 
Q 800 744 1014 566 
Q 1228 388 1613 388 
Q 2000 388 2187 545 
Q 2375 703 2375 916 
Q 2375 1106 2209 1216 
Q 2094 1291 1634 1406 
Q 1016 1563 777 1677 
Q 538 1791 414 1992 
Q 291 2194 291 2438 
Q 291 2659 392 2848 
Q 494 3038 669 3163 
Q 800 3259 1026 3326 
Q 1253 3394 1513 3394 
Q 1903 3394 2198 3281 
Q 2494 3169 2634 2976 
Q 2775 2784 2828 2463 
L 2278 2388 
Q 2241 2644 2061 2787 
Q 1881 2931 1553 2931 
Q 1166 2931 1000 2803 
Q 834 2675 834 2503 
Q 834 2394 903 2306 
Q 972 2216 1119 2156 
Q 1203 2125 1616 2013 
Q 2213 1853 2448 1751 
Q 2684 1650 2818 1456 
Q 2953 1263 2953 975 
Q 2953 694 2789 445 
Q 2625 197 2315 61 
Q 2006 -75 1616 -75 
Q 969 -75 630 194 
Q 291 463 197 991 
z
" transform="scale(0.015625)"/>
    </defs>
    <use xlink:href="#ArialMT-4c"/>
    <use xlink:href="#ArialMT-65" transform="translate(55.615234 0)"/>
    <use xlink:href="#ArialMT-61" transform="translate(111.230469 0)"/>
    <use xlink:href="#ArialMT-72" transform="translate(166.845703 0)"/>
    <use xlink:href="#ArialMT-6e" transform="translate(200.146484 0)"/>
    <use xlink:href="#ArialMT-65" transform="translate(255.761719 0)"/>
    <use xlink:href="#ArialMT-64" transform="translate(311.376953 0)"/>
    <use xlink:href="#ArialMT-20" transform="translate(366.992188 0)"/>
    <use xlink:href="#ArialMT-4d" transform="translate(394.775391 0)"/>
    <use xlink:href="#ArialMT-65" transform="translate(478.076172 0)"/>
    <use xlink:href="#ArialMT-61" transform="translate(533.691406 0)"/>
    <use xlink:href="#ArialMT-6e" transform="translate(589.306641 0)"/>
    <use xlink:href="#ArialMT-20" transform="translate(644.921875 0)"/>
    <use xlink:href="#ArialMT-55" transform="translate(672.705078 0)"/>
    <use xlink:href="#ArialMT-6e" transform="translate(744.921875 0)"/>
    <use xlink:href="#ArialMT-63" transform="translate(800.537109 0)"/>
    <use xlink:href="#ArialMT-65" transform="translate(850.537109 0)"/>
    <use xlink:href="#ArialMT-72" transform="translate(906.152344 0)"/>
    <use xlink:href="#ArialMT-74" transform="translate(939.453125 0)"/>
    <use xlink:href="#ArialMT-61" transform="translate(967.236328 0)"/>
    <use xlink:href="#ArialMT-69" transform="translate(1022.851562 0)"/>
    <use xlink:href="#ArialMT-6e" transform="translate(1045.068359 0)"/>
    <use xlink:href="#ArialMT-74" transform="translate(1100.683594 0)"/>
    <use xlink:href="#ArialMT-79" transform="translate(1128.466797 0)"/>
    <use xlink:href="#ArialMT-20" transform="translate(1178.466797 0)"/>
    <use xlink:href="#ArialMT-76" transform="translate(1206.25 0)"/>
    <use xlink:href="#ArialMT-73" transform="translate(1256.25 0)"/>
    <use xlink:href="#ArialMT-20" transform="translate(1306.25 0)"/>
    <use xlink:href="#ArialMT-49" transform="translate(1334.033203 0)"/>
    <use xlink:href="#ArialMT-6e" transform="translate(1361.816406 0)"/>
    <use xlink:href="#ArialMT-70" transform="translate(1417.431641 0)"/>
    <use xlink:href="#ArialMT-75" transform="translate(1473.046875 0)"/>
    <use xlink:href="#ArialMT-74" transform="translate(1528.662109 0)"/>
    <use xlink:href="#ArialMT-20" transform="translate(1556.445312 0)"/>
    <use xlink:href="#ArialMT-50" transform="translate(1584.228516 0)"/>
    <use xlink:href="#ArialMT-6f" transform="translate(1650.927734 0)"/>
    <use xlink:href="#ArialMT-77" transform="translate(1706.542969 0)"/>
    <use xlink:href="#ArialMT-65" transform="translate(1778.759766 0)"/>
    <use xlink:href="#ArialMT-72" transform="translate(1834.375 0)"/>
   </g>
  </g>
 </g>
 <defs>
  <clipPath id="p7f27b3495e">
   <rect x="28.333594" y="32.144882" width="179.742305" height="192.075591"/>
  </clipPath>
  <clipPath id="pedf8c1a148">
   <rect x="244.02436" y="32.144882" width="179.742305" height="192.075591"/>
  </clipPath>
 </defs>
</svg>
