<?xml version="1.0" encoding="utf-8" standalone="no"?>
<!DOCTYPE svg PUBLIC "-//W3C//DTD SVG 1.1//EN"
  "http://www.w3.org/Graphics/SVG/1.1/DTD/svg11.dtd">
<svg xmlns:xlink="http://www.w3.org/1999/xlink" width="248.563194pt" height="247.383788pt" viewBox="0 0 248.563194 247.383788" xmlns="http://www.w3.org/2000/svg" version="1.1">
 <metadata>
  <rdf:RDF xmlns:dc="http://purl.org/dc/elements/1.1/" xmlns:cc="http://creativecommons.org/ns#" xmlns:rdf="http://www.w3.org/1999/02/22-rdf-syntax-ns#">
   <cc:Work>
    <dc:type rdf:resource="http://purl.org/dc/dcmitype/StillImage"/>
    <dc:date>2026-01-09T12:20:48.017980</dc:date>
    <dc:format>image/svg+xml</dc:format>
    <dc:creator>
     <cc:Agent>
      <dc:title>Matplotlib v3.10.6, https://matplotlib.org/</dc:title>
     </cc:Agent>
    </dc:creator>
   </cc:Work>
  </rdf:RDF>
 </metadata>
 <defs>
  <style type="text/css">*{stroke-linejoin: round; stroke-linecap: butt}</style>
 </defs>
 <g id="figure_1">
  <g id="patch_1">
   <path d="M 0 247.383788 
L 248.563194 247.383788 
L 248.563194 0 
L 0 0 
L 0 247.383788 
z
" style="fill: none"/>
  </g>
  <g id="axes_1">
   <g id="patch_2">
    <path d="M 32.554375 214.004725 
L 241.363194 214.004725 
L 241.363194 18.210469 
L 32.554375 18.210469 
L 32.554375 214.004725 
z
" style="fill: none"/>
   </g>
   <g id="matplotlib.axis_1">
    <g id="xtick_1">
     <g id="line2d_1">
      <path d="M 32.808952 214.004725 
L 32.808952 18.210469 
" clip-path="url(#p30a7781f9e)" style="fill: none; stroke: #cccccc; stroke-width: 0.8; stroke-linecap: round"/>
     </g>
     <g id="text_1">
      <!-- $\mathdefault{10^{1}}$ -->
      <g style="fill: #262626" transform="translate(27.313952 228.223475) scale(0.07 -0.07)">
       <defs>
        <path id="ArialMT-31" d="M 2384 0 
L 1822 0 
L 1822 3584 
Q 1619 3391 1289 3197 
Q 959 3003 697 2906 
L 697 3450 
Q 1169 3672 1522 3987 
Q 1875 4303 2022 4600 
L 2384 4600 
L 2384 0 
z
" transform="scale(0.015625)"/>
        <path id="ArialMT-30" d="M 266 2259 
Q 266 3072 433 3567 
Q 600 4063 929 4331 
Q 1259 4600 1759 4600 
Q 2128 4600 2406 4451 
Q 2684 4303 2865 4023 
Q 3047 3744 3150 3342 
Q 3253 2941 3253 2259 
Q 3253 1453 3087 958 
Q 2922 463 2592 192 
Q 2263 -78 1759 -78 
Q 1097 -78 719 397 
Q 266 969 266 2259 
z
M 844 2259 
Q 844 1131 1108 757 
Q 1372 384 1759 384 
Q 2147 384 2411 759 
Q 2675 1134 2675 2259 
Q 2675 3391 2411 3762 
Q 2147 4134 1753 4134 
Q 1366 4134 1134 3806 
Q 844 3388 844 2259 
z
" transform="scale(0.015625)"/>
       </defs>
       <use xlink:href="#ArialMT-31" transform="translate(0 0.99375)"/>
       <use xlink:href="#ArialMT-30" transform="translate(55.615234 0.99375)"/>
       <use xlink:href="#ArialMT-31" transform="translate(112.972813 70.6875) scale(0.7)"/>
      </g>
     </g>
    </g>
    <g id="xtick_2">
     <g id="line2d_2">
      <path d="M 85.263191 214.004725 
L 85.263191 18.210469 
" clip-path="url(#p30a7781f9e)" style="fill: none; stroke: #cccccc; stroke-width: 0.8; stroke-linecap: round"/>
     </g>
     <g id="text_2">
      <!-- $\mathdefault{10^{2}}$ -->
      <g style="fill: #262626" transform="translate(79.768191 228.223475) scale(0.07 -0.07)">
       <defs>
        <path id="ArialMT-32" d="M 3222 541 
L 3222 0 
L 194 0 
Q 188 203 259 391 
Q 375 700 629 1000 
Q 884 1300 1366 1694 
Q 2113 2306 2375 2664 
Q 2638 3022 2638 3341 
Q 2638 3675 2398 3904 
Q 2159 4134 1775 4134 
Q 1369 4134 1125 3890 
Q 881 3647 878 3216 
L 300 3275 
Q 359 3922 746 4261 
Q 1134 4600 1788 4600 
Q 2447 4600 2831 4234 
Q 3216 3869 3216 3328 
Q 3216 3053 3103 2787 
Q 2991 2522 2730 2228 
Q 2469 1934 1863 1422 
Q 1356 997 1212 845 
Q 1069 694 975 541 
L 3222 541 
z
" transform="scale(0.015625)"/>
       </defs>
       <use xlink:href="#ArialMT-31" transform="translate(0 0.99375)"/>
       <use xlink:href="#ArialMT-30" transform="translate(55.615234 0.99375)"/>
       <use xlink:href="#ArialMT-32" transform="translate(112.972813 70.6875) scale(0.7)"/>
      </g>
     </g>
    </g>
    <g id="xtick_3">
     <g id="line2d_3">
      <path d="M 137.717431 214.004725 
L 137.717431 18.210469 
" clip-path="url(#p30a7781f9e)" style="fill: none; stroke: #cccccc; stroke-width: 0.8; stroke-linecap: round"/>
     </g>
     <g id="text_3">
      <!-- $\mathdefault{10^{3}}$ -->
      <g style="fill: #262626" transform="translate(132.222431 228.223475) scale(0.07 -0.07)">
       <defs>
        <path id="ArialMT-33" d="M 269 1209 
L 831 1284 
Q 928 806 1161 595 
Q 1394 384 1728 384 
Q 2125 384 2398 659 
Q 2672 934 2672 1341 
Q 2672 1728 2419 1979 
Q 2166 2231 1775 2231 
Q 1616 2231 1378 2169 
L 1441 2663 
Q 1497 2656 1531 2656 
Q 1891 2656 2178 2843 
Q 2466 3031 2466 3422 
Q 2466 3731 2256 3934 
Q 2047 4138 1716 4138 
Q 1388 4138 1169 3931 
Q 950 3725 888 3313 
L 325 3413 
Q 428 3978 793 4289 
Q 1159 4600 1703 4600 
Q 2078 4600 2393 4439 
Q 2709 4278 2876 4000 
Q 3044 3722 3044 3409 
Q 3044 3113 2884 2869 
Q 2725 2625 2413 2481 
Q 2819 2388 3044 2092 
Q 3269 1797 3269 1353 
Q 3269 753 2831 336 
Q 2394 -81 1725 -81 
Q 1122 -81 723 278 
Q 325 638 269 1209 
z
" transform="scale(0.015625)"/>
       </defs>
       <use xlink:href="#ArialMT-31" transform="translate(0 0.99375)"/>
       <use xlink:href="#ArialMT-30" transform="translate(55.615234 0.99375)"/>
       <use xlink:href="#ArialMT-33" transform="translate(112.972813 70.6875) scale(0.7)"/>
      </g>
     </g>
    </g>
    <g id="xtick_4">
     <g id="line2d_4">
      <path d="M 190.171671 214.004725 
L 190.171671 18.210469 
" clip-path="url(#p30a7781f9e)" style="fill: none; stroke: #cccccc; stroke-width: 0.8; stroke-linecap: round"/>
     </g>
     <g id="text_4">
      <!-- $\mathdefault{10^{4}}$ -->
      <g style="fill: #262626" transform="translate(184.676671 228.153475) scale(0.07 -0.07)">
       <defs>
        <path id="ArialMT-34" d="M 2069 0 
L 2069 1097 
L 81 1097 
L 81 1613 
L 2172 4581 
L 2631 4581 
L 2631 1613 
L 3250 1613 
L 3250 1097 
L 2631 1097 
L 2631 0 
L 2069 0 
z
M 2069 1613 
L 2069 3678 
L 634 1613 
L 2069 1613 
z
" transform="scale(0.015625)"/>
       </defs>
       <use xlink:href="#ArialMT-31" transform="translate(0 0.201563)"/>
       <use xlink:href="#ArialMT-30" transform="translate(55.615234 0.201563)"/>
       <use xlink:href="#ArialMT-34" transform="translate(112.972813 69.895313) scale(0.7)"/>
      </g>
     </g>
    </g>
    <g id="xtick_5"/>
    <g id="xtick_6"/>
    <g id="xtick_7"/>
    <g id="xtick_8"/>
    <g id="xtick_9"/>
    <g id="xtick_10"/>
    <g id="xtick_11"/>
    <g id="xtick_12"/>
    <g id="xtick_13"/>
    <g id="xtick_14"/>
    <g id="xtick_15"/>
    <g id="xtick_16"/>
    <g id="xtick_17"/>
    <g id="xtick_18"/>
    <g id="xtick_19"/>
    <g id="xtick_20"/>
    <g id="xtick_21"/>
    <g id="xtick_22"/>
    <g id="xtick_23"/>
    <g id="xtick_24"/>
    <g id="xtick_25"/>
    <g id="xtick_26"/>
    <g id="xtick_27"/>
    <g id="xtick_28"/>
    <g id="xtick_29"/>
    <g id="xtick_30"/>
    <g id="xtick_31"/>
    <g id="xtick_32"/>
    <g id="xtick_33"/>
    <g id="xtick_34"/>
    <g id="xtick_35"/>
    <g id="xtick_36"/>
    <g id="text_5">
     <!-- Number of Parameters (Log Scale) -->
     <g style="fill: #262626" transform="translate(82.690191 238.710506) scale(0.07 -0.07)">
      <defs>
       <path id="ArialMT-4e" d="M 488 0 
L 488 4581 
L 1109 4581 
L 3516 984 
L 3516 4581 
L 4097 4581 
L 4097 0 
L 3475 0 
L 1069 3600 
L 1069 0 
L 488 0 
z
" transform="scale(0.015625)"/>
       <path id="ArialMT-75" d="M 2597 0 
L 2597 488 
Q 2209 -75 1544 -75 
Q 1250 -75 995 37 
Q 741 150 617 320 
Q 494 491 444 738 
Q 409 903 409 1263 
L 409 3319 
L 972 3319 
L 972 1478 
Q 972 1038 1006 884 
Q 1059 663 1231 536 
Q 1403 409 1656 409 
Q 1909 409 2131 539 
Q 2353 669 2445 892 
Q 2538 1116 2538 1541 
L 2538 3319 
L 3100 3319 
L 3100 0 
L 2597 0 
z
" transform="scale(0.015625)"/>
       <path id="ArialMT-6d" d="M 422 0 
L 422 3319 
L 925 3319 
L 925 2853 
Q 1081 3097 1340 3245 
Q 1600 3394 1931 3394 
Q 2300 3394 2536 3241 
Q 2772 3088 2869 2813 
Q 3263 3394 3894 3394 
Q 4388 3394 4653 3120 
Q 4919 2847 4919 2278 
L 4919 0 
L 4359 0 
L 4359 2091 
Q 4359 2428 4304 2576 
Q 4250 2725 4106 2815 
Q 3963 2906 3769 2906 
Q 3419 2906 3187 2673 
Q 2956 2441 2956 1928 
L 2956 0 
L 2394 0 
L 2394 2156 
Q 2394 2531 2256 2718 
Q 2119 2906 1806 2906 
Q 1569 2906 1367 2781 
Q 1166 2656 1075 2415 
Q 984 2175 984 1722 
L 984 0 
L 422 0 
z
" transform="scale(0.015625)"/>
       <path id="ArialMT-62" d="M 941 0 
L 419 0 
L 419 4581 
L 981 4581 
L 981 2947 
Q 1338 3394 1891 3394 
Q 2197 3394 2470 3270 
Q 2744 3147 2920 2923 
Q 3097 2700 3197 2384 
Q 3297 2069 3297 1709 
Q 3297 856 2875 390 
Q 2453 -75 1863 -75 
Q 1275 -75 941 416 
L 941 0 
z
M 934 1684 
Q 934 1088 1097 822 
Q 1363 388 1816 388 
Q 2184 388 2453 708 
Q 2722 1028 2722 1663 
Q 2722 2313 2464 2622 
Q 2206 2931 1841 2931 
Q 1472 2931 1203 2611 
Q 934 2291 934 1684 
z
" transform="scale(0.015625)"/>
       <path id="ArialMT-65" d="M 2694 1069 
L 3275 997 
Q 3138 488 2766 206 
Q 2394 -75 1816 -75 
Q 1088 -75 661 373 
Q 234 822 234 1631 
Q 234 2469 665 2931 
Q 1097 3394 1784 3394 
Q 2450 3394 2872 2941 
Q 3294 2488 3294 1666 
Q 3294 1616 3291 1516 
L 816 1516 
Q 847 969 1125 678 
Q 1403 388 1819 388 
Q 2128 388 2347 550 
Q 2566 713 2694 1069 
z
M 847 1978 
L 2700 1978 
Q 2663 2397 2488 2606 
Q 2219 2931 1791 2931 
Q 1403 2931 1139 2672 
Q 875 2413 847 1978 
z
" transform="scale(0.015625)"/>
       <path id="ArialMT-72" d="M 416 0 
L 416 3319 
L 922 3319 
L 922 2816 
Q 1116 3169 1280 3281 
Q 1444 3394 1641 3394 
Q 1925 3394 2219 3213 
L 2025 2691 
Q 1819 2813 1613 2813 
Q 1428 2813 1281 2702 
Q 1134 2591 1072 2394 
Q 978 2094 978 1738 
L 978 0 
L 416 0 
z
" transform="scale(0.015625)"/>
       <path id="ArialMT-20" transform="scale(0.015625)"/>
       <path id="ArialMT-6f" d="M 213 1659 
Q 213 2581 725 3025 
Q 1153 3394 1769 3394 
Q 2453 3394 2887 2945 
Q 3322 2497 3322 1706 
Q 3322 1066 3130 698 
Q 2938 331 2570 128 
Q 2203 -75 1769 -75 
Q 1072 -75 642 372 
Q 213 819 213 1659 
z
M 791 1659 
Q 791 1022 1069 705 
Q 1347 388 1769 388 
Q 2188 388 2466 706 
Q 2744 1025 2744 1678 
Q 2744 2294 2464 2611 
Q 2184 2928 1769 2928 
Q 1347 2928 1069 2612 
Q 791 2297 791 1659 
z
" transform="scale(0.015625)"/>
       <path id="ArialMT-66" d="M 556 0 
L 556 2881 
L 59 2881 
L 59 3319 
L 556 3319 
L 556 3672 
Q 556 4006 616 4169 
Q 697 4388 901 4523 
Q 1106 4659 1475 4659 
Q 1713 4659 2000 4603 
L 1916 4113 
Q 1741 4144 1584 4144 
Q 1328 4144 1222 4034 
Q 1116 3925 1116 3625 
L 1116 3319 
L 1763 3319 
L 1763 2881 
L 1116 2881 
L 1116 0 
L 556 0 
z
" transform="scale(0.015625)"/>
       <path id="ArialMT-50" d="M 494 0 
L 494 4581 
L 2222 4581 
Q 2678 4581 2919 4538 
Q 3256 4481 3484 4323 
Q 3713 4166 3852 3881 
Q 3991 3597 3991 3256 
Q 3991 2672 3619 2267 
Q 3247 1863 2275 1863 
L 1100 1863 
L 1100 0 
L 494 0 
z
M 1100 2403 
L 2284 2403 
Q 2872 2403 3119 2622 
Q 3366 2841 3366 3238 
Q 3366 3525 3220 3729 
Q 3075 3934 2838 4000 
Q 2684 4041 2272 4041 
L 1100 4041 
L 1100 2403 
z
" transform="scale(0.015625)"/>
       <path id="ArialMT-61" d="M 2588 409 
Q 2275 144 1986 34 
Q 1697 -75 1366 -75 
Q 819 -75 525 192 
Q 231 459 231 875 
Q 231 1119 342 1320 
Q 453 1522 633 1644 
Q 813 1766 1038 1828 
Q 1203 1872 1538 1913 
Q 2219 1994 2541 2106 
Q 2544 2222 2544 2253 
Q 2544 2597 2384 2738 
Q 2169 2928 1744 2928 
Q 1347 2928 1158 2789 
Q 969 2650 878 2297 
L 328 2372 
Q 403 2725 575 2942 
Q 747 3159 1072 3276 
Q 1397 3394 1825 3394 
Q 2250 3394 2515 3294 
Q 2781 3194 2906 3042 
Q 3031 2891 3081 2659 
Q 3109 2516 3109 2141 
L 3109 1391 
Q 3109 606 3145 398 
Q 3181 191 3288 0 
L 2700 0 
Q 2613 175 2588 409 
z
M 2541 1666 
Q 2234 1541 1622 1453 
Q 1275 1403 1131 1340 
Q 988 1278 909 1158 
Q 831 1038 831 891 
Q 831 666 1001 516 
Q 1172 366 1500 366 
Q 1825 366 2078 508 
Q 2331 650 2450 897 
Q 2541 1088 2541 1459 
L 2541 1666 
z
" transform="scale(0.015625)"/>
       <path id="ArialMT-74" d="M 1650 503 
L 1731 6 
Q 1494 -44 1306 -44 
Q 1000 -44 831 53 
Q 663 150 594 308 
Q 525 466 525 972 
L 525 2881 
L 113 2881 
L 113 3319 
L 525 3319 
L 525 4141 
L 1084 4478 
L 1084 3319 
L 1650 3319 
L 1650 2881 
L 1084 2881 
L 1084 941 
Q 1084 700 1114 631 
Q 1144 563 1211 522 
Q 1278 481 1403 481 
Q 1497 481 1650 503 
z
" transform="scale(0.015625)"/>
       <path id="ArialMT-73" d="M 197 991 
L 753 1078 
Q 800 744 1014 566 
Q 1228 388 1613 388 
Q 2000 388 2187 545 
Q 2375 703 2375 916 
Q 2375 1106 2209 1216 
Q 2094 1291 1634 1406 
Q 1016 1563 777 1677 
Q 538 1791 414 1992 
Q 291 2194 291 2438 
Q 291 2659 392 2848 
Q 494 3038 669 3163 
Q 800 3259 1026 3326 
Q 1253 3394 1513 3394 
Q 1903 3394 2198 3281 
Q 2494 3169 2634 2976 
Q 2775 2784 2828 2463 
L 2278 2388 
Q 2241 2644 2061 2787 
Q 1881 2931 1553 2931 
Q 1166 2931 1000 2803 
Q 834 2675 834 2503 
Q 834 2394 903 2306 
Q 972 2216 1119 2156 
Q 1203 2125 1616 2013 
Q 2213 1853 2448 1751 
Q 2684 1650 2818 1456 
Q 2953 1263 2953 975 
Q 2953 694 2789 445 
Q 2625 197 2315 61 
Q 2006 -75 1616 -75 
Q 969 -75 630 194 
Q 291 463 197 991 
z
" transform="scale(0.015625)"/>
       <path id="ArialMT-28" d="M 1497 -1347 
Q 1031 -759 709 28 
Q 388 816 388 1659 
Q 388 2403 628 3084 
Q 909 3875 1497 4659 
L 1900 4659 
Q 1522 4009 1400 3731 
Q 1209 3300 1100 2831 
Q 966 2247 966 1656 
Q 966 153 1900 -1347 
L 1497 -1347 
z
" transform="scale(0.015625)"/>
       <path id="ArialMT-4c" d="M 469 0 
L 469 4581 
L 1075 4581 
L 1075 541 
L 3331 541 
L 3331 0 
L 469 0 
z
" transform="scale(0.015625)"/>
       <path id="ArialMT-67" d="M 319 -275 
L 866 -356 
Q 900 -609 1056 -725 
Q 1266 -881 1628 -881 
Q 2019 -881 2231 -725 
Q 2444 -569 2519 -288 
Q 2563 -116 2559 434 
Q 2191 0 1641 0 
Q 956 0 581 494 
Q 206 988 206 1678 
Q 206 2153 378 2554 
Q 550 2956 876 3175 
Q 1203 3394 1644 3394 
Q 2231 3394 2613 2919 
L 2613 3319 
L 3131 3319 
L 3131 450 
Q 3131 -325 2973 -648 
Q 2816 -972 2473 -1159 
Q 2131 -1347 1631 -1347 
Q 1038 -1347 672 -1080 
Q 306 -813 319 -275 
z
M 784 1719 
Q 784 1066 1043 766 
Q 1303 466 1694 466 
Q 2081 466 2343 764 
Q 2606 1063 2606 1700 
Q 2606 2309 2336 2618 
Q 2066 2928 1684 2928 
Q 1309 2928 1046 2623 
Q 784 2319 784 1719 
z
" transform="scale(0.015625)"/>
       <path id="ArialMT-53" d="M 288 1472 
L 859 1522 
Q 900 1178 1048 958 
Q 1197 738 1509 602 
Q 1822 466 2213 466 
Q 2559 466 2825 569 
Q 3091 672 3220 851 
Q 3350 1031 3350 1244 
Q 3350 1459 3225 1620 
Q 3100 1781 2813 1891 
Q 2628 1963 1997 2114 
Q 1366 2266 1113 2400 
Q 784 2572 623 2826 
Q 463 3081 463 3397 
Q 463 3744 659 4045 
Q 856 4347 1234 4503 
Q 1613 4659 2075 4659 
Q 2584 4659 2973 4495 
Q 3363 4331 3572 4012 
Q 3781 3694 3797 3291 
L 3216 3247 
Q 3169 3681 2898 3903 
Q 2628 4125 2100 4125 
Q 1550 4125 1298 3923 
Q 1047 3722 1047 3438 
Q 1047 3191 1225 3031 
Q 1400 2872 2139 2705 
Q 2878 2538 3153 2413 
Q 3553 2228 3743 1945 
Q 3934 1663 3934 1294 
Q 3934 928 3725 604 
Q 3516 281 3123 101 
Q 2731 -78 2241 -78 
Q 1619 -78 1198 103 
Q 778 284 539 648 
Q 300 1013 288 1472 
z
" transform="scale(0.015625)"/>
       <path id="ArialMT-63" d="M 2588 1216 
L 3141 1144 
Q 3050 572 2676 248 
Q 2303 -75 1759 -75 
Q 1078 -75 664 370 
Q 250 816 250 1647 
Q 250 2184 428 2587 
Q 606 2991 970 3192 
Q 1334 3394 1763 3394 
Q 2303 3394 2647 3120 
Q 2991 2847 3088 2344 
L 2541 2259 
Q 2463 2594 2264 2762 
Q 2066 2931 1784 2931 
Q 1359 2931 1093 2626 
Q 828 2322 828 1663 
Q 828 994 1084 691 
Q 1341 388 1753 388 
Q 2084 388 2306 591 
Q 2528 794 2588 1216 
z
" transform="scale(0.015625)"/>
       <path id="ArialMT-6c" d="M 409 0 
L 409 4581 
L 972 4581 
L 972 0 
L 409 0 
z
" transform="scale(0.015625)"/>
       <path id="ArialMT-29" d="M 791 -1347 
L 388 -1347 
Q 1322 153 1322 1656 
Q 1322 2244 1188 2822 
Q 1081 3291 891 3722 
Q 769 4003 388 4659 
L 791 4659 
Q 1378 3875 1659 3084 
Q 1900 2403 1900 1659 
Q 1900 816 1576 28 
Q 1253 -759 791 -1347 
z
" transform="scale(0.015625)"/>
      </defs>
      <use xlink:href="#ArialMT-4e"/>
      <use xlink:href="#ArialMT-75" transform="translate(72.216797 0)"/>
      <use xlink:href="#ArialMT-6d" transform="translate(127.832031 0)"/>
      <use xlink:href="#ArialMT-62" transform="translate(211.132812 0)"/>
      <use xlink:href="#ArialMT-65" transform="translate(266.748047 0)"/>
      <use xlink:href="#ArialMT-72" transform="translate(322.363281 0)"/>
      <use xlink:href="#ArialMT-20" transform="translate(355.664062 0)"/>
      <use xlink:href="#ArialMT-6f" transform="translate(383.447266 0)"/>
      <use xlink:href="#ArialMT-66" transform="translate(439.0625 0)"/>
      <use xlink:href="#ArialMT-20" transform="translate(466.845703 0)"/>
      <use xlink:href="#ArialMT-50" transform="translate(494.628906 0)"/>
      <use xlink:href="#ArialMT-61" transform="translate(561.328125 0)"/>
      <use xlink:href="#ArialMT-72" transform="translate(616.943359 0)"/>
      <use xlink:href="#ArialMT-61" transform="translate(650.244141 0)"/>
      <use xlink:href="#ArialMT-6d" transform="translate(705.859375 0)"/>
      <use xlink:href="#ArialMT-65" transform="translate(789.160156 0)"/>
      <use xlink:href="#ArialMT-74" transform="translate(844.775391 0)"/>
      <use xlink:href="#ArialMT-65" transform="translate(872.558594 0)"/>
      <use xlink:href="#ArialMT-72" transform="translate(928.173828 0)"/>
      <use xlink:href="#ArialMT-73" transform="translate(961.474609 0)"/>
      <use xlink:href="#ArialMT-20" transform="translate(1011.474609 0)"/>
      <use xlink:href="#ArialMT-28" transform="translate(1039.257812 0)"/>
      <use xlink:href="#ArialMT-4c" transform="translate(1072.558594 0)"/>
      <use xlink:href="#ArialMT-6f" transform="translate(1128.173828 0)"/>
      <use xlink:href="#ArialMT-67" transform="translate(1183.789062 0)"/>
      <use xlink:href="#ArialMT-20" transform="translate(1239.404297 0)"/>
      <use xlink:href="#ArialMT-53" transform="translate(1267.1875 0)"/>
      <use xlink:href="#ArialMT-63" transform="translate(1333.886719 0)"/>
      <use xlink:href="#ArialMT-61" transform="translate(1383.886719 0)"/>
      <use xlink:href="#ArialMT-6c" transform="translate(1439.501953 0)"/>
      <use xlink:href="#ArialMT-65" transform="translate(1461.71875 0)"/>
      <use xlink:href="#ArialMT-29" transform="translate(1517.333984 0)"/>
     </g>
    </g>
   </g>
   <g id="matplotlib.axis_2">
    <g id="ytick_1">
     <g id="line2d_5">
      <path d="M 32.554375 205.995361 
L 241.363194 205.995361 
" clip-path="url(#p30a7781f9e)" style="fill: none; stroke: #cccccc; stroke-width: 0.8; stroke-linecap: round"/>
     </g>
     <g id="text_6">
      <!-- 10 -->
      <g style="fill: #262626" transform="translate(17.769063 208.500596) scale(0.07 -0.07)">
       <use xlink:href="#ArialMT-31"/>
       <use xlink:href="#ArialMT-30" transform="translate(55.615234 0)"/>
      </g>
     </g>
    </g>
    <g id="ytick_2">
     <g id="line2d_6">
      <path d="M 32.554375 180.380537 
L 241.363194 180.380537 
" clip-path="url(#p30a7781f9e)" style="fill: none; stroke: #cccccc; stroke-width: 0.8; stroke-linecap: round"/>
     </g>
     <g id="text_7">
      <!-- 20 -->
      <g style="fill: #262626" transform="translate(17.769063 182.885772) scale(0.07 -0.07)">
       <use xlink:href="#ArialMT-32"/>
       <use xlink:href="#ArialMT-30" transform="translate(55.615234 0)"/>
      </g>
     </g>
    </g>
    <g id="ytick_3">
     <g id="line2d_7">
      <path d="M 32.554375 154.765714 
L 241.363194 154.765714 
" clip-path="url(#p30a7781f9e)" style="fill: none; stroke: #cccccc; stroke-width: 0.8; stroke-linecap: round"/>
     </g>
     <g id="text_8">
      <!-- 30 -->
      <g style="fill: #262626" transform="translate(17.769063 157.270948) scale(0.07 -0.07)">
       <use xlink:href="#ArialMT-33"/>
       <use xlink:href="#ArialMT-30" transform="translate(55.615234 0)"/>
      </g>
     </g>
    </g>
    <g id="ytick_4">
     <g id="line2d_8">
      <path d="M 32.554375 129.15089 
L 241.363194 129.15089 
" clip-path="url(#p30a7781f9e)" style="fill: none; stroke: #cccccc; stroke-width: 0.8; stroke-linecap: round"/>
     </g>
     <g id="text_9">
      <!-- 40 -->
      <g style="fill: #262626" transform="translate(17.769063 131.656124) scale(0.07 -0.07)">
       <use xlink:href="#ArialMT-34"/>
       <use xlink:href="#ArialMT-30" transform="translate(55.615234 0)"/>
      </g>
     </g>
    </g>
    <g id="ytick_5">
     <g id="line2d_9">
      <path d="M 32.554375 103.536066 
L 241.363194 103.536066 
" clip-path="url(#p30a7781f9e)" style="fill: none; stroke: #cccccc; stroke-width: 0.8; stroke-linecap: round"/>
     </g>
     <g id="text_10">
      <!-- 50 -->
      <g style="fill: #262626" transform="translate(17.769063 106.0413) scale(0.07 -0.07)">
       <defs>
        <path id="ArialMT-35" d="M 266 1200 
L 856 1250 
Q 922 819 1161 601 
Q 1400 384 1738 384 
Q 2144 384 2425 690 
Q 2706 997 2706 1503 
Q 2706 1984 2436 2262 
Q 2166 2541 1728 2541 
Q 1456 2541 1237 2417 
Q 1019 2294 894 2097 
L 366 2166 
L 809 4519 
L 3088 4519 
L 3088 3981 
L 1259 3981 
L 1013 2750 
Q 1425 3038 1878 3038 
Q 2478 3038 2890 2622 
Q 3303 2206 3303 1553 
Q 3303 931 2941 478 
Q 2500 -78 1738 -78 
Q 1113 -78 717 272 
Q 322 622 266 1200 
z
" transform="scale(0.015625)"/>
       </defs>
       <use xlink:href="#ArialMT-35"/>
       <use xlink:href="#ArialMT-30" transform="translate(55.615234 0)"/>
      </g>
     </g>
    </g>
    <g id="ytick_6">
     <g id="line2d_10">
      <path d="M 32.554375 77.921242 
L 241.363194 77.921242 
" clip-path="url(#p30a7781f9e)" style="fill: none; stroke: #cccccc; stroke-width: 0.8; stroke-linecap: round"/>
     </g>
     <g id="text_11">
      <!-- 60 -->
      <g style="fill: #262626" transform="translate(17.769063 80.426476) scale(0.07 -0.07)">
       <defs>
        <path id="ArialMT-36" d="M 3184 3459 
L 2625 3416 
Q 2550 3747 2413 3897 
Q 2184 4138 1850 4138 
Q 1581 4138 1378 3988 
Q 1113 3794 959 3422 
Q 806 3050 800 2363 
Q 1003 2672 1297 2822 
Q 1591 2972 1913 2972 
Q 2475 2972 2870 2558 
Q 3266 2144 3266 1488 
Q 3266 1056 3080 686 
Q 2894 316 2569 119 
Q 2244 -78 1831 -78 
Q 1128 -78 684 439 
Q 241 956 241 2144 
Q 241 3472 731 4075 
Q 1159 4600 1884 4600 
Q 2425 4600 2770 4297 
Q 3116 3994 3184 3459 
z
M 888 1484 
Q 888 1194 1011 928 
Q 1134 663 1356 523 
Q 1578 384 1822 384 
Q 2178 384 2434 671 
Q 2691 959 2691 1453 
Q 2691 1928 2437 2201 
Q 2184 2475 1800 2475 
Q 1419 2475 1153 2201 
Q 888 1928 888 1484 
z
" transform="scale(0.015625)"/>
       </defs>
       <use xlink:href="#ArialMT-36"/>
       <use xlink:href="#ArialMT-30" transform="translate(55.615234 0)"/>
      </g>
     </g>
    </g>
    <g id="ytick_7">
     <g id="line2d_11">
      <path d="M 32.554375 52.306418 
L 241.363194 52.306418 
" clip-path="url(#p30a7781f9e)" style="fill: none; stroke: #cccccc; stroke-width: 0.8; stroke-linecap: round"/>
     </g>
     <g id="text_12">
      <!-- 70 -->
      <g style="fill: #262626" transform="translate(17.769063 54.811652) scale(0.07 -0.07)">
       <defs>
        <path id="ArialMT-37" d="M 303 3981 
L 303 4522 
L 3269 4522 
L 3269 4084 
Q 2831 3619 2401 2847 
Q 1972 2075 1738 1259 
Q 1569 684 1522 0 
L 944 0 
Q 953 541 1156 1306 
Q 1359 2072 1739 2783 
Q 2119 3494 2547 3981 
L 303 3981 
z
" transform="scale(0.015625)"/>
       </defs>
       <use xlink:href="#ArialMT-37"/>
       <use xlink:href="#ArialMT-30" transform="translate(55.615234 0)"/>
      </g>
     </g>
    </g>
    <g id="ytick_8">
     <g id="line2d_12">
      <path d="M 32.554375 26.691594 
L 241.363194 26.691594 
" clip-path="url(#p30a7781f9e)" style="fill: none; stroke: #cccccc; stroke-width: 0.8; stroke-linecap: round"/>
     </g>
     <g id="text_13">
      <!-- 80 -->
      <g style="fill: #262626" transform="translate(17.769063 29.196828) scale(0.07 -0.07)">
       <defs>
        <path id="ArialMT-38" d="M 1131 2484 
Q 781 2613 612 2850 
Q 444 3088 444 3419 
Q 444 3919 803 4259 
Q 1163 4600 1759 4600 
Q 2359 4600 2725 4251 
Q 3091 3903 3091 3403 
Q 3091 3084 2923 2848 
Q 2756 2613 2416 2484 
Q 2838 2347 3058 2040 
Q 3278 1734 3278 1309 
Q 3278 722 2862 322 
Q 2447 -78 1769 -78 
Q 1091 -78 675 323 
Q 259 725 259 1325 
Q 259 1772 486 2073 
Q 713 2375 1131 2484 
z
M 1019 3438 
Q 1019 3113 1228 2906 
Q 1438 2700 1772 2700 
Q 2097 2700 2305 2904 
Q 2513 3109 2513 3406 
Q 2513 3716 2298 3927 
Q 2084 4138 1766 4138 
Q 1444 4138 1231 3931 
Q 1019 3725 1019 3438 
z
M 838 1322 
Q 838 1081 952 856 
Q 1066 631 1291 507 
Q 1516 384 1775 384 
Q 2178 384 2440 643 
Q 2703 903 2703 1303 
Q 2703 1709 2433 1975 
Q 2163 2241 1756 2241 
Q 1359 2241 1098 1978 
Q 838 1716 838 1322 
z
" transform="scale(0.015625)"/>
       </defs>
       <use xlink:href="#ArialMT-38"/>
       <use xlink:href="#ArialMT-30" transform="translate(55.615234 0)"/>
      </g>
     </g>
    </g>
    <g id="text_14">
     <!-- Best Validation RRMSE (%) -->
     <g style="fill: #262626" transform="translate(12.295781 159.224316) rotate(-90) scale(0.07 -0.07)">
      <defs>
       <path id="ArialMT-42" d="M 469 0 
L 469 4581 
L 2188 4581 
Q 2713 4581 3030 4442 
Q 3347 4303 3526 4014 
Q 3706 3725 3706 3409 
Q 3706 3116 3547 2856 
Q 3388 2597 3066 2438 
Q 3481 2316 3704 2022 
Q 3928 1728 3928 1328 
Q 3928 1006 3792 729 
Q 3656 453 3456 303 
Q 3256 153 2954 76 
Q 2653 0 2216 0 
L 469 0 
z
M 1075 2656 
L 2066 2656 
Q 2469 2656 2644 2709 
Q 2875 2778 2992 2937 
Q 3109 3097 3109 3338 
Q 3109 3566 3000 3739 
Q 2891 3913 2687 3977 
Q 2484 4041 1991 4041 
L 1075 4041 
L 1075 2656 
z
M 1075 541 
L 2216 541 
Q 2509 541 2628 563 
Q 2838 600 2978 687 
Q 3119 775 3209 942 
Q 3300 1109 3300 1328 
Q 3300 1584 3169 1773 
Q 3038 1963 2805 2039 
Q 2572 2116 2134 2116 
L 1075 2116 
L 1075 541 
z
" transform="scale(0.015625)"/>
       <path id="ArialMT-56" d="M 1803 0 
L 28 4581 
L 684 4581 
L 1875 1253 
Q 2019 853 2116 503 
Q 2222 878 2363 1253 
L 3600 4581 
L 4219 4581 
L 2425 0 
L 1803 0 
z
" transform="scale(0.015625)"/>
       <path id="ArialMT-69" d="M 425 3934 
L 425 4581 
L 988 4581 
L 988 3934 
L 425 3934 
z
M 425 0 
L 425 3319 
L 988 3319 
L 988 0 
L 425 0 
z
" transform="scale(0.015625)"/>
       <path id="ArialMT-64" d="M 2575 0 
L 2575 419 
Q 2259 -75 1647 -75 
Q 1250 -75 917 144 
Q 584 363 401 755 
Q 219 1147 219 1656 
Q 219 2153 384 2558 
Q 550 2963 881 3178 
Q 1213 3394 1622 3394 
Q 1922 3394 2156 3267 
Q 2391 3141 2538 2938 
L 2538 4581 
L 3097 4581 
L 3097 0 
L 2575 0 
z
M 797 1656 
Q 797 1019 1065 703 
Q 1334 388 1700 388 
Q 2069 388 2326 689 
Q 2584 991 2584 1609 
Q 2584 2291 2321 2609 
Q 2059 2928 1675 2928 
Q 1300 2928 1048 2622 
Q 797 2316 797 1656 
z
" transform="scale(0.015625)"/>
       <path id="ArialMT-6e" d="M 422 0 
L 422 3319 
L 928 3319 
L 928 2847 
Q 1294 3394 1984 3394 
Q 2284 3394 2536 3286 
Q 2788 3178 2913 3003 
Q 3038 2828 3088 2588 
Q 3119 2431 3119 2041 
L 3119 0 
L 2556 0 
L 2556 2019 
Q 2556 2363 2490 2533 
Q 2425 2703 2258 2804 
Q 2091 2906 1866 2906 
Q 1506 2906 1245 2678 
Q 984 2450 984 1813 
L 984 0 
L 422 0 
z
" transform="scale(0.015625)"/>
       <path id="ArialMT-52" d="M 503 0 
L 503 4581 
L 2534 4581 
Q 3147 4581 3465 4457 
Q 3784 4334 3975 4021 
Q 4166 3709 4166 3331 
Q 4166 2844 3850 2509 
Q 3534 2175 2875 2084 
Q 3116 1969 3241 1856 
Q 3506 1613 3744 1247 
L 4541 0 
L 3778 0 
L 3172 953 
Q 2906 1366 2734 1584 
Q 2563 1803 2427 1890 
Q 2291 1978 2150 2013 
Q 2047 2034 1813 2034 
L 1109 2034 
L 1109 0 
L 503 0 
z
M 1109 2559 
L 2413 2559 
Q 2828 2559 3062 2645 
Q 3297 2731 3419 2920 
Q 3541 3109 3541 3331 
Q 3541 3656 3305 3865 
Q 3069 4075 2559 4075 
L 1109 4075 
L 1109 2559 
z
" transform="scale(0.015625)"/>
       <path id="ArialMT-4d" d="M 475 0 
L 475 4581 
L 1388 4581 
L 2472 1338 
Q 2622 884 2691 659 
Q 2769 909 2934 1394 
L 4031 4581 
L 4847 4581 
L 4847 0 
L 4263 0 
L 4263 3834 
L 2931 0 
L 2384 0 
L 1059 3900 
L 1059 0 
L 475 0 
z
" transform="scale(0.015625)"/>
       <path id="ArialMT-45" d="M 506 0 
L 506 4581 
L 3819 4581 
L 3819 4041 
L 1113 4041 
L 1113 2638 
L 3647 2638 
L 3647 2100 
L 1113 2100 
L 1113 541 
L 3925 541 
L 3925 0 
L 506 0 
z
" transform="scale(0.015625)"/>
       <path id="ArialMT-25" d="M 372 3481 
Q 372 3972 619 4315 
Q 866 4659 1334 4659 
Q 1766 4659 2048 4351 
Q 2331 4044 2331 3447 
Q 2331 2866 2045 2552 
Q 1759 2238 1341 2238 
Q 925 2238 648 2547 
Q 372 2856 372 3481 
z
M 1350 4272 
Q 1141 4272 1002 4090 
Q 863 3909 863 3425 
Q 863 2984 1003 2804 
Q 1144 2625 1350 2625 
Q 1563 2625 1702 2806 
Q 1841 2988 1841 3469 
Q 1841 3913 1700 4092 
Q 1559 4272 1350 4272 
z
M 1353 -169 
L 3859 4659 
L 4316 4659 
L 1819 -169 
L 1353 -169 
z
M 3334 1075 
Q 3334 1569 3581 1911 
Q 3828 2253 4300 2253 
Q 4731 2253 5014 1945 
Q 5297 1638 5297 1041 
Q 5297 459 5011 145 
Q 4725 -169 4303 -169 
Q 3888 -169 3611 142 
Q 3334 453 3334 1075 
z
M 4316 1866 
Q 4103 1866 3964 1684 
Q 3825 1503 3825 1019 
Q 3825 581 3965 400 
Q 4106 219 4313 219 
Q 4528 219 4667 400 
Q 4806 581 4806 1063 
Q 4806 1506 4665 1686 
Q 4525 1866 4316 1866 
z
" transform="scale(0.015625)"/>
      </defs>
      <use xlink:href="#ArialMT-42"/>
      <use xlink:href="#ArialMT-65" transform="translate(66.699219 0)"/>
      <use xlink:href="#ArialMT-73" transform="translate(122.314453 0)"/>
      <use xlink:href="#ArialMT-74" transform="translate(172.314453 0)"/>
      <use xlink:href="#ArialMT-20" transform="translate(200.097656 0)"/>
      <use xlink:href="#ArialMT-56" transform="translate(227.880859 0)"/>
      <use xlink:href="#ArialMT-61" transform="translate(287.205078 0)"/>
      <use xlink:href="#ArialMT-6c" transform="translate(342.820312 0)"/>
      <use xlink:href="#ArialMT-69" transform="translate(365.037109 0)"/>
      <use xlink:href="#ArialMT-64" transform="translate(387.253906 0)"/>
      <use xlink:href="#ArialMT-61" transform="translate(442.869141 0)"/>
      <use xlink:href="#ArialMT-74" transform="translate(498.484375 0)"/>
      <use xlink:href="#ArialMT-69" transform="translate(526.267578 0)"/>
      <use xlink:href="#ArialMT-6f" transform="translate(548.484375 0)"/>
      <use xlink:href="#ArialMT-6e" transform="translate(604.099609 0)"/>
      <use xlink:href="#ArialMT-20" transform="translate(659.714844 0)"/>
      <use xlink:href="#ArialMT-52" transform="translate(687.498047 0)"/>
      <use xlink:href="#ArialMT-52" transform="translate(759.714844 0)"/>
      <use xlink:href="#ArialMT-4d" transform="translate(831.931641 0)"/>
      <use xlink:href="#ArialMT-53" transform="translate(915.232422 0)"/>
      <use xlink:href="#ArialMT-45" transform="translate(981.931641 0)"/>
      <use xlink:href="#ArialMT-20" transform="translate(1048.630859 0)"/>
      <use xlink:href="#ArialMT-28" transform="translate(1076.414062 0)"/>
      <use xlink:href="#ArialMT-25" transform="translate(1109.714844 0)"/>
      <use xlink:href="#ArialMT-29" transform="translate(1198.630859 0)"/>
     </g>
    </g>
   </g>
   <g id="PathCollection_1">
    <defs>
     <path id="m73efe11316" d="M 0 1.322876 
C 0.350831 1.322876 0.68734 1.183489 0.935414 0.935414 
C 1.183489 0.68734 1.322876 0.350831 1.322876 0 
C 1.322876 -0.350831 1.183489 -0.68734 0.935414 -0.935414 
C 0.68734 -1.183489 0.350831 -1.322876 0 -1.322876 
C -0.350831 -1.322876 -0.68734 -1.183489 -0.935414 -0.935414 
C -1.183489 -0.68734 -1.322876 -0.350831 -1.322876 0 
C -1.322876 0.350831 -1.183489 0.68734 -0.935414 0.935414 
C -0.68734 1.183489 -0.350831 1.322876 0 1.322876 
z
" style="stroke: #ffffff; stroke-opacity: 0.9; stroke-width: 0.21166"/>
    </defs>
    <g clip-path="url(#p30a7781f9e)">
     <use xlink:href="#m73efe11316" x="42.045685" y="143.519216" style="fill: #21918c; fill-opacity: 0.9; stroke: #ffffff; stroke-opacity: 0.9; stroke-width: 0.21166"/>
     <use xlink:href="#m73efe11316" x="44.896975" y="142.287316" style="fill: #21918c; fill-opacity: 0.9; stroke: #ffffff; stroke-opacity: 0.9; stroke-width: 0.21166"/>
     <use xlink:href="#m73efe11316" x="48.599251" y="143.133019" style="fill: #21918c; fill-opacity: 0.9; stroke: #ffffff; stroke-opacity: 0.9; stroke-width: 0.21166"/>
     <use xlink:href="#m73efe11316" x="50.770473" y="142.243916" style="fill: #21918c; fill-opacity: 0.9; stroke: #ffffff; stroke-opacity: 0.9; stroke-width: 0.21166"/>
     <use xlink:href="#m73efe11316" x="53.682592" y="142.644209" style="fill: #21918c; fill-opacity: 0.9; stroke: #ffffff; stroke-opacity: 0.9; stroke-width: 0.21166"/>
     <use xlink:href="#m73efe11316" x="54.576063" y="143.14812" style="fill: #21918c; fill-opacity: 0.9; stroke: #ffffff; stroke-opacity: 0.9; stroke-width: 0.21166"/>
     <use xlink:href="#m73efe11316" x="55.43581" y="143.594502" style="fill: #21918c; fill-opacity: 0.9; stroke: #ffffff; stroke-opacity: 0.9; stroke-width: 0.21166"/>
     <use xlink:href="#m73efe11316" x="56.264286" y="143.277173" style="fill: #21918c; fill-opacity: 0.9; stroke: #ffffff; stroke-opacity: 0.9; stroke-width: 0.21166"/>
     <use xlink:href="#m73efe11316" x="59.30621" y="175.563573" style="fill: #21918c; fill-opacity: 0.9; stroke: #ffffff; stroke-opacity: 0.9; stroke-width: 0.21166"/>
     <use xlink:href="#m73efe11316" x="61.347627" y="177.565185" style="fill: #21918c; fill-opacity: 0.9; stroke: #ffffff; stroke-opacity: 0.9; stroke-width: 0.21166"/>
     <use xlink:href="#m73efe11316" x="61.989377" y="162.860978" style="fill: #21918c; fill-opacity: 0.9; stroke: #ffffff; stroke-opacity: 0.9; stroke-width: 0.21166"/>
     <use xlink:href="#m73efe11316" x="62.613541" y="78.189209" style="fill: #21918c; fill-opacity: 0.9; stroke: #ffffff; stroke-opacity: 0.9; stroke-width: 0.21166"/>
     <use xlink:href="#m73efe11316" x="63.22106" y="136.81397" style="fill: #21918c; fill-opacity: 0.9; stroke: #ffffff; stroke-opacity: 0.9; stroke-width: 0.21166"/>
     <use xlink:href="#m73efe11316" x="63.812796" y="82.296353" style="fill: #21918c; fill-opacity: 0.9; stroke: #ffffff; stroke-opacity: 0.9; stroke-width: 0.21166"/>
     <use xlink:href="#m73efe11316" x="65.501019" y="176.279619" style="fill: #21918c; fill-opacity: 0.9; stroke: #ffffff; stroke-opacity: 0.9; stroke-width: 0.21166"/>
     <use xlink:href="#m73efe11316" x="67.072718" y="180.583835" style="fill: #21918c; fill-opacity: 0.9; stroke: #ffffff; stroke-opacity: 0.9; stroke-width: 0.21166"/>
     <use xlink:href="#m73efe11316" x="67.57341" y="121.796865" style="fill: #21918c; fill-opacity: 0.9; stroke: #ffffff; stroke-opacity: 0.9; stroke-width: 0.21166"/>
     <use xlink:href="#m73efe11316" x="68.542943" y="125.094149" style="fill: #21918c; fill-opacity: 0.9; stroke: #ffffff; stroke-opacity: 0.9; stroke-width: 0.21166"/>
     <use xlink:href="#m73efe11316" x="68.542943" y="140.228515" style="fill: #21918c; fill-opacity: 0.9; stroke: #ffffff; stroke-opacity: 0.9; stroke-width: 0.21166"/>
     <use xlink:href="#m73efe11316" x="69.472892" y="47.061087" style="fill: #21918c; fill-opacity: 0.9; stroke: #ffffff; stroke-opacity: 0.9; stroke-width: 0.21166"/>
     <use xlink:href="#m73efe11316" x="70.366363" y="45.722634" style="fill: #21918c; fill-opacity: 0.9; stroke: #ffffff; stroke-opacity: 0.9; stroke-width: 0.21166"/>
     <use xlink:href="#m73efe11316" x="70.366363" y="173.15079" style="fill: #21918c; fill-opacity: 0.9; stroke: #ffffff; stroke-opacity: 0.9; stroke-width: 0.21166"/>
     <use xlink:href="#m73efe11316" x="71.22611" y="129.0021" style="fill: #21918c; fill-opacity: 0.9; stroke: #ffffff; stroke-opacity: 0.9; stroke-width: 0.21166"/>
     <use xlink:href="#m73efe11316" x="71.644114" y="182.674589" style="fill: #21918c; fill-opacity: 0.9; stroke: #ffffff; stroke-opacity: 0.9; stroke-width: 0.21166"/>
     <use xlink:href="#m73efe11316" x="74.373255" y="185.61668" style="fill: #21918c; fill-opacity: 0.9; stroke: #ffffff; stroke-opacity: 0.9; stroke-width: 0.21166"/>
     <use xlink:href="#m73efe11316" x="76.140077" y="133.540087" style="fill: #21918c; fill-opacity: 0.9; stroke: #ffffff; stroke-opacity: 0.9; stroke-width: 0.21166"/>
     <use xlink:href="#m73efe11316" x="76.140077" y="185.095341" style="fill: #21918c; fill-opacity: 0.9; stroke: #ffffff; stroke-opacity: 0.9; stroke-width: 0.21166"/>
     <use xlink:href="#m73efe11316" x="76.477574" y="137.964825" style="fill: #21918c; fill-opacity: 0.9; stroke: #ffffff; stroke-opacity: 0.9; stroke-width: 0.21166"/>
     <use xlink:href="#m73efe11316" x="76.810143" y="27.110208" style="fill: #21918c; fill-opacity: 0.9; stroke: #ffffff; stroke-opacity: 0.9; stroke-width: 0.21166"/>
     <use xlink:href="#m73efe11316" x="77.137927" y="74.293474" style="fill: #21918c; fill-opacity: 0.9; stroke: #ffffff; stroke-opacity: 0.9; stroke-width: 0.21166"/>
     <use xlink:href="#m73efe11316" x="78.403841" y="179.747965" style="fill: #21918c; fill-opacity: 0.9; stroke: #ffffff; stroke-opacity: 0.9; stroke-width: 0.21166"/>
     <use xlink:href="#m73efe11316" x="79.309149" y="180.168312" style="fill: #21918c; fill-opacity: 0.9; stroke: #ffffff; stroke-opacity: 0.9; stroke-width: 0.21166"/>
     <use xlink:href="#m73efe11316" x="80.742363" y="189.468795" style="fill: #21918c; fill-opacity: 0.9; stroke: #ffffff; stroke-opacity: 0.9; stroke-width: 0.21166"/>
     <use xlink:href="#m73efe11316" x="82.09072" y="148.138078" style="fill: #21918c; fill-opacity: 0.9; stroke: #ffffff; stroke-opacity: 0.9; stroke-width: 0.21166"/>
     <use xlink:href="#m73efe11316" x="82.351072" y="155.522342" style="fill: #21918c; fill-opacity: 0.9; stroke: #ffffff; stroke-opacity: 0.9; stroke-width: 0.21166"/>
     <use xlink:href="#m73efe11316" x="82.863017" y="59.506204" style="fill: #21918c; fill-opacity: 0.9; stroke: #ffffff; stroke-opacity: 0.9; stroke-width: 0.21166"/>
     <use xlink:href="#m73efe11316" x="85.714307" y="192.735944" style="fill: #21918c; fill-opacity: 0.9; stroke: #ffffff; stroke-opacity: 0.9; stroke-width: 0.21166"/>
     <use xlink:href="#m73efe11316" x="86.156662" y="146.203882" style="fill: #21918c; fill-opacity: 0.9; stroke: #ffffff; stroke-opacity: 0.9; stroke-width: 0.21166"/>
     <use xlink:href="#m73efe11316" x="86.804495" y="193.558227" style="fill: #21918c; fill-opacity: 0.9; stroke: #ffffff; stroke-opacity: 0.9; stroke-width: 0.21166"/>
     <use xlink:href="#m73efe11316" x="86.804495" y="184.180541" style="fill: #21918c; fill-opacity: 0.9; stroke: #ffffff; stroke-opacity: 0.9; stroke-width: 0.21166"/>
     <use xlink:href="#m73efe11316" x="88.644286" y="182.9564" style="fill: #21918c; fill-opacity: 0.9; stroke: #ffffff; stroke-opacity: 0.9; stroke-width: 0.21166"/>
     <use xlink:href="#m73efe11316" x="89.22595" y="182.160356" style="fill: #21918c; fill-opacity: 0.9; stroke: #ffffff; stroke-opacity: 0.9; stroke-width: 0.21166"/>
     <use xlink:href="#m73efe11316" x="89.793131" y="188.937266" style="fill: #21918c; fill-opacity: 0.9; stroke: #ffffff; stroke-opacity: 0.9; stroke-width: 0.21166"/>
     <use xlink:href="#m73efe11316" x="91.414568" y="188.68369" style="fill: #21918c; fill-opacity: 0.9; stroke: #ffffff; stroke-opacity: 0.9; stroke-width: 0.21166"/>
     <use xlink:href="#m73efe11316" x="91.930377" y="183.120594" style="fill: #21918c; fill-opacity: 0.9; stroke: #ffffff; stroke-opacity: 0.9; stroke-width: 0.21166"/>
     <use xlink:href="#m73efe11316" x="92.434765" y="106.596091" style="fill: #21918c; fill-opacity: 0.9; stroke: #ffffff; stroke-opacity: 0.9; stroke-width: 0.21166"/>
     <use xlink:href="#m73efe11316" x="95.683598" y="125.050546" style="fill: #21918c; fill-opacity: 0.9; stroke: #ffffff; stroke-opacity: 0.9; stroke-width: 0.21166"/>
     <use xlink:href="#m73efe11316" x="96.112085" y="185.876553" style="fill: #21918c; fill-opacity: 0.9; stroke: #ffffff; stroke-opacity: 0.9; stroke-width: 0.21166"/>
     <use xlink:href="#m73efe11316" x="96.253142" y="195.755874" style="fill: #21918c; fill-opacity: 0.9; stroke: #ffffff; stroke-opacity: 0.9; stroke-width: 0.21166"/>
     <use xlink:href="#m73efe11316" x="96.808794" y="152.674124" style="fill: #21918c; fill-opacity: 0.9; stroke: #ffffff; stroke-opacity: 0.9; stroke-width: 0.21166"/>
     <use xlink:href="#m73efe11316" x="97.216815" y="160.888257" style="fill: #21918c; fill-opacity: 0.9; stroke: #ffffff; stroke-opacity: 0.9; stroke-width: 0.21166"/>
     <use xlink:href="#m73efe11316" x="97.484825" y="196.336305" style="fill: #21918c; fill-opacity: 0.9; stroke: #ffffff; stroke-opacity: 0.9; stroke-width: 0.21166"/>
     <use xlink:href="#m73efe11316" x="101.280165" y="195.831018" style="fill: #21918c; fill-opacity: 0.9; stroke: #ffffff; stroke-opacity: 0.9; stroke-width: 0.21166"/>
     <use xlink:href="#m73efe11316" x="102.273181" y="196.672132" style="fill: #21918c; fill-opacity: 0.9; stroke: #ffffff; stroke-opacity: 0.9; stroke-width: 0.21166"/>
     <use xlink:href="#m73efe11316" x="102.806709" y="181.466008" style="fill: #21918c; fill-opacity: 0.9; stroke: #ffffff; stroke-opacity: 0.9; stroke-width: 0.21166"/>
     <use xlink:href="#m73efe11316" x="103.120929" y="147.181332" style="fill: #21918c; fill-opacity: 0.9; stroke: #ffffff; stroke-opacity: 0.9; stroke-width: 0.21166"/>
     <use xlink:href="#m73efe11316" x="103.83768" y="181.345843" style="fill: #21918c; fill-opacity: 0.9; stroke: #ffffff; stroke-opacity: 0.9; stroke-width: 0.21166"/>
     <use xlink:href="#m73efe11316" x="104.038392" y="178.318188" style="fill: #21918c; fill-opacity: 0.9; stroke: #ffffff; stroke-opacity: 0.9; stroke-width: 0.21166"/>
     <use xlink:href="#m73efe11316" x="104.336181" y="198.114021" style="fill: #21918c; fill-opacity: 0.9; stroke: #ffffff; stroke-opacity: 0.9; stroke-width: 0.21166"/>
     <use xlink:href="#m73efe11316" x="104.336181" y="185.410889" style="fill: #21918c; fill-opacity: 0.9; stroke: #ffffff; stroke-opacity: 0.9; stroke-width: 0.21166"/>
     <use xlink:href="#m73efe11316" x="105.395935" y="189.314256" style="fill: #21918c; fill-opacity: 0.9; stroke: #ffffff; stroke-opacity: 0.9; stroke-width: 0.21166"/>
     <use xlink:href="#m73efe11316" x="106.942516" y="187.993225" style="fill: #21918c; fill-opacity: 0.9; stroke: #ffffff; stroke-opacity: 0.9; stroke-width: 0.21166"/>
     <use xlink:href="#m73efe11316" x="110.137845" y="185.880165" style="fill: #21918c; fill-opacity: 0.9; stroke: #ffffff; stroke-opacity: 0.9; stroke-width: 0.21166"/>
     <use xlink:href="#m73efe11316" x="110.366033" y="144.594046" style="fill: #21918c; fill-opacity: 0.9; stroke: #ffffff; stroke-opacity: 0.9; stroke-width: 0.21166"/>
     <use xlink:href="#m73efe11316" x="111.902385" y="197.923" style="fill: #21918c; fill-opacity: 0.9; stroke: #ffffff; stroke-opacity: 0.9; stroke-width: 0.21166"/>
     <use xlink:href="#m73efe11316" x="112.18363" y="164.363571" style="fill: #21918c; fill-opacity: 0.9; stroke: #ffffff; stroke-opacity: 0.9; stroke-width: 0.21166"/>
     <use xlink:href="#m73efe11316" x="112.530374" y="196.403055" style="fill: #21918c; fill-opacity: 0.9; stroke: #ffffff; stroke-opacity: 0.9; stroke-width: 0.21166"/>
     <use xlink:href="#m73efe11316" x="113.074413" y="196.650045" style="fill: #21918c; fill-opacity: 0.9; stroke: #ffffff; stroke-opacity: 0.9; stroke-width: 0.21166"/>
     <use xlink:href="#m73efe11316" x="116.267036" y="197.863745" style="fill: #21918c; fill-opacity: 0.9; stroke: #ffffff; stroke-opacity: 0.9; stroke-width: 0.21166"/>
     <use xlink:href="#m73efe11316" x="116.557238" y="188.628431" style="fill: #21918c; fill-opacity: 0.9; stroke: #ffffff; stroke-opacity: 0.9; stroke-width: 0.21166"/>
     <use xlink:href="#m73efe11316" x="116.95741" y="198.461122" style="fill: #21918c; fill-opacity: 0.9; stroke: #ffffff; stroke-opacity: 0.9; stroke-width: 0.21166"/>
     <use xlink:href="#m73efe11316" x="117.900955" y="196.079041" style="fill: #21918c; fill-opacity: 0.9; stroke: #ffffff; stroke-opacity: 0.9; stroke-width: 0.21166"/>
     <use xlink:href="#m73efe11316" x="118.278393" y="187.532785" style="fill: #21918c; fill-opacity: 0.9; stroke: #ffffff; stroke-opacity: 0.9; stroke-width: 0.21166"/>
     <use xlink:href="#m73efe11316" x="118.544214" y="196.363254" style="fill: #21918c; fill-opacity: 0.9; stroke: #ffffff; stroke-opacity: 0.9; stroke-width: 0.21166"/>
     <use xlink:href="#m73efe11316" x="121.091904" y="189.81137" style="fill: #21918c; fill-opacity: 0.9; stroke: #ffffff; stroke-opacity: 0.9; stroke-width: 0.21166"/>
     <use xlink:href="#m73efe11316" x="122.600498" y="189.831523" style="fill: #21918c; fill-opacity: 0.9; stroke: #ffffff; stroke-opacity: 0.9; stroke-width: 0.21166"/>
     <use xlink:href="#m73efe11316" x="124.263431" y="199.271617" style="fill: #21918c; fill-opacity: 0.9; stroke: #ffffff; stroke-opacity: 0.9; stroke-width: 0.21166"/>
     <use xlink:href="#m73efe11316" x="124.468109" y="195.650409" style="fill: #21918c; fill-opacity: 0.9; stroke: #ffffff; stroke-opacity: 0.9; stroke-width: 0.21166"/>
     <use xlink:href="#m73efe11316" x="124.912032" y="199.9166" style="fill: #21918c; fill-opacity: 0.9; stroke: #ffffff; stroke-opacity: 0.9; stroke-width: 0.21166"/>
     <use xlink:href="#m73efe11316" x="125.110991" y="194.966367" style="fill: #21918c; fill-opacity: 0.9; stroke: #ffffff; stroke-opacity: 0.9; stroke-width: 0.21166"/>
     <use xlink:href="#m73efe11316" x="127.621827" y="198.509938" style="fill: #21918c; fill-opacity: 0.9; stroke: #ffffff; stroke-opacity: 0.9; stroke-width: 0.21166"/>
     <use xlink:href="#m73efe11316" x="128.76369" y="196.440552" style="fill: #21918c; fill-opacity: 0.9; stroke: #ffffff; stroke-opacity: 0.9; stroke-width: 0.21166"/>
     <use xlink:href="#m73efe11316" x="131.163865" y="191.273" style="fill: #21918c; fill-opacity: 0.9; stroke: #ffffff; stroke-opacity: 0.9; stroke-width: 0.21166"/>
     <use xlink:href="#m73efe11316" x="131.315231" y="201.180733" style="fill: #21918c; fill-opacity: 0.9; stroke: #ffffff; stroke-opacity: 0.9; stroke-width: 0.21166"/>
     <use xlink:href="#m73efe11316" x="131.763388" y="201.189159" style="fill: #21918c; fill-opacity: 0.9; stroke: #ffffff; stroke-opacity: 0.9; stroke-width: 0.21166"/>
     <use xlink:href="#m73efe11316" x="132.028111" y="191.742635" style="fill: #21918c; fill-opacity: 0.9; stroke: #ffffff; stroke-opacity: 0.9; stroke-width: 0.21166"/>
     <use xlink:href="#m73efe11316" x="132.69097" y="200.839691" style="fill: #21918c; fill-opacity: 0.9; stroke: #ffffff; stroke-opacity: 0.9; stroke-width: 0.21166"/>
     <use xlink:href="#m73efe11316" x="133.029302" y="197.170705" style="fill: #21918c; fill-opacity: 0.9; stroke: #ffffff; stroke-opacity: 0.9; stroke-width: 0.21166"/>
     <use xlink:href="#m73efe11316" x="133.168804" y="187.021678" style="fill: #21918c; fill-opacity: 0.9; stroke: #ffffff; stroke-opacity: 0.9; stroke-width: 0.21166"/>
     <use xlink:href="#m73efe11316" x="133.609555" y="199.208333" style="fill: #21918c; fill-opacity: 0.9; stroke: #ffffff; stroke-opacity: 0.9; stroke-width: 0.21166"/>
     <use xlink:href="#m73efe11316" x="139.343737" y="188.775493" style="fill: #21918c; fill-opacity: 0.9; stroke: #ffffff; stroke-opacity: 0.9; stroke-width: 0.21166"/>
     <use xlink:href="#m73efe11316" x="139.449546" y="199.719406" style="fill: #21918c; fill-opacity: 0.9; stroke: #ffffff; stroke-opacity: 0.9; stroke-width: 0.21166"/>
     <use xlink:href="#m73efe11316" x="140.50162" y="199.853329" style="fill: #21918c; fill-opacity: 0.9; stroke: #ffffff; stroke-opacity: 0.9; stroke-width: 0.21166"/>
     <use xlink:href="#m73efe11316" x="140.68234" y="197.039742" style="fill: #21918c; fill-opacity: 0.9; stroke: #ffffff; stroke-opacity: 0.9; stroke-width: 0.21166"/>
     <use xlink:href="#m73efe11316" x="145.673492" y="198.534275" style="fill: #21918c; fill-opacity: 0.9; stroke: #ffffff; stroke-opacity: 0.9; stroke-width: 0.21166"/>
     <use xlink:href="#m73efe11316" x="145.817623" y="201.868901" style="fill: #21918c; fill-opacity: 0.9; stroke: #ffffff; stroke-opacity: 0.9; stroke-width: 0.21166"/>
     <use xlink:href="#m73efe11316" x="146.801785" y="201.178043" style="fill: #21918c; fill-opacity: 0.9; stroke: #ffffff; stroke-opacity: 0.9; stroke-width: 0.21166"/>
     <use xlink:href="#m73efe11316" x="146.938972" y="199.942113" style="fill: #21918c; fill-opacity: 0.9; stroke: #ffffff; stroke-opacity: 0.9; stroke-width: 0.21166"/>
     <use xlink:href="#m73efe11316" x="154.247352" y="202.846726" style="fill: #21918c; fill-opacity: 0.9; stroke: #ffffff; stroke-opacity: 0.9; stroke-width: 0.21166"/>
     <use xlink:href="#m73efe11316" x="154.346374" y="202.593447" style="fill: #21918c; fill-opacity: 0.9; stroke: #ffffff; stroke-opacity: 0.9; stroke-width: 0.21166"/>
     <use xlink:href="#m73efe11316" x="154.597493" y="202.284928" style="fill: #21918c; fill-opacity: 0.9; stroke: #ffffff; stroke-opacity: 0.9; stroke-width: 0.21166"/>
     <use xlink:href="#m73efe11316" x="154.695008" y="201.09363" style="fill: #21918c; fill-opacity: 0.9; stroke: #ffffff; stroke-opacity: 0.9; stroke-width: 0.21166"/>
     <use xlink:href="#m73efe11316" x="160.993068" y="201.013676" style="fill: #21918c; fill-opacity: 0.9; stroke: #ffffff; stroke-opacity: 0.9; stroke-width: 0.21166"/>
     <use xlink:href="#m73efe11316" x="161.066752" y="201.129984" style="fill: #21918c; fill-opacity: 0.9; stroke: #ffffff; stroke-opacity: 0.9; stroke-width: 0.21166"/>
     <use xlink:href="#m73efe11316" x="161.318743" y="200.960367" style="fill: #21918c; fill-opacity: 0.9; stroke: #ffffff; stroke-opacity: 0.9; stroke-width: 0.21166"/>
     <use xlink:href="#m73efe11316" x="161.455758" y="200.615359" style="fill: #21918c; fill-opacity: 0.9; stroke: #ffffff; stroke-opacity: 0.9; stroke-width: 0.21166"/>
     <use xlink:href="#m73efe11316" x="163.240203" y="202.512693" style="fill: #21918c; fill-opacity: 0.9; stroke: #ffffff; stroke-opacity: 0.9; stroke-width: 0.21166"/>
     <use xlink:href="#m73efe11316" x="163.306976" y="198.741077" style="fill: #21918c; fill-opacity: 0.9; stroke: #ffffff; stroke-opacity: 0.9; stroke-width: 0.21166"/>
     <use xlink:href="#m73efe11316" x="169.670842" y="202.22361" style="fill: #21918c; fill-opacity: 0.9; stroke: #ffffff; stroke-opacity: 0.9; stroke-width: 0.21166"/>
     <use xlink:href="#m73efe11316" x="169.721211" y="200.275836" style="fill: #21918c; fill-opacity: 0.9; stroke: #ffffff; stroke-opacity: 0.9; stroke-width: 0.21166"/>
     <use xlink:href="#m73efe11316" x="170.289858" y="200.765414" style="fill: #21918c; fill-opacity: 0.9; stroke: #ffffff; stroke-opacity: 0.9; stroke-width: 0.21166"/>
     <use xlink:href="#m73efe11316" x="170.382363" y="201.852576" style="fill: #21918c; fill-opacity: 0.9; stroke: #ffffff; stroke-opacity: 0.9; stroke-width: 0.21166"/>
     <use xlink:href="#m73efe11316" x="176.109263" y="202.43516" style="fill: #21918c; fill-opacity: 0.9; stroke: #ffffff; stroke-opacity: 0.9; stroke-width: 0.21166"/>
     <use xlink:href="#m73efe11316" x="176.180946" y="203.48895" style="fill: #21918c; fill-opacity: 0.9; stroke: #ffffff; stroke-opacity: 0.9; stroke-width: 0.21166"/>
     <use xlink:href="#m73efe11316" x="176.709445" y="201.295119" style="fill: #21918c; fill-opacity: 0.9; stroke: #ffffff; stroke-opacity: 0.9; stroke-width: 0.21166"/>
     <use xlink:href="#m73efe11316" x="176.779267" y="201.36459" style="fill: #21918c; fill-opacity: 0.9; stroke: #ffffff; stroke-opacity: 0.9; stroke-width: 0.21166"/>
     <use xlink:href="#m73efe11316" x="185.002742" y="202.747934" style="fill: #21918c; fill-opacity: 0.9; stroke: #ffffff; stroke-opacity: 0.9; stroke-width: 0.21166"/>
     <use xlink:href="#m73efe11316" x="185.051281" y="203.151608" style="fill: #21918c; fill-opacity: 0.9; stroke: #ffffff; stroke-opacity: 0.9; stroke-width: 0.21166"/>
     <use xlink:href="#m73efe11316" x="185.184942" y="202.168959" style="fill: #21918c; fill-opacity: 0.9; stroke: #ffffff; stroke-opacity: 0.9; stroke-width: 0.21166"/>
     <use xlink:href="#m73efe11316" x="185.233095" y="203.944445" style="fill: #21918c; fill-opacity: 0.9; stroke: #ffffff; stroke-opacity: 0.9; stroke-width: 0.21166"/>
     <use xlink:href="#m73efe11316" x="191.657552" y="203.507615" style="fill: #21918c; fill-opacity: 0.9; stroke: #ffffff; stroke-opacity: 0.9; stroke-width: 0.21166"/>
     <use xlink:href="#m73efe11316" x="191.693805" y="202.260951" style="fill: #21918c; fill-opacity: 0.9; stroke: #ffffff; stroke-opacity: 0.9; stroke-width: 0.21166"/>
     <use xlink:href="#m73efe11316" x="191.827653" y="201.850502" style="fill: #21918c; fill-opacity: 0.9; stroke: #ffffff; stroke-opacity: 0.9; stroke-width: 0.21166"/>
     <use xlink:href="#m73efe11316" x="191.897451" y="201.401119" style="fill: #21918c; fill-opacity: 0.9; stroke: #ffffff; stroke-opacity: 0.9; stroke-width: 0.21166"/>
     <use xlink:href="#m73efe11316" x="194.115278" y="203.510539" style="fill: #21918c; fill-opacity: 0.9; stroke: #ffffff; stroke-opacity: 0.9; stroke-width: 0.21166"/>
     <use xlink:href="#m73efe11316" x="194.147825" y="203.80829" style="fill: #21918c; fill-opacity: 0.9; stroke: #ffffff; stroke-opacity: 0.9; stroke-width: 0.21166"/>
     <use xlink:href="#m73efe11316" x="200.606491" y="204.298059" style="fill: #21918c; fill-opacity: 0.9; stroke: #ffffff; stroke-opacity: 0.9; stroke-width: 0.21166"/>
     <use xlink:href="#m73efe11316" x="200.630973" y="203.568524" style="fill: #21918c; fill-opacity: 0.9; stroke: #ffffff; stroke-opacity: 0.9; stroke-width: 0.21166"/>
     <use xlink:href="#m73efe11316" x="200.926986" y="201.538484" style="fill: #21918c; fill-opacity: 0.9; stroke: #ffffff; stroke-opacity: 0.9; stroke-width: 0.21166"/>
     <use xlink:href="#m73efe11316" x="200.973824" y="200.583337" style="fill: #21918c; fill-opacity: 0.9; stroke: #ffffff; stroke-opacity: 0.9; stroke-width: 0.21166"/>
     <use xlink:href="#m73efe11316" x="207.101626" y="201.929244" style="fill: #21918c; fill-opacity: 0.9; stroke: #ffffff; stroke-opacity: 0.9; stroke-width: 0.21166"/>
     <use xlink:href="#m73efe11316" x="207.137352" y="202.737438" style="fill: #21918c; fill-opacity: 0.9; stroke: #ffffff; stroke-opacity: 0.9; stroke-width: 0.21166"/>
     <use xlink:href="#m73efe11316" x="207.411541" y="199.714551" style="fill: #21918c; fill-opacity: 0.9; stroke: #ffffff; stroke-opacity: 0.9; stroke-width: 0.21166"/>
     <use xlink:href="#m73efe11316" x="207.446785" y="202.375305" style="fill: #21918c; fill-opacity: 0.9; stroke: #ffffff; stroke-opacity: 0.9; stroke-width: 0.21166"/>
     <use xlink:href="#m73efe11316" x="216.163616" y="203.986489" style="fill: #21918c; fill-opacity: 0.9; stroke: #ffffff; stroke-opacity: 0.9; stroke-width: 0.21166"/>
     <use xlink:href="#m73efe11316" x="216.187623" y="204.760051" style="fill: #21918c; fill-opacity: 0.9; stroke: #ffffff; stroke-opacity: 0.9; stroke-width: 0.21166"/>
     <use xlink:href="#m73efe11316" x="216.256592" y="201.72881" style="fill: #21918c; fill-opacity: 0.9; stroke: #ffffff; stroke-opacity: 0.9; stroke-width: 0.21166"/>
     <use xlink:href="#m73efe11316" x="216.280502" y="203.289428" style="fill: #21918c; fill-opacity: 0.9; stroke: #ffffff; stroke-opacity: 0.9; stroke-width: 0.21166"/>
     <use xlink:href="#m73efe11316" x="222.769165" y="204.331885" style="fill: #21918c; fill-opacity: 0.9; stroke: #ffffff; stroke-opacity: 0.9; stroke-width: 0.21166"/>
     <use xlink:href="#m73efe11316" x="222.787132" y="204.538005" style="fill: #21918c; fill-opacity: 0.9; stroke: #ffffff; stroke-opacity: 0.9; stroke-width: 0.21166"/>
     <use xlink:href="#m73efe11316" x="225.337667" y="204.572523" style="fill: #21918c; fill-opacity: 0.9; stroke: #ffffff; stroke-opacity: 0.9; stroke-width: 0.21166"/>
     <use xlink:href="#m73efe11316" x="225.353719" y="203.80966" style="fill: #21918c; fill-opacity: 0.9; stroke: #ffffff; stroke-opacity: 0.9; stroke-width: 0.21166"/>
     <use xlink:href="#m73efe11316" x="231.859828" y="203.788825" style="fill: #21918c; fill-opacity: 0.9; stroke: #ffffff; stroke-opacity: 0.9; stroke-width: 0.21166"/>
     <use xlink:href="#m73efe11316" x="231.871884" y="205.104986" style="fill: #21918c; fill-opacity: 0.9; stroke: #ffffff; stroke-opacity: 0.9; stroke-width: 0.21166"/>
    </g>
   </g>
   <g id="line2d_13">
    <path d="M 42.045685 143.519216 
L 55.43581 143.594502 
L 59.30621 175.563573 
L 61.347627 177.565185 
L 67.072718 180.583835 
L 71.644114 182.674589 
L 74.373255 185.61668 
L 80.742363 189.468795 
L 85.714307 192.735944 
L 86.804495 193.558227 
L 96.253142 195.755874 
L 97.484825 196.336305 
L 102.273181 196.672132 
L 104.336181 198.114021 
L 116.95741 198.461122 
L 124.263431 199.271617 
L 124.912032 199.9166 
L 131.315231 201.180733 
L 131.763388 201.189159 
L 145.817623 201.868901 
L 154.247352 202.846726 
L 176.180946 203.48895 
L 185.233095 203.944445 
L 200.606491 204.298059 
L 216.187623 204.760051 
L 231.871884 205.104986 
" clip-path="url(#p30a7781f9e)" style="fill: none; stroke-dasharray: 7.4,3.2; stroke-dashoffset: 0; stroke: #482475; stroke-width: 2"/>
   </g>
   <g id="patch_3">
    <path d="M 32.554375 214.004725 
L 32.554375 18.210469 
" style="fill: none; stroke: #000000; stroke-width: 0.8; stroke-linejoin: miter; stroke-linecap: square"/>
   </g>
   <g id="patch_4">
    <path d="M 241.363194 214.004725 
L 241.363194 18.210469 
" style="fill: none; stroke: #000000; stroke-width: 0.8; stroke-linejoin: miter; stroke-linecap: square"/>
   </g>
   <g id="patch_5">
    <path d="M 32.554375 214.004725 
L 241.363194 214.004725 
" style="fill: none; stroke: #000000; stroke-width: 0.8; stroke-linejoin: miter; stroke-linecap: square"/>
   </g>
   <g id="patch_6">
    <path d="M 32.554375 18.210469 
L 241.363194 18.210469 
" style="fill: none; stroke: #000000; stroke-width: 0.8; stroke-linejoin: miter; stroke-linecap: square"/>
   </g>
   <g id="text_15">
    <!-- Performance vs. Size at 48mA -->
    <g style="fill: #262626" transform="translate(89.692378 12.210469) scale(0.07 -0.07)">
     <defs>
      <path id="ArialMT-76" d="M 1344 0 
L 81 3319 
L 675 3319 
L 1388 1331 
Q 1503 1009 1600 663 
Q 1675 925 1809 1294 
L 2547 3319 
L 3125 3319 
L 1869 0 
L 1344 0 
z
" transform="scale(0.015625)"/>
      <path id="ArialMT-2e" d="M 581 0 
L 581 641 
L 1222 641 
L 1222 0 
L 581 0 
z
" transform="scale(0.015625)"/>
      <path id="ArialMT-7a" d="M 125 0 
L 125 456 
L 2238 2881 
Q 1878 2863 1603 2863 
L 250 2863 
L 250 3319 
L 2963 3319 
L 2963 2947 
L 1166 841 
L 819 456 
Q 1197 484 1528 484 
L 3063 484 
L 3063 0 
L 125 0 
z
" transform="scale(0.015625)"/>
      <path id="ArialMT-41" d="M -9 0 
L 1750 4581 
L 2403 4581 
L 4278 0 
L 3588 0 
L 3053 1388 
L 1138 1388 
L 634 0 
L -9 0 
z
M 1313 1881 
L 2866 1881 
L 2388 3150 
Q 2169 3728 2063 4100 
Q 1975 3659 1816 3225 
L 1313 1881 
z
" transform="scale(0.015625)"/>
     </defs>
     <use xlink:href="#ArialMT-50"/>
     <use xlink:href="#ArialMT-65" transform="translate(66.699219 0)"/>
     <use xlink:href="#ArialMT-72" transform="translate(122.314453 0)"/>
     <use xlink:href="#ArialMT-66" transform="translate(155.615234 0)"/>
     <use xlink:href="#ArialMT-6f" transform="translate(183.398438 0)"/>
     <use xlink:href="#ArialMT-72" transform="translate(239.013672 0)"/>
     <use xlink:href="#ArialMT-6d" transform="translate(272.314453 0)"/>
     <use xlink:href="#ArialMT-61" transform="translate(355.615234 0)"/>
     <use xlink:href="#ArialMT-6e" transform="translate(411.230469 0)"/>
     <use xlink:href="#ArialMT-63" transform="translate(466.845703 0)"/>
     <use xlink:href="#ArialMT-65" transform="translate(516.845703 0)"/>
     <use xlink:href="#ArialMT-20" transform="translate(572.460938 0)"/>
     <use xlink:href="#ArialMT-76" transform="translate(600.244141 0)"/>
     <use xlink:href="#ArialMT-73" transform="translate(650.244141 0)"/>
     <use xlink:href="#ArialMT-2e" transform="translate(700.244141 0)"/>
     <use xlink:href="#ArialMT-20" transform="translate(728.027344 0)"/>
     <use xlink:href="#ArialMT-53" transform="translate(755.810547 0)"/>
     <use xlink:href="#ArialMT-69" transform="translate(822.509766 0)"/>
     <use xlink:href="#ArialMT-7a" transform="translate(844.726562 0)"/>
     <use xlink:href="#ArialMT-65" transform="translate(894.726562 0)"/>
     <use xlink:href="#ArialMT-20" transform="translate(950.341797 0)"/>
     <use xlink:href="#ArialMT-61" transform="translate(978.125 0)"/>
     <use xlink:href="#ArialMT-74" transform="translate(1033.740234 0)"/>
     <use xlink:href="#ArialMT-20" transform="translate(1061.523438 0)"/>
     <use xlink:href="#ArialMT-34" transform="translate(1089.306641 0)"/>
     <use xlink:href="#ArialMT-38" transform="translate(1144.921875 0)"/>
     <use xlink:href="#ArialMT-6d" transform="translate(1200.537109 0)"/>
     <use xlink:href="#ArialMT-41" transform="translate(1283.837891 0)"/>
    </g>
   </g>
   <g id="legend_1">
    <g id="patch_7">
     <path d="M 183.326631 43.613906 
L 236.463194 43.613906 
Q 237.863194 43.613906 237.863194 42.213906 
L 237.863194 23.110469 
Q 237.863194 21.710469 236.463194 21.710469 
L 183.326631 21.710469 
Q 181.926631 21.710469 181.926631 23.110469 
L 181.926631 42.213906 
Q 181.926631 43.613906 183.326631 43.613906 
z
" style="fill: #ffffff; opacity: 0.8; stroke: #cccccc; stroke-linejoin: miter"/>
    </g>
    <g id="PathCollection_2">
     <g>
      <use xlink:href="#m73efe11316" x="191.726631" y="27.683437" style="fill: #21918c; fill-opacity: 0.9; stroke: #ffffff; stroke-opacity: 0.9; stroke-width: 0.21166"/>
     </g>
    </g>
    <g id="text_16">
     <!-- All Runs -->
     <g style="fill: #262626" transform="translate(204.326631 29.520937) scale(0.07 -0.07)">
      <use xlink:href="#ArialMT-41"/>
      <use xlink:href="#ArialMT-6c" transform="translate(66.699219 0)"/>
      <use xlink:href="#ArialMT-6c" transform="translate(88.916016 0)"/>
      <use xlink:href="#ArialMT-20" transform="translate(111.132812 0)"/>
      <use xlink:href="#ArialMT-52" transform="translate(138.916016 0)"/>
      <use xlink:href="#ArialMT-75" transform="translate(211.132812 0)"/>
      <use xlink:href="#ArialMT-6e" transform="translate(266.748047 0)"/>
      <use xlink:href="#ArialMT-73" transform="translate(322.363281 0)"/>
     </g>
    </g>
    <g id="line2d_14">
     <path d="M 184.726631 36.972656 
L 191.726631 36.972656 
L 198.726631 36.972656 
" style="fill: none; stroke-dasharray: 7.4,3.2; stroke-dashoffset: 0; stroke: #482475; stroke-width: 2"/>
    </g>
    <g id="text_17">
     <!-- Best Loss -->
     <g style="fill: #262626" transform="translate(204.326631 39.422656) scale(0.07 -0.07)">
      <use xlink:href="#ArialMT-42"/>
      <use xlink:href="#ArialMT-65" transform="translate(66.699219 0)"/>
      <use xlink:href="#ArialMT-73" transform="translate(122.314453 0)"/>
      <use xlink:href="#ArialMT-74" transform="translate(172.314453 0)"/>
      <use xlink:href="#ArialMT-20" transform="translate(200.097656 0)"/>
      <use xlink:href="#ArialMT-4c" transform="translate(227.880859 0)"/>
      <use xlink:href="#ArialMT-6f" transform="translate(283.496094 0)"/>
      <use xlink:href="#ArialMT-73" transform="translate(339.111328 0)"/>
      <use xlink:href="#ArialMT-73" transform="translate(389.111328 0)"/>
     </g>
    </g>
   </g>
  </g>
 </g>
 <defs>
  <clipPath id="p30a7781f9e">
   <rect x="32.554375" y="18.210469" width="208.808819" height="195.794256"/>
  </clipPath>
 </defs>
</svg>
