<?xml version="1.0" encoding="utf-8" standalone="no"?>
<!DOCTYPE svg PUBLIC "-//W3C//DTD SVG 1.1//EN"
  "http://www.w3.org/Graphics/SVG/1.1/DTD/svg11.dtd">
<svg xmlns:xlink="http://www.w3.org/1999/xlink" width="253.161944pt" height="251.856788pt" viewBox="0 0 253.161944 251.856788" xmlns="http://www.w3.org/2000/svg" version="1.1">
 <metadata>
  <rdf:RDF xmlns:dc="http://purl.org/dc/elements/1.1/" xmlns:cc="http://creativecommons.org/ns#" xmlns:rdf="http://www.w3.org/1999/02/22-rdf-syntax-ns#">
   <cc:Work>
    <dc:type rdf:resource="http://purl.org/dc/dcmitype/StillImage"/>
    <dc:date>2025-12-19T16:54:59.116696</dc:date>
    <dc:format>image/svg+xml</dc:format>
    <dc:creator>
     <cc:Agent>
      <dc:title>Matplotlib v3.10.6, https://matplotlib.org/</dc:title>
     </cc:Agent>
    </dc:creator>
   </cc:Work>
  </rdf:RDF>
 </metadata>
 <defs>
  <style type="text/css">*{stroke-linejoin: round; stroke-linecap: butt}</style>
 </defs>
 <g id="figure_1">
  <g id="patch_1">
   <path d="M 0 251.856788 
L 253.161944 251.856788 
L 253.161944 0 
L 0 0 
L 0 251.856788 
z
" style="fill: none"/>
  </g>
  <g id="axes_1">
   <g id="patch_2">
    <path d="M 28.453125 222.8146 
L 245.961944 222.8146 
L 245.961944 18.210469 
L 28.453125 18.210469 
L 28.453125 222.8146 
z
" style="fill: none"/>
   </g>
   <g id="matplotlib.axis_1">
    <g id="xtick_1">
     <g id="line2d_1">
      <path d="M 28.718309 222.8146 
L 28.718309 18.210469 
" clip-path="url(#p667fb94f32)" style="fill: none; stroke: #cccccc; stroke-width: 0.8; stroke-linecap: round"/>
     </g>
     <g id="text_1">
      <!-- $\mathdefault{10^{1}}$ -->
      <g style="fill: #262626" transform="translate(24.793309 234.97085) scale(0.05 -0.05)">
       <defs>
        <path id="ArialMT-31" d="M 2384 0 
L 1822 0 
L 1822 3584 
Q 1619 3391 1289 3197 
Q 959 3003 697 2906 
L 697 3450 
Q 1169 3672 1522 3987 
Q 1875 4303 2022 4600 
L 2384 4600 
L 2384 0 
z
" transform="scale(0.015625)"/>
        <path id="ArialMT-30" d="M 266 2259 
Q 266 3072 433 3567 
Q 600 4063 929 4331 
Q 1259 4600 1759 4600 
Q 2128 4600 2406 4451 
Q 2684 4303 2865 4023 
Q 3047 3744 3150 3342 
Q 3253 2941 3253 2259 
Q 3253 1453 3087 958 
Q 2922 463 2592 192 
Q 2263 -78 1759 -78 
Q 1097 -78 719 397 
Q 266 969 266 2259 
z
M 844 2259 
Q 844 1131 1108 757 
Q 1372 384 1759 384 
Q 2147 384 2411 759 
Q 2675 1134 2675 2259 
Q 2675 3391 2411 3762 
Q 2147 4134 1753 4134 
Q 1366 4134 1134 3806 
Q 844 3388 844 2259 
z
" transform="scale(0.015625)"/>
       </defs>
       <use xlink:href="#ArialMT-31" transform="translate(0 0.99375)"/>
       <use xlink:href="#ArialMT-30" transform="translate(55.615234 0.99375)"/>
       <use xlink:href="#ArialMT-31" transform="translate(112.972813 70.6875) scale(0.7)"/>
      </g>
     </g>
    </g>
    <g id="xtick_2">
     <g id="line2d_2">
      <path d="M 83.358049 222.8146 
L 83.358049 18.210469 
" clip-path="url(#p667fb94f32)" style="fill: none; stroke: #cccccc; stroke-width: 0.8; stroke-linecap: round"/>
     </g>
     <g id="text_2">
      <!-- $\mathdefault{10^{2}}$ -->
      <g style="fill: #262626" transform="translate(79.433049 234.97085) scale(0.05 -0.05)">
       <defs>
        <path id="ArialMT-32" d="M 3222 541 
L 3222 0 
L 194 0 
Q 188 203 259 391 
Q 375 700 629 1000 
Q 884 1300 1366 1694 
Q 2113 2306 2375 2664 
Q 2638 3022 2638 3341 
Q 2638 3675 2398 3904 
Q 2159 4134 1775 4134 
Q 1369 4134 1125 3890 
Q 881 3647 878 3216 
L 300 3275 
Q 359 3922 746 4261 
Q 1134 4600 1788 4600 
Q 2447 4600 2831 4234 
Q 3216 3869 3216 3328 
Q 3216 3053 3103 2787 
Q 2991 2522 2730 2228 
Q 2469 1934 1863 1422 
Q 1356 997 1212 845 
Q 1069 694 975 541 
L 3222 541 
z
" transform="scale(0.015625)"/>
       </defs>
       <use xlink:href="#ArialMT-31" transform="translate(0 0.99375)"/>
       <use xlink:href="#ArialMT-30" transform="translate(55.615234 0.99375)"/>
       <use xlink:href="#ArialMT-32" transform="translate(112.972813 70.6875) scale(0.7)"/>
      </g>
     </g>
    </g>
    <g id="xtick_3">
     <g id="line2d_3">
      <path d="M 137.99779 222.8146 
L 137.99779 18.210469 
" clip-path="url(#p667fb94f32)" style="fill: none; stroke: #cccccc; stroke-width: 0.8; stroke-linecap: round"/>
     </g>
     <g id="text_3">
      <!-- $\mathdefault{10^{3}}$ -->
      <g style="fill: #262626" transform="translate(134.07279 234.97085) scale(0.05 -0.05)">
       <defs>
        <path id="ArialMT-33" d="M 269 1209 
L 831 1284 
Q 928 806 1161 595 
Q 1394 384 1728 384 
Q 2125 384 2398 659 
Q 2672 934 2672 1341 
Q 2672 1728 2419 1979 
Q 2166 2231 1775 2231 
Q 1616 2231 1378 2169 
L 1441 2663 
Q 1497 2656 1531 2656 
Q 1891 2656 2178 2843 
Q 2466 3031 2466 3422 
Q 2466 3731 2256 3934 
Q 2047 4138 1716 4138 
Q 1388 4138 1169 3931 
Q 950 3725 888 3313 
L 325 3413 
Q 428 3978 793 4289 
Q 1159 4600 1703 4600 
Q 2078 4600 2393 4439 
Q 2709 4278 2876 4000 
Q 3044 3722 3044 3409 
Q 3044 3113 2884 2869 
Q 2725 2625 2413 2481 
Q 2819 2388 3044 2092 
Q 3269 1797 3269 1353 
Q 3269 753 2831 336 
Q 2394 -81 1725 -81 
Q 1122 -81 723 278 
Q 325 638 269 1209 
z
" transform="scale(0.015625)"/>
       </defs>
       <use xlink:href="#ArialMT-31" transform="translate(0 0.99375)"/>
       <use xlink:href="#ArialMT-30" transform="translate(55.615234 0.99375)"/>
       <use xlink:href="#ArialMT-33" transform="translate(112.972813 70.6875) scale(0.7)"/>
      </g>
     </g>
    </g>
    <g id="xtick_4">
     <g id="line2d_4">
      <path d="M 192.637531 222.8146 
L 192.637531 18.210469 
" clip-path="url(#p667fb94f32)" style="fill: none; stroke: #cccccc; stroke-width: 0.8; stroke-linecap: round"/>
     </g>
     <g id="text_4">
      <!-- $\mathdefault{10^{4}}$ -->
      <g style="fill: #262626" transform="translate(188.712531 234.92085) scale(0.05 -0.05)">
       <defs>
        <path id="ArialMT-34" d="M 2069 0 
L 2069 1097 
L 81 1097 
L 81 1613 
L 2172 4581 
L 2631 4581 
L 2631 1613 
L 3250 1613 
L 3250 1097 
L 2631 1097 
L 2631 0 
L 2069 0 
z
M 2069 1613 
L 2069 3678 
L 634 1613 
L 2069 1613 
z
" transform="scale(0.015625)"/>
       </defs>
       <use xlink:href="#ArialMT-31" transform="translate(0 0.201563)"/>
       <use xlink:href="#ArialMT-30" transform="translate(55.615234 0.201563)"/>
       <use xlink:href="#ArialMT-34" transform="translate(112.972813 69.895313) scale(0.7)"/>
      </g>
     </g>
    </g>
    <g id="xtick_5"/>
    <g id="xtick_6"/>
    <g id="xtick_7"/>
    <g id="xtick_8"/>
    <g id="xtick_9"/>
    <g id="xtick_10"/>
    <g id="xtick_11"/>
    <g id="xtick_12"/>
    <g id="xtick_13"/>
    <g id="xtick_14"/>
    <g id="xtick_15"/>
    <g id="xtick_16"/>
    <g id="xtick_17"/>
    <g id="xtick_18"/>
    <g id="xtick_19"/>
    <g id="xtick_20"/>
    <g id="xtick_21"/>
    <g id="xtick_22"/>
    <g id="xtick_23"/>
    <g id="xtick_24"/>
    <g id="xtick_25"/>
    <g id="xtick_26"/>
    <g id="xtick_27"/>
    <g id="xtick_28"/>
    <g id="xtick_29"/>
    <g id="xtick_30"/>
    <g id="xtick_31"/>
    <g id="xtick_32"/>
    <g id="xtick_33"/>
    <g id="xtick_34"/>
    <g id="xtick_35"/>
    <g id="xtick_36"/>
    <g id="text_5">
     <!-- Number of Parameters (Log Scale) -->
     <g style="fill: #262626" transform="translate(98.444253 243.604444) scale(0.05 -0.05)">
      <defs>
       <path id="ArialMT-4e" d="M 488 0 
L 488 4581 
L 1109 4581 
L 3516 984 
L 3516 4581 
L 4097 4581 
L 4097 0 
L 3475 0 
L 1069 3600 
L 1069 0 
L 488 0 
z
" transform="scale(0.015625)"/>
       <path id="ArialMT-75" d="M 2597 0 
L 2597 488 
Q 2209 -75 1544 -75 
Q 1250 -75 995 37 
Q 741 150 617 320 
Q 494 491 444 738 
Q 409 903 409 1263 
L 409 3319 
L 972 3319 
L 972 1478 
Q 972 1038 1006 884 
Q 1059 663 1231 536 
Q 1403 409 1656 409 
Q 1909 409 2131 539 
Q 2353 669 2445 892 
Q 2538 1116 2538 1541 
L 2538 3319 
L 3100 3319 
L 3100 0 
L 2597 0 
z
" transform="scale(0.015625)"/>
       <path id="ArialMT-6d" d="M 422 0 
L 422 3319 
L 925 3319 
L 925 2853 
Q 1081 3097 1340 3245 
Q 1600 3394 1931 3394 
Q 2300 3394 2536 3241 
Q 2772 3088 2869 2813 
Q 3263 3394 3894 3394 
Q 4388 3394 4653 3120 
Q 4919 2847 4919 2278 
L 4919 0 
L 4359 0 
L 4359 2091 
Q 4359 2428 4304 2576 
Q 4250 2725 4106 2815 
Q 3963 2906 3769 2906 
Q 3419 2906 3187 2673 
Q 2956 2441 2956 1928 
L 2956 0 
L 2394 0 
L 2394 2156 
Q 2394 2531 2256 2718 
Q 2119 2906 1806 2906 
Q 1569 2906 1367 2781 
Q 1166 2656 1075 2415 
Q 984 2175 984 1722 
L 984 0 
L 422 0 
z
" transform="scale(0.015625)"/>
       <path id="ArialMT-62" d="M 941 0 
L 419 0 
L 419 4581 
L 981 4581 
L 981 2947 
Q 1338 3394 1891 3394 
Q 2197 3394 2470 3270 
Q 2744 3147 2920 2923 
Q 3097 2700 3197 2384 
Q 3297 2069 3297 1709 
Q 3297 856 2875 390 
Q 2453 -75 1863 -75 
Q 1275 -75 941 416 
L 941 0 
z
M 934 1684 
Q 934 1088 1097 822 
Q 1363 388 1816 388 
Q 2184 388 2453 708 
Q 2722 1028 2722 1663 
Q 2722 2313 2464 2622 
Q 2206 2931 1841 2931 
Q 1472 2931 1203 2611 
Q 934 2291 934 1684 
z
" transform="scale(0.015625)"/>
       <path id="ArialMT-65" d="M 2694 1069 
L 3275 997 
Q 3138 488 2766 206 
Q 2394 -75 1816 -75 
Q 1088 -75 661 373 
Q 234 822 234 1631 
Q 234 2469 665 2931 
Q 1097 3394 1784 3394 
Q 2450 3394 2872 2941 
Q 3294 2488 3294 1666 
Q 3294 1616 3291 1516 
L 816 1516 
Q 847 969 1125 678 
Q 1403 388 1819 388 
Q 2128 388 2347 550 
Q 2566 713 2694 1069 
z
M 847 1978 
L 2700 1978 
Q 2663 2397 2488 2606 
Q 2219 2931 1791 2931 
Q 1403 2931 1139 2672 
Q 875 2413 847 1978 
z
" transform="scale(0.015625)"/>
       <path id="ArialMT-72" d="M 416 0 
L 416 3319 
L 922 3319 
L 922 2816 
Q 1116 3169 1280 3281 
Q 1444 3394 1641 3394 
Q 1925 3394 2219 3213 
L 2025 2691 
Q 1819 2813 1613 2813 
Q 1428 2813 1281 2702 
Q 1134 2591 1072 2394 
Q 978 2094 978 1738 
L 978 0 
L 416 0 
z
" transform="scale(0.015625)"/>
       <path id="ArialMT-20" transform="scale(0.015625)"/>
       <path id="ArialMT-6f" d="M 213 1659 
Q 213 2581 725 3025 
Q 1153 3394 1769 3394 
Q 2453 3394 2887 2945 
Q 3322 2497 3322 1706 
Q 3322 1066 3130 698 
Q 2938 331 2570 128 
Q 2203 -75 1769 -75 
Q 1072 -75 642 372 
Q 213 819 213 1659 
z
M 791 1659 
Q 791 1022 1069 705 
Q 1347 388 1769 388 
Q 2188 388 2466 706 
Q 2744 1025 2744 1678 
Q 2744 2294 2464 2611 
Q 2184 2928 1769 2928 
Q 1347 2928 1069 2612 
Q 791 2297 791 1659 
z
" transform="scale(0.015625)"/>
       <path id="ArialMT-66" d="M 556 0 
L 556 2881 
L 59 2881 
L 59 3319 
L 556 3319 
L 556 3672 
Q 556 4006 616 4169 
Q 697 4388 901 4523 
Q 1106 4659 1475 4659 
Q 1713 4659 2000 4603 
L 1916 4113 
Q 1741 4144 1584 4144 
Q 1328 4144 1222 4034 
Q 1116 3925 1116 3625 
L 1116 3319 
L 1763 3319 
L 1763 2881 
L 1116 2881 
L 1116 0 
L 556 0 
z
" transform="scale(0.015625)"/>
       <path id="ArialMT-50" d="M 494 0 
L 494 4581 
L 2222 4581 
Q 2678 4581 2919 4538 
Q 3256 4481 3484 4323 
Q 3713 4166 3852 3881 
Q 3991 3597 3991 3256 
Q 3991 2672 3619 2267 
Q 3247 1863 2275 1863 
L 1100 1863 
L 1100 0 
L 494 0 
z
M 1100 2403 
L 2284 2403 
Q 2872 2403 3119 2622 
Q 3366 2841 3366 3238 
Q 3366 3525 3220 3729 
Q 3075 3934 2838 4000 
Q 2684 4041 2272 4041 
L 1100 4041 
L 1100 2403 
z
" transform="scale(0.015625)"/>
       <path id="ArialMT-61" d="M 2588 409 
Q 2275 144 1986 34 
Q 1697 -75 1366 -75 
Q 819 -75 525 192 
Q 231 459 231 875 
Q 231 1119 342 1320 
Q 453 1522 633 1644 
Q 813 1766 1038 1828 
Q 1203 1872 1538 1913 
Q 2219 1994 2541 2106 
Q 2544 2222 2544 2253 
Q 2544 2597 2384 2738 
Q 2169 2928 1744 2928 
Q 1347 2928 1158 2789 
Q 969 2650 878 2297 
L 328 2372 
Q 403 2725 575 2942 
Q 747 3159 1072 3276 
Q 1397 3394 1825 3394 
Q 2250 3394 2515 3294 
Q 2781 3194 2906 3042 
Q 3031 2891 3081 2659 
Q 3109 2516 3109 2141 
L 3109 1391 
Q 3109 606 3145 398 
Q 3181 191 3288 0 
L 2700 0 
Q 2613 175 2588 409 
z
M 2541 1666 
Q 2234 1541 1622 1453 
Q 1275 1403 1131 1340 
Q 988 1278 909 1158 
Q 831 1038 831 891 
Q 831 666 1001 516 
Q 1172 366 1500 366 
Q 1825 366 2078 508 
Q 2331 650 2450 897 
Q 2541 1088 2541 1459 
L 2541 1666 
z
" transform="scale(0.015625)"/>
       <path id="ArialMT-74" d="M 1650 503 
L 1731 6 
Q 1494 -44 1306 -44 
Q 1000 -44 831 53 
Q 663 150 594 308 
Q 525 466 525 972 
L 525 2881 
L 113 2881 
L 113 3319 
L 525 3319 
L 525 4141 
L 1084 4478 
L 1084 3319 
L 1650 3319 
L 1650 2881 
L 1084 2881 
L 1084 941 
Q 1084 700 1114 631 
Q 1144 563 1211 522 
Q 1278 481 1403 481 
Q 1497 481 1650 503 
z
" transform="scale(0.015625)"/>
       <path id="ArialMT-73" d="M 197 991 
L 753 1078 
Q 800 744 1014 566 
Q 1228 388 1613 388 
Q 2000 388 2187 545 
Q 2375 703 2375 916 
Q 2375 1106 2209 1216 
Q 2094 1291 1634 1406 
Q 1016 1563 777 1677 
Q 538 1791 414 1992 
Q 291 2194 291 2438 
Q 291 2659 392 2848 
Q 494 3038 669 3163 
Q 800 3259 1026 3326 
Q 1253 3394 1513 3394 
Q 1903 3394 2198 3281 
Q 2494 3169 2634 2976 
Q 2775 2784 2828 2463 
L 2278 2388 
Q 2241 2644 2061 2787 
Q 1881 2931 1553 2931 
Q 1166 2931 1000 2803 
Q 834 2675 834 2503 
Q 834 2394 903 2306 
Q 972 2216 1119 2156 
Q 1203 2125 1616 2013 
Q 2213 1853 2448 1751 
Q 2684 1650 2818 1456 
Q 2953 1263 2953 975 
Q 2953 694 2789 445 
Q 2625 197 2315 61 
Q 2006 -75 1616 -75 
Q 969 -75 630 194 
Q 291 463 197 991 
z
" transform="scale(0.015625)"/>
       <path id="ArialMT-28" d="M 1497 -1347 
Q 1031 -759 709 28 
Q 388 816 388 1659 
Q 388 2403 628 3084 
Q 909 3875 1497 4659 
L 1900 4659 
Q 1522 4009 1400 3731 
Q 1209 3300 1100 2831 
Q 966 2247 966 1656 
Q 966 153 1900 -1347 
L 1497 -1347 
z
" transform="scale(0.015625)"/>
       <path id="ArialMT-4c" d="M 469 0 
L 469 4581 
L 1075 4581 
L 1075 541 
L 3331 541 
L 3331 0 
L 469 0 
z
" transform="scale(0.015625)"/>
       <path id="ArialMT-67" d="M 319 -275 
L 866 -356 
Q 900 -609 1056 -725 
Q 1266 -881 1628 -881 
Q 2019 -881 2231 -725 
Q 2444 -569 2519 -288 
Q 2563 -116 2559 434 
Q 2191 0 1641 0 
Q 956 0 581 494 
Q 206 988 206 1678 
Q 206 2153 378 2554 
Q 550 2956 876 3175 
Q 1203 3394 1644 3394 
Q 2231 3394 2613 2919 
L 2613 3319 
L 3131 3319 
L 3131 450 
Q 3131 -325 2973 -648 
Q 2816 -972 2473 -1159 
Q 2131 -1347 1631 -1347 
Q 1038 -1347 672 -1080 
Q 306 -813 319 -275 
z
M 784 1719 
Q 784 1066 1043 766 
Q 1303 466 1694 466 
Q 2081 466 2343 764 
Q 2606 1063 2606 1700 
Q 2606 2309 2336 2618 
Q 2066 2928 1684 2928 
Q 1309 2928 1046 2623 
Q 784 2319 784 1719 
z
" transform="scale(0.015625)"/>
       <path id="ArialMT-53" d="M 288 1472 
L 859 1522 
Q 900 1178 1048 958 
Q 1197 738 1509 602 
Q 1822 466 2213 466 
Q 2559 466 2825 569 
Q 3091 672 3220 851 
Q 3350 1031 3350 1244 
Q 3350 1459 3225 1620 
Q 3100 1781 2813 1891 
Q 2628 1963 1997 2114 
Q 1366 2266 1113 2400 
Q 784 2572 623 2826 
Q 463 3081 463 3397 
Q 463 3744 659 4045 
Q 856 4347 1234 4503 
Q 1613 4659 2075 4659 
Q 2584 4659 2973 4495 
Q 3363 4331 3572 4012 
Q 3781 3694 3797 3291 
L 3216 3247 
Q 3169 3681 2898 3903 
Q 2628 4125 2100 4125 
Q 1550 4125 1298 3923 
Q 1047 3722 1047 3438 
Q 1047 3191 1225 3031 
Q 1400 2872 2139 2705 
Q 2878 2538 3153 2413 
Q 3553 2228 3743 1945 
Q 3934 1663 3934 1294 
Q 3934 928 3725 604 
Q 3516 281 3123 101 
Q 2731 -78 2241 -78 
Q 1619 -78 1198 103 
Q 778 284 539 648 
Q 300 1013 288 1472 
z
" transform="scale(0.015625)"/>
       <path id="ArialMT-63" d="M 2588 1216 
L 3141 1144 
Q 3050 572 2676 248 
Q 2303 -75 1759 -75 
Q 1078 -75 664 370 
Q 250 816 250 1647 
Q 250 2184 428 2587 
Q 606 2991 970 3192 
Q 1334 3394 1763 3394 
Q 2303 3394 2647 3120 
Q 2991 2847 3088 2344 
L 2541 2259 
Q 2463 2594 2264 2762 
Q 2066 2931 1784 2931 
Q 1359 2931 1093 2626 
Q 828 2322 828 1663 
Q 828 994 1084 691 
Q 1341 388 1753 388 
Q 2084 388 2306 591 
Q 2528 794 2588 1216 
z
" transform="scale(0.015625)"/>
       <path id="ArialMT-6c" d="M 409 0 
L 409 4581 
L 972 4581 
L 972 0 
L 409 0 
z
" transform="scale(0.015625)"/>
       <path id="ArialMT-29" d="M 791 -1347 
L 388 -1347 
Q 1322 153 1322 1656 
Q 1322 2244 1188 2822 
Q 1081 3291 891 3722 
Q 769 4003 388 4659 
L 791 4659 
Q 1378 3875 1659 3084 
Q 1900 2403 1900 1659 
Q 1900 816 1576 28 
Q 1253 -759 791 -1347 
z
" transform="scale(0.015625)"/>
      </defs>
      <use xlink:href="#ArialMT-4e"/>
      <use xlink:href="#ArialMT-75" transform="translate(72.216797 0)"/>
      <use xlink:href="#ArialMT-6d" transform="translate(127.832031 0)"/>
      <use xlink:href="#ArialMT-62" transform="translate(211.132812 0)"/>
      <use xlink:href="#ArialMT-65" transform="translate(266.748047 0)"/>
      <use xlink:href="#ArialMT-72" transform="translate(322.363281 0)"/>
      <use xlink:href="#ArialMT-20" transform="translate(355.664062 0)"/>
      <use xlink:href="#ArialMT-6f" transform="translate(383.447266 0)"/>
      <use xlink:href="#ArialMT-66" transform="translate(439.0625 0)"/>
      <use xlink:href="#ArialMT-20" transform="translate(466.845703 0)"/>
      <use xlink:href="#ArialMT-50" transform="translate(494.628906 0)"/>
      <use xlink:href="#ArialMT-61" transform="translate(561.328125 0)"/>
      <use xlink:href="#ArialMT-72" transform="translate(616.943359 0)"/>
      <use xlink:href="#ArialMT-61" transform="translate(650.244141 0)"/>
      <use xlink:href="#ArialMT-6d" transform="translate(705.859375 0)"/>
      <use xlink:href="#ArialMT-65" transform="translate(789.160156 0)"/>
      <use xlink:href="#ArialMT-74" transform="translate(844.775391 0)"/>
      <use xlink:href="#ArialMT-65" transform="translate(872.558594 0)"/>
      <use xlink:href="#ArialMT-72" transform="translate(928.173828 0)"/>
      <use xlink:href="#ArialMT-73" transform="translate(961.474609 0)"/>
      <use xlink:href="#ArialMT-20" transform="translate(1011.474609 0)"/>
      <use xlink:href="#ArialMT-28" transform="translate(1039.257812 0)"/>
      <use xlink:href="#ArialMT-4c" transform="translate(1072.558594 0)"/>
      <use xlink:href="#ArialMT-6f" transform="translate(1128.173828 0)"/>
      <use xlink:href="#ArialMT-67" transform="translate(1183.789062 0)"/>
      <use xlink:href="#ArialMT-20" transform="translate(1239.404297 0)"/>
      <use xlink:href="#ArialMT-53" transform="translate(1267.1875 0)"/>
      <use xlink:href="#ArialMT-63" transform="translate(1333.886719 0)"/>
      <use xlink:href="#ArialMT-61" transform="translate(1383.886719 0)"/>
      <use xlink:href="#ArialMT-6c" transform="translate(1439.501953 0)"/>
      <use xlink:href="#ArialMT-65" transform="translate(1461.71875 0)"/>
      <use xlink:href="#ArialMT-29" transform="translate(1517.333984 0)"/>
     </g>
    </g>
   </g>
   <g id="matplotlib.axis_2">
    <g id="ytick_1">
     <g id="line2d_5">
      <path d="M 28.453125 214.444851 
L 245.961944 214.444851 
" clip-path="url(#p667fb94f32)" style="fill: none; stroke: #cccccc; stroke-width: 0.8; stroke-linecap: round"/>
     </g>
     <g id="text_6">
      <!-- 10 -->
      <g style="fill: #262626" transform="translate(15.892188 216.234304) scale(0.05 -0.05)">
       <use xlink:href="#ArialMT-31"/>
       <use xlink:href="#ArialMT-30" transform="translate(55.615234 0)"/>
      </g>
     </g>
    </g>
    <g id="ytick_2">
     <g id="line2d_6">
      <path d="M 28.453125 187.677473 
L 245.961944 187.677473 
" clip-path="url(#p667fb94f32)" style="fill: none; stroke: #cccccc; stroke-width: 0.8; stroke-linecap: round"/>
     </g>
     <g id="text_7">
      <!-- 20 -->
      <g style="fill: #262626" transform="translate(15.892188 189.466926) scale(0.05 -0.05)">
       <use xlink:href="#ArialMT-32"/>
       <use xlink:href="#ArialMT-30" transform="translate(55.615234 0)"/>
      </g>
     </g>
    </g>
    <g id="ytick_3">
     <g id="line2d_7">
      <path d="M 28.453125 160.910095 
L 245.961944 160.910095 
" clip-path="url(#p667fb94f32)" style="fill: none; stroke: #cccccc; stroke-width: 0.8; stroke-linecap: round"/>
     </g>
     <g id="text_8">
      <!-- 30 -->
      <g style="fill: #262626" transform="translate(15.892188 162.699548) scale(0.05 -0.05)">
       <use xlink:href="#ArialMT-33"/>
       <use xlink:href="#ArialMT-30" transform="translate(55.615234 0)"/>
      </g>
     </g>
    </g>
    <g id="ytick_4">
     <g id="line2d_8">
      <path d="M 28.453125 134.142718 
L 245.961944 134.142718 
" clip-path="url(#p667fb94f32)" style="fill: none; stroke: #cccccc; stroke-width: 0.8; stroke-linecap: round"/>
     </g>
     <g id="text_9">
      <!-- 40 -->
      <g style="fill: #262626" transform="translate(15.892188 135.932171) scale(0.05 -0.05)">
       <use xlink:href="#ArialMT-34"/>
       <use xlink:href="#ArialMT-30" transform="translate(55.615234 0)"/>
      </g>
     </g>
    </g>
    <g id="ytick_5">
     <g id="line2d_9">
      <path d="M 28.453125 107.37534 
L 245.961944 107.37534 
" clip-path="url(#p667fb94f32)" style="fill: none; stroke: #cccccc; stroke-width: 0.8; stroke-linecap: round"/>
     </g>
     <g id="text_10">
      <!-- 50 -->
      <g style="fill: #262626" transform="translate(15.892188 109.164793) scale(0.05 -0.05)">
       <defs>
        <path id="ArialMT-35" d="M 266 1200 
L 856 1250 
Q 922 819 1161 601 
Q 1400 384 1738 384 
Q 2144 384 2425 690 
Q 2706 997 2706 1503 
Q 2706 1984 2436 2262 
Q 2166 2541 1728 2541 
Q 1456 2541 1237 2417 
Q 1019 2294 894 2097 
L 366 2166 
L 809 4519 
L 3088 4519 
L 3088 3981 
L 1259 3981 
L 1013 2750 
Q 1425 3038 1878 3038 
Q 2478 3038 2890 2622 
Q 3303 2206 3303 1553 
Q 3303 931 2941 478 
Q 2500 -78 1738 -78 
Q 1113 -78 717 272 
Q 322 622 266 1200 
z
" transform="scale(0.015625)"/>
       </defs>
       <use xlink:href="#ArialMT-35"/>
       <use xlink:href="#ArialMT-30" transform="translate(55.615234 0)"/>
      </g>
     </g>
    </g>
    <g id="ytick_6">
     <g id="line2d_10">
      <path d="M 28.453125 80.607962 
L 245.961944 80.607962 
" clip-path="url(#p667fb94f32)" style="fill: none; stroke: #cccccc; stroke-width: 0.8; stroke-linecap: round"/>
     </g>
     <g id="text_11">
      <!-- 60 -->
      <g style="fill: #262626" transform="translate(15.892188 82.397415) scale(0.05 -0.05)">
       <defs>
        <path id="ArialMT-36" d="M 3184 3459 
L 2625 3416 
Q 2550 3747 2413 3897 
Q 2184 4138 1850 4138 
Q 1581 4138 1378 3988 
Q 1113 3794 959 3422 
Q 806 3050 800 2363 
Q 1003 2672 1297 2822 
Q 1591 2972 1913 2972 
Q 2475 2972 2870 2558 
Q 3266 2144 3266 1488 
Q 3266 1056 3080 686 
Q 2894 316 2569 119 
Q 2244 -78 1831 -78 
Q 1128 -78 684 439 
Q 241 956 241 2144 
Q 241 3472 731 4075 
Q 1159 4600 1884 4600 
Q 2425 4600 2770 4297 
Q 3116 3994 3184 3459 
z
M 888 1484 
Q 888 1194 1011 928 
Q 1134 663 1356 523 
Q 1578 384 1822 384 
Q 2178 384 2434 671 
Q 2691 959 2691 1453 
Q 2691 1928 2437 2201 
Q 2184 2475 1800 2475 
Q 1419 2475 1153 2201 
Q 888 1928 888 1484 
z
" transform="scale(0.015625)"/>
       </defs>
       <use xlink:href="#ArialMT-36"/>
       <use xlink:href="#ArialMT-30" transform="translate(55.615234 0)"/>
      </g>
     </g>
    </g>
    <g id="ytick_7">
     <g id="line2d_11">
      <path d="M 28.453125 53.840585 
L 245.961944 53.840585 
" clip-path="url(#p667fb94f32)" style="fill: none; stroke: #cccccc; stroke-width: 0.8; stroke-linecap: round"/>
     </g>
     <g id="text_12">
      <!-- 70 -->
      <g style="fill: #262626" transform="translate(15.892188 55.630038) scale(0.05 -0.05)">
       <defs>
        <path id="ArialMT-37" d="M 303 3981 
L 303 4522 
L 3269 4522 
L 3269 4084 
Q 2831 3619 2401 2847 
Q 1972 2075 1738 1259 
Q 1569 684 1522 0 
L 944 0 
Q 953 541 1156 1306 
Q 1359 2072 1739 2783 
Q 2119 3494 2547 3981 
L 303 3981 
z
" transform="scale(0.015625)"/>
       </defs>
       <use xlink:href="#ArialMT-37"/>
       <use xlink:href="#ArialMT-30" transform="translate(55.615234 0)"/>
      </g>
     </g>
    </g>
    <g id="ytick_8">
     <g id="line2d_12">
      <path d="M 28.453125 27.073207 
L 245.961944 27.073207 
" clip-path="url(#p667fb94f32)" style="fill: none; stroke: #cccccc; stroke-width: 0.8; stroke-linecap: round"/>
     </g>
     <g id="text_13">
      <!-- 80 -->
      <g style="fill: #262626" transform="translate(15.892188 28.86266) scale(0.05 -0.05)">
       <defs>
        <path id="ArialMT-38" d="M 1131 2484 
Q 781 2613 612 2850 
Q 444 3088 444 3419 
Q 444 3919 803 4259 
Q 1163 4600 1759 4600 
Q 2359 4600 2725 4251 
Q 3091 3903 3091 3403 
Q 3091 3084 2923 2848 
Q 2756 2613 2416 2484 
Q 2838 2347 3058 2040 
Q 3278 1734 3278 1309 
Q 3278 722 2862 322 
Q 2447 -78 1769 -78 
Q 1091 -78 675 323 
Q 259 725 259 1325 
Q 259 1772 486 2073 
Q 713 2375 1131 2484 
z
M 1019 3438 
Q 1019 3113 1228 2906 
Q 1438 2700 1772 2700 
Q 2097 2700 2305 2904 
Q 2513 3109 2513 3406 
Q 2513 3716 2298 3927 
Q 2084 4138 1766 4138 
Q 1444 4138 1231 3931 
Q 1019 3725 1019 3438 
z
M 838 1322 
Q 838 1081 952 856 
Q 1066 631 1291 507 
Q 1516 384 1775 384 
Q 2178 384 2440 643 
Q 2703 903 2703 1303 
Q 2703 1709 2433 1975 
Q 2163 2241 1756 2241 
Q 1359 2241 1098 1978 
Q 838 1716 838 1322 
z
" transform="scale(0.015625)"/>
       </defs>
       <use xlink:href="#ArialMT-38"/>
       <use xlink:href="#ArialMT-30" transform="translate(55.615234 0)"/>
      </g>
     </g>
    </g>
    <g id="text_14">
     <!-- Best Validation RRMSE (%) -->
     <g style="fill: #262626" transform="translate(10.839844 151.310191) rotate(-90) scale(0.05 -0.05)">
      <defs>
       <path id="ArialMT-42" d="M 469 0 
L 469 4581 
L 2188 4581 
Q 2713 4581 3030 4442 
Q 3347 4303 3526 4014 
Q 3706 3725 3706 3409 
Q 3706 3116 3547 2856 
Q 3388 2597 3066 2438 
Q 3481 2316 3704 2022 
Q 3928 1728 3928 1328 
Q 3928 1006 3792 729 
Q 3656 453 3456 303 
Q 3256 153 2954 76 
Q 2653 0 2216 0 
L 469 0 
z
M 1075 2656 
L 2066 2656 
Q 2469 2656 2644 2709 
Q 2875 2778 2992 2937 
Q 3109 3097 3109 3338 
Q 3109 3566 3000 3739 
Q 2891 3913 2687 3977 
Q 2484 4041 1991 4041 
L 1075 4041 
L 1075 2656 
z
M 1075 541 
L 2216 541 
Q 2509 541 2628 563 
Q 2838 600 2978 687 
Q 3119 775 3209 942 
Q 3300 1109 3300 1328 
Q 3300 1584 3169 1773 
Q 3038 1963 2805 2039 
Q 2572 2116 2134 2116 
L 1075 2116 
L 1075 541 
z
" transform="scale(0.015625)"/>
       <path id="ArialMT-56" d="M 1803 0 
L 28 4581 
L 684 4581 
L 1875 1253 
Q 2019 853 2116 503 
Q 2222 878 2363 1253 
L 3600 4581 
L 4219 4581 
L 2425 0 
L 1803 0 
z
" transform="scale(0.015625)"/>
       <path id="ArialMT-69" d="M 425 3934 
L 425 4581 
L 988 4581 
L 988 3934 
L 425 3934 
z
M 425 0 
L 425 3319 
L 988 3319 
L 988 0 
L 425 0 
z
" transform="scale(0.015625)"/>
       <path id="ArialMT-64" d="M 2575 0 
L 2575 419 
Q 2259 -75 1647 -75 
Q 1250 -75 917 144 
Q 584 363 401 755 
Q 219 1147 219 1656 
Q 219 2153 384 2558 
Q 550 2963 881 3178 
Q 1213 3394 1622 3394 
Q 1922 3394 2156 3267 
Q 2391 3141 2538 2938 
L 2538 4581 
L 3097 4581 
L 3097 0 
L 2575 0 
z
M 797 1656 
Q 797 1019 1065 703 
Q 1334 388 1700 388 
Q 2069 388 2326 689 
Q 2584 991 2584 1609 
Q 2584 2291 2321 2609 
Q 2059 2928 1675 2928 
Q 1300 2928 1048 2622 
Q 797 2316 797 1656 
z
" transform="scale(0.015625)"/>
       <path id="ArialMT-6e" d="M 422 0 
L 422 3319 
L 928 3319 
L 928 2847 
Q 1294 3394 1984 3394 
Q 2284 3394 2536 3286 
Q 2788 3178 2913 3003 
Q 3038 2828 3088 2588 
Q 3119 2431 3119 2041 
L 3119 0 
L 2556 0 
L 2556 2019 
Q 2556 2363 2490 2533 
Q 2425 2703 2258 2804 
Q 2091 2906 1866 2906 
Q 1506 2906 1245 2678 
Q 984 2450 984 1813 
L 984 0 
L 422 0 
z
" transform="scale(0.015625)"/>
       <path id="ArialMT-52" d="M 503 0 
L 503 4581 
L 2534 4581 
Q 3147 4581 3465 4457 
Q 3784 4334 3975 4021 
Q 4166 3709 4166 3331 
Q 4166 2844 3850 2509 
Q 3534 2175 2875 2084 
Q 3116 1969 3241 1856 
Q 3506 1613 3744 1247 
L 4541 0 
L 3778 0 
L 3172 953 
Q 2906 1366 2734 1584 
Q 2563 1803 2427 1890 
Q 2291 1978 2150 2013 
Q 2047 2034 1813 2034 
L 1109 2034 
L 1109 0 
L 503 0 
z
M 1109 2559 
L 2413 2559 
Q 2828 2559 3062 2645 
Q 3297 2731 3419 2920 
Q 3541 3109 3541 3331 
Q 3541 3656 3305 3865 
Q 3069 4075 2559 4075 
L 1109 4075 
L 1109 2559 
z
" transform="scale(0.015625)"/>
       <path id="ArialMT-4d" d="M 475 0 
L 475 4581 
L 1388 4581 
L 2472 1338 
Q 2622 884 2691 659 
Q 2769 909 2934 1394 
L 4031 4581 
L 4847 4581 
L 4847 0 
L 4263 0 
L 4263 3834 
L 2931 0 
L 2384 0 
L 1059 3900 
L 1059 0 
L 475 0 
z
" transform="scale(0.015625)"/>
       <path id="ArialMT-45" d="M 506 0 
L 506 4581 
L 3819 4581 
L 3819 4041 
L 1113 4041 
L 1113 2638 
L 3647 2638 
L 3647 2100 
L 1113 2100 
L 1113 541 
L 3925 541 
L 3925 0 
L 506 0 
z
" transform="scale(0.015625)"/>
       <path id="ArialMT-25" d="M 372 3481 
Q 372 3972 619 4315 
Q 866 4659 1334 4659 
Q 1766 4659 2048 4351 
Q 2331 4044 2331 3447 
Q 2331 2866 2045 2552 
Q 1759 2238 1341 2238 
Q 925 2238 648 2547 
Q 372 2856 372 3481 
z
M 1350 4272 
Q 1141 4272 1002 4090 
Q 863 3909 863 3425 
Q 863 2984 1003 2804 
Q 1144 2625 1350 2625 
Q 1563 2625 1702 2806 
Q 1841 2988 1841 3469 
Q 1841 3913 1700 4092 
Q 1559 4272 1350 4272 
z
M 1353 -169 
L 3859 4659 
L 4316 4659 
L 1819 -169 
L 1353 -169 
z
M 3334 1075 
Q 3334 1569 3581 1911 
Q 3828 2253 4300 2253 
Q 4731 2253 5014 1945 
Q 5297 1638 5297 1041 
Q 5297 459 5011 145 
Q 4725 -169 4303 -169 
Q 3888 -169 3611 142 
Q 3334 453 3334 1075 
z
M 4316 1866 
Q 4103 1866 3964 1684 
Q 3825 1503 3825 1019 
Q 3825 581 3965 400 
Q 4106 219 4313 219 
Q 4528 219 4667 400 
Q 4806 581 4806 1063 
Q 4806 1506 4665 1686 
Q 4525 1866 4316 1866 
z
" transform="scale(0.015625)"/>
      </defs>
      <use xlink:href="#ArialMT-42"/>
      <use xlink:href="#ArialMT-65" transform="translate(66.699219 0)"/>
      <use xlink:href="#ArialMT-73" transform="translate(122.314453 0)"/>
      <use xlink:href="#ArialMT-74" transform="translate(172.314453 0)"/>
      <use xlink:href="#ArialMT-20" transform="translate(200.097656 0)"/>
      <use xlink:href="#ArialMT-56" transform="translate(227.880859 0)"/>
      <use xlink:href="#ArialMT-61" transform="translate(287.205078 0)"/>
      <use xlink:href="#ArialMT-6c" transform="translate(342.820312 0)"/>
      <use xlink:href="#ArialMT-69" transform="translate(365.037109 0)"/>
      <use xlink:href="#ArialMT-64" transform="translate(387.253906 0)"/>
      <use xlink:href="#ArialMT-61" transform="translate(442.869141 0)"/>
      <use xlink:href="#ArialMT-74" transform="translate(498.484375 0)"/>
      <use xlink:href="#ArialMT-69" transform="translate(526.267578 0)"/>
      <use xlink:href="#ArialMT-6f" transform="translate(548.484375 0)"/>
      <use xlink:href="#ArialMT-6e" transform="translate(604.099609 0)"/>
      <use xlink:href="#ArialMT-20" transform="translate(659.714844 0)"/>
      <use xlink:href="#ArialMT-52" transform="translate(687.498047 0)"/>
      <use xlink:href="#ArialMT-52" transform="translate(759.714844 0)"/>
      <use xlink:href="#ArialMT-4d" transform="translate(831.931641 0)"/>
      <use xlink:href="#ArialMT-53" transform="translate(915.232422 0)"/>
      <use xlink:href="#ArialMT-45" transform="translate(981.931641 0)"/>
      <use xlink:href="#ArialMT-20" transform="translate(1048.630859 0)"/>
      <use xlink:href="#ArialMT-28" transform="translate(1076.414062 0)"/>
      <use xlink:href="#ArialMT-25" transform="translate(1109.714844 0)"/>
      <use xlink:href="#ArialMT-29" transform="translate(1198.630859 0)"/>
     </g>
    </g>
   </g>
   <g id="PathCollection_1">
    <defs>
     <path id="m5b1dc93009" d="M 0 1.322876 
C 0.350831 1.322876 0.68734 1.183489 0.935414 0.935414 
C 1.183489 0.68734 1.322876 0.350831 1.322876 0 
C 1.322876 -0.350831 1.183489 -0.68734 0.935414 -0.935414 
C 0.68734 -1.183489 0.350831 -1.322876 0 -1.322876 
C -0.350831 -1.322876 -0.68734 -1.183489 -0.935414 -0.935414 
C -1.183489 -0.68734 -1.322876 -0.350831 -1.322876 0 
C -1.322876 0.350831 -1.183489 0.68734 -0.935414 0.935414 
C -0.68734 1.183489 -0.350831 1.322876 0 1.322876 
z
" style="stroke: #ffffff; stroke-opacity: 0.9; stroke-width: 0.21166"/>
    </defs>
    <g clip-path="url(#p667fb94f32)">
     <use xlink:href="#m5b1dc93009" x="38.339889" y="149.157555" style="fill: #21918c; fill-opacity: 0.9; stroke: #ffffff; stroke-opacity: 0.9; stroke-width: 0.21166"/>
     <use xlink:href="#m5b1dc93009" x="41.309978" y="147.870225" style="fill: #21918c; fill-opacity: 0.9; stroke: #ffffff; stroke-opacity: 0.9; stroke-width: 0.21166"/>
     <use xlink:href="#m5b1dc93009" x="45.16651" y="148.75398" style="fill: #21918c; fill-opacity: 0.9; stroke: #ffffff; stroke-opacity: 0.9; stroke-width: 0.21166"/>
     <use xlink:href="#m5b1dc93009" x="47.428195" y="147.824872" style="fill: #21918c; fill-opacity: 0.9; stroke: #ffffff; stroke-opacity: 0.9; stroke-width: 0.21166"/>
     <use xlink:href="#m5b1dc93009" x="50.461648" y="148.243177" style="fill: #21918c; fill-opacity: 0.9; stroke: #ffffff; stroke-opacity: 0.9; stroke-width: 0.21166"/>
     <use xlink:href="#m5b1dc93009" x="51.392345" y="148.769761" style="fill: #21918c; fill-opacity: 0.9; stroke: #ffffff; stroke-opacity: 0.9; stroke-width: 0.21166"/>
     <use xlink:href="#m5b1dc93009" x="52.287913" y="149.236229" style="fill: #21918c; fill-opacity: 0.9; stroke: #ffffff; stroke-opacity: 0.9; stroke-width: 0.21166"/>
     <use xlink:href="#m5b1dc93009" x="53.150908" y="148.904621" style="fill: #21918c; fill-opacity: 0.9; stroke: #ffffff; stroke-opacity: 0.9; stroke-width: 0.21166"/>
     <use xlink:href="#m5b1dc93009" x="56.319573" y="182.643766" style="fill: #21918c; fill-opacity: 0.9; stroke: #ffffff; stroke-opacity: 0.9; stroke-width: 0.21166"/>
     <use xlink:href="#m5b1dc93009" x="58.446046" y="184.735442" style="fill: #21918c; fill-opacity: 0.9; stroke: #ffffff; stroke-opacity: 0.9; stroke-width: 0.21166"/>
     <use xlink:href="#m5b1dc93009" x="59.114533" y="169.369611" style="fill: #21918c; fill-opacity: 0.9; stroke: #ffffff; stroke-opacity: 0.9; stroke-width: 0.21166"/>
     <use xlink:href="#m5b1dc93009" x="59.764704" y="80.887987" style="fill: #21918c; fill-opacity: 0.9; stroke: #ffffff; stroke-opacity: 0.9; stroke-width: 0.21166"/>
     <use xlink:href="#m5b1dc93009" x="60.397534" y="142.150603" style="fill: #21918c; fill-opacity: 0.9; stroke: #ffffff; stroke-opacity: 0.9; stroke-width: 0.21166"/>
     <use xlink:href="#m5b1dc93009" x="61.013926" y="85.179934" style="fill: #21918c; fill-opacity: 0.9; stroke: #ffffff; stroke-opacity: 0.9; stroke-width: 0.21166"/>
     <use xlink:href="#m5b1dc93009" x="62.772488" y="183.392031" style="fill: #21918c; fill-opacity: 0.9; stroke: #ffffff; stroke-opacity: 0.9; stroke-width: 0.21166"/>
     <use xlink:href="#m5b1dc93009" x="64.409671" y="187.889918" style="fill: #21918c; fill-opacity: 0.9; stroke: #ffffff; stroke-opacity: 0.9; stroke-width: 0.21166"/>
     <use xlink:href="#m5b1dc93009" x="64.931225" y="126.457794" style="fill: #21918c; fill-opacity: 0.9; stroke: #ffffff; stroke-opacity: 0.9; stroke-width: 0.21166"/>
     <use xlink:href="#m5b1dc93009" x="65.941153" y="129.903441" style="fill: #21918c; fill-opacity: 0.9; stroke: #ffffff; stroke-opacity: 0.9; stroke-width: 0.21166"/>
     <use xlink:href="#m5b1dc93009" x="65.941153" y="145.718787" style="fill: #21918c; fill-opacity: 0.9; stroke: #ffffff; stroke-opacity: 0.9; stroke-width: 0.21166"/>
     <use xlink:href="#m5b1dc93009" x="66.909848" y="48.359237" style="fill: #21918c; fill-opacity: 0.9; stroke: #ffffff; stroke-opacity: 0.9; stroke-width: 0.21166"/>
     <use xlink:href="#m5b1dc93009" x="67.840546" y="46.96056" style="fill: #21918c; fill-opacity: 0.9; stroke: #ffffff; stroke-opacity: 0.9; stroke-width: 0.21166"/>
     <use xlink:href="#m5b1dc93009" x="67.840546" y="180.122418" style="fill: #21918c; fill-opacity: 0.9; stroke: #ffffff; stroke-opacity: 0.9; stroke-width: 0.21166"/>
     <use xlink:href="#m5b1dc93009" x="68.736114" y="133.987233" style="fill: #21918c; fill-opacity: 0.9; stroke: #ffffff; stroke-opacity: 0.9; stroke-width: 0.21166"/>
     <use xlink:href="#m5b1dc93009" x="69.171534" y="190.074747" style="fill: #21918c; fill-opacity: 0.9; stroke: #ffffff; stroke-opacity: 0.9; stroke-width: 0.21166"/>
     <use xlink:href="#m5b1dc93009" x="72.014385" y="193.149219" style="fill: #21918c; fill-opacity: 0.9; stroke: #ffffff; stroke-opacity: 0.9; stroke-width: 0.21166"/>
     <use xlink:href="#m5b1dc93009" x="73.854822" y="138.72941" style="fill: #21918c; fill-opacity: 0.9; stroke: #ffffff; stroke-opacity: 0.9; stroke-width: 0.21166"/>
     <use xlink:href="#m5b1dc93009" x="73.854822" y="192.604422" style="fill: #21918c; fill-opacity: 0.9; stroke: #ffffff; stroke-opacity: 0.9; stroke-width: 0.21166"/>
     <use xlink:href="#m5b1dc93009" x="74.20638" y="143.353241" style="fill: #21918c; fill-opacity: 0.9; stroke: #ffffff; stroke-opacity: 0.9; stroke-width: 0.21166"/>
     <use xlink:href="#m5b1dc93009" x="74.552805" y="27.510657" style="fill: #21918c; fill-opacity: 0.9; stroke: #ffffff; stroke-opacity: 0.9; stroke-width: 0.21166"/>
     <use xlink:href="#m5b1dc93009" x="74.894246" y="76.816961" style="fill: #21918c; fill-opacity: 0.9; stroke: #ffffff; stroke-opacity: 0.9; stroke-width: 0.21166"/>
     <use xlink:href="#m5b1dc93009" x="76.212904" y="187.016437" style="fill: #21918c; fill-opacity: 0.9; stroke: #ffffff; stroke-opacity: 0.9; stroke-width: 0.21166"/>
     <use xlink:href="#m5b1dc93009" x="77.155932" y="187.455698" style="fill: #21918c; fill-opacity: 0.9; stroke: #ffffff; stroke-opacity: 0.9; stroke-width: 0.21166"/>
     <use xlink:href="#m5b1dc93009" x="78.648861" y="197.174661" style="fill: #21918c; fill-opacity: 0.9; stroke: #ffffff; stroke-opacity: 0.9; stroke-width: 0.21166"/>
     <use xlink:href="#m5b1dc93009" x="80.053397" y="153.984245" style="fill: #21918c; fill-opacity: 0.9; stroke: #ffffff; stroke-opacity: 0.9; stroke-width: 0.21166"/>
     <use xlink:href="#m5b1dc93009" x="80.324597" y="161.700768" style="fill: #21918c; fill-opacity: 0.9; stroke: #ffffff; stroke-opacity: 0.9; stroke-width: 0.21166"/>
     <use xlink:href="#m5b1dc93009" x="80.857872" y="61.364329" style="fill: #21918c; fill-opacity: 0.9; stroke: #ffffff; stroke-opacity: 0.9; stroke-width: 0.21166"/>
     <use xlink:href="#m5b1dc93009" x="83.827961" y="200.588818" style="fill: #21918c; fill-opacity: 0.9; stroke: #ffffff; stroke-opacity: 0.9; stroke-width: 0.21166"/>
     <use xlink:href="#m5b1dc93009" x="84.288747" y="151.963019" style="fill: #21918c; fill-opacity: 0.9; stroke: #ffffff; stroke-opacity: 0.9; stroke-width: 0.21166"/>
     <use xlink:href="#m5b1dc93009" x="84.963571" y="201.4481" style="fill: #21918c; fill-opacity: 0.9; stroke: #ffffff; stroke-opacity: 0.9; stroke-width: 0.21166"/>
     <use xlink:href="#m5b1dc93009" x="84.963571" y="191.64846" style="fill: #21918c; fill-opacity: 0.9; stroke: #ffffff; stroke-opacity: 0.9; stroke-width: 0.21166"/>
     <use xlink:href="#m5b1dc93009" x="86.880017" y="190.369238" style="fill: #21918c; fill-opacity: 0.9; stroke: #ffffff; stroke-opacity: 0.9; stroke-width: 0.21166"/>
     <use xlink:href="#m5b1dc93009" x="87.485916" y="189.537375" style="fill: #21918c; fill-opacity: 0.9; stroke: #ffffff; stroke-opacity: 0.9; stroke-width: 0.21166"/>
     <use xlink:href="#m5b1dc93009" x="88.076728" y="196.619217" style="fill: #21918c; fill-opacity: 0.9; stroke: #ffffff; stroke-opacity: 0.9; stroke-width: 0.21166"/>
     <use xlink:href="#m5b1dc93009" x="89.765723" y="196.35423" style="fill: #21918c; fill-opacity: 0.9; stroke: #ffffff; stroke-opacity: 0.9; stroke-width: 0.21166"/>
     <use xlink:href="#m5b1dc93009" x="90.303023" y="190.54082" style="fill: #21918c; fill-opacity: 0.9; stroke: #ffffff; stroke-opacity: 0.9; stroke-width: 0.21166"/>
     <use xlink:href="#m5b1dc93009" x="90.828426" y="110.573053" style="fill: #21918c; fill-opacity: 0.9; stroke: #ffffff; stroke-opacity: 0.9; stroke-width: 0.21166"/>
     <use xlink:href="#m5b1dc93009" x="94.212621" y="129.857877" style="fill: #21918c; fill-opacity: 0.9; stroke: #ffffff; stroke-opacity: 0.9; stroke-width: 0.21166"/>
     <use xlink:href="#m5b1dc93009" x="94.658962" y="193.420785" style="fill: #21918c; fill-opacity: 0.9; stroke: #ffffff; stroke-opacity: 0.9; stroke-width: 0.21166"/>
     <use xlink:href="#m5b1dc93009" x="94.805895" y="203.744631" style="fill: #21918c; fill-opacity: 0.9; stroke: #ffffff; stroke-opacity: 0.9; stroke-width: 0.21166"/>
     <use xlink:href="#m5b1dc93009" x="95.384698" y="158.724394" style="fill: #21918c; fill-opacity: 0.9; stroke: #ffffff; stroke-opacity: 0.9; stroke-width: 0.21166"/>
     <use xlink:href="#m5b1dc93009" x="95.80972" y="167.308126" style="fill: #21918c; fill-opacity: 0.9; stroke: #ffffff; stroke-opacity: 0.9; stroke-width: 0.21166"/>
     <use xlink:href="#m5b1dc93009" x="96.088896" y="204.351179" style="fill: #21918c; fill-opacity: 0.9; stroke: #ffffff; stroke-opacity: 0.9; stroke-width: 0.21166"/>
     <use xlink:href="#m5b1dc93009" x="100.042369" y="203.823156" style="fill: #21918c; fill-opacity: 0.9; stroke: #ffffff; stroke-opacity: 0.9; stroke-width: 0.21166"/>
     <use xlink:href="#m5b1dc93009" x="101.076759" y="204.702117" style="fill: #21918c; fill-opacity: 0.9; stroke: #ffffff; stroke-opacity: 0.9; stroke-width: 0.21166"/>
     <use xlink:href="#m5b1dc93009" x="101.632516" y="188.811784" style="fill: #21918c; fill-opacity: 0.9; stroke: #ffffff; stroke-opacity: 0.9; stroke-width: 0.21166"/>
     <use xlink:href="#m5b1dc93009" x="101.959827" y="152.98445" style="fill: #21918c; fill-opacity: 0.9; stroke: #ffffff; stroke-opacity: 0.9; stroke-width: 0.21166"/>
     <use xlink:href="#m5b1dc93009" x="102.706443" y="188.686213" style="fill: #21918c; fill-opacity: 0.9; stroke: #ffffff; stroke-opacity: 0.9; stroke-width: 0.21166"/>
     <use xlink:href="#m5b1dc93009" x="102.915517" y="185.522327" style="fill: #21918c; fill-opacity: 0.9; stroke: #ffffff; stroke-opacity: 0.9; stroke-width: 0.21166"/>
     <use xlink:href="#m5b1dc93009" x="103.225714" y="206.208884" style="fill: #21918c; fill-opacity: 0.9; stroke: #ffffff; stroke-opacity: 0.9; stroke-width: 0.21166"/>
     <use xlink:href="#m5b1dc93009" x="103.225714" y="192.934168" style="fill: #21918c; fill-opacity: 0.9; stroke: #ffffff; stroke-opacity: 0.9; stroke-width: 0.21166"/>
     <use xlink:href="#m5b1dc93009" x="104.329621" y="197.013169" style="fill: #21918c; fill-opacity: 0.9; stroke: #ffffff; stroke-opacity: 0.9; stroke-width: 0.21166"/>
     <use xlink:href="#m5b1dc93009" x="105.940641" y="195.632697" style="fill: #21918c; fill-opacity: 0.9; stroke: #ffffff; stroke-opacity: 0.9; stroke-width: 0.21166"/>
     <use xlink:href="#m5b1dc93009" x="109.269103" y="193.424559" style="fill: #21918c; fill-opacity: 0.9; stroke: #ffffff; stroke-opacity: 0.9; stroke-width: 0.21166"/>
     <use xlink:href="#m5b1dc93009" x="109.506799" y="150.280748" style="fill: #21918c; fill-opacity: 0.9; stroke: #ffffff; stroke-opacity: 0.9; stroke-width: 0.21166"/>
     <use xlink:href="#m5b1dc93009" x="111.107162" y="206.009269" style="fill: #21918c; fill-opacity: 0.9; stroke: #ffffff; stroke-opacity: 0.9; stroke-width: 0.21166"/>
     <use xlink:href="#m5b1dc93009" x="111.400126" y="170.939814" style="fill: #21918c; fill-opacity: 0.9; stroke: #ffffff; stroke-opacity: 0.9; stroke-width: 0.21166"/>
     <use xlink:href="#m5b1dc93009" x="111.761316" y="204.420933" style="fill: #21918c; fill-opacity: 0.9; stroke: #ffffff; stroke-opacity: 0.9; stroke-width: 0.21166"/>
     <use xlink:href="#m5b1dc93009" x="112.328023" y="204.679036" style="fill: #21918c; fill-opacity: 0.9; stroke: #ffffff; stroke-opacity: 0.9; stroke-width: 0.21166"/>
     <use xlink:href="#m5b1dc93009" x="115.653666" y="205.947347" style="fill: #21918c; fill-opacity: 0.9; stroke: #ffffff; stroke-opacity: 0.9; stroke-width: 0.21166"/>
     <use xlink:href="#m5b1dc93009" x="115.95596" y="196.296485" style="fill: #21918c; fill-opacity: 0.9; stroke: #ffffff; stroke-opacity: 0.9; stroke-width: 0.21166"/>
     <use xlink:href="#m5b1dc93009" x="116.372804" y="206.571603" style="fill: #21918c; fill-opacity: 0.9; stroke: #ffffff; stroke-opacity: 0.9; stroke-width: 0.21166"/>
     <use xlink:href="#m5b1dc93009" x="117.355662" y="204.082339" style="fill: #21918c; fill-opacity: 0.9; stroke: #ffffff; stroke-opacity: 0.9; stroke-width: 0.21166"/>
     <use xlink:href="#m5b1dc93009" x="117.748827" y="195.15154" style="fill: #21918c; fill-opacity: 0.9; stroke: #ffffff; stroke-opacity: 0.9; stroke-width: 0.21166"/>
     <use xlink:href="#m5b1dc93009" x="118.025723" y="204.379341" style="fill: #21918c; fill-opacity: 0.9; stroke: #ffffff; stroke-opacity: 0.9; stroke-width: 0.21166"/>
     <use xlink:href="#m5b1dc93009" x="120.679562" y="197.532651" style="fill: #21918c; fill-opacity: 0.9; stroke: #ffffff; stroke-opacity: 0.9; stroke-width: 0.21166"/>
     <use xlink:href="#m5b1dc93009" x="122.251012" y="197.553711" style="fill: #21918c; fill-opacity: 0.9; stroke: #ffffff; stroke-opacity: 0.9; stroke-width: 0.21166"/>
     <use xlink:href="#m5b1dc93009" x="123.98323" y="207.418567" style="fill: #21918c; fill-opacity: 0.9; stroke: #ffffff; stroke-opacity: 0.9; stroke-width: 0.21166"/>
     <use xlink:href="#m5b1dc93009" x="124.196437" y="203.634421" style="fill: #21918c; fill-opacity: 0.9; stroke: #ffffff; stroke-opacity: 0.9; stroke-width: 0.21166"/>
     <use xlink:href="#m5b1dc93009" x="124.658855" y="208.092572" style="fill: #21918c; fill-opacity: 0.9; stroke: #ffffff; stroke-opacity: 0.9; stroke-width: 0.21166"/>
     <use xlink:href="#m5b1dc93009" x="124.866103" y="202.919601" style="fill: #21918c; fill-opacity: 0.9; stroke: #ffffff; stroke-opacity: 0.9; stroke-width: 0.21166"/>
     <use xlink:href="#m5b1dc93009" x="127.481554" y="206.622616" style="fill: #21918c; fill-opacity: 0.9; stroke: #ffffff; stroke-opacity: 0.9; stroke-width: 0.21166"/>
     <use xlink:href="#m5b1dc93009" x="128.670992" y="204.460117" style="fill: #21918c; fill-opacity: 0.9; stroke: #ffffff; stroke-opacity: 0.9; stroke-width: 0.21166"/>
     <use xlink:href="#m5b1dc93009" x="131.17117" y="199.060048" style="fill: #21918c; fill-opacity: 0.9; stroke: #ffffff; stroke-opacity: 0.9; stroke-width: 0.21166"/>
     <use xlink:href="#m5b1dc93009" x="131.328843" y="209.413585" style="fill: #21918c; fill-opacity: 0.9; stroke: #ffffff; stroke-opacity: 0.9; stroke-width: 0.21166"/>
     <use xlink:href="#m5b1dc93009" x="131.795673" y="209.422391" style="fill: #21918c; fill-opacity: 0.9; stroke: #ffffff; stroke-opacity: 0.9; stroke-width: 0.21166"/>
     <use xlink:href="#m5b1dc93009" x="132.071425" y="199.550814" style="fill: #21918c; fill-opacity: 0.9; stroke: #ffffff; stroke-opacity: 0.9; stroke-width: 0.21166"/>
     <use xlink:href="#m5b1dc93009" x="132.761902" y="209.057197" style="fill: #21918c; fill-opacity: 0.9; stroke: #ffffff; stroke-opacity: 0.9; stroke-width: 0.21166"/>
     <use xlink:href="#m5b1dc93009" x="133.114331" y="205.223123" style="fill: #21918c; fill-opacity: 0.9; stroke: #ffffff; stroke-opacity: 0.9; stroke-width: 0.21166"/>
     <use xlink:href="#m5b1dc93009" x="133.259645" y="194.617435" style="fill: #21918c; fill-opacity: 0.9; stroke: #ffffff; stroke-opacity: 0.9; stroke-width: 0.21166"/>
     <use xlink:href="#m5b1dc93009" x="133.718759" y="207.352436" style="fill: #21918c; fill-opacity: 0.9; stroke: #ffffff; stroke-opacity: 0.9; stroke-width: 0.21166"/>
     <use xlink:href="#m5b1dc93009" x="139.691856" y="196.450164" style="fill: #21918c; fill-opacity: 0.9; stroke: #ffffff; stroke-opacity: 0.9; stroke-width: 0.21166"/>
     <use xlink:href="#m5b1dc93009" x="139.802073" y="207.886505" style="fill: #21918c; fill-opacity: 0.9; stroke: #ffffff; stroke-opacity: 0.9; stroke-width: 0.21166"/>
     <use xlink:href="#m5b1dc93009" x="140.897982" y="208.026454" style="fill: #21918c; fill-opacity: 0.9; stroke: #ffffff; stroke-opacity: 0.9; stroke-width: 0.21166"/>
     <use xlink:href="#m5b1dc93009" x="141.086232" y="205.086268" style="fill: #21918c; fill-opacity: 0.9; stroke: #ffffff; stroke-opacity: 0.9; stroke-width: 0.21166"/>
     <use xlink:href="#m5b1dc93009" x="146.28534" y="206.648048" style="fill: #21918c; fill-opacity: 0.9; stroke: #ffffff; stroke-opacity: 0.9; stroke-width: 0.21166"/>
     <use xlink:href="#m5b1dc93009" x="146.435476" y="210.132717" style="fill: #21918c; fill-opacity: 0.9; stroke: #ffffff; stroke-opacity: 0.9; stroke-width: 0.21166"/>
     <use xlink:href="#m5b1dc93009" x="147.460643" y="209.410774" style="fill: #21918c; fill-opacity: 0.9; stroke: #ffffff; stroke-opacity: 0.9; stroke-width: 0.21166"/>
     <use xlink:href="#m5b1dc93009" x="147.603546" y="208.119233" style="fill: #21918c; fill-opacity: 0.9; stroke: #ffffff; stroke-opacity: 0.9; stroke-width: 0.21166"/>
     <use xlink:href="#m5b1dc93009" x="155.216429" y="211.15454" style="fill: #21918c; fill-opacity: 0.9; stroke: #ffffff; stroke-opacity: 0.9; stroke-width: 0.21166"/>
     <use xlink:href="#m5b1dc93009" x="155.319577" y="210.889865" style="fill: #21918c; fill-opacity: 0.9; stroke: #ffffff; stroke-opacity: 0.9; stroke-width: 0.21166"/>
     <use xlink:href="#m5b1dc93009" x="155.581158" y="210.567464" style="fill: #21918c; fill-opacity: 0.9; stroke: #ffffff; stroke-opacity: 0.9; stroke-width: 0.21166"/>
     <use xlink:href="#m5b1dc93009" x="155.682736" y="209.322563" style="fill: #21918c; fill-opacity: 0.9; stroke: #ffffff; stroke-opacity: 0.9; stroke-width: 0.21166"/>
     <use xlink:href="#m5b1dc93009" x="162.243204" y="209.239011" style="fill: #21918c; fill-opacity: 0.9; stroke: #ffffff; stroke-opacity: 0.9; stroke-width: 0.21166"/>
     <use xlink:href="#m5b1dc93009" x="162.319958" y="209.360553" style="fill: #21918c; fill-opacity: 0.9; stroke: #ffffff; stroke-opacity: 0.9; stroke-width: 0.21166"/>
     <use xlink:href="#m5b1dc93009" x="162.582449" y="209.183303" style="fill: #21918c; fill-opacity: 0.9; stroke: #ffffff; stroke-opacity: 0.9; stroke-width: 0.21166"/>
     <use xlink:href="#m5b1dc93009" x="162.725172" y="208.822772" style="fill: #21918c; fill-opacity: 0.9; stroke: #ffffff; stroke-opacity: 0.9; stroke-width: 0.21166"/>
     <use xlink:href="#m5b1dc93009" x="164.583966" y="210.805477" style="fill: #21918c; fill-opacity: 0.9; stroke: #ffffff; stroke-opacity: 0.9; stroke-width: 0.21166"/>
     <use xlink:href="#m5b1dc93009" x="164.653521" y="206.864155" style="fill: #21918c; fill-opacity: 0.9; stroke: #ffffff; stroke-opacity: 0.9; stroke-width: 0.21166"/>
     <use xlink:href="#m5b1dc93009" x="171.282537" y="210.503387" style="fill: #21918c; fill-opacity: 0.9; stroke: #ffffff; stroke-opacity: 0.9; stroke-width: 0.21166"/>
     <use xlink:href="#m5b1dc93009" x="171.335004" y="208.467972" style="fill: #21918c; fill-opacity: 0.9; stroke: #ffffff; stroke-opacity: 0.9; stroke-width: 0.21166"/>
     <use xlink:href="#m5b1dc93009" x="171.927344" y="208.979579" style="fill: #21918c; fill-opacity: 0.9; stroke: #ffffff; stroke-opacity: 0.9; stroke-width: 0.21166"/>
     <use xlink:href="#m5b1dc93009" x="172.023703" y="210.115658" style="fill: #21918c; fill-opacity: 0.9; stroke: #ffffff; stroke-opacity: 0.9; stroke-width: 0.21166"/>
     <use xlink:href="#m5b1dc93009" x="177.989214" y="210.724455" style="fill: #21918c; fill-opacity: 0.9; stroke: #ffffff; stroke-opacity: 0.9; stroke-width: 0.21166"/>
     <use xlink:href="#m5b1dc93009" x="178.063884" y="211.825661" style="fill: #21918c; fill-opacity: 0.9; stroke: #ffffff; stroke-opacity: 0.9; stroke-width: 0.21166"/>
     <use xlink:href="#m5b1dc93009" x="178.614402" y="209.533118" style="fill: #21918c; fill-opacity: 0.9; stroke: #ffffff; stroke-opacity: 0.9; stroke-width: 0.21166"/>
     <use xlink:href="#m5b1dc93009" x="178.687134" y="209.605715" style="fill: #21918c; fill-opacity: 0.9; stroke: #ffffff; stroke-opacity: 0.9; stroke-width: 0.21166"/>
     <use xlink:href="#m5b1dc93009" x="187.253239" y="211.051303" style="fill: #21918c; fill-opacity: 0.9; stroke: #ffffff; stroke-opacity: 0.9; stroke-width: 0.21166"/>
     <use xlink:href="#m5b1dc93009" x="187.3038" y="211.473141" style="fill: #21918c; fill-opacity: 0.9; stroke: #ffffff; stroke-opacity: 0.9; stroke-width: 0.21166"/>
     <use xlink:href="#m5b1dc93009" x="187.44303" y="210.446277" style="fill: #21918c; fill-opacity: 0.9; stroke: #ffffff; stroke-opacity: 0.9; stroke-width: 0.21166"/>
     <use xlink:href="#m5b1dc93009" x="187.493189" y="212.301652" style="fill: #21918c; fill-opacity: 0.9; stroke: #ffffff; stroke-opacity: 0.9; stroke-width: 0.21166"/>
     <use xlink:href="#m5b1dc93009" x="194.185321" y="211.845166" style="fill: #21918c; fill-opacity: 0.9; stroke: #ffffff; stroke-opacity: 0.9; stroke-width: 0.21166"/>
     <use xlink:href="#m5b1dc93009" x="194.223085" y="210.542408" style="fill: #21918c; fill-opacity: 0.9; stroke: #ffffff; stroke-opacity: 0.9; stroke-width: 0.21166"/>
     <use xlink:href="#m5b1dc93009" x="194.362509" y="210.11349" style="fill: #21918c; fill-opacity: 0.9; stroke: #ffffff; stroke-opacity: 0.9; stroke-width: 0.21166"/>
     <use xlink:href="#m5b1dc93009" x="194.435215" y="209.643888" style="fill: #21918c; fill-opacity: 0.9; stroke: #ffffff; stroke-opacity: 0.9; stroke-width: 0.21166"/>
     <use xlink:href="#m5b1dc93009" x="196.745448" y="211.848222" style="fill: #21918c; fill-opacity: 0.9; stroke: #ffffff; stroke-opacity: 0.9; stroke-width: 0.21166"/>
     <use xlink:href="#m5b1dc93009" x="196.779351" y="212.159371" style="fill: #21918c; fill-opacity: 0.9; stroke: #ffffff; stroke-opacity: 0.9; stroke-width: 0.21166"/>
     <use xlink:href="#m5b1dc93009" x="203.507116" y="212.671177" style="fill: #21918c; fill-opacity: 0.9; stroke: #ffffff; stroke-opacity: 0.9; stroke-width: 0.21166"/>
     <use xlink:href="#m5b1dc93009" x="203.532618" y="211.908817" style="fill: #21918c; fill-opacity: 0.9; stroke: #ffffff; stroke-opacity: 0.9; stroke-width: 0.21166"/>
     <use xlink:href="#m5b1dc93009" x="203.840966" y="209.787433" style="fill: #21918c; fill-opacity: 0.9; stroke: #ffffff; stroke-opacity: 0.9; stroke-width: 0.21166"/>
     <use xlink:href="#m5b1dc93009" x="203.889754" y="208.789309" style="fill: #21918c; fill-opacity: 0.9; stroke: #ffffff; stroke-opacity: 0.9; stroke-width: 0.21166"/>
     <use xlink:href="#m5b1dc93009" x="210.272871" y="210.195776" style="fill: #21918c; fill-opacity: 0.9; stroke: #ffffff; stroke-opacity: 0.9; stroke-width: 0.21166"/>
     <use xlink:href="#m5b1dc93009" x="210.310085" y="211.040335" style="fill: #21918c; fill-opacity: 0.9; stroke: #ffffff; stroke-opacity: 0.9; stroke-width: 0.21166"/>
     <use xlink:href="#m5b1dc93009" x="210.595699" y="207.881432" style="fill: #21918c; fill-opacity: 0.9; stroke: #ffffff; stroke-opacity: 0.9; stroke-width: 0.21166"/>
     <use xlink:href="#m5b1dc93009" x="210.632411" y="210.661908" style="fill: #21918c; fill-opacity: 0.9; stroke: #ffffff; stroke-opacity: 0.9; stroke-width: 0.21166"/>
     <use xlink:href="#m5b1dc93009" x="219.712428" y="212.345588" style="fill: #21918c; fill-opacity: 0.9; stroke: #ffffff; stroke-opacity: 0.9; stroke-width: 0.21166"/>
     <use xlink:href="#m5b1dc93009" x="219.737435" y="213.153956" style="fill: #21918c; fill-opacity: 0.9; stroke: #ffffff; stroke-opacity: 0.9; stroke-width: 0.21166"/>
     <use xlink:href="#m5b1dc93009" x="219.809278" y="209.986323" style="fill: #21918c; fill-opacity: 0.9; stroke: #ffffff; stroke-opacity: 0.9; stroke-width: 0.21166"/>
     <use xlink:href="#m5b1dc93009" x="219.834183" y="211.617162" style="fill: #21918c; fill-opacity: 0.9; stroke: #ffffff; stroke-opacity: 0.9; stroke-width: 0.21166"/>
     <use xlink:href="#m5b1dc93009" x="226.593197" y="212.706525" style="fill: #21918c; fill-opacity: 0.9; stroke: #ffffff; stroke-opacity: 0.9; stroke-width: 0.21166"/>
     <use xlink:href="#m5b1dc93009" x="226.611912" y="212.92192" style="fill: #21918c; fill-opacity: 0.9; stroke: #ffffff; stroke-opacity: 0.9; stroke-width: 0.21166"/>
     <use xlink:href="#m5b1dc93009" x="229.268715" y="212.957991" style="fill: #21918c; fill-opacity: 0.9; stroke: #ffffff; stroke-opacity: 0.9; stroke-width: 0.21166"/>
     <use xlink:href="#m5b1dc93009" x="229.285435" y="212.160802" style="fill: #21918c; fill-opacity: 0.9; stroke: #ffffff; stroke-opacity: 0.9; stroke-width: 0.21166"/>
     <use xlink:href="#m5b1dc93009" x="236.062621" y="212.13903" style="fill: #21918c; fill-opacity: 0.9; stroke: #ffffff; stroke-opacity: 0.9; stroke-width: 0.21166"/>
     <use xlink:href="#m5b1dc93009" x="236.075179" y="213.514412" style="fill: #21918c; fill-opacity: 0.9; stroke: #ffffff; stroke-opacity: 0.9; stroke-width: 0.21166"/>
    </g>
   </g>
   <g id="line2d_13">
    <path d="M 38.339889 149.157555 
L 52.287913 149.236229 
L 56.319573 182.643766 
L 58.446046 184.735442 
L 64.409671 187.889918 
L 69.171534 190.074747 
L 72.014385 193.149219 
L 78.648861 197.174661 
L 83.827961 200.588818 
L 84.963571 201.4481 
L 94.805895 203.744631 
L 96.088896 204.351179 
L 101.076759 204.702117 
L 103.225714 206.208884 
L 116.372804 206.571603 
L 123.98323 207.418567 
L 124.658855 208.092572 
L 131.328843 209.413585 
L 131.795673 209.422391 
L 146.435476 210.132717 
L 155.216429 211.15454 
L 178.063884 211.825661 
L 187.493189 212.301652 
L 203.507116 212.671177 
L 219.737435 213.153956 
L 236.075179 213.514412 
" clip-path="url(#p667fb94f32)" style="fill: none; stroke-dasharray: 7.4,3.2; stroke-dashoffset: 0; stroke: #482475; stroke-width: 2"/>
   </g>
   <g id="patch_3">
    <path d="M 28.453125 222.8146 
L 28.453125 18.210469 
" style="fill: none; stroke: #000000; stroke-width: 0.8; stroke-linejoin: miter; stroke-linecap: square"/>
   </g>
   <g id="patch_4">
    <path d="M 245.961944 222.8146 
L 245.961944 18.210469 
" style="fill: none; stroke: #000000; stroke-width: 0.8; stroke-linejoin: miter; stroke-linecap: square"/>
   </g>
   <g id="patch_5">
    <path d="M 28.453125 222.8146 
L 245.961944 222.8146 
" style="fill: none; stroke: #000000; stroke-width: 0.8; stroke-linejoin: miter; stroke-linecap: square"/>
   </g>
   <g id="patch_6">
    <path d="M 28.453125 18.210469 
L 245.961944 18.210469 
" style="fill: none; stroke: #000000; stroke-width: 0.8; stroke-linejoin: miter; stroke-linecap: square"/>
   </g>
   <g id="text_15">
    <!-- Performance vs. Size at 48mA -->
    <g style="fill: #262626" transform="translate(89.941128 12.210469) scale(0.07 -0.07)">
     <defs>
      <path id="ArialMT-76" d="M 1344 0 
L 81 3319 
L 675 3319 
L 1388 1331 
Q 1503 1009 1600 663 
Q 1675 925 1809 1294 
L 2547 3319 
L 3125 3319 
L 1869 0 
L 1344 0 
z
" transform="scale(0.015625)"/>
      <path id="ArialMT-2e" d="M 581 0 
L 581 641 
L 1222 641 
L 1222 0 
L 581 0 
z
" transform="scale(0.015625)"/>
      <path id="ArialMT-7a" d="M 125 0 
L 125 456 
L 2238 2881 
Q 1878 2863 1603 2863 
L 250 2863 
L 250 3319 
L 2963 3319 
L 2963 2947 
L 1166 841 
L 819 456 
Q 1197 484 1528 484 
L 3063 484 
L 3063 0 
L 125 0 
z
" transform="scale(0.015625)"/>
      <path id="ArialMT-41" d="M -9 0 
L 1750 4581 
L 2403 4581 
L 4278 0 
L 3588 0 
L 3053 1388 
L 1138 1388 
L 634 0 
L -9 0 
z
M 1313 1881 
L 2866 1881 
L 2388 3150 
Q 2169 3728 2063 4100 
Q 1975 3659 1816 3225 
L 1313 1881 
z
" transform="scale(0.015625)"/>
     </defs>
     <use xlink:href="#ArialMT-50"/>
     <use xlink:href="#ArialMT-65" transform="translate(66.699219 0)"/>
     <use xlink:href="#ArialMT-72" transform="translate(122.314453 0)"/>
     <use xlink:href="#ArialMT-66" transform="translate(155.615234 0)"/>
     <use xlink:href="#ArialMT-6f" transform="translate(183.398438 0)"/>
     <use xlink:href="#ArialMT-72" transform="translate(239.013672 0)"/>
     <use xlink:href="#ArialMT-6d" transform="translate(272.314453 0)"/>
     <use xlink:href="#ArialMT-61" transform="translate(355.615234 0)"/>
     <use xlink:href="#ArialMT-6e" transform="translate(411.230469 0)"/>
     <use xlink:href="#ArialMT-63" transform="translate(466.845703 0)"/>
     <use xlink:href="#ArialMT-65" transform="translate(516.845703 0)"/>
     <use xlink:href="#ArialMT-20" transform="translate(572.460938 0)"/>
     <use xlink:href="#ArialMT-76" transform="translate(600.244141 0)"/>
     <use xlink:href="#ArialMT-73" transform="translate(650.244141 0)"/>
     <use xlink:href="#ArialMT-2e" transform="translate(700.244141 0)"/>
     <use xlink:href="#ArialMT-20" transform="translate(728.027344 0)"/>
     <use xlink:href="#ArialMT-53" transform="translate(755.810547 0)"/>
     <use xlink:href="#ArialMT-69" transform="translate(822.509766 0)"/>
     <use xlink:href="#ArialMT-7a" transform="translate(844.726562 0)"/>
     <use xlink:href="#ArialMT-65" transform="translate(894.726562 0)"/>
     <use xlink:href="#ArialMT-20" transform="translate(950.341797 0)"/>
     <use xlink:href="#ArialMT-61" transform="translate(978.125 0)"/>
     <use xlink:href="#ArialMT-74" transform="translate(1033.740234 0)"/>
     <use xlink:href="#ArialMT-20" transform="translate(1061.523438 0)"/>
     <use xlink:href="#ArialMT-34" transform="translate(1089.306641 0)"/>
     <use xlink:href="#ArialMT-38" transform="translate(1144.921875 0)"/>
     <use xlink:href="#ArialMT-6d" transform="translate(1200.537109 0)"/>
     <use xlink:href="#ArialMT-41" transform="translate(1283.837891 0)"/>
    </g>
   </g>
   <g id="legend_1">
    <g id="patch_7">
     <path d="M 204.507256 36.355781 
L 242.461944 36.355781 
Q 243.461944 36.355781 243.461944 35.355781 
L 243.461944 21.710469 
Q 243.461944 20.710469 242.461944 20.710469 
L 204.507256 20.710469 
Q 203.507256 20.710469 203.507256 21.710469 
L 203.507256 35.355781 
Q 203.507256 36.355781 204.507256 36.355781 
z
" style="fill: #ffffff; opacity: 0.8; stroke: #cccccc; stroke-linejoin: miter"/>
    </g>
    <g id="PathCollection_2">
     <g>
      <use xlink:href="#m5b1dc93009" x="210.507256" y="24.976875" style="fill: #21918c; fill-opacity: 0.9; stroke: #ffffff; stroke-opacity: 0.9; stroke-width: 0.21166"/>
     </g>
    </g>
    <g id="text_16">
     <!-- All Runs -->
     <g style="fill: #262626" transform="translate(219.507256 26.289375) scale(0.05 -0.05)">
      <use xlink:href="#ArialMT-41"/>
      <use xlink:href="#ArialMT-6c" transform="translate(66.699219 0)"/>
      <use xlink:href="#ArialMT-6c" transform="translate(88.916016 0)"/>
      <use xlink:href="#ArialMT-20" transform="translate(111.132812 0)"/>
      <use xlink:href="#ArialMT-52" transform="translate(138.916016 0)"/>
      <use xlink:href="#ArialMT-75" transform="translate(211.132812 0)"/>
      <use xlink:href="#ArialMT-6e" transform="translate(266.748047 0)"/>
      <use xlink:href="#ArialMT-73" transform="translate(322.363281 0)"/>
     </g>
    </g>
    <g id="line2d_14">
     <path d="M 205.507256 31.612031 
L 210.507256 31.612031 
L 215.507256 31.612031 
" style="fill: none; stroke-dasharray: 7.4,3.2; stroke-dashoffset: 0; stroke: #482475; stroke-width: 2"/>
    </g>
    <g id="text_17">
     <!-- Best Loss -->
     <g style="fill: #262626" transform="translate(219.507256 33.362031) scale(0.05 -0.05)">
      <use xlink:href="#ArialMT-42"/>
      <use xlink:href="#ArialMT-65" transform="translate(66.699219 0)"/>
      <use xlink:href="#ArialMT-73" transform="translate(122.314453 0)"/>
      <use xlink:href="#ArialMT-74" transform="translate(172.314453 0)"/>
      <use xlink:href="#ArialMT-20" transform="translate(200.097656 0)"/>
      <use xlink:href="#ArialMT-4c" transform="translate(227.880859 0)"/>
      <use xlink:href="#ArialMT-6f" transform="translate(283.496094 0)"/>
      <use xlink:href="#ArialMT-73" transform="translate(339.111328 0)"/>
      <use xlink:href="#ArialMT-73" transform="translate(389.111328 0)"/>
     </g>
    </g>
   </g>
  </g>
 </g>
 <defs>
  <clipPath id="p667fb94f32">
   <rect x="28.453125" y="18.210469" width="217.508819" height="204.604131"/>
  </clipPath>
 </defs>
</svg>
