<?xml version="1.0" encoding="utf-8" standalone="no"?>
<!DOCTYPE svg PUBLIC "-//W3C//DTD SVG 1.1//EN"
  "http://www.w3.org/Graphics/SVG/1.1/DTD/svg11.dtd">
<svg xmlns:xlink="http://www.w3.org/1999/xlink" width="248.279131pt" height="248.075381pt" viewBox="0 0 248.279131 248.075381" xmlns="http://www.w3.org/2000/svg" version="1.1">
 <metadata>
  <rdf:RDF xmlns:dc="http://purl.org/dc/elements/1.1/" xmlns:cc="http://creativecommons.org/ns#" xmlns:rdf="http://www.w3.org/1999/02/22-rdf-syntax-ns#">
   <cc:Work>
    <dc:type rdf:resource="http://purl.org/dc/dcmitype/StillImage"/>
    <dc:date>2026-01-09T12:22:31.971062</dc:date>
    <dc:format>image/svg+xml</dc:format>
    <dc:creator>
     <cc:Agent>
      <dc:title>Matplotlib v3.10.6, https://matplotlib.org/</dc:title>
     </cc:Agent>
    </dc:creator>
   </cc:Work>
  </rdf:RDF>
 </metadata>
 <defs>
  <style type="text/css">*{stroke-linejoin: round; stroke-linecap: butt}</style>
 </defs>
 <g id="figure_1">
  <g id="patch_1">
   <path d="M 0 248.075381 
L 248.279131 248.075381 
L 248.279131 0 
L 0 0 
L 0 248.075381 
z
" style="fill: none"/>
  </g>
  <g id="axes_1">
   <g id="matplotlib.axis_1">
    <g id="ytick_1">
     <g id="line2d_1">
      <path d="M 38.420156 207.876927 
L 215.528975 207.876927 
" clip-path="url(#pc088a02b8e)" style="fill: none; stroke: #cccccc; stroke-opacity: 0.3; stroke-width: 0.8; stroke-linecap: round"/>
     </g>
     <g id="line2d_2">
      <defs>
       <path id="m79cfd64346" d="M 0 0 
L 3.5 0 
" style="stroke: #262626; stroke-width: 0.8"/>
      </defs>
      <g>
       <use xlink:href="#m79cfd64346" x="215.528975" y="207.876927" style="fill: #262626; stroke: #262626; stroke-width: 0.8"/>
      </g>
     </g>
     <g id="text_1">
      <!-- −3 -->
      <g transform="translate(222.528975 210.382161) scale(0.07 -0.07)">
       <defs>
        <path id="ArialMT-2212" d="M 3381 1997 
L 356 1997 
L 356 2522 
L 3381 2522 
L 3381 1997 
z
" transform="scale(0.015625)"/>
        <path id="ArialMT-33" d="M 269 1209 
L 831 1284 
Q 928 806 1161 595 
Q 1394 384 1728 384 
Q 2125 384 2398 659 
Q 2672 934 2672 1341 
Q 2672 1728 2419 1979 
Q 2166 2231 1775 2231 
Q 1616 2231 1378 2169 
L 1441 2663 
Q 1497 2656 1531 2656 
Q 1891 2656 2178 2843 
Q 2466 3031 2466 3422 
Q 2466 3731 2256 3934 
Q 2047 4138 1716 4138 
Q 1388 4138 1169 3931 
Q 950 3725 888 3313 
L 325 3413 
Q 428 3978 793 4289 
Q 1159 4600 1703 4600 
Q 2078 4600 2393 4439 
Q 2709 4278 2876 4000 
Q 3044 3722 3044 3409 
Q 3044 3113 2884 2869 
Q 2725 2625 2413 2481 
Q 2819 2388 3044 2092 
Q 3269 1797 3269 1353 
Q 3269 753 2831 336 
Q 2394 -81 1725 -81 
Q 1122 -81 723 278 
Q 325 638 269 1209 
z
" transform="scale(0.015625)"/>
       </defs>
       <use xlink:href="#ArialMT-2212"/>
       <use xlink:href="#ArialMT-33" transform="translate(58.398438 0)"/>
      </g>
     </g>
    </g>
    <g id="ytick_2">
     <g id="line2d_3">
      <path d="M 38.420156 177.784681 
L 215.528975 177.784681 
" clip-path="url(#pc088a02b8e)" style="fill: none; stroke: #cccccc; stroke-opacity: 0.3; stroke-width: 0.8; stroke-linecap: round"/>
     </g>
     <g id="line2d_4">
      <g>
       <use xlink:href="#m79cfd64346" x="215.528975" y="177.784681" style="fill: #262626; stroke: #262626; stroke-width: 0.8"/>
      </g>
     </g>
     <g id="text_2">
      <!-- −2 -->
      <g transform="translate(222.528975 180.289916) scale(0.07 -0.07)">
       <defs>
        <path id="ArialMT-32" d="M 3222 541 
L 3222 0 
L 194 0 
Q 188 203 259 391 
Q 375 700 629 1000 
Q 884 1300 1366 1694 
Q 2113 2306 2375 2664 
Q 2638 3022 2638 3341 
Q 2638 3675 2398 3904 
Q 2159 4134 1775 4134 
Q 1369 4134 1125 3890 
Q 881 3647 878 3216 
L 300 3275 
Q 359 3922 746 4261 
Q 1134 4600 1788 4600 
Q 2447 4600 2831 4234 
Q 3216 3869 3216 3328 
Q 3216 3053 3103 2787 
Q 2991 2522 2730 2228 
Q 2469 1934 1863 1422 
Q 1356 997 1212 845 
Q 1069 694 975 541 
L 3222 541 
z
" transform="scale(0.015625)"/>
       </defs>
       <use xlink:href="#ArialMT-2212"/>
       <use xlink:href="#ArialMT-32" transform="translate(58.398438 0)"/>
      </g>
     </g>
    </g>
    <g id="ytick_3">
     <g id="line2d_5">
      <path d="M 38.420156 147.692436 
L 215.528975 147.692436 
" clip-path="url(#pc088a02b8e)" style="fill: none; stroke: #cccccc; stroke-opacity: 0.3; stroke-width: 0.8; stroke-linecap: round"/>
     </g>
     <g id="line2d_6">
      <g>
       <use xlink:href="#m79cfd64346" x="215.528975" y="147.692436" style="fill: #262626; stroke: #262626; stroke-width: 0.8"/>
      </g>
     </g>
     <g id="text_3">
      <!-- −1 -->
      <g transform="translate(222.528975 150.19767) scale(0.07 -0.07)">
       <defs>
        <path id="ArialMT-31" d="M 2384 0 
L 1822 0 
L 1822 3584 
Q 1619 3391 1289 3197 
Q 959 3003 697 2906 
L 697 3450 
Q 1169 3672 1522 3987 
Q 1875 4303 2022 4600 
L 2384 4600 
L 2384 0 
z
" transform="scale(0.015625)"/>
       </defs>
       <use xlink:href="#ArialMT-2212"/>
       <use xlink:href="#ArialMT-31" transform="translate(58.398438 0)"/>
      </g>
     </g>
    </g>
    <g id="ytick_4">
     <g id="line2d_7">
      <path d="M 38.420156 117.600191 
L 215.528975 117.600191 
" clip-path="url(#pc088a02b8e)" style="fill: none; stroke: #cccccc; stroke-opacity: 0.3; stroke-width: 0.8; stroke-linecap: round"/>
     </g>
     <g id="line2d_8">
      <g>
       <use xlink:href="#m79cfd64346" x="215.528975" y="117.600191" style="fill: #262626; stroke: #262626; stroke-width: 0.8"/>
      </g>
     </g>
     <g id="text_4">
      <!-- 0 -->
      <g transform="translate(222.528975 120.105425) scale(0.07 -0.07)">
       <defs>
        <path id="ArialMT-30" d="M 266 2259 
Q 266 3072 433 3567 
Q 600 4063 929 4331 
Q 1259 4600 1759 4600 
Q 2128 4600 2406 4451 
Q 2684 4303 2865 4023 
Q 3047 3744 3150 3342 
Q 3253 2941 3253 2259 
Q 3253 1453 3087 958 
Q 2922 463 2592 192 
Q 2263 -78 1759 -78 
Q 1097 -78 719 397 
Q 266 969 266 2259 
z
M 844 2259 
Q 844 1131 1108 757 
Q 1372 384 1759 384 
Q 2147 384 2411 759 
Q 2675 1134 2675 2259 
Q 2675 3391 2411 3762 
Q 2147 4134 1753 4134 
Q 1366 4134 1134 3806 
Q 844 3388 844 2259 
z
" transform="scale(0.015625)"/>
       </defs>
       <use xlink:href="#ArialMT-30"/>
      </g>
     </g>
    </g>
    <g id="ytick_5">
     <g id="line2d_9">
      <path d="M 38.420156 87.507945 
L 215.528975 87.507945 
" clip-path="url(#pc088a02b8e)" style="fill: none; stroke: #cccccc; stroke-opacity: 0.3; stroke-width: 0.8; stroke-linecap: round"/>
     </g>
     <g id="line2d_10">
      <g>
       <use xlink:href="#m79cfd64346" x="215.528975" y="87.507945" style="fill: #262626; stroke: #262626; stroke-width: 0.8"/>
      </g>
     </g>
     <g id="text_5">
      <!-- 1 -->
      <g transform="translate(222.528975 90.01318) scale(0.07 -0.07)">
       <use xlink:href="#ArialMT-31"/>
      </g>
     </g>
    </g>
    <g id="ytick_6">
     <g id="line2d_11">
      <path d="M 38.420156 57.4157 
L 215.528975 57.4157 
" clip-path="url(#pc088a02b8e)" style="fill: none; stroke: #cccccc; stroke-opacity: 0.3; stroke-width: 0.8; stroke-linecap: round"/>
     </g>
     <g id="line2d_12">
      <g>
       <use xlink:href="#m79cfd64346" x="215.528975" y="57.4157" style="fill: #262626; stroke: #262626; stroke-width: 0.8"/>
      </g>
     </g>
     <g id="text_6">
      <!-- 2 -->
      <g transform="translate(222.528975 59.920934) scale(0.07 -0.07)">
       <use xlink:href="#ArialMT-32"/>
      </g>
     </g>
    </g>
    <g id="ytick_7">
     <g id="line2d_13">
      <path d="M 38.420156 27.323455 
L 215.528975 27.323455 
" clip-path="url(#pc088a02b8e)" style="fill: none; stroke: #cccccc; stroke-opacity: 0.3; stroke-width: 0.8; stroke-linecap: round"/>
     </g>
     <g id="line2d_14">
      <g>
       <use xlink:href="#m79cfd64346" x="215.528975" y="27.323455" style="fill: #262626; stroke: #262626; stroke-width: 0.8"/>
      </g>
     </g>
     <g id="text_7">
      <!-- 3 -->
      <g transform="translate(222.528975 29.828689) scale(0.07 -0.07)">
       <use xlink:href="#ArialMT-33"/>
      </g>
     </g>
    </g>
    <g id="text_8">
     <!-- Normalized Input Signal Amplitude -->
     <g transform="translate(239.60585 171.099331) rotate(-90) scale(0.07 -0.07)">
      <defs>
       <path id="ArialMT-4e" d="M 488 0 
L 488 4581 
L 1109 4581 
L 3516 984 
L 3516 4581 
L 4097 4581 
L 4097 0 
L 3475 0 
L 1069 3600 
L 1069 0 
L 488 0 
z
" transform="scale(0.015625)"/>
       <path id="ArialMT-6f" d="M 213 1659 
Q 213 2581 725 3025 
Q 1153 3394 1769 3394 
Q 2453 3394 2887 2945 
Q 3322 2497 3322 1706 
Q 3322 1066 3130 698 
Q 2938 331 2570 128 
Q 2203 -75 1769 -75 
Q 1072 -75 642 372 
Q 213 819 213 1659 
z
M 791 1659 
Q 791 1022 1069 705 
Q 1347 388 1769 388 
Q 2188 388 2466 706 
Q 2744 1025 2744 1678 
Q 2744 2294 2464 2611 
Q 2184 2928 1769 2928 
Q 1347 2928 1069 2612 
Q 791 2297 791 1659 
z
" transform="scale(0.015625)"/>
       <path id="ArialMT-72" d="M 416 0 
L 416 3319 
L 922 3319 
L 922 2816 
Q 1116 3169 1280 3281 
Q 1444 3394 1641 3394 
Q 1925 3394 2219 3213 
L 2025 2691 
Q 1819 2813 1613 2813 
Q 1428 2813 1281 2702 
Q 1134 2591 1072 2394 
Q 978 2094 978 1738 
L 978 0 
L 416 0 
z
" transform="scale(0.015625)"/>
       <path id="ArialMT-6d" d="M 422 0 
L 422 3319 
L 925 3319 
L 925 2853 
Q 1081 3097 1340 3245 
Q 1600 3394 1931 3394 
Q 2300 3394 2536 3241 
Q 2772 3088 2869 2813 
Q 3263 3394 3894 3394 
Q 4388 3394 4653 3120 
Q 4919 2847 4919 2278 
L 4919 0 
L 4359 0 
L 4359 2091 
Q 4359 2428 4304 2576 
Q 4250 2725 4106 2815 
Q 3963 2906 3769 2906 
Q 3419 2906 3187 2673 
Q 2956 2441 2956 1928 
L 2956 0 
L 2394 0 
L 2394 2156 
Q 2394 2531 2256 2718 
Q 2119 2906 1806 2906 
Q 1569 2906 1367 2781 
Q 1166 2656 1075 2415 
Q 984 2175 984 1722 
L 984 0 
L 422 0 
z
" transform="scale(0.015625)"/>
       <path id="ArialMT-61" d="M 2588 409 
Q 2275 144 1986 34 
Q 1697 -75 1366 -75 
Q 819 -75 525 192 
Q 231 459 231 875 
Q 231 1119 342 1320 
Q 453 1522 633 1644 
Q 813 1766 1038 1828 
Q 1203 1872 1538 1913 
Q 2219 1994 2541 2106 
Q 2544 2222 2544 2253 
Q 2544 2597 2384 2738 
Q 2169 2928 1744 2928 
Q 1347 2928 1158 2789 
Q 969 2650 878 2297 
L 328 2372 
Q 403 2725 575 2942 
Q 747 3159 1072 3276 
Q 1397 3394 1825 3394 
Q 2250 3394 2515 3294 
Q 2781 3194 2906 3042 
Q 3031 2891 3081 2659 
Q 3109 2516 3109 2141 
L 3109 1391 
Q 3109 606 3145 398 
Q 3181 191 3288 0 
L 2700 0 
Q 2613 175 2588 409 
z
M 2541 1666 
Q 2234 1541 1622 1453 
Q 1275 1403 1131 1340 
Q 988 1278 909 1158 
Q 831 1038 831 891 
Q 831 666 1001 516 
Q 1172 366 1500 366 
Q 1825 366 2078 508 
Q 2331 650 2450 897 
Q 2541 1088 2541 1459 
L 2541 1666 
z
" transform="scale(0.015625)"/>
       <path id="ArialMT-6c" d="M 409 0 
L 409 4581 
L 972 4581 
L 972 0 
L 409 0 
z
" transform="scale(0.015625)"/>
       <path id="ArialMT-69" d="M 425 3934 
L 425 4581 
L 988 4581 
L 988 3934 
L 425 3934 
z
M 425 0 
L 425 3319 
L 988 3319 
L 988 0 
L 425 0 
z
" transform="scale(0.015625)"/>
       <path id="ArialMT-7a" d="M 125 0 
L 125 456 
L 2238 2881 
Q 1878 2863 1603 2863 
L 250 2863 
L 250 3319 
L 2963 3319 
L 2963 2947 
L 1166 841 
L 819 456 
Q 1197 484 1528 484 
L 3063 484 
L 3063 0 
L 125 0 
z
" transform="scale(0.015625)"/>
       <path id="ArialMT-65" d="M 2694 1069 
L 3275 997 
Q 3138 488 2766 206 
Q 2394 -75 1816 -75 
Q 1088 -75 661 373 
Q 234 822 234 1631 
Q 234 2469 665 2931 
Q 1097 3394 1784 3394 
Q 2450 3394 2872 2941 
Q 3294 2488 3294 1666 
Q 3294 1616 3291 1516 
L 816 1516 
Q 847 969 1125 678 
Q 1403 388 1819 388 
Q 2128 388 2347 550 
Q 2566 713 2694 1069 
z
M 847 1978 
L 2700 1978 
Q 2663 2397 2488 2606 
Q 2219 2931 1791 2931 
Q 1403 2931 1139 2672 
Q 875 2413 847 1978 
z
" transform="scale(0.015625)"/>
       <path id="ArialMT-64" d="M 2575 0 
L 2575 419 
Q 2259 -75 1647 -75 
Q 1250 -75 917 144 
Q 584 363 401 755 
Q 219 1147 219 1656 
Q 219 2153 384 2558 
Q 550 2963 881 3178 
Q 1213 3394 1622 3394 
Q 1922 3394 2156 3267 
Q 2391 3141 2538 2938 
L 2538 4581 
L 3097 4581 
L 3097 0 
L 2575 0 
z
M 797 1656 
Q 797 1019 1065 703 
Q 1334 388 1700 388 
Q 2069 388 2326 689 
Q 2584 991 2584 1609 
Q 2584 2291 2321 2609 
Q 2059 2928 1675 2928 
Q 1300 2928 1048 2622 
Q 797 2316 797 1656 
z
" transform="scale(0.015625)"/>
       <path id="ArialMT-20" transform="scale(0.015625)"/>
       <path id="ArialMT-49" d="M 597 0 
L 597 4581 
L 1203 4581 
L 1203 0 
L 597 0 
z
" transform="scale(0.015625)"/>
       <path id="ArialMT-6e" d="M 422 0 
L 422 3319 
L 928 3319 
L 928 2847 
Q 1294 3394 1984 3394 
Q 2284 3394 2536 3286 
Q 2788 3178 2913 3003 
Q 3038 2828 3088 2588 
Q 3119 2431 3119 2041 
L 3119 0 
L 2556 0 
L 2556 2019 
Q 2556 2363 2490 2533 
Q 2425 2703 2258 2804 
Q 2091 2906 1866 2906 
Q 1506 2906 1245 2678 
Q 984 2450 984 1813 
L 984 0 
L 422 0 
z
" transform="scale(0.015625)"/>
       <path id="ArialMT-70" d="M 422 -1272 
L 422 3319 
L 934 3319 
L 934 2888 
Q 1116 3141 1344 3267 
Q 1572 3394 1897 3394 
Q 2322 3394 2647 3175 
Q 2972 2956 3137 2557 
Q 3303 2159 3303 1684 
Q 3303 1175 3120 767 
Q 2938 359 2589 142 
Q 2241 -75 1856 -75 
Q 1575 -75 1351 44 
Q 1128 163 984 344 
L 984 -1272 
L 422 -1272 
z
M 931 1641 
Q 931 1000 1190 694 
Q 1450 388 1819 388 
Q 2194 388 2461 705 
Q 2728 1022 2728 1688 
Q 2728 2322 2467 2637 
Q 2206 2953 1844 2953 
Q 1484 2953 1207 2617 
Q 931 2281 931 1641 
z
" transform="scale(0.015625)"/>
       <path id="ArialMT-75" d="M 2597 0 
L 2597 488 
Q 2209 -75 1544 -75 
Q 1250 -75 995 37 
Q 741 150 617 320 
Q 494 491 444 738 
Q 409 903 409 1263 
L 409 3319 
L 972 3319 
L 972 1478 
Q 972 1038 1006 884 
Q 1059 663 1231 536 
Q 1403 409 1656 409 
Q 1909 409 2131 539 
Q 2353 669 2445 892 
Q 2538 1116 2538 1541 
L 2538 3319 
L 3100 3319 
L 3100 0 
L 2597 0 
z
" transform="scale(0.015625)"/>
       <path id="ArialMT-74" d="M 1650 503 
L 1731 6 
Q 1494 -44 1306 -44 
Q 1000 -44 831 53 
Q 663 150 594 308 
Q 525 466 525 972 
L 525 2881 
L 113 2881 
L 113 3319 
L 525 3319 
L 525 4141 
L 1084 4478 
L 1084 3319 
L 1650 3319 
L 1650 2881 
L 1084 2881 
L 1084 941 
Q 1084 700 1114 631 
Q 1144 563 1211 522 
Q 1278 481 1403 481 
Q 1497 481 1650 503 
z
" transform="scale(0.015625)"/>
       <path id="ArialMT-53" d="M 288 1472 
L 859 1522 
Q 900 1178 1048 958 
Q 1197 738 1509 602 
Q 1822 466 2213 466 
Q 2559 466 2825 569 
Q 3091 672 3220 851 
Q 3350 1031 3350 1244 
Q 3350 1459 3225 1620 
Q 3100 1781 2813 1891 
Q 2628 1963 1997 2114 
Q 1366 2266 1113 2400 
Q 784 2572 623 2826 
Q 463 3081 463 3397 
Q 463 3744 659 4045 
Q 856 4347 1234 4503 
Q 1613 4659 2075 4659 
Q 2584 4659 2973 4495 
Q 3363 4331 3572 4012 
Q 3781 3694 3797 3291 
L 3216 3247 
Q 3169 3681 2898 3903 
Q 2628 4125 2100 4125 
Q 1550 4125 1298 3923 
Q 1047 3722 1047 3438 
Q 1047 3191 1225 3031 
Q 1400 2872 2139 2705 
Q 2878 2538 3153 2413 
Q 3553 2228 3743 1945 
Q 3934 1663 3934 1294 
Q 3934 928 3725 604 
Q 3516 281 3123 101 
Q 2731 -78 2241 -78 
Q 1619 -78 1198 103 
Q 778 284 539 648 
Q 300 1013 288 1472 
z
" transform="scale(0.015625)"/>
       <path id="ArialMT-67" d="M 319 -275 
L 866 -356 
Q 900 -609 1056 -725 
Q 1266 -881 1628 -881 
Q 2019 -881 2231 -725 
Q 2444 -569 2519 -288 
Q 2563 -116 2559 434 
Q 2191 0 1641 0 
Q 956 0 581 494 
Q 206 988 206 1678 
Q 206 2153 378 2554 
Q 550 2956 876 3175 
Q 1203 3394 1644 3394 
Q 2231 3394 2613 2919 
L 2613 3319 
L 3131 3319 
L 3131 450 
Q 3131 -325 2973 -648 
Q 2816 -972 2473 -1159 
Q 2131 -1347 1631 -1347 
Q 1038 -1347 672 -1080 
Q 306 -813 319 -275 
z
M 784 1719 
Q 784 1066 1043 766 
Q 1303 466 1694 466 
Q 2081 466 2343 764 
Q 2606 1063 2606 1700 
Q 2606 2309 2336 2618 
Q 2066 2928 1684 2928 
Q 1309 2928 1046 2623 
Q 784 2319 784 1719 
z
" transform="scale(0.015625)"/>
       <path id="ArialMT-41" d="M -9 0 
L 1750 4581 
L 2403 4581 
L 4278 0 
L 3588 0 
L 3053 1388 
L 1138 1388 
L 634 0 
L -9 0 
z
M 1313 1881 
L 2866 1881 
L 2388 3150 
Q 2169 3728 2063 4100 
Q 1975 3659 1816 3225 
L 1313 1881 
z
" transform="scale(0.015625)"/>
      </defs>
      <use xlink:href="#ArialMT-4e"/>
      <use xlink:href="#ArialMT-6f" transform="translate(72.216797 0)"/>
      <use xlink:href="#ArialMT-72" transform="translate(127.832031 0)"/>
      <use xlink:href="#ArialMT-6d" transform="translate(161.132812 0)"/>
      <use xlink:href="#ArialMT-61" transform="translate(244.433594 0)"/>
      <use xlink:href="#ArialMT-6c" transform="translate(300.048828 0)"/>
      <use xlink:href="#ArialMT-69" transform="translate(322.265625 0)"/>
      <use xlink:href="#ArialMT-7a" transform="translate(344.482422 0)"/>
      <use xlink:href="#ArialMT-65" transform="translate(394.482422 0)"/>
      <use xlink:href="#ArialMT-64" transform="translate(450.097656 0)"/>
      <use xlink:href="#ArialMT-20" transform="translate(505.712891 0)"/>
      <use xlink:href="#ArialMT-49" transform="translate(533.496094 0)"/>
      <use xlink:href="#ArialMT-6e" transform="translate(561.279297 0)"/>
      <use xlink:href="#ArialMT-70" transform="translate(616.894531 0)"/>
      <use xlink:href="#ArialMT-75" transform="translate(672.509766 0)"/>
      <use xlink:href="#ArialMT-74" transform="translate(728.125 0)"/>
      <use xlink:href="#ArialMT-20" transform="translate(755.908203 0)"/>
      <use xlink:href="#ArialMT-53" transform="translate(783.691406 0)"/>
      <use xlink:href="#ArialMT-69" transform="translate(850.390625 0)"/>
      <use xlink:href="#ArialMT-67" transform="translate(872.607422 0)"/>
      <use xlink:href="#ArialMT-6e" transform="translate(928.222656 0)"/>
      <use xlink:href="#ArialMT-61" transform="translate(983.837891 0)"/>
      <use xlink:href="#ArialMT-6c" transform="translate(1039.453125 0)"/>
      <use xlink:href="#ArialMT-20" transform="translate(1061.669922 0)"/>
      <use xlink:href="#ArialMT-41" transform="translate(1083.953125 0)"/>
      <use xlink:href="#ArialMT-6d" transform="translate(1150.652344 0)"/>
      <use xlink:href="#ArialMT-70" transform="translate(1233.953125 0)"/>
      <use xlink:href="#ArialMT-6c" transform="translate(1289.568359 0)"/>
      <use xlink:href="#ArialMT-69" transform="translate(1311.785156 0)"/>
      <use xlink:href="#ArialMT-74" transform="translate(1334.001953 0)"/>
      <use xlink:href="#ArialMT-75" transform="translate(1361.785156 0)"/>
      <use xlink:href="#ArialMT-64" transform="translate(1417.400391 0)"/>
      <use xlink:href="#ArialMT-65" transform="translate(1473.015625 0)"/>
     </g>
    </g>
   </g>
   <g id="line2d_15">
    <path d="M 46.470557 207.876927 
L 59.525261 207.876927 
L 60.395575 27.323455 
L 94.337805 27.323455 
L 95.208119 207.876927 
L 129.15035 207.876927 
L 130.020663 27.323455 
L 163.962894 27.323455 
L 164.833208 207.876927 
L 198.775438 207.876927 
L 199.645752 27.323455 
L 207.478574 27.323455 
L 207.478574 27.323455 
" clip-path="url(#pc088a02b8e)" style="fill: none; stroke-dasharray: 3.7,1.6; stroke-dashoffset: 0; stroke: #000000; stroke-opacity: 0.8"/>
   </g>
   <g id="patch_2">
    <path d="M 38.420156 216.9046 
L 38.420156 18.295781 
" style="fill: none; stroke: #000000; stroke-width: 0.8; stroke-linejoin: miter; stroke-linecap: square"/>
   </g>
   <g id="patch_3">
    <path d="M 215.528975 216.9046 
L 215.528975 18.295781 
" style="fill: none; stroke: #000000; stroke-width: 0.8; stroke-linejoin: miter; stroke-linecap: square"/>
   </g>
   <g id="patch_4">
    <path d="M 38.420156 216.9046 
L 215.528975 216.9046 
" style="fill: none; stroke: #000000; stroke-width: 0.8; stroke-linejoin: miter; stroke-linecap: square"/>
   </g>
   <g id="patch_5">
    <path d="M 38.420156 18.295781 
L 215.528975 18.295781 
" style="fill: none; stroke: #000000; stroke-width: 0.8; stroke-linejoin: miter; stroke-linecap: square"/>
   </g>
   <g id="text_9">
    <!-- TCN Predicted Response for 1 MHz Square Wave at 48 mA -->
    <g style="fill: #262626" transform="translate(34.128316 12.295781) scale(0.07 -0.07)">
     <defs>
      <path id="ArialMT-54" d="M 1659 0 
L 1659 4041 
L 150 4041 
L 150 4581 
L 3781 4581 
L 3781 4041 
L 2266 4041 
L 2266 0 
L 1659 0 
z
" transform="scale(0.015625)"/>
      <path id="ArialMT-43" d="M 3763 1606 
L 4369 1453 
Q 4178 706 3683 314 
Q 3188 -78 2472 -78 
Q 1731 -78 1267 223 
Q 803 525 561 1097 
Q 319 1669 319 2325 
Q 319 3041 592 3573 
Q 866 4106 1370 4382 
Q 1875 4659 2481 4659 
Q 3169 4659 3637 4309 
Q 4106 3959 4291 3325 
L 3694 3184 
Q 3534 3684 3231 3912 
Q 2928 4141 2469 4141 
Q 1941 4141 1586 3887 
Q 1231 3634 1087 3207 
Q 944 2781 944 2328 
Q 944 1744 1114 1308 
Q 1284 872 1643 656 
Q 2003 441 2422 441 
Q 2931 441 3284 734 
Q 3638 1028 3763 1606 
z
" transform="scale(0.015625)"/>
      <path id="ArialMT-50" d="M 494 0 
L 494 4581 
L 2222 4581 
Q 2678 4581 2919 4538 
Q 3256 4481 3484 4323 
Q 3713 4166 3852 3881 
Q 3991 3597 3991 3256 
Q 3991 2672 3619 2267 
Q 3247 1863 2275 1863 
L 1100 1863 
L 1100 0 
L 494 0 
z
M 1100 2403 
L 2284 2403 
Q 2872 2403 3119 2622 
Q 3366 2841 3366 3238 
Q 3366 3525 3220 3729 
Q 3075 3934 2838 4000 
Q 2684 4041 2272 4041 
L 1100 4041 
L 1100 2403 
z
" transform="scale(0.015625)"/>
      <path id="ArialMT-63" d="M 2588 1216 
L 3141 1144 
Q 3050 572 2676 248 
Q 2303 -75 1759 -75 
Q 1078 -75 664 370 
Q 250 816 250 1647 
Q 250 2184 428 2587 
Q 606 2991 970 3192 
Q 1334 3394 1763 3394 
Q 2303 3394 2647 3120 
Q 2991 2847 3088 2344 
L 2541 2259 
Q 2463 2594 2264 2762 
Q 2066 2931 1784 2931 
Q 1359 2931 1093 2626 
Q 828 2322 828 1663 
Q 828 994 1084 691 
Q 1341 388 1753 388 
Q 2084 388 2306 591 
Q 2528 794 2588 1216 
z
" transform="scale(0.015625)"/>
      <path id="ArialMT-52" d="M 503 0 
L 503 4581 
L 2534 4581 
Q 3147 4581 3465 4457 
Q 3784 4334 3975 4021 
Q 4166 3709 4166 3331 
Q 4166 2844 3850 2509 
Q 3534 2175 2875 2084 
Q 3116 1969 3241 1856 
Q 3506 1613 3744 1247 
L 4541 0 
L 3778 0 
L 3172 953 
Q 2906 1366 2734 1584 
Q 2563 1803 2427 1890 
Q 2291 1978 2150 2013 
Q 2047 2034 1813 2034 
L 1109 2034 
L 1109 0 
L 503 0 
z
M 1109 2559 
L 2413 2559 
Q 2828 2559 3062 2645 
Q 3297 2731 3419 2920 
Q 3541 3109 3541 3331 
Q 3541 3656 3305 3865 
Q 3069 4075 2559 4075 
L 1109 4075 
L 1109 2559 
z
" transform="scale(0.015625)"/>
      <path id="ArialMT-73" d="M 197 991 
L 753 1078 
Q 800 744 1014 566 
Q 1228 388 1613 388 
Q 2000 388 2187 545 
Q 2375 703 2375 916 
Q 2375 1106 2209 1216 
Q 2094 1291 1634 1406 
Q 1016 1563 777 1677 
Q 538 1791 414 1992 
Q 291 2194 291 2438 
Q 291 2659 392 2848 
Q 494 3038 669 3163 
Q 800 3259 1026 3326 
Q 1253 3394 1513 3394 
Q 1903 3394 2198 3281 
Q 2494 3169 2634 2976 
Q 2775 2784 2828 2463 
L 2278 2388 
Q 2241 2644 2061 2787 
Q 1881 2931 1553 2931 
Q 1166 2931 1000 2803 
Q 834 2675 834 2503 
Q 834 2394 903 2306 
Q 972 2216 1119 2156 
Q 1203 2125 1616 2013 
Q 2213 1853 2448 1751 
Q 2684 1650 2818 1456 
Q 2953 1263 2953 975 
Q 2953 694 2789 445 
Q 2625 197 2315 61 
Q 2006 -75 1616 -75 
Q 969 -75 630 194 
Q 291 463 197 991 
z
" transform="scale(0.015625)"/>
      <path id="ArialMT-66" d="M 556 0 
L 556 2881 
L 59 2881 
L 59 3319 
L 556 3319 
L 556 3672 
Q 556 4006 616 4169 
Q 697 4388 901 4523 
Q 1106 4659 1475 4659 
Q 1713 4659 2000 4603 
L 1916 4113 
Q 1741 4144 1584 4144 
Q 1328 4144 1222 4034 
Q 1116 3925 1116 3625 
L 1116 3319 
L 1763 3319 
L 1763 2881 
L 1116 2881 
L 1116 0 
L 556 0 
z
" transform="scale(0.015625)"/>
      <path id="ArialMT-4d" d="M 475 0 
L 475 4581 
L 1388 4581 
L 2472 1338 
Q 2622 884 2691 659 
Q 2769 909 2934 1394 
L 4031 4581 
L 4847 4581 
L 4847 0 
L 4263 0 
L 4263 3834 
L 2931 0 
L 2384 0 
L 1059 3900 
L 1059 0 
L 475 0 
z
" transform="scale(0.015625)"/>
      <path id="ArialMT-48" d="M 513 0 
L 513 4581 
L 1119 4581 
L 1119 2700 
L 3500 2700 
L 3500 4581 
L 4106 4581 
L 4106 0 
L 3500 0 
L 3500 2159 
L 1119 2159 
L 1119 0 
L 513 0 
z
" transform="scale(0.015625)"/>
      <path id="ArialMT-71" d="M 2538 -1272 
L 2538 353 
Q 2406 169 2170 47 
Q 1934 -75 1669 -75 
Q 1078 -75 651 397 
Q 225 869 225 1691 
Q 225 2191 398 2587 
Q 572 2984 901 3189 
Q 1231 3394 1625 3394 
Q 2241 3394 2594 2875 
L 2594 3319 
L 3100 3319 
L 3100 -1272 
L 2538 -1272 
z
M 803 1669 
Q 803 1028 1072 708 
Q 1341 388 1716 388 
Q 2075 388 2334 692 
Q 2594 997 2594 1619 
Q 2594 2281 2320 2615 
Q 2047 2950 1678 2950 
Q 1313 2950 1058 2639 
Q 803 2328 803 1669 
z
" transform="scale(0.015625)"/>
      <path id="ArialMT-57" d="M 1294 0 
L 78 4581 
L 700 4581 
L 1397 1578 
Q 1509 1106 1591 641 
Q 1766 1375 1797 1488 
L 2669 4581 
L 3400 4581 
L 4056 2263 
Q 4303 1400 4413 641 
Q 4500 1075 4641 1638 
L 5359 4581 
L 5969 4581 
L 4713 0 
L 4128 0 
L 3163 3491 
Q 3041 3928 3019 4028 
Q 2947 3713 2884 3491 
L 1913 0 
L 1294 0 
z
" transform="scale(0.015625)"/>
      <path id="ArialMT-76" d="M 1344 0 
L 81 3319 
L 675 3319 
L 1388 1331 
Q 1503 1009 1600 663 
Q 1675 925 1809 1294 
L 2547 3319 
L 3125 3319 
L 1869 0 
L 1344 0 
z
" transform="scale(0.015625)"/>
      <path id="ArialMT-34" d="M 2069 0 
L 2069 1097 
L 81 1097 
L 81 1613 
L 2172 4581 
L 2631 4581 
L 2631 1613 
L 3250 1613 
L 3250 1097 
L 2631 1097 
L 2631 0 
L 2069 0 
z
M 2069 1613 
L 2069 3678 
L 634 1613 
L 2069 1613 
z
" transform="scale(0.015625)"/>
      <path id="ArialMT-38" d="M 1131 2484 
Q 781 2613 612 2850 
Q 444 3088 444 3419 
Q 444 3919 803 4259 
Q 1163 4600 1759 4600 
Q 2359 4600 2725 4251 
Q 3091 3903 3091 3403 
Q 3091 3084 2923 2848 
Q 2756 2613 2416 2484 
Q 2838 2347 3058 2040 
Q 3278 1734 3278 1309 
Q 3278 722 2862 322 
Q 2447 -78 1769 -78 
Q 1091 -78 675 323 
Q 259 725 259 1325 
Q 259 1772 486 2073 
Q 713 2375 1131 2484 
z
M 1019 3438 
Q 1019 3113 1228 2906 
Q 1438 2700 1772 2700 
Q 2097 2700 2305 2904 
Q 2513 3109 2513 3406 
Q 2513 3716 2298 3927 
Q 2084 4138 1766 4138 
Q 1444 4138 1231 3931 
Q 1019 3725 1019 3438 
z
M 838 1322 
Q 838 1081 952 856 
Q 1066 631 1291 507 
Q 1516 384 1775 384 
Q 2178 384 2440 643 
Q 2703 903 2703 1303 
Q 2703 1709 2433 1975 
Q 2163 2241 1756 2241 
Q 1359 2241 1098 1978 
Q 838 1716 838 1322 
z
" transform="scale(0.015625)"/>
     </defs>
     <use xlink:href="#ArialMT-54"/>
     <use xlink:href="#ArialMT-43" transform="translate(61.083984 0)"/>
     <use xlink:href="#ArialMT-4e" transform="translate(133.300781 0)"/>
     <use xlink:href="#ArialMT-20" transform="translate(205.517578 0)"/>
     <use xlink:href="#ArialMT-50" transform="translate(233.300781 0)"/>
     <use xlink:href="#ArialMT-72" transform="translate(300 0)"/>
     <use xlink:href="#ArialMT-65" transform="translate(333.300781 0)"/>
     <use xlink:href="#ArialMT-64" transform="translate(388.916016 0)"/>
     <use xlink:href="#ArialMT-69" transform="translate(444.53125 0)"/>
     <use xlink:href="#ArialMT-63" transform="translate(466.748047 0)"/>
     <use xlink:href="#ArialMT-74" transform="translate(516.748047 0)"/>
     <use xlink:href="#ArialMT-65" transform="translate(544.53125 0)"/>
     <use xlink:href="#ArialMT-64" transform="translate(600.146484 0)"/>
     <use xlink:href="#ArialMT-20" transform="translate(655.761719 0)"/>
     <use xlink:href="#ArialMT-52" transform="translate(683.544922 0)"/>
     <use xlink:href="#ArialMT-65" transform="translate(755.761719 0)"/>
     <use xlink:href="#ArialMT-73" transform="translate(811.376953 0)"/>
     <use xlink:href="#ArialMT-70" transform="translate(861.376953 0)"/>
     <use xlink:href="#ArialMT-6f" transform="translate(916.992188 0)"/>
     <use xlink:href="#ArialMT-6e" transform="translate(972.607422 0)"/>
     <use xlink:href="#ArialMT-73" transform="translate(1028.222656 0)"/>
     <use xlink:href="#ArialMT-65" transform="translate(1078.222656 0)"/>
     <use xlink:href="#ArialMT-20" transform="translate(1133.837891 0)"/>
     <use xlink:href="#ArialMT-66" transform="translate(1161.621094 0)"/>
     <use xlink:href="#ArialMT-6f" transform="translate(1189.404297 0)"/>
     <use xlink:href="#ArialMT-72" transform="translate(1245.019531 0)"/>
     <use xlink:href="#ArialMT-20" transform="translate(1278.320312 0)"/>
     <use xlink:href="#ArialMT-31" transform="translate(1306.103516 0)"/>
     <use xlink:href="#ArialMT-20" transform="translate(1361.71875 0)"/>
     <use xlink:href="#ArialMT-4d" transform="translate(1389.501953 0)"/>
     <use xlink:href="#ArialMT-48" transform="translate(1472.802734 0)"/>
     <use xlink:href="#ArialMT-7a" transform="translate(1545.019531 0)"/>
     <use xlink:href="#ArialMT-20" transform="translate(1595.019531 0)"/>
     <use xlink:href="#ArialMT-53" transform="translate(1622.802734 0)"/>
     <use xlink:href="#ArialMT-71" transform="translate(1689.501953 0)"/>
     <use xlink:href="#ArialMT-75" transform="translate(1745.117188 0)"/>
     <use xlink:href="#ArialMT-61" transform="translate(1800.732422 0)"/>
     <use xlink:href="#ArialMT-72" transform="translate(1856.347656 0)"/>
     <use xlink:href="#ArialMT-65" transform="translate(1889.648438 0)"/>
     <use xlink:href="#ArialMT-20" transform="translate(1945.263672 0)"/>
     <use xlink:href="#ArialMT-57" transform="translate(1973.046875 0)"/>
     <use xlink:href="#ArialMT-61" transform="translate(2063.681641 0)"/>
     <use xlink:href="#ArialMT-76" transform="translate(2119.296875 0)"/>
     <use xlink:href="#ArialMT-65" transform="translate(2169.296875 0)"/>
     <use xlink:href="#ArialMT-20" transform="translate(2224.912109 0)"/>
     <use xlink:href="#ArialMT-61" transform="translate(2252.695312 0)"/>
     <use xlink:href="#ArialMT-74" transform="translate(2308.310547 0)"/>
     <use xlink:href="#ArialMT-20" transform="translate(2336.09375 0)"/>
     <use xlink:href="#ArialMT-34" transform="translate(2363.876953 0)"/>
     <use xlink:href="#ArialMT-38" transform="translate(2419.492188 0)"/>
     <use xlink:href="#ArialMT-20" transform="translate(2475.107422 0)"/>
     <use xlink:href="#ArialMT-6d" transform="translate(2502.890625 0)"/>
     <use xlink:href="#ArialMT-41" transform="translate(2586.191406 0)"/>
    </g>
   </g>
  </g>
  <g id="axes_2">
   <g id="matplotlib.axis_2">
    <g id="xtick_1">
     <g id="text_10">
      <!-- 1000 -->
      <g style="fill: #262626" transform="translate(52.610262 228.915069) scale(0.07 -0.07)">
       <use xlink:href="#ArialMT-31"/>
       <use xlink:href="#ArialMT-30" transform="translate(55.615234 0)"/>
       <use xlink:href="#ArialMT-30" transform="translate(111.230469 0)"/>
       <use xlink:href="#ArialMT-30" transform="translate(166.845703 0)"/>
      </g>
     </g>
    </g>
    <g id="xtick_2">
     <g id="text_11">
      <!-- 1500 -->
      <g style="fill: #262626" transform="translate(87.422807 228.915069) scale(0.07 -0.07)">
       <defs>
        <path id="ArialMT-35" d="M 266 1200 
L 856 1250 
Q 922 819 1161 601 
Q 1400 384 1738 384 
Q 2144 384 2425 690 
Q 2706 997 2706 1503 
Q 2706 1984 2436 2262 
Q 2166 2541 1728 2541 
Q 1456 2541 1237 2417 
Q 1019 2294 894 2097 
L 366 2166 
L 809 4519 
L 3088 4519 
L 3088 3981 
L 1259 3981 
L 1013 2750 
Q 1425 3038 1878 3038 
Q 2478 3038 2890 2622 
Q 3303 2206 3303 1553 
Q 3303 931 2941 478 
Q 2500 -78 1738 -78 
Q 1113 -78 717 272 
Q 322 622 266 1200 
z
" transform="scale(0.015625)"/>
       </defs>
       <use xlink:href="#ArialMT-31"/>
       <use xlink:href="#ArialMT-35" transform="translate(55.615234 0)"/>
       <use xlink:href="#ArialMT-30" transform="translate(111.230469 0)"/>
       <use xlink:href="#ArialMT-30" transform="translate(166.845703 0)"/>
      </g>
     </g>
    </g>
    <g id="xtick_3">
     <g id="text_12">
      <!-- 2000 -->
      <g style="fill: #262626" transform="translate(122.235351 228.915069) scale(0.07 -0.07)">
       <use xlink:href="#ArialMT-32"/>
       <use xlink:href="#ArialMT-30" transform="translate(55.615234 0)"/>
       <use xlink:href="#ArialMT-30" transform="translate(111.230469 0)"/>
       <use xlink:href="#ArialMT-30" transform="translate(166.845703 0)"/>
      </g>
     </g>
    </g>
    <g id="xtick_4">
     <g id="text_13">
      <!-- 2500 -->
      <g style="fill: #262626" transform="translate(157.047895 228.915069) scale(0.07 -0.07)">
       <use xlink:href="#ArialMT-32"/>
       <use xlink:href="#ArialMT-35" transform="translate(55.615234 0)"/>
       <use xlink:href="#ArialMT-30" transform="translate(111.230469 0)"/>
       <use xlink:href="#ArialMT-30" transform="translate(166.845703 0)"/>
      </g>
     </g>
    </g>
    <g id="xtick_5">
     <g id="text_14">
      <!-- 3000 -->
      <g style="fill: #262626" transform="translate(191.860439 228.915069) scale(0.07 -0.07)">
       <use xlink:href="#ArialMT-33"/>
       <use xlink:href="#ArialMT-30" transform="translate(55.615234 0)"/>
       <use xlink:href="#ArialMT-30" transform="translate(111.230469 0)"/>
       <use xlink:href="#ArialMT-30" transform="translate(166.845703 0)"/>
      </g>
     </g>
    </g>
    <g id="text_15">
     <!-- Time (ns) -->
     <g style="fill: #262626" transform="translate(112.329253 239.4021) scale(0.07 -0.07)">
      <defs>
       <path id="ArialMT-28" d="M 1497 -1347 
Q 1031 -759 709 28 
Q 388 816 388 1659 
Q 388 2403 628 3084 
Q 909 3875 1497 4659 
L 1900 4659 
Q 1522 4009 1400 3731 
Q 1209 3300 1100 2831 
Q 966 2247 966 1656 
Q 966 153 1900 -1347 
L 1497 -1347 
z
" transform="scale(0.015625)"/>
       <path id="ArialMT-29" d="M 791 -1347 
L 388 -1347 
Q 1322 153 1322 1656 
Q 1322 2244 1188 2822 
Q 1081 3291 891 3722 
Q 769 4003 388 4659 
L 791 4659 
Q 1378 3875 1659 3084 
Q 1900 2403 1900 1659 
Q 1900 816 1576 28 
Q 1253 -759 791 -1347 
z
" transform="scale(0.015625)"/>
      </defs>
      <use xlink:href="#ArialMT-54"/>
      <use xlink:href="#ArialMT-69" transform="translate(57.333984 0)"/>
      <use xlink:href="#ArialMT-6d" transform="translate(79.550781 0)"/>
      <use xlink:href="#ArialMT-65" transform="translate(162.851562 0)"/>
      <use xlink:href="#ArialMT-20" transform="translate(218.466797 0)"/>
      <use xlink:href="#ArialMT-28" transform="translate(246.25 0)"/>
      <use xlink:href="#ArialMT-6e" transform="translate(279.550781 0)"/>
      <use xlink:href="#ArialMT-73" transform="translate(335.166016 0)"/>
      <use xlink:href="#ArialMT-29" transform="translate(385.166016 0)"/>
     </g>
    </g>
   </g>
   <g id="matplotlib.axis_3">
    <g id="ytick_8">
     <g id="line2d_16">
      <defs>
       <path id="med612ac2ef" d="M 0 0 
L -3.5 0 
" style="stroke: #262626; stroke-width: 0.8"/>
      </defs>
      <g>
       <use xlink:href="#med612ac2ef" x="38.420156" y="207.419024" style="fill: #262626; stroke: #262626; stroke-width: 0.8"/>
      </g>
     </g>
     <g id="text_16">
      <!-- −0.8 -->
      <g style="fill: #482475" transform="translate(17.601719 209.924258) scale(0.07 -0.07)">
       <defs>
        <path id="ArialMT-2e" d="M 581 0 
L 581 641 
L 1222 641 
L 1222 0 
L 581 0 
z
" transform="scale(0.015625)"/>
       </defs>
       <use xlink:href="#ArialMT-2212"/>
       <use xlink:href="#ArialMT-30" transform="translate(58.398438 0)"/>
       <use xlink:href="#ArialMT-2e" transform="translate(114.013672 0)"/>
       <use xlink:href="#ArialMT-38" transform="translate(141.796875 0)"/>
      </g>
     </g>
    </g>
    <g id="ytick_9">
     <g id="line2d_17">
      <g>
       <use xlink:href="#med612ac2ef" x="38.420156" y="182.991266" style="fill: #262626; stroke: #262626; stroke-width: 0.8"/>
      </g>
     </g>
     <g id="text_17">
      <!-- −0.6 -->
      <g style="fill: #482475" transform="translate(17.601719 185.496501) scale(0.07 -0.07)">
       <defs>
        <path id="ArialMT-36" d="M 3184 3459 
L 2625 3416 
Q 2550 3747 2413 3897 
Q 2184 4138 1850 4138 
Q 1581 4138 1378 3988 
Q 1113 3794 959 3422 
Q 806 3050 800 2363 
Q 1003 2672 1297 2822 
Q 1591 2972 1913 2972 
Q 2475 2972 2870 2558 
Q 3266 2144 3266 1488 
Q 3266 1056 3080 686 
Q 2894 316 2569 119 
Q 2244 -78 1831 -78 
Q 1128 -78 684 439 
Q 241 956 241 2144 
Q 241 3472 731 4075 
Q 1159 4600 1884 4600 
Q 2425 4600 2770 4297 
Q 3116 3994 3184 3459 
z
M 888 1484 
Q 888 1194 1011 928 
Q 1134 663 1356 523 
Q 1578 384 1822 384 
Q 2178 384 2434 671 
Q 2691 959 2691 1453 
Q 2691 1928 2437 2201 
Q 2184 2475 1800 2475 
Q 1419 2475 1153 2201 
Q 888 1928 888 1484 
z
" transform="scale(0.015625)"/>
       </defs>
       <use xlink:href="#ArialMT-2212"/>
       <use xlink:href="#ArialMT-30" transform="translate(58.398438 0)"/>
       <use xlink:href="#ArialMT-2e" transform="translate(114.013672 0)"/>
       <use xlink:href="#ArialMT-36" transform="translate(141.796875 0)"/>
      </g>
     </g>
    </g>
    <g id="ytick_10">
     <g id="line2d_18">
      <g>
       <use xlink:href="#med612ac2ef" x="38.420156" y="158.563508" style="fill: #262626; stroke: #262626; stroke-width: 0.8"/>
      </g>
     </g>
     <g id="text_18">
      <!-- −0.4 -->
      <g style="fill: #482475" transform="translate(17.601719 161.068743) scale(0.07 -0.07)">
       <use xlink:href="#ArialMT-2212"/>
       <use xlink:href="#ArialMT-30" transform="translate(58.398438 0)"/>
       <use xlink:href="#ArialMT-2e" transform="translate(114.013672 0)"/>
       <use xlink:href="#ArialMT-34" transform="translate(141.796875 0)"/>
      </g>
     </g>
    </g>
    <g id="ytick_11">
     <g id="line2d_19">
      <g>
       <use xlink:href="#med612ac2ef" x="38.420156" y="134.135751" style="fill: #262626; stroke: #262626; stroke-width: 0.8"/>
      </g>
     </g>
     <g id="text_19">
      <!-- −0.2 -->
      <g style="fill: #482475" transform="translate(17.601719 136.640985) scale(0.07 -0.07)">
       <use xlink:href="#ArialMT-2212"/>
       <use xlink:href="#ArialMT-30" transform="translate(58.398438 0)"/>
       <use xlink:href="#ArialMT-2e" transform="translate(114.013672 0)"/>
       <use xlink:href="#ArialMT-32" transform="translate(141.796875 0)"/>
      </g>
     </g>
    </g>
    <g id="ytick_12">
     <g id="line2d_20">
      <g>
       <use xlink:href="#med612ac2ef" x="38.420156" y="109.707993" style="fill: #262626; stroke: #262626; stroke-width: 0.8"/>
      </g>
     </g>
     <g id="text_20">
      <!-- 0.0 -->
      <g style="fill: #482475" transform="translate(21.690156 112.213227) scale(0.07 -0.07)">
       <use xlink:href="#ArialMT-30"/>
       <use xlink:href="#ArialMT-2e" transform="translate(55.615234 0)"/>
       <use xlink:href="#ArialMT-30" transform="translate(83.398438 0)"/>
      </g>
     </g>
    </g>
    <g id="ytick_13">
     <g id="line2d_21">
      <g>
       <use xlink:href="#med612ac2ef" x="38.420156" y="85.280235" style="fill: #262626; stroke: #262626; stroke-width: 0.8"/>
      </g>
     </g>
     <g id="text_21">
      <!-- 0.2 -->
      <g style="fill: #482475" transform="translate(21.690156 87.785469) scale(0.07 -0.07)">
       <use xlink:href="#ArialMT-30"/>
       <use xlink:href="#ArialMT-2e" transform="translate(55.615234 0)"/>
       <use xlink:href="#ArialMT-32" transform="translate(83.398438 0)"/>
      </g>
     </g>
    </g>
    <g id="ytick_14">
     <g id="line2d_22">
      <g>
       <use xlink:href="#med612ac2ef" x="38.420156" y="60.852477" style="fill: #262626; stroke: #262626; stroke-width: 0.8"/>
      </g>
     </g>
     <g id="text_22">
      <!-- 0.4 -->
      <g style="fill: #482475" transform="translate(21.690156 63.357712) scale(0.07 -0.07)">
       <use xlink:href="#ArialMT-30"/>
       <use xlink:href="#ArialMT-2e" transform="translate(55.615234 0)"/>
       <use xlink:href="#ArialMT-34" transform="translate(83.398438 0)"/>
      </g>
     </g>
    </g>
    <g id="ytick_15">
     <g id="line2d_23">
      <g>
       <use xlink:href="#med612ac2ef" x="38.420156" y="36.424719" style="fill: #262626; stroke: #262626; stroke-width: 0.8"/>
      </g>
     </g>
     <g id="text_23">
      <!-- 0.6 -->
      <g style="fill: #482475" transform="translate(21.690156 38.929954) scale(0.07 -0.07)">
       <use xlink:href="#ArialMT-30"/>
       <use xlink:href="#ArialMT-2e" transform="translate(55.615234 0)"/>
       <use xlink:href="#ArialMT-36" transform="translate(83.398438 0)"/>
      </g>
     </g>
    </g>
    <g id="text_24">
     <!-- Predicted Received Amplitude -->
     <g style="fill: #482475" transform="translate(12.210469 164.291284) rotate(-90) scale(0.07 -0.07)">
      <use xlink:href="#ArialMT-50"/>
      <use xlink:href="#ArialMT-72" transform="translate(66.699219 0)"/>
      <use xlink:href="#ArialMT-65" transform="translate(100 0)"/>
      <use xlink:href="#ArialMT-64" transform="translate(155.615234 0)"/>
      <use xlink:href="#ArialMT-69" transform="translate(211.230469 0)"/>
      <use xlink:href="#ArialMT-63" transform="translate(233.447266 0)"/>
      <use xlink:href="#ArialMT-74" transform="translate(283.447266 0)"/>
      <use xlink:href="#ArialMT-65" transform="translate(311.230469 0)"/>
      <use xlink:href="#ArialMT-64" transform="translate(366.845703 0)"/>
      <use xlink:href="#ArialMT-20" transform="translate(422.460938 0)"/>
      <use xlink:href="#ArialMT-52" transform="translate(450.244141 0)"/>
      <use xlink:href="#ArialMT-65" transform="translate(522.460938 0)"/>
      <use xlink:href="#ArialMT-63" transform="translate(578.076172 0)"/>
      <use xlink:href="#ArialMT-65" transform="translate(628.076172 0)"/>
      <use xlink:href="#ArialMT-69" transform="translate(683.691406 0)"/>
      <use xlink:href="#ArialMT-76" transform="translate(705.908203 0)"/>
      <use xlink:href="#ArialMT-65" transform="translate(755.908203 0)"/>
      <use xlink:href="#ArialMT-64" transform="translate(811.523438 0)"/>
      <use xlink:href="#ArialMT-20" transform="translate(867.138672 0)"/>
      <use xlink:href="#ArialMT-41" transform="translate(889.421875 0)"/>
      <use xlink:href="#ArialMT-6d" transform="translate(956.121094 0)"/>
      <use xlink:href="#ArialMT-70" transform="translate(1039.421875 0)"/>
      <use xlink:href="#ArialMT-6c" transform="translate(1095.037109 0)"/>
      <use xlink:href="#ArialMT-69" transform="translate(1117.253906 0)"/>
      <use xlink:href="#ArialMT-74" transform="translate(1139.470703 0)"/>
      <use xlink:href="#ArialMT-75" transform="translate(1167.253906 0)"/>
      <use xlink:href="#ArialMT-64" transform="translate(1222.869141 0)"/>
      <use xlink:href="#ArialMT-65" transform="translate(1278.484375 0)"/>
     </g>
    </g>
   </g>
   <g id="FillBetweenPolyCollection_1">
    <defs>
     <path id="maf7bb3994e" d="M 46.470557 -125.19247 
L 46.470557 -59.51467 
L 47.340871 -47.837177 
L 48.211184 -49.543127 
L 49.081498 -48.069376 
L 49.951812 -56.555399 
L 50.822125 -40.198455 
L 51.692439 -47.806184 
L 52.562752 -47.342216 
L 53.433066 -49.618471 
L 54.30338 -43.612192 
L 55.173693 -52.999233 
L 56.044007 -48.870527 
L 56.91432 -51.055561 
L 57.784634 -44.388753 
L 58.654948 -47.124141 
L 59.525261 -45.464729 
L 60.395575 -64.754021 
L 61.265888 -78.658835 
L 62.136202 -67.546493 
L 63.006516 -75.684413 
L 63.876829 -120.778598 
L 64.747143 -122.106563 
L 65.617456 -127.440329 
L 66.48777 -130.111241 
L 67.358084 -148.445976 
L 68.228397 -161.739548 
L 69.098711 -156.271993 
L 69.969024 -162.682415 
L 70.839338 -164.687757 
L 71.709652 -175.142933 
L 72.579965 -166.086128 
L 73.450279 -174.846075 
L 74.320593 -174.269088 
L 75.190906 -178.163922 
L 76.06122 -173.406759 
L 76.931533 -180.432821 
L 77.801847 -172.495341 
L 78.672161 -181.267466 
L 79.542474 -171.78529 
L 80.412788 -174.281902 
L 81.283101 -167.909485 
L 82.153415 -177.690992 
L 83.023729 -167.298892 
L 83.894042 -172.467458 
L 84.764356 -168.445428 
L 85.634669 -173.803002 
L 86.504983 -165.428283 
L 87.375297 -172.210819 
L 88.24561 -168.77356 
L 89.115924 -172.316802 
L 89.986237 -167.650001 
L 90.856551 -172.357878 
L 91.726865 -170.39239 
L 92.597178 -171.218352 
L 93.467492 -166.140607 
L 94.337805 -171.957385 
L 95.208119 -129.204132 
L 96.078433 -129.913607 
L 96.948746 -103.58505 
L 97.81906 -115.713162 
L 98.689373 -88.003244 
L 99.559687 -103.392814 
L 100.430001 -98.475411 
L 101.300314 -100.994811 
L 102.170628 -88.251523 
L 103.040942 -88.06897 
L 103.911255 -93.065838 
L 104.781569 -85.664976 
L 105.651882 -86.43278 
L 106.522196 -78.036336 
L 107.39251 -74.565322 
L 108.262823 -74.238826 
L 109.133137 -76.832961 
L 110.00345 -66.468986 
L 110.873764 -57.399628 
L 111.744078 -54.033237 
L 112.614391 -69.093874 
L 113.484705 -48.506869 
L 114.355018 -50.163375 
L 115.225332 -47.849943 
L 116.095646 -59.51467 
L 116.965959 -47.837177 
L 117.836273 -49.543127 
L 118.706586 -48.069376 
L 119.5769 -56.555399 
L 120.447214 -40.198455 
L 121.317527 -47.806184 
L 122.187841 -47.342216 
L 123.058154 -49.618471 
L 123.928468 -43.612192 
L 124.798782 -52.999233 
L 125.669095 -48.870527 
L 126.539409 -51.055561 
L 127.409723 -44.388753 
L 128.280036 -47.124141 
L 129.15035 -45.464729 
L 130.020663 -64.754021 
L 130.890977 -78.658835 
L 131.761291 -67.546493 
L 132.631604 -75.684413 
L 133.501918 -120.778598 
L 134.372231 -122.106563 
L 135.242545 -127.440329 
L 136.112859 -130.111241 
L 136.983172 -148.445976 
L 137.853486 -161.739548 
L 138.723799 -156.271993 
L 139.594113 -162.682415 
L 140.464427 -164.687757 
L 141.33474 -175.142933 
L 142.205054 -166.086128 
L 143.075367 -174.846075 
L 143.945681 -174.269088 
L 144.815995 -178.163922 
L 145.686308 -173.406759 
L 146.556622 -180.432821 
L 147.426935 -172.495341 
L 148.297249 -181.267466 
L 149.167563 -171.78529 
L 150.037876 -174.281902 
L 150.90819 -167.909485 
L 151.778503 -177.690992 
L 152.648817 -167.298892 
L 153.519131 -172.467458 
L 154.389444 -168.445428 
L 155.259758 -173.803002 
L 156.130072 -165.428283 
L 157.000385 -172.210819 
L 157.870699 -168.77356 
L 158.741012 -172.316802 
L 159.611326 -167.650001 
L 160.48164 -172.357878 
L 161.351953 -170.39239 
L 162.222267 -171.218352 
L 163.09258 -166.140607 
L 163.962894 -171.957385 
L 164.833208 -129.204132 
L 165.703521 -129.913607 
L 166.573835 -103.58505 
L 167.444148 -115.713162 
L 168.314462 -88.003244 
L 169.184776 -103.392814 
L 170.055089 -98.475411 
L 170.925403 -100.994811 
L 171.795716 -88.251523 
L 172.66603 -88.06897 
L 173.536344 -93.065838 
L 174.406657 -85.664976 
L 175.276971 -86.43278 
L 176.147284 -78.036336 
L 177.017598 -74.565322 
L 177.887912 -74.238826 
L 178.758225 -76.832961 
L 179.628539 -66.468986 
L 180.498852 -57.399628 
L 181.369166 -54.033237 
L 182.23948 -69.093874 
L 183.109793 -48.506869 
L 183.980107 -50.163375 
L 184.850421 -47.849943 
L 185.720734 -59.51467 
L 186.591048 -47.837177 
L 187.461361 -49.543127 
L 188.331675 -48.069376 
L 189.201989 -56.555399 
L 190.072302 -40.198455 
L 190.942616 -47.806184 
L 191.812929 -47.342216 
L 192.683243 -49.618471 
L 193.553557 -43.612192 
L 194.42387 -52.999233 
L 195.294184 -48.870527 
L 196.164497 -51.055561 
L 197.034811 -44.388753 
L 197.905125 -47.124141 
L 198.775438 -45.464729 
L 199.645752 -64.754021 
L 200.516065 -78.658835 
L 201.386379 -67.546493 
L 202.256693 -75.684413 
L 203.127006 -120.778598 
L 203.99732 -122.106563 
L 204.867633 -127.440329 
L 205.737947 -130.111241 
L 206.608261 -148.445976 
L 207.478574 -161.739548 
L 207.478574 -193.066339 
L 207.478574 -193.066339 
L 206.608261 -200.090291 
L 205.737947 -189.936267 
L 204.867633 -198.797837 
L 203.99732 -167.368915 
L 203.127006 -166.220148 
L 202.256693 -138.602698 
L 201.386379 -167.465572 
L 200.516065 -115.826642 
L 199.645752 -109.884308 
L 198.775438 -133.083367 
L 197.905125 -132.363481 
L 197.034811 -135.15432 
L 196.164497 -128.770014 
L 195.294184 -132.045176 
L 194.42387 -128.774124 
L 193.553557 -136.66171 
L 192.683243 -129.576988 
L 191.812929 -132.73396 
L 190.942616 -132.798675 
L 190.072302 -139.67273 
L 189.201989 -125.621374 
L 188.331675 -131.566008 
L 187.461361 -132.868464 
L 186.591048 -134.538371 
L 185.720734 -125.19247 
L 184.850421 -138.608497 
L 183.980107 -136.085474 
L 183.109793 -140.573317 
L 182.23948 -122.701716 
L 181.369166 -133.612913 
L 180.498852 -130.602975 
L 179.628539 -125.153958 
L 178.758225 -117.539312 
L 177.887912 -123.809379 
L 177.017598 -125.817198 
L 176.147284 -121.198108 
L 175.276971 -114.052367 
L 174.406657 -111.953007 
L 173.536344 -114.086543 
L 172.66603 -121.561391 
L 171.795716 -103.857619 
L 170.925403 -121.016891 
L 170.055089 -118.242403 
L 169.184776 -119.906319 
L 168.314462 -98.978697 
L 167.444148 -130.006075 
L 166.573835 -116.826536 
L 165.703521 -149.651783 
L 164.833208 -144.154269 
L 163.962894 -211.070703 
L 163.09258 -216.097633 
L 162.222267 -208.85819 
L 161.351953 -210.81044 
L 160.48164 -209.879255 
L 159.611326 -215.791826 
L 158.741012 -209.652936 
L 157.870699 -216.611571 
L 157.000385 -211.646392 
L 156.130072 -219.462745 
L 155.259758 -210.309076 
L 154.389444 -218.323013 
L 153.519131 -212.347924 
L 152.648817 -218.765183 
L 151.778503 -211.70049 
L 150.90819 -220.751927 
L 150.037876 -210.516998 
L 149.167563 -215.181234 
L 148.297249 -208.793394 
L 147.426935 -215.059388 
L 146.556622 -210.879537 
L 145.686308 -214.878769 
L 144.815995 -211.693862 
L 143.945681 -210.280943 
L 143.075367 -212.492924 
L 142.205054 -214.195966 
L 141.33474 -208.128192 
L 140.464427 -216.668863 
L 139.594113 -207.697319 
L 138.723799 -202.239013 
L 137.853486 -193.066339 
L 136.983172 -200.090291 
L 136.112859 -189.936267 
L 135.242545 -198.797837 
L 134.372231 -167.368915 
L 133.501918 -166.220148 
L 132.631604 -138.602698 
L 131.761291 -167.465572 
L 130.890977 -115.826642 
L 130.020663 -109.884308 
L 129.15035 -133.083367 
L 128.280036 -132.363481 
L 127.409723 -135.15432 
L 126.539409 -128.770014 
L 125.669095 -132.045176 
L 124.798782 -128.774124 
L 123.928468 -136.66171 
L 123.058154 -129.576988 
L 122.187841 -132.73396 
L 121.317527 -132.798675 
L 120.447214 -139.67273 
L 119.5769 -125.621374 
L 118.706586 -131.566008 
L 117.836273 -132.868464 
L 116.965959 -134.538371 
L 116.095646 -125.19247 
L 115.225332 -138.608497 
L 114.355018 -136.085474 
L 113.484705 -140.573317 
L 112.614391 -122.701716 
L 111.744078 -133.612913 
L 110.873764 -130.602975 
L 110.00345 -125.153958 
L 109.133137 -117.539312 
L 108.262823 -123.809379 
L 107.39251 -125.817198 
L 106.522196 -121.198108 
L 105.651882 -114.052367 
L 104.781569 -111.953007 
L 103.911255 -114.086543 
L 103.040942 -121.561391 
L 102.170628 -103.857619 
L 101.300314 -121.016891 
L 100.430001 -118.242403 
L 99.559687 -119.906319 
L 98.689373 -98.978697 
L 97.81906 -130.006075 
L 96.948746 -116.826536 
L 96.078433 -149.651783 
L 95.208119 -144.154269 
L 94.337805 -211.070703 
L 93.467492 -216.097633 
L 92.597178 -208.85819 
L 91.726865 -210.81044 
L 90.856551 -209.879255 
L 89.986237 -215.791826 
L 89.115924 -209.652936 
L 88.24561 -216.611571 
L 87.375297 -211.646392 
L 86.504983 -219.462745 
L 85.634669 -210.309076 
L 84.764356 -218.323013 
L 83.894042 -212.347924 
L 83.023729 -218.765183 
L 82.153415 -211.70049 
L 81.283101 -220.751927 
L 80.412788 -210.516998 
L 79.542474 -215.181234 
L 78.672161 -208.793394 
L 77.801847 -215.059388 
L 76.931533 -210.879537 
L 76.06122 -214.878769 
L 75.190906 -211.693862 
L 74.320593 -210.280943 
L 73.450279 -212.492924 
L 72.579965 -214.195966 
L 71.709652 -208.128192 
L 70.839338 -216.668863 
L 69.969024 -207.697319 
L 69.098711 -202.239013 
L 68.228397 -193.066339 
L 67.358084 -200.090291 
L 66.48777 -189.936267 
L 65.617456 -198.797837 
L 64.747143 -167.368915 
L 63.876829 -166.220148 
L 63.006516 -138.602698 
L 62.136202 -167.465572 
L 61.265888 -115.826642 
L 60.395575 -109.884308 
L 59.525261 -133.083367 
L 58.654948 -132.363481 
L 57.784634 -135.15432 
L 56.91432 -128.770014 
L 56.044007 -132.045176 
L 55.173693 -128.774124 
L 54.30338 -136.66171 
L 53.433066 -129.576988 
L 52.562752 -132.73396 
L 51.692439 -132.798675 
L 50.822125 -139.67273 
L 49.951812 -125.621374 
L 49.081498 -131.566008 
L 48.211184 -132.868464 
L 47.340871 -134.538371 
L 46.470557 -125.19247 
z
" style="stroke: #bddf26; stroke-opacity: 0.8"/>
    </defs>
    <g clip-path="url(#pc088a02b8e)">
     <use xlink:href="#maf7bb3994e" x="0" y="248.075381" style="fill: #bddf26; fill-opacity: 0.8; stroke: #bddf26; stroke-opacity: 0.8"/>
    </g>
   </g>
   <g id="FillBetweenPolyCollection_2">
    <defs>
     <path id="m85cb5f720e" d="M 46.470557 -117.992659 
L 46.470557 -66.714477 
L 47.340871 -55.283694 
L 48.211184 -57.13977 
L 49.081498 -55.533662 
L 49.951812 -64.694121 
L 50.822125 -49.629914 
L 51.692439 -56.427316 
L 52.562752 -55.944999 
L 53.433066 -57.810217 
L 54.30338 -52.346868 
L 55.173693 -60.344996 
L 56.044007 -56.587549 
L 56.91432 -59.46251 
L 57.784634 -52.370943 
L 58.654948 -54.772359 
L 59.525261 -53.115786 
L 60.395575 -68.266458 
L 61.265888 -81.447817 
L 62.136202 -73.299826 
L 63.006516 -80.010766 
L 63.876829 -124.883055 
L 64.747143 -126.225085 
L 65.617456 -133.73605 
L 66.48777 -135.901741 
L 67.358084 -153.096713 
L 68.228397 -166.405722 
L 69.098711 -161.390509 
L 69.969024 -169.465335 
L 70.839338 -170.041973 
L 71.709652 -179.651653 
L 72.579965 -170.977858 
L 73.450279 -180.831613 
L 74.320593 -177.633714 
L 75.190906 -181.73595 
L 76.06122 -177.312373 
L 76.931533 -184.364692 
L 77.801847 -176.813814 
L 78.672161 -185.067398 
L 79.542474 -176.01084 
L 80.412788 -178.613068 
L 81.283101 -172.304234 
L 82.153415 -181.296797 
L 83.023729 -171.337346 
L 83.894042 -176.30879 
L 84.764356 -172.504853 
L 85.634669 -177.135246 
L 86.504983 -169.457345 
L 87.375297 -175.544983 
L 88.24561 -172.809214 
L 89.115924 -175.811043 
L 89.986237 -171.581573 
L 90.856551 -175.798183 
L 91.726865 -173.990797 
L 92.597178 -174.998587 
L 93.467492 -170.276193 
L 94.337805 -175.665337 
L 95.208119 -131.033048 
L 96.078433 -131.90665 
L 96.948746 -104.720045 
L 97.81906 -117.146045 
L 98.689373 -88.908965 
L 99.559687 -104.457647 
L 100.430001 -100.135437 
L 101.300314 -102.704093 
L 102.170628 -89.742977 
L 103.040942 -90.571842 
L 103.911255 -94.737179 
L 104.781569 -87.663605 
L 105.651882 -89.330177 
L 106.522196 -81.790579 
L 107.39251 -79.169838 
L 108.262823 -78.630514 
L 109.133137 -81.030656 
L 110.00345 -71.602208 
L 110.873764 -63.657989 
L 111.744078 -60.407022 
L 112.614391 -74.19677 
L 113.484705 -55.374979 
L 114.355018 -56.807145 
L 115.225332 -54.791491 
L 116.095646 -66.714477 
L 116.965959 -55.283694 
L 117.836273 -57.13977 
L 118.706586 -55.533662 
L 119.5769 -64.694121 
L 120.447214 -49.629914 
L 121.317527 -56.427316 
L 122.187841 -55.944999 
L 123.058154 -57.810217 
L 123.928468 -52.346868 
L 124.798782 -60.344996 
L 125.669095 -56.587549 
L 126.539409 -59.46251 
L 127.409723 -52.370943 
L 128.280036 -54.772359 
L 129.15035 -53.115786 
L 130.020663 -68.266458 
L 130.890977 -81.447817 
L 131.761291 -73.299826 
L 132.631604 -80.010766 
L 133.501918 -124.883055 
L 134.372231 -126.225085 
L 135.242545 -133.73605 
L 136.112859 -135.901741 
L 136.983172 -153.096713 
L 137.853486 -166.405722 
L 138.723799 -161.390509 
L 139.594113 -169.465335 
L 140.464427 -170.041973 
L 141.33474 -179.651653 
L 142.205054 -170.977858 
L 143.075367 -180.831613 
L 143.945681 -177.633714 
L 144.815995 -181.73595 
L 145.686308 -177.312373 
L 146.556622 -184.364692 
L 147.426935 -176.813814 
L 148.297249 -185.067398 
L 149.167563 -176.01084 
L 150.037876 -178.613068 
L 150.90819 -172.304234 
L 151.778503 -181.296797 
L 152.648817 -171.337346 
L 153.519131 -176.30879 
L 154.389444 -172.504853 
L 155.259758 -177.135246 
L 156.130072 -169.457345 
L 157.000385 -175.544983 
L 157.870699 -172.809214 
L 158.741012 -175.811043 
L 159.611326 -171.581573 
L 160.48164 -175.798183 
L 161.351953 -173.990797 
L 162.222267 -174.998587 
L 163.09258 -170.276193 
L 163.962894 -175.665337 
L 164.833208 -131.033048 
L 165.703521 -131.90665 
L 166.573835 -104.720045 
L 167.444148 -117.146045 
L 168.314462 -88.908965 
L 169.184776 -104.457647 
L 170.055089 -100.135437 
L 170.925403 -102.704093 
L 171.795716 -89.742977 
L 172.66603 -90.571842 
L 173.536344 -94.737179 
L 174.406657 -87.663605 
L 175.276971 -89.330177 
L 176.147284 -81.790579 
L 177.017598 -79.169838 
L 177.887912 -78.630514 
L 178.758225 -81.030656 
L 179.628539 -71.602208 
L 180.498852 -63.657989 
L 181.369166 -60.407022 
L 182.23948 -74.19677 
L 183.109793 -55.374979 
L 183.980107 -56.807145 
L 184.850421 -54.791491 
L 185.720734 -66.714477 
L 186.591048 -55.283694 
L 187.461361 -57.13977 
L 188.331675 -55.533662 
L 189.201989 -64.694121 
L 190.072302 -49.629914 
L 190.942616 -56.427316 
L 191.812929 -55.944999 
L 192.683243 -57.810217 
L 193.553557 -52.346868 
L 194.42387 -60.344996 
L 195.294184 -56.587549 
L 196.164497 -59.46251 
L 197.034811 -52.370943 
L 197.905125 -54.772359 
L 198.775438 -53.115786 
L 199.645752 -68.266458 
L 200.516065 -81.447817 
L 201.386379 -73.299826 
L 202.256693 -80.010766 
L 203.127006 -124.883055 
L 203.99732 -126.225085 
L 204.867633 -133.73605 
L 205.737947 -135.901741 
L 206.608261 -153.096713 
L 207.478574 -166.405722 
L 207.478574 -188.400164 
L 207.478574 -188.400164 
L 206.608261 -195.439554 
L 205.737947 -184.145767 
L 204.867633 -192.502116 
L 203.99732 -163.250391 
L 203.127006 -162.115692 
L 202.256693 -134.276345 
L 201.386379 -161.712236 
L 200.516065 -113.037661 
L 199.645752 -106.371871 
L 198.775438 -125.432313 
L 197.905125 -124.715266 
L 197.034811 -127.17213 
L 196.164497 -120.363066 
L 195.294184 -124.328153 
L 194.42387 -121.428365 
L 193.553557 -127.927037 
L 192.683243 -121.385238 
L 191.812929 -124.131181 
L 190.942616 -124.177544 
L 190.072302 -130.241267 
L 189.201989 -117.482653 
L 188.331675 -124.101726 
L 187.461361 -125.271821 
L 186.591048 -127.091853 
L 185.720734 -117.992659 
L 184.850421 -131.666946 
L 183.980107 -129.441704 
L 183.109793 -133.705208 
L 182.23948 -117.598817 
L 181.369166 -127.239124 
L 180.498852 -124.344612 
L 179.628539 -120.020734 
L 178.758225 -113.341617 
L 177.887912 -119.417691 
L 177.017598 -121.212684 
L 176.147284 -117.443863 
L 175.276971 -111.15497 
L 174.406657 -109.95438 
L 173.536344 -112.415203 
L 172.66603 -119.058521 
L 171.795716 -102.366165 
L 170.925403 -119.307609 
L 170.055089 -116.582377 
L 169.184776 -118.841486 
L 168.314462 -98.072976 
L 167.444148 -128.573191 
L 166.573835 -115.691541 
L 165.703521 -147.658741 
L 164.833208 -142.325355 
L 163.962894 -207.362751 
L 163.09258 -211.962047 
L 162.222267 -205.077954 
L 161.351953 -207.212032 
L 160.48164 -206.43895 
L 159.611326 -211.860257 
L 158.741012 -206.158691 
L 157.870699 -212.575914 
L 157.000385 -208.312228 
L 156.130072 -215.433679 
L 155.259758 -206.976836 
L 154.389444 -214.263587 
L 153.519131 -208.506591 
L 152.648817 -214.726729 
L 151.778503 -208.094686 
L 150.90819 -216.357181 
L 150.037876 -206.185831 
L 149.167563 -210.955683 
L 148.297249 -204.993462 
L 147.426935 -210.740915 
L 146.556622 -206.947665 
L 145.686308 -210.973155 
L 144.815995 -208.121833 
L 143.945681 -206.916317 
L 143.075367 -206.50739 
L 142.205054 -209.304236 
L 141.33474 -203.619471 
L 140.464427 -211.314647 
L 139.594113 -200.914398 
L 138.723799 -197.120497 
L 137.853486 -188.400164 
L 136.983172 -195.439554 
L 136.112859 -184.145767 
L 135.242545 -192.502116 
L 134.372231 -163.250391 
L 133.501918 -162.115692 
L 132.631604 -134.276345 
L 131.761291 -161.712236 
L 130.890977 -113.037661 
L 130.020663 -106.371871 
L 129.15035 -125.432313 
L 128.280036 -124.715266 
L 127.409723 -127.17213 
L 126.539409 -120.363066 
L 125.669095 -124.328153 
L 124.798782 -121.428365 
L 123.928468 -127.927037 
L 123.058154 -121.385238 
L 122.187841 -124.131181 
L 121.317527 -124.177544 
L 120.447214 -130.241267 
L 119.5769 -117.482653 
L 118.706586 -124.101726 
L 117.836273 -125.271821 
L 116.965959 -127.091853 
L 116.095646 -117.992659 
L 115.225332 -131.666946 
L 114.355018 -129.441704 
L 113.484705 -133.705208 
L 112.614391 -117.598817 
L 111.744078 -127.239124 
L 110.873764 -124.344612 
L 110.00345 -120.020734 
L 109.133137 -113.341617 
L 108.262823 -119.417691 
L 107.39251 -121.212684 
L 106.522196 -117.443863 
L 105.651882 -111.15497 
L 104.781569 -109.95438 
L 103.911255 -112.415203 
L 103.040942 -119.058521 
L 102.170628 -102.366165 
L 101.300314 -119.307609 
L 100.430001 -116.582377 
L 99.559687 -118.841486 
L 98.689373 -98.072976 
L 97.81906 -128.573191 
L 96.948746 -115.691541 
L 96.078433 -147.658741 
L 95.208119 -142.325355 
L 94.337805 -207.362751 
L 93.467492 -211.962047 
L 92.597178 -205.077954 
L 91.726865 -207.212032 
L 90.856551 -206.43895 
L 89.986237 -211.860257 
L 89.115924 -206.158691 
L 88.24561 -212.575914 
L 87.375297 -208.312228 
L 86.504983 -215.433679 
L 85.634669 -206.976836 
L 84.764356 -214.263587 
L 83.894042 -208.506591 
L 83.023729 -214.726729 
L 82.153415 -208.094686 
L 81.283101 -216.357181 
L 80.412788 -206.185831 
L 79.542474 -210.955683 
L 78.672161 -204.993462 
L 77.801847 -210.740915 
L 76.931533 -206.947665 
L 76.06122 -210.973155 
L 75.190906 -208.121833 
L 74.320593 -206.916317 
L 73.450279 -206.50739 
L 72.579965 -209.304236 
L 71.709652 -203.619471 
L 70.839338 -211.314647 
L 69.969024 -200.914398 
L 69.098711 -197.120497 
L 68.228397 -188.400164 
L 67.358084 -195.439554 
L 66.48777 -184.145767 
L 65.617456 -192.502116 
L 64.747143 -163.250391 
L 63.876829 -162.115692 
L 63.006516 -134.276345 
L 62.136202 -161.712236 
L 61.265888 -113.037661 
L 60.395575 -106.371871 
L 59.525261 -125.432313 
L 58.654948 -124.715266 
L 57.784634 -127.17213 
L 56.91432 -120.363066 
L 56.044007 -124.328153 
L 55.173693 -121.428365 
L 54.30338 -127.927037 
L 53.433066 -121.385238 
L 52.562752 -124.131181 
L 51.692439 -124.177544 
L 50.822125 -130.241267 
L 49.951812 -117.482653 
L 49.081498 -124.101726 
L 48.211184 -125.271821 
L 47.340871 -127.091853 
L 46.470557 -117.992659 
z
" style="stroke: #21918c; stroke-opacity: 0.8"/>
    </defs>
    <g clip-path="url(#pc088a02b8e)">
     <use xlink:href="#m85cb5f720e" x="0" y="248.075381" style="fill: #21918c; fill-opacity: 0.8; stroke: #21918c; stroke-opacity: 0.8"/>
    </g>
   </g>
   <g id="line2d_24">
    <path d="M 46.470557 155.721811 
L 47.340871 156.887608 
L 48.211184 156.869586 
L 49.081498 158.257689 
L 49.951812 156.986995 
L 50.822125 158.139789 
L 51.692439 157.772952 
L 52.562752 158.037293 
L 53.433066 158.477652 
L 54.30338 157.93843 
L 55.173693 157.188703 
L 56.91432 158.162594 
L 57.784634 158.303845 
L 58.654948 158.331571 
L 59.525261 158.801333 
L 60.395575 160.756217 
L 61.265888 150.832643 
L 62.136202 130.569349 
L 63.006516 140.931826 
L 63.876829 104.576008 
L 64.747143 103.337643 
L 65.617456 84.956298 
L 66.48777 88.051627 
L 67.358084 73.807248 
L 68.228397 70.672438 
L 69.098711 68.819879 
L 70.839338 57.397071 
L 71.709652 56.439819 
L 72.579965 57.934335 
L 73.450279 54.405882 
L 74.320593 55.800366 
L 75.190906 53.146489 
L 76.06122 53.932617 
L 76.931533 52.419203 
L 77.801847 54.298017 
L 78.672161 53.044951 
L 79.542474 54.59212 
L 80.412788 55.675932 
L 81.283101 53.744676 
L 82.153415 53.37964 
L 83.023729 55.043344 
L 83.894042 55.667691 
L 84.764356 54.691161 
L 85.634669 56.019342 
L 86.504983 55.629867 
L 87.375297 56.146776 
L 88.24561 55.382816 
L 89.115924 57.090513 
L 89.986237 56.354468 
L 92.597178 58.037111 
L 93.467492 56.956261 
L 94.337805 56.561337 
L 95.208119 111.39618 
L 96.078433 108.292686 
L 96.948746 137.869588 
L 97.81906 125.215763 
L 98.689373 154.584411 
L 99.559687 136.425815 
L 100.430001 139.716474 
L 101.300314 137.06953 
L 102.170628 152.020811 
L 103.040942 143.260201 
L 103.911255 144.499191 
L 104.781569 149.26639 
L 105.651882 147.832808 
L 106.522196 148.45816 
L 107.39251 147.884121 
L 108.262823 149.051279 
L 109.133137 150.889245 
L 110.00345 152.263909 
L 110.873764 154.07408 
L 111.744078 154.252306 
L 112.614391 152.177586 
L 114.355018 154.950957 
L 115.225332 154.846161 
L 116.095646 155.721811 
L 116.965959 156.887608 
L 117.836273 156.869586 
L 118.706586 158.257689 
L 119.5769 156.986995 
L 120.447214 158.139789 
L 121.317527 157.772952 
L 122.187841 158.037293 
L 123.058154 158.477652 
L 123.928468 157.93843 
L 124.798782 157.188703 
L 126.539409 158.162594 
L 127.409723 158.303845 
L 128.280036 158.331571 
L 129.15035 158.801333 
L 130.020663 160.756217 
L 130.890977 150.832643 
L 131.761291 130.569349 
L 132.631604 140.931826 
L 133.501918 104.576008 
L 134.372231 103.337643 
L 135.242545 84.956298 
L 136.112859 88.051627 
L 136.983172 73.807248 
L 137.853486 70.672438 
L 138.723799 68.819879 
L 140.464427 57.397071 
L 141.33474 56.439819 
L 142.205054 57.934335 
L 143.075367 54.405882 
L 143.945681 55.800366 
L 144.815995 53.146489 
L 145.686308 53.932617 
L 146.556622 52.419203 
L 147.426935 54.298017 
L 148.297249 53.044951 
L 149.167563 54.59212 
L 150.037876 55.675932 
L 150.90819 53.744676 
L 151.778503 53.37964 
L 152.648817 55.043344 
L 153.519131 55.667691 
L 154.389444 54.691161 
L 155.259758 56.019342 
L 156.130072 55.629867 
L 157.000385 56.146776 
L 157.870699 55.382816 
L 158.741012 57.090513 
L 159.611326 56.354468 
L 162.222267 58.037111 
L 163.09258 56.956261 
L 163.962894 56.561337 
L 164.833208 111.39618 
L 165.703521 108.292686 
L 166.573835 137.869588 
L 167.444148 125.215763 
L 168.314462 154.584411 
L 169.184776 136.425815 
L 170.055089 139.716474 
L 170.925403 137.06953 
L 171.795716 152.020811 
L 172.66603 143.260201 
L 173.536344 144.499191 
L 174.406657 149.26639 
L 175.276971 147.832808 
L 176.147284 148.45816 
L 177.017598 147.884121 
L 177.887912 149.051279 
L 178.758225 150.889245 
L 179.628539 152.263909 
L 180.498852 154.07408 
L 181.369166 154.252306 
L 182.23948 152.177586 
L 183.980107 154.950957 
L 184.850421 154.846161 
L 185.720734 155.721811 
L 186.591048 156.887608 
L 187.461361 156.869586 
L 188.331675 158.257689 
L 189.201989 156.986995 
L 190.072302 158.139789 
L 190.942616 157.772952 
L 191.812929 158.037293 
L 192.683243 158.477652 
L 193.553557 157.93843 
L 194.42387 157.188703 
L 196.164497 158.162594 
L 197.034811 158.303845 
L 197.905125 158.331571 
L 198.775438 158.801333 
L 199.645752 160.756217 
L 200.516065 150.832643 
L 201.386379 130.569349 
L 202.256693 140.931826 
L 203.127006 104.576008 
L 203.99732 103.337643 
L 204.867633 84.956298 
L 205.737947 88.051627 
L 206.608261 73.807248 
L 207.478574 70.672438 
L 207.478574 70.672438 
" clip-path="url(#pc088a02b8e)" style="fill: none; stroke: #482475; stroke-linecap: round"/>
   </g>
   <g id="patch_6">
    <path d="M 38.420156 216.9046 
L 38.420156 18.295781 
" style="fill: none; stroke: #000000; stroke-width: 0.8; stroke-linejoin: miter; stroke-linecap: square"/>
   </g>
   <g id="patch_7">
    <path d="M 215.528975 216.9046 
L 215.528975 18.295781 
" style="fill: none; stroke: #000000; stroke-width: 0.8; stroke-linejoin: miter; stroke-linecap: square"/>
   </g>
   <g id="patch_8">
    <path d="M 38.420156 216.9046 
L 215.528975 216.9046 
" style="fill: none; stroke: #000000; stroke-width: 0.8; stroke-linejoin: miter; stroke-linecap: square"/>
   </g>
   <g id="patch_9">
    <path d="M 38.420156 18.295781 
L 215.528975 18.295781 
" style="fill: none; stroke: #000000; stroke-width: 0.8; stroke-linejoin: miter; stroke-linecap: square"/>
   </g>
   <g id="legend_1">
    <g id="patch_10">
     <path d="M 143.380538 50.705937 
L 212.028975 50.705937 
Q 213.028975 50.705937 213.028975 49.705937 
L 213.028975 21.795781 
Q 213.028975 20.795781 212.028975 20.795781 
L 143.380538 20.795781 
Q 142.380538 20.795781 142.380538 21.795781 
L 142.380538 49.705937 
Q 142.380538 50.705937 143.380538 50.705937 
z
" style="fill: #ffffff; stroke: #cccccc; stroke-linejoin: miter"/>
    </g>
    <g id="patch_11">
     <path d="M 144.380538 26.374687 
L 154.380538 26.374687 
L 154.380538 22.874687 
L 144.380538 22.874687 
z
" style="fill: #bddf26; fill-opacity: 0.8; stroke: #bddf26; stroke-opacity: 0.8; stroke-linejoin: miter"/>
    </g>
    <g id="text_25">
     <!-- 99.7% Conf. Student's-t -->
     <g style="fill: #262626" transform="translate(158.380538 26.374687) scale(0.05 -0.05)">
      <defs>
       <path id="ArialMT-39" d="M 350 1059 
L 891 1109 
Q 959 728 1153 556 
Q 1347 384 1650 384 
Q 1909 384 2104 503 
Q 2300 622 2425 820 
Q 2550 1019 2634 1356 
Q 2719 1694 2719 2044 
Q 2719 2081 2716 2156 
Q 2547 1888 2255 1720 
Q 1963 1553 1622 1553 
Q 1053 1553 659 1965 
Q 266 2378 266 3053 
Q 266 3750 677 4175 
Q 1088 4600 1706 4600 
Q 2153 4600 2523 4359 
Q 2894 4119 3086 3673 
Q 3278 3228 3278 2384 
Q 3278 1506 3087 986 
Q 2897 466 2520 194 
Q 2144 -78 1638 -78 
Q 1100 -78 759 220 
Q 419 519 350 1059 
z
M 2653 3081 
Q 2653 3566 2395 3850 
Q 2138 4134 1775 4134 
Q 1400 4134 1122 3828 
Q 844 3522 844 3034 
Q 844 2597 1108 2323 
Q 1372 2050 1759 2050 
Q 2150 2050 2401 2323 
Q 2653 2597 2653 3081 
z
" transform="scale(0.015625)"/>
       <path id="ArialMT-37" d="M 303 3981 
L 303 4522 
L 3269 4522 
L 3269 4084 
Q 2831 3619 2401 2847 
Q 1972 2075 1738 1259 
Q 1569 684 1522 0 
L 944 0 
Q 953 541 1156 1306 
Q 1359 2072 1739 2783 
Q 2119 3494 2547 3981 
L 303 3981 
z
" transform="scale(0.015625)"/>
       <path id="ArialMT-25" d="M 372 3481 
Q 372 3972 619 4315 
Q 866 4659 1334 4659 
Q 1766 4659 2048 4351 
Q 2331 4044 2331 3447 
Q 2331 2866 2045 2552 
Q 1759 2238 1341 2238 
Q 925 2238 648 2547 
Q 372 2856 372 3481 
z
M 1350 4272 
Q 1141 4272 1002 4090 
Q 863 3909 863 3425 
Q 863 2984 1003 2804 
Q 1144 2625 1350 2625 
Q 1563 2625 1702 2806 
Q 1841 2988 1841 3469 
Q 1841 3913 1700 4092 
Q 1559 4272 1350 4272 
z
M 1353 -169 
L 3859 4659 
L 4316 4659 
L 1819 -169 
L 1353 -169 
z
M 3334 1075 
Q 3334 1569 3581 1911 
Q 3828 2253 4300 2253 
Q 4731 2253 5014 1945 
Q 5297 1638 5297 1041 
Q 5297 459 5011 145 
Q 4725 -169 4303 -169 
Q 3888 -169 3611 142 
Q 3334 453 3334 1075 
z
M 4316 1866 
Q 4103 1866 3964 1684 
Q 3825 1503 3825 1019 
Q 3825 581 3965 400 
Q 4106 219 4313 219 
Q 4528 219 4667 400 
Q 4806 581 4806 1063 
Q 4806 1506 4665 1686 
Q 4525 1866 4316 1866 
z
" transform="scale(0.015625)"/>
       <path id="ArialMT-27" d="M 425 2959 
L 281 3816 
L 281 4581 
L 922 4581 
L 922 3816 
L 772 2959 
L 425 2959 
z
" transform="scale(0.015625)"/>
       <path id="ArialMT-2d" d="M 203 1375 
L 203 1941 
L 1931 1941 
L 1931 1375 
L 203 1375 
z
" transform="scale(0.015625)"/>
      </defs>
      <use xlink:href="#ArialMT-39"/>
      <use xlink:href="#ArialMT-39" transform="translate(55.615234 0)"/>
      <use xlink:href="#ArialMT-2e" transform="translate(111.230469 0)"/>
      <use xlink:href="#ArialMT-37" transform="translate(139.013672 0)"/>
      <use xlink:href="#ArialMT-25" transform="translate(194.628906 0)"/>
      <use xlink:href="#ArialMT-20" transform="translate(283.544922 0)"/>
      <use xlink:href="#ArialMT-43" transform="translate(311.328125 0)"/>
      <use xlink:href="#ArialMT-6f" transform="translate(383.544922 0)"/>
      <use xlink:href="#ArialMT-6e" transform="translate(439.160156 0)"/>
      <use xlink:href="#ArialMT-66" transform="translate(494.775391 0)"/>
      <use xlink:href="#ArialMT-2e" transform="translate(522.558594 0)"/>
      <use xlink:href="#ArialMT-20" transform="translate(550.341797 0)"/>
      <use xlink:href="#ArialMT-53" transform="translate(578.125 0)"/>
      <use xlink:href="#ArialMT-74" transform="translate(644.824219 0)"/>
      <use xlink:href="#ArialMT-75" transform="translate(672.607422 0)"/>
      <use xlink:href="#ArialMT-64" transform="translate(728.222656 0)"/>
      <use xlink:href="#ArialMT-65" transform="translate(783.837891 0)"/>
      <use xlink:href="#ArialMT-6e" transform="translate(839.453125 0)"/>
      <use xlink:href="#ArialMT-74" transform="translate(895.068359 0)"/>
      <use xlink:href="#ArialMT-27" transform="translate(922.851562 0)"/>
      <use xlink:href="#ArialMT-73" transform="translate(941.943359 0)"/>
      <use xlink:href="#ArialMT-2d" transform="translate(991.943359 0)"/>
      <use xlink:href="#ArialMT-74" transform="translate(1025.244141 0)"/>
     </g>
    </g>
    <g id="patch_12">
     <path d="M 144.380538 33.447344 
L 154.380538 33.447344 
L 154.380538 29.947344 
L 144.380538 29.947344 
z
" style="fill: #21918c; fill-opacity: 0.8; stroke: #21918c; stroke-opacity: 0.8; stroke-linejoin: miter"/>
    </g>
    <g id="text_26">
     <!-- ±3 Std Dev -->
     <g style="fill: #262626" transform="translate(158.380538 33.447344) scale(0.05 -0.05)">
      <defs>
       <path id="ArialMT-b1" d="M 1491 813 
L 1491 2072 
L 244 2072 
L 244 2594 
L 1491 2594 
L 1491 3841 
L 2022 3841 
L 2022 2594 
L 3269 2594 
L 3269 2072 
L 2022 2072 
L 2022 813 
L 1491 813 
z
M 3269 0 
L 244 0 
L 244 525 
L 3269 525 
L 3269 0 
z
" transform="scale(0.015625)"/>
       <path id="ArialMT-44" d="M 494 0 
L 494 4581 
L 2072 4581 
Q 2606 4581 2888 4516 
Q 3281 4425 3559 4188 
Q 3922 3881 4101 3404 
Q 4281 2928 4281 2316 
Q 4281 1794 4159 1391 
Q 4038 988 3847 723 
Q 3656 459 3429 307 
Q 3203 156 2883 78 
Q 2563 0 2147 0 
L 494 0 
z
M 1100 541 
L 2078 541 
Q 2531 541 2789 625 
Q 3047 709 3200 863 
Q 3416 1078 3536 1442 
Q 3656 1806 3656 2325 
Q 3656 3044 3420 3430 
Q 3184 3816 2847 3947 
Q 2603 4041 2063 4041 
L 1100 4041 
L 1100 541 
z
" transform="scale(0.015625)"/>
      </defs>
      <use xlink:href="#ArialMT-b1"/>
      <use xlink:href="#ArialMT-33" transform="translate(54.882812 0)"/>
      <use xlink:href="#ArialMT-20" transform="translate(110.498047 0)"/>
      <use xlink:href="#ArialMT-53" transform="translate(138.28125 0)"/>
      <use xlink:href="#ArialMT-74" transform="translate(204.980469 0)"/>
      <use xlink:href="#ArialMT-64" transform="translate(232.763672 0)"/>
      <use xlink:href="#ArialMT-20" transform="translate(288.378906 0)"/>
      <use xlink:href="#ArialMT-44" transform="translate(316.162109 0)"/>
      <use xlink:href="#ArialMT-65" transform="translate(388.378906 0)"/>
      <use xlink:href="#ArialMT-76" transform="translate(443.994141 0)"/>
     </g>
    </g>
    <g id="line2d_25">
     <path d="M 144.380538 38.77 
L 149.380538 38.77 
L 154.380538 38.77 
" style="fill: none; stroke: #482475; stroke-linecap: round"/>
    </g>
    <g id="text_27">
     <!-- Predicted Mean -->
     <g style="fill: #262626" transform="translate(158.380538 40.52) scale(0.05 -0.05)">
      <use xlink:href="#ArialMT-50"/>
      <use xlink:href="#ArialMT-72" transform="translate(66.699219 0)"/>
      <use xlink:href="#ArialMT-65" transform="translate(100 0)"/>
      <use xlink:href="#ArialMT-64" transform="translate(155.615234 0)"/>
      <use xlink:href="#ArialMT-69" transform="translate(211.230469 0)"/>
      <use xlink:href="#ArialMT-63" transform="translate(233.447266 0)"/>
      <use xlink:href="#ArialMT-74" transform="translate(283.447266 0)"/>
      <use xlink:href="#ArialMT-65" transform="translate(311.230469 0)"/>
      <use xlink:href="#ArialMT-64" transform="translate(366.845703 0)"/>
      <use xlink:href="#ArialMT-20" transform="translate(422.460938 0)"/>
      <use xlink:href="#ArialMT-4d" transform="translate(450.244141 0)"/>
      <use xlink:href="#ArialMT-65" transform="translate(533.544922 0)"/>
      <use xlink:href="#ArialMT-61" transform="translate(589.160156 0)"/>
      <use xlink:href="#ArialMT-6e" transform="translate(644.775391 0)"/>
     </g>
    </g>
    <g id="line2d_26">
     <path d="M 144.380538 45.903594 
L 149.380538 45.903594 
L 154.380538 45.903594 
" style="fill: none; stroke-dasharray: 3.7,1.6; stroke-dashoffset: 0; stroke: #000000; stroke-opacity: 0.8"/>
    </g>
    <g id="text_28">
     <!-- Input Signal -->
     <g style="fill: #262626" transform="translate(158.380538 47.653594) scale(0.05 -0.05)">
      <use xlink:href="#ArialMT-49"/>
      <use xlink:href="#ArialMT-6e" transform="translate(27.783203 0)"/>
      <use xlink:href="#ArialMT-70" transform="translate(83.398438 0)"/>
      <use xlink:href="#ArialMT-75" transform="translate(139.013672 0)"/>
      <use xlink:href="#ArialMT-74" transform="translate(194.628906 0)"/>
      <use xlink:href="#ArialMT-20" transform="translate(222.412109 0)"/>
      <use xlink:href="#ArialMT-53" transform="translate(250.195312 0)"/>
      <use xlink:href="#ArialMT-69" transform="translate(316.894531 0)"/>
      <use xlink:href="#ArialMT-67" transform="translate(339.111328 0)"/>
      <use xlink:href="#ArialMT-6e" transform="translate(394.726562 0)"/>
      <use xlink:href="#ArialMT-61" transform="translate(450.341797 0)"/>
      <use xlink:href="#ArialMT-6c" transform="translate(505.957031 0)"/>
     </g>
    </g>
   </g>
  </g>
 </g>
 <defs>
  <clipPath id="pc088a02b8e">
   <rect x="38.420156" y="18.295781" width="177.108819" height="198.608819"/>
  </clipPath>
 </defs>
</svg>
